M48
;DRILL file {KiCad 4.0.7} date 10/16/19 18:47:02
;FORMAT={-:-/ absolute / metric / decimal}
FMAT,2
METRIC,TZ
T1C0.400
T2C0.500
T3C0.800
T4C0.810
T5C0.900
T6C1.000
T7C1.100
T8C2.300
%
G90
G05
M71
T1
X56.383Y-93.599
X56.606Y-97.036
X56.69Y-95.247
X56.998Y-86.782
X57.221Y-91.448
X57.389Y-97.874
X57.417Y-87.955
X57.445Y-89.576
X58.141Y-38.024
X58.141Y-83.668
X58.199Y-39.591
X58.227Y-41.128
X58.255Y-43.195
X58.293Y-68.542
X58.293Y-73.571
X58.293Y-76.01
X58.311Y-45.514
X58.311Y-50.739
X58.331Y-71.171
X58.339Y-60.797
X58.367Y-63.424
X58.367Y-65.994
X58.395Y-53.142
X58.4Y-89.428
X58.407Y-78.6
X58.407Y-81.153
X58.423Y-99.299
X58.478Y-55.656
X58.506Y-48.197
X58.562Y-58.45
X58.636Y-35.662
X58.887Y-87.295
X58.941Y-32.347
X59.182Y-37.655
X59.568Y-100.36
X59.969Y-31.432
X60.071Y-101.45
X61.303Y-31.394
X61.412Y-102.735
X62.674Y-103.251
X62.865Y-31.432
X63.055Y-62.293
X63.614Y-63.944
X63.792Y-50.785
X64.351Y-103.518
X64.511Y-51.676
X65.176Y-40.437
X65.913Y-103.556
X66.294Y-31.623
X67.107Y-57.127
X67.447Y-103.657
X68.199Y-53.975
X68.473Y-58.339
X68.516Y-42.862
X68.534Y-55.397
X68.557Y-52.591
X68.77Y-31.471
X68.819Y-49.957
X69.068Y-103.713
X69.342Y-40.894
X69.342Y-44.196
X69.659Y-48.895
X70.074Y-52.852
X70.206Y-78.435
X70.239Y-54.785
X70.465Y-103.769
X70.675Y-43.752
X70.675Y-47.561
X70.866Y-69.139
X71.438Y-31.28
X71.862Y-103.713
X72.212Y-56.21
X72.288Y-54.61
X72.339Y-88.29
X72.644Y-63.271
X73.076Y-61.798
X73.259Y-103.546
X73.381Y-49.743
X73.482Y-60.376
X74.295Y-59.36
X74.524Y-31.509
X74.544Y-103.49
X74.737Y-52.266
X74.739Y-57.594
X75.941Y-103.49
X76.2Y-31.623
X77.617Y-103.769
X78.435Y-42.103
X78.448Y-31.547
X78.847Y-93.878
X78.847Y-95.499
X78.847Y-98.628
X78.958Y-91.978
X78.958Y-97.064
X79.182Y-89.967
X79.182Y-103.657
X79.238Y-88.011
X79.266Y-48.169
X79.324Y-53.188
X79.324Y-76.086
X79.362Y-32.842
X79.4Y-71.247
X79.4Y-78.676
X79.4Y-81.496
X79.405Y-86.167
X79.438Y-38.176
X79.438Y-55.893
X79.438Y-58.483
X79.438Y-66.065
X79.438Y-68.77
X79.438Y-73.609
X79.477Y-60.998
X79.515Y-50.635
X79.515Y-63.589
X79.553Y-35.433
X79.573Y-84.491
X80.02Y-40.848
X80.104Y-45.626
X80.132Y-43.111
X80.355Y-103.154
X80.747Y-100.249
X80.775Y-98.908
X80.858Y-101.646
T2
X71.882Y-48.768
X73.782Y-48.768
T3
X58.064Y-95.062
X58.064Y-102.682
X58.141Y-85.232
X58.141Y-92.852
X61.153Y-93.497
X63.653Y-93.497
X64.516Y-45.466
X64.516Y-47.966
X64.709Y-80.076
X64.709Y-82.576
X64.732Y-74.386
X64.732Y-76.886
X64.77Y-36.83
X66.621Y-41.021
X66.865Y-62.166
X67.27Y-36.83
X67.627Y-45.466
X67.627Y-47.966
X69.365Y-62.166
X70.485Y-85.217
X70.485Y-92.837
X70.866Y-36.83
X70.866Y-45.466
X71.501Y-41.021
X73.366Y-36.83
X73.366Y-45.466
X73.533Y-85.09
X73.533Y-92.71
X76.835Y-85.471
X76.835Y-93.091
T4
X71.415Y-96.586
X71.415Y-98.586
X73.955Y-96.586
X73.955Y-98.586
T5
X62.22Y-97.932
X62.22Y-100.472
T6
X61.11Y-34.158
X61.11Y-36.698
X61.11Y-39.238
X61.11Y-41.778
X61.11Y-44.318
X61.11Y-46.858
X61.11Y-49.398
X61.11Y-51.938
X61.11Y-54.478
X61.11Y-57.018
X61.11Y-59.558
X61.11Y-62.098
X61.11Y-64.638
X61.11Y-67.178
X61.11Y-69.718
X61.11Y-72.258
X61.11Y-74.798
X61.11Y-77.338
X61.11Y-79.878
X61.11Y-82.418
X65.075Y-33.807
X66.027Y-70.942
X66.04Y-64.834
X66.04Y-67.373
X67.615Y-33.807
X68.567Y-70.942
X68.58Y-64.834
X68.58Y-67.373
X70.155Y-33.807
X71.107Y-70.942
X71.12Y-64.834
X71.12Y-67.373
X72.695Y-33.807
X76.35Y-34.158
X76.35Y-36.698
X76.35Y-39.238
X76.35Y-41.778
X76.35Y-44.318
X76.35Y-46.858
X76.35Y-49.398
X76.35Y-51.938
X76.35Y-54.478
X76.35Y-57.018
X76.35Y-59.558
X76.35Y-62.098
X76.35Y-64.638
X76.35Y-67.178
X76.35Y-69.718
X76.35Y-72.258
X76.35Y-74.798
X76.35Y-77.338
X76.35Y-79.878
X76.35Y-82.418
T7
X60.96Y-86.106
X60.96Y-90.606
X67.46Y-86.106
X67.46Y-90.606
X69.05Y-74.587
X69.05Y-82.207
X72.2Y-74.447
X72.2Y-82.067
T8
X66.685Y-101.286
X78.685Y-101.286
T0
M30
