G04 #@! TF.FileFunction,Copper,L2,Bot,Signal*
%FSLAX46Y46*%
G04 Gerber Fmt 4.6, Leading zero omitted, Abs format (unit mm)*
G04 Created by KiCad (PCBNEW 4.0.7) date 10/16/19 18:47:00*
%MOMM*%
%LPD*%
G01*
G04 APERTURE LIST*
%ADD10C,0.100000*%
%ADD11R,1.700000X1.700000*%
%ADD12O,1.700000X1.700000*%
%ADD13C,1.600000*%
%ADD14C,1.500000*%
%ADD15C,1.000000*%
%ADD16R,1.600000X1.600000*%
%ADD17R,1.800000X1.800000*%
%ADD18C,1.800000*%
%ADD19R,2.200000X2.200000*%
%ADD20O,2.200000X2.200000*%
%ADD21C,1.520000*%
%ADD22C,2.700000*%
%ADD23C,2.000000*%
%ADD24O,1.600000X1.600000*%
%ADD25O,1.800000X1.800000*%
%ADD26C,0.600000*%
%ADD27C,0.250000*%
%ADD28C,0.500000*%
G04 APERTURE END LIST*
D10*
D11*
X61110000Y-34158000D03*
D12*
X61110000Y-36698000D03*
X61110000Y-39238000D03*
X61110000Y-41778000D03*
X61110000Y-44318000D03*
X61110000Y-46858000D03*
X61110000Y-49398000D03*
X61110000Y-51938000D03*
X61110000Y-54478000D03*
X61110000Y-57018000D03*
X61110000Y-59558000D03*
X61110000Y-62098000D03*
X61110000Y-64638000D03*
X61110000Y-67178000D03*
X61110000Y-69718000D03*
X61110000Y-72258000D03*
X61110000Y-74798000D03*
X61110000Y-77338000D03*
X61110000Y-79878000D03*
X61110000Y-82418000D03*
D11*
X76350000Y-34158000D03*
D12*
X76350000Y-36698000D03*
X76350000Y-39238000D03*
X76350000Y-41778000D03*
X76350000Y-44318000D03*
X76350000Y-46858000D03*
X76350000Y-49398000D03*
X76350000Y-51938000D03*
X76350000Y-54478000D03*
X76350000Y-57018000D03*
X76350000Y-59558000D03*
X76350000Y-62098000D03*
X76350000Y-64638000D03*
X76350000Y-67178000D03*
X76350000Y-69718000D03*
X76350000Y-72258000D03*
X76350000Y-74798000D03*
X76350000Y-77338000D03*
X76350000Y-79878000D03*
X76350000Y-82418000D03*
D13*
X67627500Y-45466000D03*
X67627500Y-47966000D03*
X64516000Y-45466000D03*
X64516000Y-47966000D03*
X70866000Y-36830000D03*
X73366000Y-36830000D03*
X64770000Y-36830000D03*
X67270000Y-36830000D03*
D11*
X72694800Y-33807400D03*
D12*
X70154800Y-33807400D03*
X67614800Y-33807400D03*
X65074800Y-33807400D03*
D14*
X71501000Y-41021000D03*
X66621000Y-41021000D03*
D15*
X71882000Y-48768000D03*
X73782000Y-48768000D03*
D13*
X70866000Y-45466000D03*
X73366000Y-45466000D03*
D16*
X64709040Y-80076040D03*
D13*
X64709040Y-82576040D03*
X66865500Y-62166500D03*
X69365500Y-62166500D03*
D16*
X64731900Y-76885800D03*
D13*
X64731900Y-74385800D03*
X61153040Y-93497400D03*
X63653040Y-93497400D03*
D17*
X62219840Y-100472240D03*
D18*
X62219840Y-97932240D03*
D19*
X69049900Y-74587100D03*
D20*
X69049900Y-82207100D03*
D19*
X72199500Y-74447400D03*
D20*
X72199500Y-82067400D03*
D21*
X71414640Y-96586040D03*
X73954640Y-96586040D03*
X73954640Y-98586040D03*
X71414640Y-98586040D03*
D22*
X66684640Y-101286040D03*
X78684640Y-101286040D03*
D11*
X71120000Y-64833500D03*
D12*
X71120000Y-67373500D03*
X68580000Y-64833500D03*
X68580000Y-67373500D03*
X66040000Y-64833500D03*
X66040000Y-67373500D03*
D23*
X60960000Y-90606000D03*
X60960000Y-86106000D03*
X67460000Y-90606000D03*
X67460000Y-86106000D03*
D13*
X70485000Y-85217000D03*
D24*
X70485000Y-92837000D03*
D13*
X73533000Y-85090000D03*
D24*
X73533000Y-92710000D03*
D13*
X76835000Y-85471000D03*
D24*
X76835000Y-93091000D03*
D13*
X58140600Y-85232240D03*
D24*
X58140600Y-92852240D03*
D13*
X58064400Y-95062040D03*
D24*
X58064400Y-102682040D03*
D17*
X66027300Y-70942200D03*
D25*
X68567300Y-70942200D03*
X71107300Y-70942200D03*
D26*
X68557140Y-52590700D03*
X58887360Y-87294720D03*
X58399680Y-89428320D03*
X59182000Y-37655500D03*
X68534280Y-55397400D03*
X68473320Y-58338720D03*
X78846680Y-98628200D03*
X78958440Y-97063560D03*
X78846680Y-95498920D03*
X78846680Y-93878400D03*
X78958440Y-91978480D03*
X79181960Y-89966800D03*
X79237840Y-88011000D03*
X79405480Y-86166960D03*
X79573120Y-84490560D03*
X79400400Y-81495900D03*
X79400400Y-78676500D03*
X79324200Y-76085700D03*
X79438500Y-73609200D03*
X79400400Y-71247000D03*
X79438500Y-68770500D03*
X79438500Y-66065400D03*
X79514700Y-63588900D03*
X79476600Y-60998100D03*
X79438500Y-58483500D03*
X79438500Y-55892700D03*
X79324200Y-53187600D03*
X79514700Y-50634900D03*
X79265780Y-48168560D03*
X80103980Y-45626020D03*
X80131920Y-43111420D03*
X80020160Y-40848280D03*
X79438500Y-38176200D03*
X79552800Y-35433000D03*
X79362300Y-32842200D03*
X78447900Y-31546800D03*
X76200000Y-31623000D03*
X74523600Y-31508700D03*
X71437500Y-31280100D03*
X68770500Y-31470600D03*
X66294000Y-31623000D03*
X80774540Y-98907600D03*
X80746600Y-100248720D03*
X80858360Y-101645720D03*
X80355440Y-103154480D03*
X79181960Y-103657400D03*
X77617320Y-103769160D03*
X75940920Y-103489760D03*
X74543920Y-103489760D03*
X73258680Y-103545640D03*
X71861680Y-103713280D03*
X70464680Y-103769160D03*
X69067680Y-103713280D03*
X67447160Y-103657400D03*
X65913000Y-103555800D03*
X64350900Y-103517700D03*
X62674500Y-103251000D03*
X61412120Y-102735380D03*
X60071000Y-101450140D03*
X59568080Y-100360480D03*
X58422540Y-99298760D03*
X57388760Y-97873820D03*
X56606440Y-97035620D03*
X56690260Y-95247460D03*
X56382920Y-93599000D03*
X57221120Y-91447620D03*
X57444640Y-89575640D03*
X57416700Y-87955120D03*
X56997600Y-86781640D03*
X58140600Y-83667600D03*
X58407300Y-81153000D03*
X58407300Y-78600300D03*
X58293000Y-76009500D03*
X58293000Y-73571100D03*
X58331100Y-71170800D03*
X58293000Y-68541900D03*
X58366660Y-65994280D03*
X58366660Y-63423800D03*
X58338720Y-60797440D03*
X58562240Y-58450480D03*
X58478420Y-55656480D03*
X58394600Y-53141880D03*
X58310780Y-50739040D03*
X58506360Y-48196500D03*
X58310780Y-45514260D03*
X58254900Y-43195240D03*
X58226960Y-41127680D03*
X58199020Y-39590980D03*
X58140600Y-38023800D03*
X58635900Y-35661600D03*
X58940700Y-32346900D03*
X59969400Y-31432500D03*
X61302900Y-31394400D03*
X62865000Y-31432500D03*
X64510920Y-51676300D03*
X70073520Y-52852320D03*
X72212200Y-56210200D03*
X69342000Y-40894000D03*
X65176400Y-40436800D03*
X70866000Y-69138800D03*
X70205600Y-78435200D03*
X72339200Y-88290400D03*
X70675500Y-43751500D03*
X69659500Y-48895000D03*
X68516500Y-42862500D03*
X69342000Y-44196000D03*
X68199000Y-53975000D03*
X70675500Y-47561500D03*
X78435200Y-42103040D03*
X74739500Y-57594500D03*
X68818760Y-49956720D03*
X63792100Y-50784760D03*
X73380600Y-49743360D03*
X74736960Y-52265580D03*
X72288400Y-54610000D03*
X74295000Y-59359800D03*
X63055500Y-62293500D03*
X73482200Y-60375800D03*
X63614300Y-63944500D03*
X73075800Y-61798200D03*
X72644000Y-63271400D03*
X70238620Y-54785260D03*
X67106800Y-57127140D03*
D27*
X59992260Y-53007260D02*
X60134500Y-53149500D01*
X63436500Y-54165500D02*
X66929000Y-54165500D01*
X60134500Y-53149500D02*
X62420500Y-53149500D01*
X62420500Y-53149500D02*
X63436500Y-54165500D01*
X66929000Y-54165500D02*
X68557140Y-52590700D01*
X59314080Y-53685440D02*
X59992260Y-53007260D01*
X59314080Y-84510880D02*
X59314080Y-53685440D01*
X59366998Y-84563798D02*
X59314080Y-84510880D01*
X59366998Y-86815082D02*
X59366998Y-84563798D01*
X58887360Y-87294720D02*
X59366998Y-86815082D01*
X58399680Y-91338400D02*
X58399680Y-89428320D01*
X59314080Y-92252800D02*
X58399680Y-91338400D01*
X59314080Y-94488000D02*
X59314080Y-92252800D01*
X58740040Y-95062040D02*
X59314080Y-94488000D01*
X58064400Y-95062040D02*
X58740040Y-95062040D01*
X59182000Y-37655500D02*
X59245500Y-37719000D01*
X59245500Y-37719000D02*
X59245500Y-52260500D01*
X59245500Y-52260500D02*
X59992260Y-53007260D01*
X78684640Y-98790240D02*
X78684640Y-101286040D01*
X78846680Y-98628200D02*
X78684640Y-98790240D01*
X78958440Y-95610680D02*
X78958440Y-97063560D01*
X78846680Y-95498920D02*
X78958440Y-95610680D01*
X78846680Y-92090240D02*
X78846680Y-93878400D01*
X78958440Y-91978480D02*
X78846680Y-92090240D01*
X79181960Y-88066880D02*
X79181960Y-89966800D01*
X79237840Y-88011000D02*
X79181960Y-88066880D01*
X79405480Y-84658200D02*
X79405480Y-86166960D01*
X79573120Y-84490560D02*
X79405480Y-84658200D01*
X79400400Y-78676500D02*
X79400400Y-81495900D01*
X79324200Y-73723500D02*
X79324200Y-76085700D01*
X79438500Y-73609200D02*
X79324200Y-73723500D01*
X79400400Y-68808600D02*
X79400400Y-71247000D01*
X79438500Y-68770500D02*
X79400400Y-68808600D01*
X79438500Y-63665100D02*
X79438500Y-66065400D01*
X79514700Y-63588900D02*
X79438500Y-63665100D01*
X79476600Y-58521600D02*
X79476600Y-60998100D01*
X79438500Y-58483500D02*
X79476600Y-58521600D01*
X79438500Y-53301900D02*
X79438500Y-55892700D01*
X79324200Y-53187600D02*
X79438500Y-53301900D01*
X79400400Y-50520600D02*
X79514700Y-50634900D01*
X79400400Y-48303180D02*
X79400400Y-50520600D01*
X79265780Y-48168560D02*
X79400400Y-48303180D01*
X80103980Y-43139360D02*
X80103980Y-45626020D01*
X80131920Y-43111420D02*
X80103980Y-43139360D01*
X80020160Y-38757860D02*
X80020160Y-40848280D01*
X79438500Y-38176200D02*
X80020160Y-38757860D01*
X79552800Y-33032700D02*
X79552800Y-35433000D01*
X79362300Y-32842200D02*
X79552800Y-33032700D01*
X76276200Y-31546800D02*
X78447900Y-31546800D01*
X76200000Y-31623000D02*
X76276200Y-31546800D01*
X71666100Y-31508700D02*
X74523600Y-31508700D01*
X71437500Y-31280100D02*
X71666100Y-31508700D01*
X66446400Y-31470600D02*
X68770500Y-31470600D01*
X66294000Y-31623000D02*
X66446400Y-31470600D01*
X65074800Y-33807400D02*
X65074800Y-32727900D01*
X80774540Y-100220780D02*
X80774540Y-98907600D01*
X80746600Y-100248720D02*
X80774540Y-100220780D01*
X80858360Y-102651560D02*
X80858360Y-101645720D01*
X80355440Y-103154480D02*
X80858360Y-102651560D01*
X77729080Y-103657400D02*
X79181960Y-103657400D01*
X77617320Y-103769160D02*
X77729080Y-103657400D01*
X74543920Y-103489760D02*
X75940920Y-103489760D01*
X72029320Y-103545640D02*
X73258680Y-103545640D01*
X71861680Y-103713280D02*
X72029320Y-103545640D01*
X69123560Y-103769160D02*
X70464680Y-103769160D01*
X69067680Y-103713280D02*
X69123560Y-103769160D01*
X66014600Y-103657400D02*
X67447160Y-103657400D01*
X65913000Y-103555800D02*
X66014600Y-103657400D01*
X62941200Y-103517700D02*
X64350900Y-103517700D01*
X62674500Y-103251000D02*
X62941200Y-103517700D01*
X61356240Y-102735380D02*
X61412120Y-102735380D01*
X60071000Y-101450140D02*
X61356240Y-102735380D01*
X59484260Y-100360480D02*
X59568080Y-100360480D01*
X58422540Y-99298760D02*
X59484260Y-100360480D01*
X57388760Y-97817940D02*
X57388760Y-97873820D01*
X56606440Y-97035620D02*
X57388760Y-97817940D01*
X56690260Y-93906340D02*
X56690260Y-95247460D01*
X56382920Y-93599000D02*
X56690260Y-93906340D01*
X57221120Y-89799160D02*
X57221120Y-91447620D01*
X57444640Y-89575640D02*
X57221120Y-89799160D01*
X57416700Y-87200740D02*
X57416700Y-87955120D01*
X56997600Y-86781640D02*
X57416700Y-87200740D01*
X58140600Y-81419700D02*
X58140600Y-83667600D01*
X58407300Y-81153000D02*
X58140600Y-81419700D01*
X58407300Y-76123800D02*
X58407300Y-78600300D01*
X58293000Y-76009500D02*
X58407300Y-76123800D01*
X58293000Y-71208900D02*
X58293000Y-73571100D01*
X58331100Y-71170800D02*
X58293000Y-71208900D01*
X58293000Y-66067940D02*
X58293000Y-68541900D01*
X58366660Y-65994280D02*
X58293000Y-66067940D01*
X58366660Y-60825380D02*
X58366660Y-63423800D01*
X58338720Y-60797440D02*
X58366660Y-60825380D01*
X58562240Y-55740300D02*
X58562240Y-58450480D01*
X58478420Y-55656480D02*
X58562240Y-55740300D01*
X58394600Y-50822860D02*
X58394600Y-53141880D01*
X58310780Y-50739040D02*
X58394600Y-50822860D01*
X58506360Y-45709840D02*
X58506360Y-48196500D01*
X58310780Y-45514260D02*
X58506360Y-45709840D01*
X58254900Y-41155620D02*
X58254900Y-43195240D01*
X58226960Y-41127680D02*
X58254900Y-41155620D01*
X58199020Y-38082220D02*
X58199020Y-39590980D01*
X58140600Y-38023800D02*
X58199020Y-38082220D01*
X58635900Y-32651700D02*
X58635900Y-35661600D01*
X58940700Y-32346900D02*
X58635900Y-32651700D01*
X61264800Y-31432500D02*
X59969400Y-31432500D01*
X61302900Y-31394400D02*
X61264800Y-31432500D01*
X63779400Y-31432500D02*
X62865000Y-31432500D01*
X65074800Y-32727900D02*
X63779400Y-31432500D01*
X64516000Y-47966000D02*
X64516000Y-51671220D01*
X64516000Y-51671220D02*
X64510920Y-51676300D01*
X67627500Y-47966000D02*
X67778000Y-47966000D01*
X67778000Y-47966000D02*
X69593460Y-49781460D01*
X69593460Y-49781460D02*
X69593460Y-52372260D01*
X69593460Y-52372260D02*
X70073520Y-52852320D01*
X70096380Y-52875180D02*
X70096380Y-53347620D01*
X70073520Y-52852320D02*
X70096380Y-52875180D01*
X72212200Y-56210200D02*
X72186800Y-56210200D01*
X70866000Y-45466000D02*
X70866000Y-44856400D01*
X70866000Y-44856400D02*
X71729600Y-43992800D01*
X71729600Y-43992800D02*
X71729600Y-43332400D01*
X71729600Y-43332400D02*
X69342000Y-40944800D01*
X69342000Y-40944800D02*
X69342000Y-40894000D01*
X67270000Y-36830000D02*
X67270000Y-37835200D01*
X65176400Y-39928800D02*
X65176400Y-40436800D01*
X67270000Y-37835200D02*
X65176400Y-39928800D01*
X66027300Y-70942200D02*
X66027300Y-70319900D01*
X66027300Y-70319900D02*
X67208400Y-69138800D01*
X67208400Y-69138800D02*
X70866000Y-69138800D01*
X70205600Y-78435200D02*
X71120000Y-78435200D01*
X72593200Y-88036400D02*
X72745600Y-88036400D01*
X72339200Y-88290400D02*
X72593200Y-88036400D01*
D28*
X66684640Y-101286040D02*
X66684640Y-91381360D01*
X66684640Y-91381360D02*
X67460000Y-90606000D01*
X73954640Y-98586040D02*
X72339200Y-100584000D01*
X72339200Y-100584000D02*
X71601600Y-101321600D01*
X78684640Y-101286040D02*
X71601600Y-101321600D01*
X71601600Y-101321600D02*
X66684640Y-101286040D01*
X67460000Y-90606000D02*
X60960000Y-90606000D01*
X61110000Y-79878000D02*
X63174800Y-79878000D01*
X63174800Y-79878000D02*
X63317120Y-79735680D01*
X61110000Y-79878000D02*
X61630480Y-79878000D01*
X61630480Y-79878000D02*
X62951360Y-78557120D01*
X62951360Y-78557120D02*
X62951360Y-76166340D01*
X62951360Y-76166340D02*
X64731900Y-74385800D01*
X64709040Y-82576040D02*
X61268040Y-82576040D01*
X61268040Y-82576040D02*
X61110000Y-82418000D01*
X75779000Y-36830000D02*
X76218000Y-36830000D01*
D27*
X75779000Y-36830000D02*
X76091000Y-36830000D01*
X64516000Y-45466000D02*
X64706500Y-45466000D01*
X69659500Y-48895000D02*
X69659500Y-48704500D01*
X69278500Y-45148500D02*
X70675500Y-43751500D01*
X69278500Y-48323500D02*
X69278500Y-45148500D01*
X69659500Y-48704500D02*
X69278500Y-48323500D01*
X72639000Y-47625000D02*
X73782000Y-48768000D01*
X71501000Y-47625000D02*
X72639000Y-47625000D01*
X70421500Y-48704500D02*
X71501000Y-47625000D01*
X69850000Y-48704500D02*
X70421500Y-48704500D01*
X69659500Y-48895000D02*
X69850000Y-48704500D01*
X73782000Y-48768000D02*
X73660000Y-48768000D01*
X68516500Y-43370500D02*
X68516500Y-42862500D01*
X69342000Y-44196000D02*
X68516500Y-43370500D01*
X67119500Y-55054500D02*
X65341500Y-55054500D01*
X65341500Y-55054500D02*
X63309500Y-57086500D01*
X63309500Y-57086500D02*
X63055500Y-57086500D01*
X63055500Y-57086500D02*
X62801500Y-57340500D01*
X62801500Y-57340500D02*
X62801500Y-61087000D01*
X62801500Y-61087000D02*
X64389000Y-62674500D01*
X64389000Y-62674500D02*
X64389000Y-64389000D01*
X64389000Y-64389000D02*
X63436500Y-65341500D01*
X63436500Y-65341500D02*
X63436500Y-72471500D01*
X63436500Y-72471500D02*
X61110000Y-74798000D01*
X68199000Y-53975000D02*
X67119500Y-55054500D01*
X67460000Y-86106000D02*
X60960000Y-86106000D01*
X61110000Y-74798000D02*
X61110000Y-75161000D01*
X61110000Y-75161000D02*
X59817000Y-76454000D01*
X59817000Y-84963000D02*
X60960000Y-86106000D01*
X59817000Y-76454000D02*
X59817000Y-84963000D01*
X61110000Y-74798000D02*
X61028500Y-74798000D01*
X58140600Y-85232240D02*
X58140600Y-87939880D01*
X59344560Y-89143840D02*
X59512200Y-89143840D01*
X58140600Y-87939880D02*
X59344560Y-89143840D01*
X59512200Y-89143840D02*
X59512200Y-91653360D01*
X62219840Y-97576640D02*
X59908440Y-95265240D01*
X59908440Y-95265240D02*
X59908440Y-92369640D01*
X59512200Y-91653360D02*
X59832240Y-91973400D01*
X59832240Y-91973400D02*
X59832240Y-92293440D01*
X59832240Y-92293440D02*
X59908440Y-92369640D01*
X62219840Y-97932240D02*
X62219840Y-97576640D01*
D28*
X74018140Y-43964860D02*
X74018140Y-39001700D01*
X74018140Y-39001700D02*
X74930000Y-38089840D01*
D27*
X70675500Y-47561500D02*
X72771000Y-45466000D01*
X72771000Y-45466000D02*
X73366000Y-45466000D01*
D28*
X73366000Y-45466000D02*
X73366000Y-44617000D01*
X73366000Y-44617000D02*
X74018140Y-43964860D01*
X74930000Y-38089840D02*
X74930000Y-35578000D01*
X74930000Y-35578000D02*
X76350000Y-34158000D01*
D27*
X77660500Y-45760640D02*
X77764640Y-45760640D01*
X78435200Y-45090080D02*
X78435200Y-42103040D01*
X77764640Y-45760640D02*
X78435200Y-45090080D01*
X74739500Y-57594500D02*
X75501500Y-58356500D01*
X77406500Y-58356500D02*
X77660500Y-58102500D01*
X75501500Y-58356500D02*
X77406500Y-58356500D01*
X77660500Y-58102500D02*
X77660500Y-45760640D01*
X66636900Y-53594000D02*
X66636900Y-53383180D01*
X68818760Y-51201320D02*
X68818760Y-49956720D01*
X66636900Y-53383180D02*
X68818760Y-51201320D01*
X66611500Y-53594000D02*
X66636900Y-53594000D01*
X66636900Y-53594000D02*
X66639440Y-53594000D01*
X61028500Y-34158000D02*
X59817000Y-35369500D01*
X62992000Y-52705000D02*
X63881000Y-53594000D01*
X62992000Y-51244500D02*
X62992000Y-52705000D01*
X62420500Y-50673000D02*
X62992000Y-51244500D01*
X60261500Y-50673000D02*
X62420500Y-50673000D01*
X59817000Y-50228500D02*
X60261500Y-50673000D01*
X59817000Y-35369500D02*
X59817000Y-50228500D01*
X63881000Y-53594000D02*
X66611500Y-53594000D01*
X61110000Y-34158000D02*
X61028500Y-34158000D01*
D28*
X72199500Y-82067400D02*
X73431400Y-82067400D01*
X78100000Y-39238000D02*
X79263240Y-40401240D01*
X79263240Y-40401240D02*
X79263240Y-45796200D01*
X79263240Y-45796200D02*
X78369160Y-46690280D01*
X78369160Y-46690280D02*
X78369160Y-83093560D01*
X78369160Y-83093560D02*
X77365860Y-84096860D01*
X78100000Y-39238000D02*
X76350000Y-39238000D01*
X75460860Y-84096860D02*
X73431400Y-82067400D01*
X77365860Y-84096860D02*
X75460860Y-84096860D01*
D27*
X63119000Y-48958500D02*
X63119000Y-49281080D01*
X63119000Y-48958500D02*
X63119000Y-46327000D01*
X61110000Y-44318000D02*
X63119000Y-46327000D01*
X63794640Y-49956720D02*
X63792100Y-50784760D01*
X63119000Y-49281080D02*
X63794640Y-49956720D01*
X61590000Y-44318000D02*
X61110000Y-44318000D01*
X74676000Y-48933100D02*
X74676000Y-49100740D01*
X74033380Y-49743360D02*
X73380600Y-49743360D01*
X74676000Y-49100740D02*
X74033380Y-49743360D01*
X74676000Y-49212500D02*
X74676000Y-48933100D01*
X74676000Y-48933100D02*
X74676000Y-45992000D01*
X74676000Y-45992000D02*
X76350000Y-44318000D01*
X74736960Y-52265580D02*
X74863960Y-52392580D01*
X74863960Y-52392580D02*
X74866500Y-52994500D01*
X74866500Y-52994500D02*
X76350000Y-54478000D01*
X74576940Y-55245000D02*
X74577000Y-55245000D01*
X74577000Y-55245000D02*
X76350000Y-57018000D01*
X73101200Y-55245000D02*
X72923400Y-55245000D01*
X72923400Y-55245000D02*
X72288400Y-54610000D01*
X73025000Y-55245000D02*
X73101200Y-55245000D01*
X73101200Y-55245000D02*
X74576940Y-55245000D01*
X75120500Y-60299600D02*
X75120500Y-60185300D01*
X75120500Y-60185300D02*
X74295000Y-59359800D01*
X75120500Y-63627000D02*
X76131500Y-64638000D01*
X75120500Y-60299600D02*
X75120500Y-63627000D01*
X76131500Y-64638000D02*
X76350000Y-64638000D01*
X76004500Y-64638000D02*
X76350000Y-64638000D01*
X62357000Y-64658240D02*
X62357000Y-64526160D01*
X63055500Y-62877700D02*
X63055500Y-62293500D01*
X62814200Y-63119000D02*
X63055500Y-62877700D01*
X62814200Y-64068960D02*
X62814200Y-63119000D01*
X62357000Y-64526160D02*
X62814200Y-64068960D01*
X62357000Y-64658240D02*
X62357000Y-65931000D01*
X62357000Y-65931000D02*
X61110000Y-67178000D01*
X74549000Y-61696600D02*
X74549000Y-61442600D01*
X74549000Y-61442600D02*
X73482200Y-60375800D01*
X74549000Y-61696600D02*
X74549000Y-68770500D01*
X74549000Y-68770500D02*
X75496500Y-69718000D01*
X75496500Y-69718000D02*
X76350000Y-69718000D01*
X62865000Y-65100200D02*
X62865000Y-65074800D01*
X63614300Y-64325500D02*
X63614300Y-63944500D01*
X62865000Y-65074800D02*
X63614300Y-64325500D01*
X62865000Y-65100200D02*
X62865000Y-70503000D01*
X62865000Y-70503000D02*
X61110000Y-72258000D01*
X74041000Y-62788800D02*
X74041000Y-62763400D01*
X74041000Y-62763400D02*
X73075800Y-61798200D01*
X74970670Y-73418670D02*
X74970670Y-71264810D01*
X74970670Y-71264810D02*
X74612500Y-70906640D01*
X74612500Y-70294500D02*
X74612500Y-70906640D01*
X74041000Y-69596000D02*
X74612500Y-70294500D01*
X74041000Y-62788800D02*
X74041000Y-69596000D01*
X74970670Y-73418670D02*
X76350000Y-74798000D01*
X76350000Y-79878000D02*
X74866500Y-78394500D01*
X74866500Y-75946000D02*
X74866500Y-78394500D01*
X72644000Y-63271400D02*
X73482200Y-64236600D01*
X73482200Y-64236600D02*
X73469500Y-69977000D01*
X73469500Y-69977000D02*
X73977500Y-70485000D01*
X73977500Y-70485000D02*
X73977500Y-71048880D01*
X74482960Y-73609200D02*
X74985880Y-74112120D01*
X74985880Y-74112120D02*
X74985880Y-75826620D01*
X74985880Y-75826620D02*
X74866500Y-75946000D01*
X74482960Y-71554340D02*
X73977500Y-71048880D01*
X74482960Y-73609200D02*
X74482960Y-71554340D01*
X70612000Y-62801500D02*
X68580000Y-64833500D01*
X70612000Y-59690000D02*
X70612000Y-62801500D01*
X70947280Y-58943240D02*
X70612000Y-59690000D01*
X70947280Y-56855360D02*
X70947280Y-58943240D01*
X70238620Y-54785260D02*
X70159880Y-54864000D01*
X70159880Y-54864000D02*
X70192900Y-56100980D01*
X70192900Y-56100980D02*
X70947280Y-56855360D01*
X64973200Y-60439300D02*
X64973200Y-58610500D01*
X66456560Y-57127140D02*
X67106800Y-57127140D01*
X64973200Y-58610500D02*
X66456560Y-57127140D01*
X64973200Y-60350400D02*
X64973200Y-60439300D01*
X64973200Y-60439300D02*
X64973200Y-62026800D01*
X64973200Y-62026800D02*
X65989200Y-63042800D01*
X65989200Y-63042800D02*
X65989200Y-63449200D01*
X65989200Y-63449200D02*
X66141600Y-63601600D01*
X66141600Y-63601600D02*
X66852800Y-63601600D01*
X66852800Y-63601600D02*
X67360800Y-64109600D01*
X67360800Y-64109600D02*
X67360800Y-66154300D01*
X67360800Y-66154300D02*
X68580000Y-67373500D01*
D28*
X73954640Y-96586040D02*
X73954640Y-96398080D01*
X73954640Y-96398080D02*
X71897240Y-94340680D01*
X71897240Y-94340680D02*
X71897240Y-89956640D01*
X71897240Y-89956640D02*
X69049900Y-87109300D01*
X69049900Y-87109300D02*
X69049900Y-82207100D01*
D27*
G36*
X81236280Y-104705880D02*
X55613840Y-104705880D01*
X55613840Y-102659020D01*
X56889400Y-102659020D01*
X56889400Y-102705060D01*
X56978842Y-103154713D01*
X57233550Y-103535910D01*
X57614747Y-103790618D01*
X58064400Y-103880060D01*
X58514053Y-103790618D01*
X58895250Y-103535910D01*
X59149958Y-103154713D01*
X59182398Y-102991624D01*
X65933650Y-102991624D01*
X66110498Y-103224657D01*
X66896078Y-103296803D01*
X67258782Y-103224657D01*
X67435630Y-102991624D01*
X77933650Y-102991624D01*
X78110498Y-103224657D01*
X78896078Y-103296803D01*
X79258782Y-103224657D01*
X79435630Y-102991624D01*
X78684640Y-102240634D01*
X77933650Y-102991624D01*
X67435630Y-102991624D01*
X66684640Y-102240634D01*
X65933650Y-102991624D01*
X59182398Y-102991624D01*
X59239400Y-102705060D01*
X59239400Y-102659020D01*
X59149958Y-102209367D01*
X58895250Y-101828170D01*
X58514053Y-101573462D01*
X58064400Y-101484020D01*
X57614747Y-101573462D01*
X57233550Y-101828170D01*
X56978842Y-102209367D01*
X56889400Y-102659020D01*
X55613840Y-102659020D01*
X55613840Y-95294737D01*
X56889196Y-95294737D01*
X57067702Y-95726755D01*
X57397947Y-96057576D01*
X57829653Y-96236836D01*
X58297097Y-96237244D01*
X58729115Y-96058738D01*
X59059936Y-95728493D01*
X59239196Y-95296787D01*
X59239219Y-95269967D01*
X59408440Y-95100746D01*
X59408440Y-95265240D01*
X59438347Y-95415593D01*
X59446500Y-95456582D01*
X59554887Y-95618793D01*
X61142372Y-97206278D01*
X61139578Y-97209067D01*
X60945062Y-97677514D01*
X60944619Y-98184741D01*
X61138317Y-98653526D01*
X61496667Y-99012502D01*
X61923875Y-99189894D01*
X61319840Y-99189894D01*
X61180874Y-99216042D01*
X61053241Y-99298171D01*
X60967617Y-99423486D01*
X60937494Y-99572240D01*
X60937494Y-101372240D01*
X60963642Y-101511206D01*
X61045771Y-101638839D01*
X61171086Y-101724463D01*
X61319840Y-101754586D01*
X63119840Y-101754586D01*
X63258806Y-101728438D01*
X63386439Y-101646309D01*
X63472063Y-101520994D01*
X63476825Y-101497478D01*
X64673877Y-101497478D01*
X64746023Y-101860182D01*
X64979056Y-102037030D01*
X65730046Y-101286040D01*
X67639234Y-101286040D01*
X68390224Y-102037030D01*
X68623257Y-101860182D01*
X68656566Y-101497478D01*
X76673877Y-101497478D01*
X76746023Y-101860182D01*
X76979056Y-102037030D01*
X77730046Y-101286040D01*
X79639234Y-101286040D01*
X80390224Y-102037030D01*
X80623257Y-101860182D01*
X80695403Y-101074602D01*
X80623257Y-100711898D01*
X80390224Y-100535050D01*
X79639234Y-101286040D01*
X77730046Y-101286040D01*
X76979056Y-100535050D01*
X76746023Y-100711898D01*
X76673877Y-101497478D01*
X68656566Y-101497478D01*
X68695403Y-101074602D01*
X68623257Y-100711898D01*
X68390224Y-100535050D01*
X67639234Y-101286040D01*
X65730046Y-101286040D01*
X64979056Y-100535050D01*
X64746023Y-100711898D01*
X64673877Y-101497478D01*
X63476825Y-101497478D01*
X63502186Y-101372240D01*
X63502186Y-99580456D01*
X65933650Y-99580456D01*
X66684640Y-100331446D01*
X67435630Y-99580456D01*
X67258782Y-99347423D01*
X66473202Y-99275277D01*
X66110498Y-99347423D01*
X65933650Y-99580456D01*
X63502186Y-99580456D01*
X63502186Y-99572240D01*
X63476038Y-99433274D01*
X63393909Y-99305641D01*
X63268594Y-99220017D01*
X63119840Y-99189894D01*
X62514856Y-99189894D01*
X62941126Y-99013763D01*
X63300102Y-98655413D01*
X63494618Y-98186966D01*
X63495061Y-97679739D01*
X63301363Y-97210954D01*
X62943013Y-96851978D01*
X62843882Y-96810815D01*
X70279443Y-96810815D01*
X70451873Y-97228126D01*
X70770875Y-97547685D01*
X70862955Y-97585920D01*
X70772554Y-97623273D01*
X70452995Y-97942275D01*
X70279837Y-98359284D01*
X70279443Y-98810815D01*
X70451873Y-99228126D01*
X70770875Y-99547685D01*
X71187884Y-99720843D01*
X71639415Y-99721237D01*
X71676959Y-99705724D01*
X73372357Y-99705724D01*
X73457676Y-99916547D01*
X74004668Y-100005448D01*
X74451604Y-99916547D01*
X74536923Y-99705724D01*
X74411655Y-99580456D01*
X77933650Y-99580456D01*
X78684640Y-100331446D01*
X79435630Y-99580456D01*
X79258782Y-99347423D01*
X78473202Y-99275277D01*
X78110498Y-99347423D01*
X77933650Y-99580456D01*
X74411655Y-99580456D01*
X73954640Y-99123441D01*
X73372357Y-99705724D01*
X71676959Y-99705724D01*
X72056726Y-99548807D01*
X72376285Y-99229805D01*
X72549443Y-98812796D01*
X72549534Y-98707971D01*
X72624133Y-99083004D01*
X72834956Y-99168323D01*
X73417239Y-98586040D01*
X74492041Y-98586040D01*
X75074324Y-99168323D01*
X75285147Y-99083004D01*
X75374048Y-98536012D01*
X75285147Y-98089076D01*
X75074324Y-98003757D01*
X74492041Y-98586040D01*
X73417239Y-98586040D01*
X72834956Y-98003757D01*
X72624133Y-98089076D01*
X72549675Y-98547204D01*
X72549837Y-98361265D01*
X72377407Y-97943954D01*
X72058405Y-97624395D01*
X71966325Y-97586160D01*
X72056726Y-97548807D01*
X72376285Y-97229805D01*
X72549443Y-96812796D01*
X72549837Y-96361265D01*
X72377407Y-95943954D01*
X72058405Y-95624395D01*
X71641396Y-95451237D01*
X71189865Y-95450843D01*
X70772554Y-95623273D01*
X70452995Y-95942275D01*
X70279837Y-96359284D01*
X70279443Y-96810815D01*
X62843882Y-96810815D01*
X62474566Y-96657462D01*
X62007361Y-96657054D01*
X60408440Y-95058134D01*
X60408440Y-94414653D01*
X60486587Y-94492936D01*
X60918293Y-94672196D01*
X61385737Y-94672604D01*
X61423540Y-94656984D01*
X63059142Y-94656984D01*
X63150660Y-94869387D01*
X63713937Y-94957204D01*
X64155420Y-94869387D01*
X64246938Y-94656984D01*
X63653040Y-94063085D01*
X63059142Y-94656984D01*
X61423540Y-94656984D01*
X61817755Y-94494098D01*
X62148576Y-94163853D01*
X62260212Y-93895004D01*
X62281053Y-93999780D01*
X62493456Y-94091298D01*
X63087355Y-93497400D01*
X64218725Y-93497400D01*
X64812624Y-94091298D01*
X65025027Y-93999780D01*
X65112844Y-93436503D01*
X65025027Y-92995020D01*
X64812624Y-92903502D01*
X64218725Y-93497400D01*
X63087355Y-93497400D01*
X62493456Y-92903502D01*
X62281053Y-92995020D01*
X62263455Y-93107900D01*
X62149738Y-92832685D01*
X61819493Y-92501864D01*
X61424422Y-92337816D01*
X63059142Y-92337816D01*
X63653040Y-92931715D01*
X64246938Y-92337816D01*
X64155420Y-92125413D01*
X63592143Y-92037596D01*
X63150660Y-92125413D01*
X63059142Y-92337816D01*
X61424422Y-92337816D01*
X61387787Y-92322604D01*
X61188116Y-92322430D01*
X61225166Y-92285380D01*
X61184982Y-92245196D01*
X61488979Y-92184727D01*
X61611502Y-91964609D01*
X66808498Y-91964609D01*
X66931021Y-92184727D01*
X67575440Y-92266985D01*
X67988979Y-92184727D01*
X68111502Y-91964609D01*
X67460000Y-91313107D01*
X66808498Y-91964609D01*
X61611502Y-91964609D01*
X60960000Y-91313107D01*
X60606447Y-91666661D01*
X60012200Y-91072414D01*
X60012200Y-90846693D01*
X60252893Y-90606000D01*
X61667107Y-90606000D01*
X62318609Y-91257502D01*
X62538727Y-91134979D01*
X62591513Y-90721440D01*
X65799015Y-90721440D01*
X65881273Y-91134979D01*
X66101391Y-91257502D01*
X66752893Y-90606000D01*
X68167107Y-90606000D01*
X68818609Y-91257502D01*
X69038727Y-91134979D01*
X69120985Y-90490560D01*
X69038727Y-90077021D01*
X68818609Y-89954498D01*
X68167107Y-90606000D01*
X66752893Y-90606000D01*
X66101391Y-89954498D01*
X65881273Y-90077021D01*
X65799015Y-90721440D01*
X62591513Y-90721440D01*
X62620985Y-90490560D01*
X62538727Y-90077021D01*
X62318609Y-89954498D01*
X61667107Y-90606000D01*
X60252893Y-90606000D01*
X60012200Y-90365307D01*
X60012200Y-90139586D01*
X60606447Y-89545340D01*
X60960000Y-89898893D01*
X61611502Y-89247391D01*
X66808498Y-89247391D01*
X67460000Y-89898893D01*
X68111502Y-89247391D01*
X67988979Y-89027273D01*
X67344560Y-88945015D01*
X66931021Y-89027273D01*
X66808498Y-89247391D01*
X61611502Y-89247391D01*
X61488979Y-89027273D01*
X61165770Y-88986016D01*
X61225166Y-88926620D01*
X60756678Y-88458131D01*
X60012200Y-89202609D01*
X60012200Y-89143840D01*
X59974140Y-88952498D01*
X59865753Y-88790287D01*
X59703542Y-88681900D01*
X59561467Y-88653640D01*
X58877538Y-87969712D01*
X59021037Y-87969837D01*
X59269217Y-87867291D01*
X59459263Y-87677576D01*
X59562243Y-87429575D01*
X59562333Y-87326854D01*
X59720552Y-87168635D01*
X59785524Y-87071396D01*
X59828938Y-87006424D01*
X59843404Y-86933696D01*
X60180108Y-87270989D01*
X60685296Y-87480761D01*
X61232305Y-87481238D01*
X61737857Y-87272348D01*
X62124989Y-86885892D01*
X62241210Y-86606000D01*
X66178844Y-86606000D01*
X66293652Y-86883857D01*
X66680108Y-87270989D01*
X67185296Y-87480761D01*
X67732305Y-87481238D01*
X68237857Y-87272348D01*
X68424900Y-87085632D01*
X68424900Y-87109300D01*
X68472475Y-87348477D01*
X68607958Y-87551242D01*
X71272240Y-90215524D01*
X71272240Y-91953991D01*
X70934653Y-91728422D01*
X70485000Y-91638980D01*
X70035347Y-91728422D01*
X69654150Y-91983130D01*
X69399442Y-92364327D01*
X69310000Y-92813980D01*
X69310000Y-92860020D01*
X69399442Y-93309673D01*
X69654150Y-93690870D01*
X70035347Y-93945578D01*
X70485000Y-94035020D01*
X70934653Y-93945578D01*
X71272240Y-93720009D01*
X71272240Y-94340680D01*
X71319815Y-94579857D01*
X71455298Y-94782622D01*
X72882075Y-96209399D01*
X72819837Y-96359284D01*
X72819443Y-96810815D01*
X72991873Y-97228126D01*
X73310875Y-97547685D01*
X73555096Y-97649095D01*
X73954640Y-98048639D01*
X74354306Y-97648973D01*
X74596726Y-97548807D01*
X74916285Y-97229805D01*
X75089443Y-96812796D01*
X75089837Y-96361265D01*
X74917407Y-95943954D01*
X74598405Y-95624395D01*
X74181396Y-95451237D01*
X73891428Y-95450984D01*
X72522240Y-94081796D01*
X72522240Y-93294616D01*
X72702150Y-93563870D01*
X73083347Y-93818578D01*
X73533000Y-93908020D01*
X73982653Y-93818578D01*
X74363850Y-93563870D01*
X74618558Y-93182673D01*
X74641371Y-93067980D01*
X75660000Y-93067980D01*
X75660000Y-93114020D01*
X75749442Y-93563673D01*
X76004150Y-93944870D01*
X76385347Y-94199578D01*
X76835000Y-94289020D01*
X77284653Y-94199578D01*
X77665850Y-93944870D01*
X77920558Y-93563673D01*
X78010000Y-93114020D01*
X78010000Y-93067980D01*
X77920558Y-92618327D01*
X77665850Y-92237130D01*
X77284653Y-91982422D01*
X76835000Y-91892980D01*
X76385347Y-91982422D01*
X76004150Y-92237130D01*
X75749442Y-92618327D01*
X75660000Y-93067980D01*
X74641371Y-93067980D01*
X74708000Y-92733020D01*
X74708000Y-92686980D01*
X74618558Y-92237327D01*
X74363850Y-91856130D01*
X73982653Y-91601422D01*
X73533000Y-91511980D01*
X73083347Y-91601422D01*
X72702150Y-91856130D01*
X72522240Y-92125384D01*
X72522240Y-89956640D01*
X72474665Y-89717463D01*
X72339182Y-89514698D01*
X69674900Y-86850416D01*
X69674900Y-86068638D01*
X69818547Y-86212536D01*
X70250253Y-86391796D01*
X70717697Y-86392204D01*
X71149715Y-86213698D01*
X71480536Y-85883453D01*
X71659796Y-85451747D01*
X71659908Y-85322697D01*
X72357796Y-85322697D01*
X72536302Y-85754715D01*
X72866547Y-86085536D01*
X73298253Y-86264796D01*
X73765697Y-86265204D01*
X74197715Y-86086698D01*
X74528536Y-85756453D01*
X74707796Y-85324747D01*
X74708204Y-84857303D01*
X74529698Y-84425285D01*
X74199453Y-84094464D01*
X73767747Y-83915204D01*
X73300303Y-83914796D01*
X72868285Y-84093302D01*
X72537464Y-84423547D01*
X72358204Y-84855253D01*
X72357796Y-85322697D01*
X71659908Y-85322697D01*
X71660204Y-84984303D01*
X71481698Y-84552285D01*
X71151453Y-84221464D01*
X70719747Y-84042204D01*
X70252303Y-84041796D01*
X69820285Y-84220302D01*
X69674900Y-84365434D01*
X69674900Y-83558266D01*
X70092883Y-83278980D01*
X70412622Y-82800455D01*
X70524900Y-82235997D01*
X70524900Y-82178203D01*
X70412622Y-81613745D01*
X70092883Y-81135220D01*
X69614358Y-80815481D01*
X69049900Y-80703203D01*
X68485442Y-80815481D01*
X68006917Y-81135220D01*
X67687178Y-81613745D01*
X67574900Y-82178203D01*
X67574900Y-82235997D01*
X67687178Y-82800455D01*
X68006917Y-83278980D01*
X68424900Y-83558266D01*
X68424900Y-85126343D01*
X68239892Y-84941011D01*
X67734704Y-84731239D01*
X67187695Y-84730762D01*
X66682143Y-84939652D01*
X66295011Y-85326108D01*
X66178790Y-85606000D01*
X62241156Y-85606000D01*
X62126348Y-85328143D01*
X61739892Y-84941011D01*
X61234704Y-84731239D01*
X60687695Y-84730762D01*
X60407601Y-84846495D01*
X60317000Y-84755894D01*
X60317000Y-83641493D01*
X60467966Y-83754854D01*
X60685000Y-83680581D01*
X60685000Y-82843000D01*
X61535000Y-82843000D01*
X61535000Y-83680581D01*
X61752034Y-83754854D01*
X61777643Y-83735624D01*
X64115142Y-83735624D01*
X64206660Y-83948027D01*
X64769937Y-84035844D01*
X65211420Y-83948027D01*
X65302938Y-83735624D01*
X64709040Y-83141725D01*
X64115142Y-83735624D01*
X61777643Y-83735624D01*
X62214754Y-83407396D01*
X62446820Y-83060029D01*
X62364726Y-82843000D01*
X61535000Y-82843000D01*
X60685000Y-82843000D01*
X60317000Y-82843000D01*
X60317000Y-82636937D01*
X63249236Y-82636937D01*
X63337053Y-83078420D01*
X63549456Y-83169938D01*
X64143355Y-82576040D01*
X65274725Y-82576040D01*
X65868624Y-83169938D01*
X66081027Y-83078420D01*
X66168844Y-82515143D01*
X66081027Y-82073660D01*
X65868624Y-81982142D01*
X65274725Y-82576040D01*
X64143355Y-82576040D01*
X63549456Y-81982142D01*
X63337053Y-82073660D01*
X63249236Y-82636937D01*
X60317000Y-82636937D01*
X60317000Y-81993000D01*
X60685000Y-81993000D01*
X60685000Y-81155419D01*
X60663321Y-81148000D01*
X60685000Y-81140581D01*
X60685000Y-80303000D01*
X61535000Y-80303000D01*
X61535000Y-81140581D01*
X61556679Y-81148000D01*
X61535000Y-81155419D01*
X61535000Y-81993000D01*
X62364726Y-81993000D01*
X62446820Y-81775971D01*
X62214754Y-81428604D01*
X61841065Y-81148000D01*
X62214754Y-80867396D01*
X62446820Y-80520029D01*
X62364726Y-80303000D01*
X61535000Y-80303000D01*
X60685000Y-80303000D01*
X60317000Y-80303000D01*
X60317000Y-79453000D01*
X60685000Y-79453000D01*
X60685000Y-79028000D01*
X61535000Y-79028000D01*
X61535000Y-79453000D01*
X62364726Y-79453000D01*
X62431663Y-79276040D01*
X63526694Y-79276040D01*
X63526694Y-80876040D01*
X63552842Y-81015006D01*
X63634971Y-81142639D01*
X63760286Y-81228263D01*
X63909040Y-81258386D01*
X64183250Y-81258386D01*
X64115142Y-81416456D01*
X64709040Y-82010355D01*
X65302938Y-81416456D01*
X65234830Y-81258386D01*
X65509040Y-81258386D01*
X65648006Y-81232238D01*
X65775639Y-81150109D01*
X65861263Y-81024794D01*
X65891386Y-80876040D01*
X65891386Y-79276040D01*
X65865238Y-79137074D01*
X65783109Y-79009441D01*
X65657794Y-78923817D01*
X65509040Y-78893694D01*
X63909040Y-78893694D01*
X63770074Y-78919842D01*
X63642441Y-79001971D01*
X63556817Y-79127286D01*
X63526694Y-79276040D01*
X62431663Y-79276040D01*
X62446820Y-79235971D01*
X62307880Y-79028000D01*
X62485002Y-79028000D01*
X62485002Y-78395000D01*
X61714661Y-78395000D01*
X62000205Y-78204206D01*
X62265751Y-77806787D01*
X62358999Y-77338000D01*
X62265751Y-76869213D01*
X62000205Y-76471794D01*
X61602786Y-76206248D01*
X61133999Y-76113000D01*
X61086001Y-76113000D01*
X60810257Y-76167849D01*
X60892306Y-76085800D01*
X63549554Y-76085800D01*
X63549554Y-77685800D01*
X63575702Y-77824766D01*
X63657831Y-77952399D01*
X63783146Y-78038023D01*
X63931900Y-78068146D01*
X65531900Y-78068146D01*
X65670866Y-78041998D01*
X65798499Y-77959869D01*
X65884123Y-77834554D01*
X65914246Y-77685800D01*
X65914246Y-76085800D01*
X65888098Y-75946834D01*
X65805969Y-75819201D01*
X65680654Y-75733577D01*
X65531900Y-75703454D01*
X65257690Y-75703454D01*
X65325798Y-75545384D01*
X64731900Y-74951485D01*
X64138002Y-75545384D01*
X64206110Y-75703454D01*
X63931900Y-75703454D01*
X63792934Y-75729602D01*
X63665301Y-75811731D01*
X63579677Y-75937046D01*
X63549554Y-76085800D01*
X60892306Y-76085800D01*
X60976823Y-76001283D01*
X61086001Y-76023000D01*
X61133999Y-76023000D01*
X61602786Y-75929752D01*
X62000205Y-75664206D01*
X62265751Y-75266787D01*
X62358999Y-74798000D01*
X62289121Y-74446697D01*
X63272096Y-74446697D01*
X63359913Y-74888180D01*
X63572316Y-74979698D01*
X64166215Y-74385800D01*
X65297585Y-74385800D01*
X65891484Y-74979698D01*
X66103887Y-74888180D01*
X66191704Y-74324903D01*
X66103887Y-73883420D01*
X65891484Y-73791902D01*
X65297585Y-74385800D01*
X64166215Y-74385800D01*
X63572316Y-73791902D01*
X63359913Y-73883420D01*
X63272096Y-74446697D01*
X62289121Y-74446697D01*
X62269093Y-74346013D01*
X63388890Y-73226216D01*
X64138002Y-73226216D01*
X64731900Y-73820115D01*
X65064914Y-73487100D01*
X67567554Y-73487100D01*
X67567554Y-75687100D01*
X67593702Y-75826066D01*
X67675831Y-75953699D01*
X67801146Y-76039323D01*
X67949900Y-76069446D01*
X70149900Y-76069446D01*
X70288866Y-76043298D01*
X70416499Y-75961169D01*
X70502123Y-75835854D01*
X70532246Y-75687100D01*
X70532246Y-73487100D01*
X70506098Y-73348134D01*
X70505626Y-73347400D01*
X70717154Y-73347400D01*
X70717154Y-75547400D01*
X70743302Y-75686366D01*
X70825431Y-75813999D01*
X70950746Y-75899623D01*
X71099500Y-75929746D01*
X73299500Y-75929746D01*
X73438466Y-75903598D01*
X73566099Y-75821469D01*
X73651723Y-75696154D01*
X73681846Y-75547400D01*
X73681846Y-73347400D01*
X73655698Y-73208434D01*
X73573569Y-73080801D01*
X73448254Y-72995177D01*
X73299500Y-72965054D01*
X71099500Y-72965054D01*
X70960534Y-72991202D01*
X70832901Y-73073331D01*
X70747277Y-73198646D01*
X70717154Y-73347400D01*
X70505626Y-73347400D01*
X70423969Y-73220501D01*
X70298654Y-73134877D01*
X70149900Y-73104754D01*
X67949900Y-73104754D01*
X67810934Y-73130902D01*
X67683301Y-73213031D01*
X67597677Y-73338346D01*
X67567554Y-73487100D01*
X65064914Y-73487100D01*
X65325798Y-73226216D01*
X65234280Y-73013813D01*
X64671003Y-72925996D01*
X64229520Y-73013813D01*
X64138002Y-73226216D01*
X63388890Y-73226216D01*
X63790053Y-72825053D01*
X63898440Y-72662842D01*
X63936500Y-72471500D01*
X63936500Y-71550450D01*
X64494300Y-71550450D01*
X64494300Y-71968112D01*
X64590669Y-72200766D01*
X64768735Y-72378832D01*
X65001389Y-72475200D01*
X65419050Y-72475200D01*
X65577300Y-72316950D01*
X65577300Y-71392200D01*
X64652550Y-71392200D01*
X64494300Y-71550450D01*
X63936500Y-71550450D01*
X63936500Y-69916288D01*
X64494300Y-69916288D01*
X64494300Y-70333950D01*
X64652550Y-70492200D01*
X65577300Y-70492200D01*
X65577300Y-69567450D01*
X66477300Y-69567450D01*
X66477300Y-70492200D01*
X66927300Y-70492200D01*
X66927300Y-71392200D01*
X66477300Y-71392200D01*
X66477300Y-72316950D01*
X66635550Y-72475200D01*
X67053211Y-72475200D01*
X67285865Y-72378832D01*
X67347495Y-72317202D01*
X67560300Y-72317202D01*
X67560300Y-71723344D01*
X67640760Y-71843761D01*
X68054400Y-72120146D01*
X68542321Y-72217200D01*
X68592279Y-72217200D01*
X69080200Y-72120146D01*
X69493840Y-71843761D01*
X69770225Y-71430121D01*
X69837300Y-71092914D01*
X69904375Y-71430121D01*
X70180760Y-71843761D01*
X70594400Y-72120146D01*
X71082321Y-72217200D01*
X71132279Y-72217200D01*
X71620200Y-72120146D01*
X72033840Y-71843761D01*
X72310225Y-71430121D01*
X72407279Y-70942200D01*
X72310225Y-70454279D01*
X72033840Y-70040639D01*
X71620200Y-69764254D01*
X71132279Y-69667200D01*
X71082321Y-69667200D01*
X70594400Y-69764254D01*
X70180760Y-70040639D01*
X69904375Y-70454279D01*
X69837300Y-70791486D01*
X69770225Y-70454279D01*
X69493840Y-70040639D01*
X69080200Y-69764254D01*
X68592279Y-69667200D01*
X68542321Y-69667200D01*
X68054400Y-69764254D01*
X67640760Y-70040639D01*
X67560300Y-70161056D01*
X67560300Y-69567198D01*
X67347495Y-69567198D01*
X67285865Y-69505568D01*
X67053211Y-69409200D01*
X66635550Y-69409200D01*
X66477300Y-69567450D01*
X65577300Y-69567450D01*
X65419050Y-69409200D01*
X65001389Y-69409200D01*
X64768735Y-69505568D01*
X64590669Y-69683634D01*
X64494300Y-69916288D01*
X63936500Y-69916288D01*
X63936500Y-68015534D01*
X64703146Y-68015534D01*
X65050604Y-68478254D01*
X65397971Y-68710320D01*
X65615000Y-68628226D01*
X65615000Y-67798500D01*
X64777419Y-67798500D01*
X64703146Y-68015534D01*
X63936500Y-68015534D01*
X63936500Y-65548606D01*
X64557000Y-64928107D01*
X64557000Y-66208502D01*
X65140780Y-66208502D01*
X65050604Y-66268746D01*
X64703146Y-66731466D01*
X64777419Y-66948500D01*
X65615000Y-66948500D01*
X65615000Y-66118774D01*
X65574621Y-66103500D01*
X65615000Y-66088226D01*
X65615000Y-65258500D01*
X65190000Y-65258500D01*
X65190000Y-64408500D01*
X65615000Y-64408500D01*
X65615000Y-63983500D01*
X65830471Y-63983500D01*
X65950258Y-64063540D01*
X66141600Y-64101600D01*
X66465000Y-64101600D01*
X66465000Y-64408500D01*
X66860800Y-64408500D01*
X66860800Y-65258500D01*
X66465000Y-65258500D01*
X66465000Y-66088226D01*
X66505379Y-66103500D01*
X66465000Y-66118774D01*
X66465000Y-66948500D01*
X66890000Y-66948500D01*
X66890000Y-67798500D01*
X66465000Y-67798500D01*
X66465000Y-68628226D01*
X66682029Y-68710320D01*
X66890000Y-68571380D01*
X66890000Y-68748502D01*
X67523000Y-68748502D01*
X67523000Y-67978161D01*
X67713794Y-68263705D01*
X68111213Y-68529251D01*
X68580000Y-68622499D01*
X69048787Y-68529251D01*
X69446206Y-68263705D01*
X69711752Y-67866286D01*
X69805000Y-67397499D01*
X69805000Y-67349501D01*
X69895000Y-67349501D01*
X69895000Y-67397499D01*
X69988248Y-67866286D01*
X70253794Y-68263705D01*
X70651213Y-68529251D01*
X71120000Y-68622499D01*
X71588787Y-68529251D01*
X71986206Y-68263705D01*
X72251752Y-67866286D01*
X72345000Y-67397499D01*
X72345000Y-67349501D01*
X72251752Y-66880714D01*
X71986206Y-66483295D01*
X71588787Y-66217749D01*
X71120000Y-66124501D01*
X70651213Y-66217749D01*
X70253794Y-66483295D01*
X69988248Y-66880714D01*
X69895000Y-67349501D01*
X69805000Y-67349501D01*
X69711752Y-66880714D01*
X69446206Y-66483295D01*
X69048787Y-66217749D01*
X68580000Y-66124501D01*
X68128013Y-66214407D01*
X67860800Y-65947194D01*
X67860800Y-65821931D01*
X68111213Y-65989251D01*
X68580000Y-66082499D01*
X69048787Y-65989251D01*
X69446206Y-65723705D01*
X69711752Y-65326286D01*
X69805000Y-64857499D01*
X69805000Y-64809501D01*
X69723057Y-64397549D01*
X69887654Y-64232952D01*
X69887654Y-65683500D01*
X69913802Y-65822466D01*
X69995931Y-65950099D01*
X70121246Y-66035723D01*
X70270000Y-66065846D01*
X71970000Y-66065846D01*
X72108966Y-66039698D01*
X72236599Y-65957569D01*
X72322223Y-65832254D01*
X72352346Y-65683500D01*
X72352346Y-63983500D01*
X72331460Y-63872501D01*
X72509145Y-63946283D01*
X72567904Y-63946334D01*
X72981786Y-64422925D01*
X72969501Y-69975894D01*
X72969610Y-69976450D01*
X72969501Y-69977000D01*
X72988374Y-70071884D01*
X73007138Y-70167320D01*
X73007450Y-70167789D01*
X73007560Y-70168342D01*
X73061472Y-70249026D01*
X73115166Y-70329770D01*
X73115634Y-70330084D01*
X73115947Y-70330553D01*
X73477500Y-70692107D01*
X73477500Y-71048880D01*
X73507716Y-71200786D01*
X73515560Y-71240222D01*
X73623947Y-71402433D01*
X73982960Y-71761447D01*
X73982960Y-73609200D01*
X74012671Y-73758566D01*
X74021020Y-73800542D01*
X74129407Y-73962753D01*
X74485880Y-74319227D01*
X74485880Y-75632955D01*
X74404560Y-75754658D01*
X74366500Y-75946000D01*
X74366500Y-78394500D01*
X74404560Y-78585842D01*
X74512947Y-78748053D01*
X75190907Y-79426014D01*
X75101001Y-79878000D01*
X75194249Y-80346787D01*
X75459795Y-80744206D01*
X75857214Y-81009752D01*
X76326001Y-81103000D01*
X76373999Y-81103000D01*
X76842786Y-81009752D01*
X77240205Y-80744206D01*
X77505751Y-80346787D01*
X77598999Y-79878000D01*
X77505751Y-79409213D01*
X77240205Y-79011794D01*
X76842786Y-78746248D01*
X76373999Y-78653000D01*
X76326001Y-78653000D01*
X75914049Y-78734943D01*
X75366500Y-78187394D01*
X75366500Y-78064580D01*
X75459795Y-78204206D01*
X75857214Y-78469752D01*
X76326001Y-78563000D01*
X76373999Y-78563000D01*
X76842786Y-78469752D01*
X77240205Y-78204206D01*
X77505751Y-77806787D01*
X77598999Y-77338000D01*
X77505751Y-76869213D01*
X77240205Y-76471794D01*
X76842786Y-76206248D01*
X76373999Y-76113000D01*
X76326001Y-76113000D01*
X75857214Y-76206248D01*
X75459795Y-76471794D01*
X75366500Y-76611420D01*
X75366500Y-76139666D01*
X75447820Y-76017962D01*
X75485880Y-75826620D01*
X75485880Y-75681635D01*
X75857214Y-75929752D01*
X76326001Y-76023000D01*
X76373999Y-76023000D01*
X76842786Y-75929752D01*
X77240205Y-75664206D01*
X77505751Y-75266787D01*
X77598999Y-74798000D01*
X77505751Y-74329213D01*
X77240205Y-73931794D01*
X76842786Y-73666248D01*
X76373999Y-73573000D01*
X76326001Y-73573000D01*
X75914049Y-73654943D01*
X75470670Y-73211564D01*
X75470670Y-73131472D01*
X75857214Y-73389752D01*
X76326001Y-73483000D01*
X76373999Y-73483000D01*
X76842786Y-73389752D01*
X77240205Y-73124206D01*
X77505751Y-72726787D01*
X77598999Y-72258000D01*
X77505751Y-71789213D01*
X77240205Y-71391794D01*
X76842786Y-71126248D01*
X76373999Y-71033000D01*
X76326001Y-71033000D01*
X75857214Y-71126248D01*
X75470670Y-71384528D01*
X75470670Y-71264810D01*
X75432610Y-71073468D01*
X75324223Y-70911257D01*
X75112500Y-70699534D01*
X75112500Y-70294500D01*
X75098242Y-70222818D01*
X75091187Y-70150073D01*
X75079352Y-70127851D01*
X75074440Y-70103158D01*
X75033837Y-70042392D01*
X74999479Y-69977881D01*
X74775400Y-69704006D01*
X75142946Y-70071553D01*
X75175678Y-70093424D01*
X75194249Y-70186787D01*
X75459795Y-70584206D01*
X75857214Y-70849752D01*
X76326001Y-70943000D01*
X76373999Y-70943000D01*
X76842786Y-70849752D01*
X77240205Y-70584206D01*
X77505751Y-70186787D01*
X77598999Y-69718000D01*
X77505751Y-69249213D01*
X77240205Y-68851794D01*
X76842786Y-68586248D01*
X76373999Y-68493000D01*
X76326001Y-68493000D01*
X75857214Y-68586248D01*
X75459795Y-68851794D01*
X75410771Y-68925164D01*
X75049000Y-68563394D01*
X75049000Y-67178000D01*
X75101001Y-67178000D01*
X75194249Y-67646787D01*
X75459795Y-68044206D01*
X75857214Y-68309752D01*
X76326001Y-68403000D01*
X76373999Y-68403000D01*
X76842786Y-68309752D01*
X77240205Y-68044206D01*
X77505751Y-67646787D01*
X77598999Y-67178000D01*
X77505751Y-66709213D01*
X77240205Y-66311794D01*
X76842786Y-66046248D01*
X76373999Y-65953000D01*
X76326001Y-65953000D01*
X75857214Y-66046248D01*
X75459795Y-66311794D01*
X75194249Y-66709213D01*
X75101001Y-67178000D01*
X75049000Y-67178000D01*
X75049000Y-64262606D01*
X75154656Y-64368262D01*
X75101001Y-64638000D01*
X75194249Y-65106787D01*
X75459795Y-65504206D01*
X75857214Y-65769752D01*
X76326001Y-65863000D01*
X76373999Y-65863000D01*
X76842786Y-65769752D01*
X77240205Y-65504206D01*
X77505751Y-65106787D01*
X77598999Y-64638000D01*
X77505751Y-64169213D01*
X77240205Y-63771794D01*
X76842786Y-63506248D01*
X76373999Y-63413000D01*
X76326001Y-63413000D01*
X75857214Y-63506248D01*
X75767080Y-63566474D01*
X75620500Y-63419894D01*
X75620500Y-63071585D01*
X75857214Y-63229752D01*
X76326001Y-63323000D01*
X76373999Y-63323000D01*
X76842786Y-63229752D01*
X77240205Y-62964206D01*
X77505751Y-62566787D01*
X77598999Y-62098000D01*
X77505751Y-61629213D01*
X77240205Y-61231794D01*
X76842786Y-60966248D01*
X76373999Y-60873000D01*
X76326001Y-60873000D01*
X75857214Y-60966248D01*
X75620500Y-61124415D01*
X75620500Y-60531585D01*
X75857214Y-60689752D01*
X76326001Y-60783000D01*
X76373999Y-60783000D01*
X76842786Y-60689752D01*
X77240205Y-60424206D01*
X77505751Y-60026787D01*
X77598999Y-59558000D01*
X77505751Y-59089213D01*
X77350258Y-58856500D01*
X77406500Y-58856500D01*
X77597842Y-58818440D01*
X77744160Y-58720672D01*
X77744160Y-82834677D01*
X77106976Y-83471860D01*
X76959360Y-83471860D01*
X77240205Y-83284206D01*
X77505751Y-82886787D01*
X77598999Y-82418000D01*
X77505751Y-81949213D01*
X77240205Y-81551794D01*
X76842786Y-81286248D01*
X76373999Y-81193000D01*
X76326001Y-81193000D01*
X75857214Y-81286248D01*
X75459795Y-81551794D01*
X75194249Y-81949213D01*
X75101001Y-82418000D01*
X75194249Y-82886787D01*
X75314218Y-83066334D01*
X73873342Y-81625458D01*
X73670577Y-81489975D01*
X73557889Y-81467560D01*
X73242483Y-80995520D01*
X72763958Y-80675781D01*
X72199500Y-80563503D01*
X71635042Y-80675781D01*
X71156517Y-80995520D01*
X70836778Y-81474045D01*
X70724500Y-82038503D01*
X70724500Y-82096297D01*
X70836778Y-82660755D01*
X71156517Y-83139280D01*
X71635042Y-83459019D01*
X72199500Y-83571297D01*
X72763958Y-83459019D01*
X73242483Y-83139280D01*
X73393453Y-82913337D01*
X75018918Y-84538802D01*
X75221683Y-84674285D01*
X75460860Y-84721860D01*
X75922295Y-84721860D01*
X75839464Y-84804547D01*
X75660204Y-85236253D01*
X75659796Y-85703697D01*
X75838302Y-86135715D01*
X76168547Y-86466536D01*
X76600253Y-86645796D01*
X77067697Y-86646204D01*
X77499715Y-86467698D01*
X77830536Y-86137453D01*
X78009796Y-85705747D01*
X78010204Y-85238303D01*
X77831698Y-84806285D01*
X77661960Y-84636251D01*
X77807802Y-84538802D01*
X78811099Y-83535504D01*
X78811102Y-83535502D01*
X78946585Y-83332737D01*
X78994160Y-83093560D01*
X78994160Y-46949164D01*
X79705182Y-46238142D01*
X79840665Y-46035377D01*
X79888240Y-45796200D01*
X79888240Y-40401245D01*
X79888241Y-40401240D01*
X79840665Y-40162063D01*
X79705182Y-39959298D01*
X78541942Y-38796058D01*
X78339177Y-38660575D01*
X78100000Y-38613000D01*
X77401373Y-38613000D01*
X77240205Y-38371794D01*
X76954661Y-38181000D01*
X77725002Y-38181000D01*
X77725002Y-37548000D01*
X77547880Y-37548000D01*
X77686820Y-37340029D01*
X77604726Y-37123000D01*
X76775000Y-37123000D01*
X76775000Y-37548000D01*
X75925000Y-37548000D01*
X75925000Y-37123000D01*
X75555000Y-37123000D01*
X75555000Y-36273000D01*
X75925000Y-36273000D01*
X75925000Y-35848000D01*
X76775000Y-35848000D01*
X76775000Y-36273000D01*
X77604726Y-36273000D01*
X77686820Y-36055971D01*
X77547880Y-35848000D01*
X77725002Y-35848000D01*
X77725002Y-35215000D01*
X77512425Y-35215000D01*
X77552223Y-35156754D01*
X77582346Y-35008000D01*
X77582346Y-33308000D01*
X77556198Y-33169034D01*
X77474069Y-33041401D01*
X77348754Y-32955777D01*
X77200000Y-32925654D01*
X75500000Y-32925654D01*
X75361034Y-32951802D01*
X75233401Y-33033931D01*
X75147777Y-33159246D01*
X75117654Y-33308000D01*
X75117654Y-34506462D01*
X74488058Y-35136058D01*
X74352575Y-35338823D01*
X74305000Y-35578000D01*
X74305000Y-35706193D01*
X73623706Y-35024899D01*
X73683766Y-35013598D01*
X73811399Y-34931469D01*
X73897023Y-34806154D01*
X73927146Y-34657400D01*
X73927146Y-32957400D01*
X73900998Y-32818434D01*
X73818869Y-32690801D01*
X73693554Y-32605177D01*
X73544800Y-32575054D01*
X71844800Y-32575054D01*
X71705834Y-32601202D01*
X71578201Y-32683331D01*
X71492577Y-32808646D01*
X71462454Y-32957400D01*
X71462454Y-34657400D01*
X71488602Y-34796366D01*
X71570731Y-34923999D01*
X71696046Y-35009623D01*
X71844800Y-35039746D01*
X73211707Y-35039746D01*
X72959412Y-35292041D01*
X73081954Y-35414583D01*
X72863620Y-35458013D01*
X72772102Y-35670416D01*
X73366000Y-36264315D01*
X73648843Y-35981472D01*
X74214528Y-36547157D01*
X73931685Y-36830000D01*
X74214528Y-37112843D01*
X73648843Y-37678528D01*
X73366000Y-37395685D01*
X72772102Y-37989584D01*
X72863620Y-38201987D01*
X73090078Y-38237293D01*
X72959412Y-38367959D01*
X73425130Y-38833677D01*
X73426917Y-38831890D01*
X73393140Y-39001700D01*
X73393140Y-43705976D01*
X72924058Y-44175058D01*
X72788575Y-44377823D01*
X72776566Y-44438197D01*
X72701285Y-44469302D01*
X72370464Y-44799547D01*
X72258828Y-45068396D01*
X72237987Y-44963620D01*
X72025584Y-44872102D01*
X71431685Y-45466000D01*
X71714528Y-45748843D01*
X71148843Y-46314528D01*
X70866000Y-46031685D01*
X70272102Y-46625584D01*
X70363620Y-46837987D01*
X70590078Y-46873293D01*
X70576957Y-46886414D01*
X70541823Y-46886383D01*
X70293643Y-46988929D01*
X70103597Y-47178644D01*
X70000617Y-47426645D01*
X70000383Y-47695177D01*
X70102929Y-47943357D01*
X70289071Y-48129823D01*
X70214394Y-48204500D01*
X69866607Y-48204500D01*
X69778500Y-48116394D01*
X69778500Y-45987814D01*
X70300315Y-45466000D01*
X70017472Y-45183157D01*
X70583157Y-44617472D01*
X70866000Y-44900315D01*
X71459898Y-44306416D01*
X71368380Y-44094013D01*
X71270492Y-44078752D01*
X71350383Y-43886355D01*
X71350617Y-43617823D01*
X71248071Y-43369643D01*
X71058356Y-43179597D01*
X70810355Y-43076617D01*
X70541823Y-43076383D01*
X70293643Y-43178929D01*
X70103597Y-43368644D01*
X70000617Y-43616645D01*
X70000527Y-43719366D01*
X69910164Y-43809729D01*
X69724856Y-43624097D01*
X69476855Y-43521117D01*
X69374134Y-43521027D01*
X69091354Y-43238248D01*
X69191383Y-42997355D01*
X69191617Y-42728823D01*
X69089071Y-42480643D01*
X68899356Y-42290597D01*
X68651355Y-42187617D01*
X68382823Y-42187383D01*
X68134643Y-42289929D01*
X67944597Y-42479644D01*
X67841617Y-42727645D01*
X67841383Y-42996177D01*
X67943929Y-43244357D01*
X68016500Y-43317055D01*
X68016500Y-43370500D01*
X68054225Y-43560159D01*
X68054560Y-43561842D01*
X68162947Y-43724053D01*
X68666972Y-44228078D01*
X68666883Y-44329677D01*
X68769429Y-44577857D01*
X68955571Y-44764323D01*
X68924947Y-44794947D01*
X68816560Y-44957158D01*
X68778500Y-45148500D01*
X68778500Y-45174725D01*
X68624198Y-44801285D01*
X68293953Y-44470464D01*
X67862247Y-44291204D01*
X67394803Y-44290796D01*
X66962785Y-44469302D01*
X66631964Y-44799547D01*
X66452704Y-45231253D01*
X66452296Y-45698697D01*
X66630802Y-46130715D01*
X66961047Y-46461536D01*
X67229896Y-46573172D01*
X67125120Y-46594013D01*
X67033602Y-46806416D01*
X67627500Y-47400315D01*
X68221398Y-46806416D01*
X68129880Y-46594013D01*
X68017000Y-46576415D01*
X68292215Y-46462698D01*
X68623036Y-46132453D01*
X68778500Y-45758054D01*
X68778500Y-47380686D01*
X68193185Y-47966000D01*
X68787084Y-48559898D01*
X68833347Y-48539965D01*
X68924947Y-48677053D01*
X68991489Y-48743595D01*
X68984617Y-48760145D01*
X68984383Y-49028677D01*
X69086929Y-49276857D01*
X69189805Y-49379913D01*
X68953615Y-49281837D01*
X68685083Y-49281603D01*
X68436903Y-49384149D01*
X68246857Y-49573864D01*
X68143877Y-49821865D01*
X68143643Y-50090397D01*
X68246189Y-50338577D01*
X68318760Y-50411275D01*
X68318760Y-50994214D01*
X66283347Y-53029627D01*
X66240334Y-53094000D01*
X64088106Y-53094000D01*
X63492000Y-52497894D01*
X63492000Y-51391027D01*
X63657245Y-51459643D01*
X63925777Y-51459877D01*
X64173957Y-51357331D01*
X64364003Y-51167616D01*
X64466983Y-50919615D01*
X64467217Y-50651083D01*
X64364671Y-50402903D01*
X64293493Y-50331601D01*
X64294638Y-49958254D01*
X64294487Y-49957483D01*
X64294639Y-49956720D01*
X64275804Y-49862027D01*
X64257938Y-49770745D01*
X64456870Y-49969677D01*
X64922588Y-49503959D01*
X64800046Y-49381417D01*
X65018380Y-49337987D01*
X65109898Y-49125584D01*
X67033602Y-49125584D01*
X67125120Y-49337987D01*
X67688397Y-49425804D01*
X68129880Y-49337987D01*
X68221398Y-49125584D01*
X67627500Y-48531685D01*
X67033602Y-49125584D01*
X65109898Y-49125584D01*
X64516000Y-48531685D01*
X64233157Y-48814528D01*
X63667472Y-48248843D01*
X63950315Y-47966000D01*
X65081685Y-47966000D01*
X65675584Y-48559898D01*
X65887987Y-48468380D01*
X65956815Y-48026897D01*
X66167696Y-48026897D01*
X66255513Y-48468380D01*
X66467916Y-48559898D01*
X67061815Y-47966000D01*
X66467916Y-47372102D01*
X66255513Y-47463620D01*
X66167696Y-48026897D01*
X65956815Y-48026897D01*
X65975804Y-47905103D01*
X65887987Y-47463620D01*
X65675584Y-47372102D01*
X65081685Y-47966000D01*
X63950315Y-47966000D01*
X63667472Y-47683157D01*
X64233157Y-47117472D01*
X64516000Y-47400315D01*
X65109898Y-46806416D01*
X65018380Y-46594013D01*
X64905500Y-46576415D01*
X65180715Y-46462698D01*
X65511536Y-46132453D01*
X65690796Y-45700747D01*
X65691204Y-45233303D01*
X65512698Y-44801285D01*
X65182453Y-44470464D01*
X64750747Y-44291204D01*
X64283303Y-44290796D01*
X63851285Y-44469302D01*
X63520464Y-44799547D01*
X63341204Y-45231253D01*
X63340796Y-45698697D01*
X63441482Y-45942376D01*
X62269093Y-44769987D01*
X62358999Y-44318000D01*
X62265751Y-43849213D01*
X62000205Y-43451794D01*
X61602786Y-43186248D01*
X61133999Y-43093000D01*
X61086001Y-43093000D01*
X60617214Y-43186248D01*
X60317000Y-43386844D01*
X60317000Y-42709156D01*
X60617214Y-42909752D01*
X61086001Y-43003000D01*
X61133999Y-43003000D01*
X61602786Y-42909752D01*
X62000205Y-42644206D01*
X62265751Y-42246787D01*
X62358999Y-41778000D01*
X62265751Y-41309213D01*
X62222041Y-41243795D01*
X65495805Y-41243795D01*
X65666715Y-41657429D01*
X65982907Y-41974172D01*
X66396242Y-42145804D01*
X66843795Y-42146195D01*
X67257429Y-41975285D01*
X67574172Y-41659093D01*
X67745804Y-41245758D01*
X67745805Y-41243795D01*
X70375805Y-41243795D01*
X70546715Y-41657429D01*
X70862907Y-41974172D01*
X71276242Y-42145804D01*
X71723795Y-42146195D01*
X72137429Y-41975285D01*
X72454172Y-41659093D01*
X72625804Y-41245758D01*
X72626195Y-40798205D01*
X72455285Y-40384571D01*
X72139093Y-40067828D01*
X71725758Y-39896196D01*
X71278205Y-39895805D01*
X70864571Y-40066715D01*
X70547828Y-40382907D01*
X70376196Y-40796242D01*
X70375805Y-41243795D01*
X67745805Y-41243795D01*
X67746195Y-40798205D01*
X67575285Y-40384571D01*
X67259093Y-40067828D01*
X66845758Y-39896196D01*
X66398205Y-39895805D01*
X65984571Y-40066715D01*
X65667828Y-40382907D01*
X65496196Y-40796242D01*
X65495805Y-41243795D01*
X62222041Y-41243795D01*
X62000205Y-40911794D01*
X61602786Y-40646248D01*
X61133999Y-40553000D01*
X61086001Y-40553000D01*
X60617214Y-40646248D01*
X60317000Y-40846844D01*
X60317000Y-40169156D01*
X60617214Y-40369752D01*
X61086001Y-40463000D01*
X61133999Y-40463000D01*
X61602786Y-40369752D01*
X62000205Y-40104206D01*
X62265751Y-39706787D01*
X62358999Y-39238000D01*
X62265751Y-38769213D01*
X62000205Y-38371794D01*
X61602786Y-38106248D01*
X61133999Y-38013000D01*
X61086001Y-38013000D01*
X60617214Y-38106248D01*
X60317000Y-38306844D01*
X60317000Y-37629156D01*
X60617214Y-37829752D01*
X61086001Y-37923000D01*
X61133999Y-37923000D01*
X61602786Y-37829752D01*
X62000205Y-37564206D01*
X62265751Y-37166787D01*
X62286455Y-37062697D01*
X63594796Y-37062697D01*
X63773302Y-37494715D01*
X64103547Y-37825536D01*
X64535253Y-38004796D01*
X65002697Y-38005204D01*
X65040500Y-37989584D01*
X66676102Y-37989584D01*
X66767620Y-38201987D01*
X67330897Y-38289804D01*
X67772380Y-38201987D01*
X67863898Y-37989584D01*
X67270000Y-37395685D01*
X66676102Y-37989584D01*
X65040500Y-37989584D01*
X65434715Y-37826698D01*
X65765536Y-37496453D01*
X65877172Y-37227604D01*
X65898013Y-37332380D01*
X66110416Y-37423898D01*
X66704315Y-36830000D01*
X67835685Y-36830000D01*
X68429584Y-37423898D01*
X68641987Y-37332380D01*
X68684031Y-37062697D01*
X69690796Y-37062697D01*
X69869302Y-37494715D01*
X70199547Y-37825536D01*
X70631253Y-38004796D01*
X71098697Y-38005204D01*
X71530715Y-37826698D01*
X71861536Y-37496453D01*
X71973172Y-37227604D01*
X71994013Y-37332380D01*
X72206416Y-37423898D01*
X72800315Y-36830000D01*
X72206416Y-36236102D01*
X71994013Y-36327620D01*
X71976415Y-36440500D01*
X71862698Y-36165285D01*
X71532453Y-35834464D01*
X71100747Y-35655204D01*
X70633303Y-35654796D01*
X70201285Y-35833302D01*
X69870464Y-36163547D01*
X69691204Y-36595253D01*
X69690796Y-37062697D01*
X68684031Y-37062697D01*
X68729804Y-36769103D01*
X68641987Y-36327620D01*
X68429584Y-36236102D01*
X67835685Y-36830000D01*
X66704315Y-36830000D01*
X66110416Y-36236102D01*
X65898013Y-36327620D01*
X65880415Y-36440500D01*
X65766698Y-36165285D01*
X65436453Y-35834464D01*
X65041382Y-35670416D01*
X66676102Y-35670416D01*
X67270000Y-36264315D01*
X67863898Y-35670416D01*
X67772380Y-35458013D01*
X67209103Y-35370196D01*
X66767620Y-35458013D01*
X66676102Y-35670416D01*
X65041382Y-35670416D01*
X65004747Y-35655204D01*
X64537303Y-35654796D01*
X64105285Y-35833302D01*
X63774464Y-36163547D01*
X63595204Y-36595253D01*
X63594796Y-37062697D01*
X62286455Y-37062697D01*
X62358999Y-36698000D01*
X62265751Y-36229213D01*
X62000205Y-35831794D01*
X61602786Y-35566248D01*
X61133999Y-35473000D01*
X61086001Y-35473000D01*
X60617214Y-35566248D01*
X60317000Y-35766844D01*
X60317000Y-35576606D01*
X60503260Y-35390346D01*
X61960000Y-35390346D01*
X62098966Y-35364198D01*
X62226599Y-35282069D01*
X62312223Y-35156754D01*
X62342346Y-35008000D01*
X62342346Y-34449434D01*
X63737946Y-34449434D01*
X64085404Y-34912154D01*
X64432771Y-35144220D01*
X64649800Y-35062126D01*
X64649800Y-34232400D01*
X63812219Y-34232400D01*
X63737946Y-34449434D01*
X62342346Y-34449434D01*
X62342346Y-33308000D01*
X62316198Y-33169034D01*
X62313838Y-33165366D01*
X63737946Y-33165366D01*
X63812219Y-33382400D01*
X64649800Y-33382400D01*
X64649800Y-32552674D01*
X65499800Y-32552674D01*
X65499800Y-33382400D01*
X65924800Y-33382400D01*
X65924800Y-34232400D01*
X65499800Y-34232400D01*
X65499800Y-35062126D01*
X65716829Y-35144220D01*
X65924800Y-35005280D01*
X65924800Y-35182402D01*
X66557800Y-35182402D01*
X66557800Y-34412061D01*
X66748594Y-34697605D01*
X67146013Y-34963151D01*
X67614800Y-35056399D01*
X68083587Y-34963151D01*
X68481006Y-34697605D01*
X68746552Y-34300186D01*
X68839800Y-33831399D01*
X68839800Y-33783401D01*
X68929800Y-33783401D01*
X68929800Y-33831399D01*
X69023048Y-34300186D01*
X69288594Y-34697605D01*
X69686013Y-34963151D01*
X70154800Y-35056399D01*
X70623587Y-34963151D01*
X71021006Y-34697605D01*
X71286552Y-34300186D01*
X71379800Y-33831399D01*
X71379800Y-33783401D01*
X71286552Y-33314614D01*
X71021006Y-32917195D01*
X70623587Y-32651649D01*
X70154800Y-32558401D01*
X69686013Y-32651649D01*
X69288594Y-32917195D01*
X69023048Y-33314614D01*
X68929800Y-33783401D01*
X68839800Y-33783401D01*
X68746552Y-33314614D01*
X68481006Y-32917195D01*
X68083587Y-32651649D01*
X67614800Y-32558401D01*
X67146013Y-32651649D01*
X66748594Y-32917195D01*
X66557800Y-33202739D01*
X66557800Y-32432398D01*
X65924800Y-32432398D01*
X65924800Y-32609520D01*
X65716829Y-32470580D01*
X65499800Y-32552674D01*
X64649800Y-32552674D01*
X64432771Y-32470580D01*
X64085404Y-32702646D01*
X63737946Y-33165366D01*
X62313838Y-33165366D01*
X62234069Y-33041401D01*
X62108754Y-32955777D01*
X61960000Y-32925654D01*
X60260000Y-32925654D01*
X60121034Y-32951802D01*
X59993401Y-33033931D01*
X59907777Y-33159246D01*
X59877654Y-33308000D01*
X59877654Y-34601740D01*
X59463447Y-35015947D01*
X59355060Y-35178158D01*
X59317000Y-35369500D01*
X59317000Y-36980677D01*
X59316855Y-36980617D01*
X59048323Y-36980383D01*
X58800143Y-37082929D01*
X58610097Y-37272644D01*
X58507117Y-37520645D01*
X58506883Y-37789177D01*
X58609429Y-38037357D01*
X58745500Y-38173665D01*
X58745500Y-52260500D01*
X58773335Y-52400435D01*
X58783560Y-52451842D01*
X58891947Y-52614053D01*
X59285154Y-53007260D01*
X58960527Y-53331887D01*
X58852140Y-53494098D01*
X58814080Y-53685440D01*
X58814080Y-84243743D01*
X58807053Y-84236704D01*
X58375347Y-84057444D01*
X57907903Y-84057036D01*
X57475885Y-84235542D01*
X57145064Y-84565787D01*
X56965804Y-84997493D01*
X56965396Y-85464937D01*
X57143902Y-85896955D01*
X57474147Y-86227776D01*
X57640600Y-86296893D01*
X57640600Y-87939880D01*
X57678660Y-88131222D01*
X57787047Y-88293433D01*
X58252426Y-88758813D01*
X58017823Y-88855749D01*
X57827777Y-89045464D01*
X57724797Y-89293465D01*
X57724563Y-89561997D01*
X57827109Y-89810177D01*
X57899680Y-89882875D01*
X57899680Y-91338400D01*
X57924269Y-91462018D01*
X57937740Y-91529742D01*
X58034956Y-91675234D01*
X57690947Y-91743662D01*
X57309750Y-91998370D01*
X57055042Y-92379567D01*
X56965600Y-92829220D01*
X56965600Y-92875260D01*
X57055042Y-93324913D01*
X57309750Y-93706110D01*
X57676315Y-93951041D01*
X57399685Y-94065342D01*
X57068864Y-94395587D01*
X56889604Y-94827293D01*
X56889196Y-95294737D01*
X55613840Y-95294737D01*
X55613840Y-29909040D01*
X55656480Y-29909040D01*
X55705112Y-29899192D01*
X55746081Y-29871199D01*
X55772931Y-29829472D01*
X55780224Y-29801718D01*
X55820772Y-29517880D01*
X81236280Y-29517880D01*
X81236280Y-104705880D01*
X81236280Y-104705880D01*
G37*
X81236280Y-104705880D02*
X55613840Y-104705880D01*
X55613840Y-102659020D01*
X56889400Y-102659020D01*
X56889400Y-102705060D01*
X56978842Y-103154713D01*
X57233550Y-103535910D01*
X57614747Y-103790618D01*
X58064400Y-103880060D01*
X58514053Y-103790618D01*
X58895250Y-103535910D01*
X59149958Y-103154713D01*
X59182398Y-102991624D01*
X65933650Y-102991624D01*
X66110498Y-103224657D01*
X66896078Y-103296803D01*
X67258782Y-103224657D01*
X67435630Y-102991624D01*
X77933650Y-102991624D01*
X78110498Y-103224657D01*
X78896078Y-103296803D01*
X79258782Y-103224657D01*
X79435630Y-102991624D01*
X78684640Y-102240634D01*
X77933650Y-102991624D01*
X67435630Y-102991624D01*
X66684640Y-102240634D01*
X65933650Y-102991624D01*
X59182398Y-102991624D01*
X59239400Y-102705060D01*
X59239400Y-102659020D01*
X59149958Y-102209367D01*
X58895250Y-101828170D01*
X58514053Y-101573462D01*
X58064400Y-101484020D01*
X57614747Y-101573462D01*
X57233550Y-101828170D01*
X56978842Y-102209367D01*
X56889400Y-102659020D01*
X55613840Y-102659020D01*
X55613840Y-95294737D01*
X56889196Y-95294737D01*
X57067702Y-95726755D01*
X57397947Y-96057576D01*
X57829653Y-96236836D01*
X58297097Y-96237244D01*
X58729115Y-96058738D01*
X59059936Y-95728493D01*
X59239196Y-95296787D01*
X59239219Y-95269967D01*
X59408440Y-95100746D01*
X59408440Y-95265240D01*
X59438347Y-95415593D01*
X59446500Y-95456582D01*
X59554887Y-95618793D01*
X61142372Y-97206278D01*
X61139578Y-97209067D01*
X60945062Y-97677514D01*
X60944619Y-98184741D01*
X61138317Y-98653526D01*
X61496667Y-99012502D01*
X61923875Y-99189894D01*
X61319840Y-99189894D01*
X61180874Y-99216042D01*
X61053241Y-99298171D01*
X60967617Y-99423486D01*
X60937494Y-99572240D01*
X60937494Y-101372240D01*
X60963642Y-101511206D01*
X61045771Y-101638839D01*
X61171086Y-101724463D01*
X61319840Y-101754586D01*
X63119840Y-101754586D01*
X63258806Y-101728438D01*
X63386439Y-101646309D01*
X63472063Y-101520994D01*
X63476825Y-101497478D01*
X64673877Y-101497478D01*
X64746023Y-101860182D01*
X64979056Y-102037030D01*
X65730046Y-101286040D01*
X67639234Y-101286040D01*
X68390224Y-102037030D01*
X68623257Y-101860182D01*
X68656566Y-101497478D01*
X76673877Y-101497478D01*
X76746023Y-101860182D01*
X76979056Y-102037030D01*
X77730046Y-101286040D01*
X79639234Y-101286040D01*
X80390224Y-102037030D01*
X80623257Y-101860182D01*
X80695403Y-101074602D01*
X80623257Y-100711898D01*
X80390224Y-100535050D01*
X79639234Y-101286040D01*
X77730046Y-101286040D01*
X76979056Y-100535050D01*
X76746023Y-100711898D01*
X76673877Y-101497478D01*
X68656566Y-101497478D01*
X68695403Y-101074602D01*
X68623257Y-100711898D01*
X68390224Y-100535050D01*
X67639234Y-101286040D01*
X65730046Y-101286040D01*
X64979056Y-100535050D01*
X64746023Y-100711898D01*
X64673877Y-101497478D01*
X63476825Y-101497478D01*
X63502186Y-101372240D01*
X63502186Y-99580456D01*
X65933650Y-99580456D01*
X66684640Y-100331446D01*
X67435630Y-99580456D01*
X67258782Y-99347423D01*
X66473202Y-99275277D01*
X66110498Y-99347423D01*
X65933650Y-99580456D01*
X63502186Y-99580456D01*
X63502186Y-99572240D01*
X63476038Y-99433274D01*
X63393909Y-99305641D01*
X63268594Y-99220017D01*
X63119840Y-99189894D01*
X62514856Y-99189894D01*
X62941126Y-99013763D01*
X63300102Y-98655413D01*
X63494618Y-98186966D01*
X63495061Y-97679739D01*
X63301363Y-97210954D01*
X62943013Y-96851978D01*
X62843882Y-96810815D01*
X70279443Y-96810815D01*
X70451873Y-97228126D01*
X70770875Y-97547685D01*
X70862955Y-97585920D01*
X70772554Y-97623273D01*
X70452995Y-97942275D01*
X70279837Y-98359284D01*
X70279443Y-98810815D01*
X70451873Y-99228126D01*
X70770875Y-99547685D01*
X71187884Y-99720843D01*
X71639415Y-99721237D01*
X71676959Y-99705724D01*
X73372357Y-99705724D01*
X73457676Y-99916547D01*
X74004668Y-100005448D01*
X74451604Y-99916547D01*
X74536923Y-99705724D01*
X74411655Y-99580456D01*
X77933650Y-99580456D01*
X78684640Y-100331446D01*
X79435630Y-99580456D01*
X79258782Y-99347423D01*
X78473202Y-99275277D01*
X78110498Y-99347423D01*
X77933650Y-99580456D01*
X74411655Y-99580456D01*
X73954640Y-99123441D01*
X73372357Y-99705724D01*
X71676959Y-99705724D01*
X72056726Y-99548807D01*
X72376285Y-99229805D01*
X72549443Y-98812796D01*
X72549534Y-98707971D01*
X72624133Y-99083004D01*
X72834956Y-99168323D01*
X73417239Y-98586040D01*
X74492041Y-98586040D01*
X75074324Y-99168323D01*
X75285147Y-99083004D01*
X75374048Y-98536012D01*
X75285147Y-98089076D01*
X75074324Y-98003757D01*
X74492041Y-98586040D01*
X73417239Y-98586040D01*
X72834956Y-98003757D01*
X72624133Y-98089076D01*
X72549675Y-98547204D01*
X72549837Y-98361265D01*
X72377407Y-97943954D01*
X72058405Y-97624395D01*
X71966325Y-97586160D01*
X72056726Y-97548807D01*
X72376285Y-97229805D01*
X72549443Y-96812796D01*
X72549837Y-96361265D01*
X72377407Y-95943954D01*
X72058405Y-95624395D01*
X71641396Y-95451237D01*
X71189865Y-95450843D01*
X70772554Y-95623273D01*
X70452995Y-95942275D01*
X70279837Y-96359284D01*
X70279443Y-96810815D01*
X62843882Y-96810815D01*
X62474566Y-96657462D01*
X62007361Y-96657054D01*
X60408440Y-95058134D01*
X60408440Y-94414653D01*
X60486587Y-94492936D01*
X60918293Y-94672196D01*
X61385737Y-94672604D01*
X61423540Y-94656984D01*
X63059142Y-94656984D01*
X63150660Y-94869387D01*
X63713937Y-94957204D01*
X64155420Y-94869387D01*
X64246938Y-94656984D01*
X63653040Y-94063085D01*
X63059142Y-94656984D01*
X61423540Y-94656984D01*
X61817755Y-94494098D01*
X62148576Y-94163853D01*
X62260212Y-93895004D01*
X62281053Y-93999780D01*
X62493456Y-94091298D01*
X63087355Y-93497400D01*
X64218725Y-93497400D01*
X64812624Y-94091298D01*
X65025027Y-93999780D01*
X65112844Y-93436503D01*
X65025027Y-92995020D01*
X64812624Y-92903502D01*
X64218725Y-93497400D01*
X63087355Y-93497400D01*
X62493456Y-92903502D01*
X62281053Y-92995020D01*
X62263455Y-93107900D01*
X62149738Y-92832685D01*
X61819493Y-92501864D01*
X61424422Y-92337816D01*
X63059142Y-92337816D01*
X63653040Y-92931715D01*
X64246938Y-92337816D01*
X64155420Y-92125413D01*
X63592143Y-92037596D01*
X63150660Y-92125413D01*
X63059142Y-92337816D01*
X61424422Y-92337816D01*
X61387787Y-92322604D01*
X61188116Y-92322430D01*
X61225166Y-92285380D01*
X61184982Y-92245196D01*
X61488979Y-92184727D01*
X61611502Y-91964609D01*
X66808498Y-91964609D01*
X66931021Y-92184727D01*
X67575440Y-92266985D01*
X67988979Y-92184727D01*
X68111502Y-91964609D01*
X67460000Y-91313107D01*
X66808498Y-91964609D01*
X61611502Y-91964609D01*
X60960000Y-91313107D01*
X60606447Y-91666661D01*
X60012200Y-91072414D01*
X60012200Y-90846693D01*
X60252893Y-90606000D01*
X61667107Y-90606000D01*
X62318609Y-91257502D01*
X62538727Y-91134979D01*
X62591513Y-90721440D01*
X65799015Y-90721440D01*
X65881273Y-91134979D01*
X66101391Y-91257502D01*
X66752893Y-90606000D01*
X68167107Y-90606000D01*
X68818609Y-91257502D01*
X69038727Y-91134979D01*
X69120985Y-90490560D01*
X69038727Y-90077021D01*
X68818609Y-89954498D01*
X68167107Y-90606000D01*
X66752893Y-90606000D01*
X66101391Y-89954498D01*
X65881273Y-90077021D01*
X65799015Y-90721440D01*
X62591513Y-90721440D01*
X62620985Y-90490560D01*
X62538727Y-90077021D01*
X62318609Y-89954498D01*
X61667107Y-90606000D01*
X60252893Y-90606000D01*
X60012200Y-90365307D01*
X60012200Y-90139586D01*
X60606447Y-89545340D01*
X60960000Y-89898893D01*
X61611502Y-89247391D01*
X66808498Y-89247391D01*
X67460000Y-89898893D01*
X68111502Y-89247391D01*
X67988979Y-89027273D01*
X67344560Y-88945015D01*
X66931021Y-89027273D01*
X66808498Y-89247391D01*
X61611502Y-89247391D01*
X61488979Y-89027273D01*
X61165770Y-88986016D01*
X61225166Y-88926620D01*
X60756678Y-88458131D01*
X60012200Y-89202609D01*
X60012200Y-89143840D01*
X59974140Y-88952498D01*
X59865753Y-88790287D01*
X59703542Y-88681900D01*
X59561467Y-88653640D01*
X58877538Y-87969712D01*
X59021037Y-87969837D01*
X59269217Y-87867291D01*
X59459263Y-87677576D01*
X59562243Y-87429575D01*
X59562333Y-87326854D01*
X59720552Y-87168635D01*
X59785524Y-87071396D01*
X59828938Y-87006424D01*
X59843404Y-86933696D01*
X60180108Y-87270989D01*
X60685296Y-87480761D01*
X61232305Y-87481238D01*
X61737857Y-87272348D01*
X62124989Y-86885892D01*
X62241210Y-86606000D01*
X66178844Y-86606000D01*
X66293652Y-86883857D01*
X66680108Y-87270989D01*
X67185296Y-87480761D01*
X67732305Y-87481238D01*
X68237857Y-87272348D01*
X68424900Y-87085632D01*
X68424900Y-87109300D01*
X68472475Y-87348477D01*
X68607958Y-87551242D01*
X71272240Y-90215524D01*
X71272240Y-91953991D01*
X70934653Y-91728422D01*
X70485000Y-91638980D01*
X70035347Y-91728422D01*
X69654150Y-91983130D01*
X69399442Y-92364327D01*
X69310000Y-92813980D01*
X69310000Y-92860020D01*
X69399442Y-93309673D01*
X69654150Y-93690870D01*
X70035347Y-93945578D01*
X70485000Y-94035020D01*
X70934653Y-93945578D01*
X71272240Y-93720009D01*
X71272240Y-94340680D01*
X71319815Y-94579857D01*
X71455298Y-94782622D01*
X72882075Y-96209399D01*
X72819837Y-96359284D01*
X72819443Y-96810815D01*
X72991873Y-97228126D01*
X73310875Y-97547685D01*
X73555096Y-97649095D01*
X73954640Y-98048639D01*
X74354306Y-97648973D01*
X74596726Y-97548807D01*
X74916285Y-97229805D01*
X75089443Y-96812796D01*
X75089837Y-96361265D01*
X74917407Y-95943954D01*
X74598405Y-95624395D01*
X74181396Y-95451237D01*
X73891428Y-95450984D01*
X72522240Y-94081796D01*
X72522240Y-93294616D01*
X72702150Y-93563870D01*
X73083347Y-93818578D01*
X73533000Y-93908020D01*
X73982653Y-93818578D01*
X74363850Y-93563870D01*
X74618558Y-93182673D01*
X74641371Y-93067980D01*
X75660000Y-93067980D01*
X75660000Y-93114020D01*
X75749442Y-93563673D01*
X76004150Y-93944870D01*
X76385347Y-94199578D01*
X76835000Y-94289020D01*
X77284653Y-94199578D01*
X77665850Y-93944870D01*
X77920558Y-93563673D01*
X78010000Y-93114020D01*
X78010000Y-93067980D01*
X77920558Y-92618327D01*
X77665850Y-92237130D01*
X77284653Y-91982422D01*
X76835000Y-91892980D01*
X76385347Y-91982422D01*
X76004150Y-92237130D01*
X75749442Y-92618327D01*
X75660000Y-93067980D01*
X74641371Y-93067980D01*
X74708000Y-92733020D01*
X74708000Y-92686980D01*
X74618558Y-92237327D01*
X74363850Y-91856130D01*
X73982653Y-91601422D01*
X73533000Y-91511980D01*
X73083347Y-91601422D01*
X72702150Y-91856130D01*
X72522240Y-92125384D01*
X72522240Y-89956640D01*
X72474665Y-89717463D01*
X72339182Y-89514698D01*
X69674900Y-86850416D01*
X69674900Y-86068638D01*
X69818547Y-86212536D01*
X70250253Y-86391796D01*
X70717697Y-86392204D01*
X71149715Y-86213698D01*
X71480536Y-85883453D01*
X71659796Y-85451747D01*
X71659908Y-85322697D01*
X72357796Y-85322697D01*
X72536302Y-85754715D01*
X72866547Y-86085536D01*
X73298253Y-86264796D01*
X73765697Y-86265204D01*
X74197715Y-86086698D01*
X74528536Y-85756453D01*
X74707796Y-85324747D01*
X74708204Y-84857303D01*
X74529698Y-84425285D01*
X74199453Y-84094464D01*
X73767747Y-83915204D01*
X73300303Y-83914796D01*
X72868285Y-84093302D01*
X72537464Y-84423547D01*
X72358204Y-84855253D01*
X72357796Y-85322697D01*
X71659908Y-85322697D01*
X71660204Y-84984303D01*
X71481698Y-84552285D01*
X71151453Y-84221464D01*
X70719747Y-84042204D01*
X70252303Y-84041796D01*
X69820285Y-84220302D01*
X69674900Y-84365434D01*
X69674900Y-83558266D01*
X70092883Y-83278980D01*
X70412622Y-82800455D01*
X70524900Y-82235997D01*
X70524900Y-82178203D01*
X70412622Y-81613745D01*
X70092883Y-81135220D01*
X69614358Y-80815481D01*
X69049900Y-80703203D01*
X68485442Y-80815481D01*
X68006917Y-81135220D01*
X67687178Y-81613745D01*
X67574900Y-82178203D01*
X67574900Y-82235997D01*
X67687178Y-82800455D01*
X68006917Y-83278980D01*
X68424900Y-83558266D01*
X68424900Y-85126343D01*
X68239892Y-84941011D01*
X67734704Y-84731239D01*
X67187695Y-84730762D01*
X66682143Y-84939652D01*
X66295011Y-85326108D01*
X66178790Y-85606000D01*
X62241156Y-85606000D01*
X62126348Y-85328143D01*
X61739892Y-84941011D01*
X61234704Y-84731239D01*
X60687695Y-84730762D01*
X60407601Y-84846495D01*
X60317000Y-84755894D01*
X60317000Y-83641493D01*
X60467966Y-83754854D01*
X60685000Y-83680581D01*
X60685000Y-82843000D01*
X61535000Y-82843000D01*
X61535000Y-83680581D01*
X61752034Y-83754854D01*
X61777643Y-83735624D01*
X64115142Y-83735624D01*
X64206660Y-83948027D01*
X64769937Y-84035844D01*
X65211420Y-83948027D01*
X65302938Y-83735624D01*
X64709040Y-83141725D01*
X64115142Y-83735624D01*
X61777643Y-83735624D01*
X62214754Y-83407396D01*
X62446820Y-83060029D01*
X62364726Y-82843000D01*
X61535000Y-82843000D01*
X60685000Y-82843000D01*
X60317000Y-82843000D01*
X60317000Y-82636937D01*
X63249236Y-82636937D01*
X63337053Y-83078420D01*
X63549456Y-83169938D01*
X64143355Y-82576040D01*
X65274725Y-82576040D01*
X65868624Y-83169938D01*
X66081027Y-83078420D01*
X66168844Y-82515143D01*
X66081027Y-82073660D01*
X65868624Y-81982142D01*
X65274725Y-82576040D01*
X64143355Y-82576040D01*
X63549456Y-81982142D01*
X63337053Y-82073660D01*
X63249236Y-82636937D01*
X60317000Y-82636937D01*
X60317000Y-81993000D01*
X60685000Y-81993000D01*
X60685000Y-81155419D01*
X60663321Y-81148000D01*
X60685000Y-81140581D01*
X60685000Y-80303000D01*
X61535000Y-80303000D01*
X61535000Y-81140581D01*
X61556679Y-81148000D01*
X61535000Y-81155419D01*
X61535000Y-81993000D01*
X62364726Y-81993000D01*
X62446820Y-81775971D01*
X62214754Y-81428604D01*
X61841065Y-81148000D01*
X62214754Y-80867396D01*
X62446820Y-80520029D01*
X62364726Y-80303000D01*
X61535000Y-80303000D01*
X60685000Y-80303000D01*
X60317000Y-80303000D01*
X60317000Y-79453000D01*
X60685000Y-79453000D01*
X60685000Y-79028000D01*
X61535000Y-79028000D01*
X61535000Y-79453000D01*
X62364726Y-79453000D01*
X62431663Y-79276040D01*
X63526694Y-79276040D01*
X63526694Y-80876040D01*
X63552842Y-81015006D01*
X63634971Y-81142639D01*
X63760286Y-81228263D01*
X63909040Y-81258386D01*
X64183250Y-81258386D01*
X64115142Y-81416456D01*
X64709040Y-82010355D01*
X65302938Y-81416456D01*
X65234830Y-81258386D01*
X65509040Y-81258386D01*
X65648006Y-81232238D01*
X65775639Y-81150109D01*
X65861263Y-81024794D01*
X65891386Y-80876040D01*
X65891386Y-79276040D01*
X65865238Y-79137074D01*
X65783109Y-79009441D01*
X65657794Y-78923817D01*
X65509040Y-78893694D01*
X63909040Y-78893694D01*
X63770074Y-78919842D01*
X63642441Y-79001971D01*
X63556817Y-79127286D01*
X63526694Y-79276040D01*
X62431663Y-79276040D01*
X62446820Y-79235971D01*
X62307880Y-79028000D01*
X62485002Y-79028000D01*
X62485002Y-78395000D01*
X61714661Y-78395000D01*
X62000205Y-78204206D01*
X62265751Y-77806787D01*
X62358999Y-77338000D01*
X62265751Y-76869213D01*
X62000205Y-76471794D01*
X61602786Y-76206248D01*
X61133999Y-76113000D01*
X61086001Y-76113000D01*
X60810257Y-76167849D01*
X60892306Y-76085800D01*
X63549554Y-76085800D01*
X63549554Y-77685800D01*
X63575702Y-77824766D01*
X63657831Y-77952399D01*
X63783146Y-78038023D01*
X63931900Y-78068146D01*
X65531900Y-78068146D01*
X65670866Y-78041998D01*
X65798499Y-77959869D01*
X65884123Y-77834554D01*
X65914246Y-77685800D01*
X65914246Y-76085800D01*
X65888098Y-75946834D01*
X65805969Y-75819201D01*
X65680654Y-75733577D01*
X65531900Y-75703454D01*
X65257690Y-75703454D01*
X65325798Y-75545384D01*
X64731900Y-74951485D01*
X64138002Y-75545384D01*
X64206110Y-75703454D01*
X63931900Y-75703454D01*
X63792934Y-75729602D01*
X63665301Y-75811731D01*
X63579677Y-75937046D01*
X63549554Y-76085800D01*
X60892306Y-76085800D01*
X60976823Y-76001283D01*
X61086001Y-76023000D01*
X61133999Y-76023000D01*
X61602786Y-75929752D01*
X62000205Y-75664206D01*
X62265751Y-75266787D01*
X62358999Y-74798000D01*
X62289121Y-74446697D01*
X63272096Y-74446697D01*
X63359913Y-74888180D01*
X63572316Y-74979698D01*
X64166215Y-74385800D01*
X65297585Y-74385800D01*
X65891484Y-74979698D01*
X66103887Y-74888180D01*
X66191704Y-74324903D01*
X66103887Y-73883420D01*
X65891484Y-73791902D01*
X65297585Y-74385800D01*
X64166215Y-74385800D01*
X63572316Y-73791902D01*
X63359913Y-73883420D01*
X63272096Y-74446697D01*
X62289121Y-74446697D01*
X62269093Y-74346013D01*
X63388890Y-73226216D01*
X64138002Y-73226216D01*
X64731900Y-73820115D01*
X65064914Y-73487100D01*
X67567554Y-73487100D01*
X67567554Y-75687100D01*
X67593702Y-75826066D01*
X67675831Y-75953699D01*
X67801146Y-76039323D01*
X67949900Y-76069446D01*
X70149900Y-76069446D01*
X70288866Y-76043298D01*
X70416499Y-75961169D01*
X70502123Y-75835854D01*
X70532246Y-75687100D01*
X70532246Y-73487100D01*
X70506098Y-73348134D01*
X70505626Y-73347400D01*
X70717154Y-73347400D01*
X70717154Y-75547400D01*
X70743302Y-75686366D01*
X70825431Y-75813999D01*
X70950746Y-75899623D01*
X71099500Y-75929746D01*
X73299500Y-75929746D01*
X73438466Y-75903598D01*
X73566099Y-75821469D01*
X73651723Y-75696154D01*
X73681846Y-75547400D01*
X73681846Y-73347400D01*
X73655698Y-73208434D01*
X73573569Y-73080801D01*
X73448254Y-72995177D01*
X73299500Y-72965054D01*
X71099500Y-72965054D01*
X70960534Y-72991202D01*
X70832901Y-73073331D01*
X70747277Y-73198646D01*
X70717154Y-73347400D01*
X70505626Y-73347400D01*
X70423969Y-73220501D01*
X70298654Y-73134877D01*
X70149900Y-73104754D01*
X67949900Y-73104754D01*
X67810934Y-73130902D01*
X67683301Y-73213031D01*
X67597677Y-73338346D01*
X67567554Y-73487100D01*
X65064914Y-73487100D01*
X65325798Y-73226216D01*
X65234280Y-73013813D01*
X64671003Y-72925996D01*
X64229520Y-73013813D01*
X64138002Y-73226216D01*
X63388890Y-73226216D01*
X63790053Y-72825053D01*
X63898440Y-72662842D01*
X63936500Y-72471500D01*
X63936500Y-71550450D01*
X64494300Y-71550450D01*
X64494300Y-71968112D01*
X64590669Y-72200766D01*
X64768735Y-72378832D01*
X65001389Y-72475200D01*
X65419050Y-72475200D01*
X65577300Y-72316950D01*
X65577300Y-71392200D01*
X64652550Y-71392200D01*
X64494300Y-71550450D01*
X63936500Y-71550450D01*
X63936500Y-69916288D01*
X64494300Y-69916288D01*
X64494300Y-70333950D01*
X64652550Y-70492200D01*
X65577300Y-70492200D01*
X65577300Y-69567450D01*
X66477300Y-69567450D01*
X66477300Y-70492200D01*
X66927300Y-70492200D01*
X66927300Y-71392200D01*
X66477300Y-71392200D01*
X66477300Y-72316950D01*
X66635550Y-72475200D01*
X67053211Y-72475200D01*
X67285865Y-72378832D01*
X67347495Y-72317202D01*
X67560300Y-72317202D01*
X67560300Y-71723344D01*
X67640760Y-71843761D01*
X68054400Y-72120146D01*
X68542321Y-72217200D01*
X68592279Y-72217200D01*
X69080200Y-72120146D01*
X69493840Y-71843761D01*
X69770225Y-71430121D01*
X69837300Y-71092914D01*
X69904375Y-71430121D01*
X70180760Y-71843761D01*
X70594400Y-72120146D01*
X71082321Y-72217200D01*
X71132279Y-72217200D01*
X71620200Y-72120146D01*
X72033840Y-71843761D01*
X72310225Y-71430121D01*
X72407279Y-70942200D01*
X72310225Y-70454279D01*
X72033840Y-70040639D01*
X71620200Y-69764254D01*
X71132279Y-69667200D01*
X71082321Y-69667200D01*
X70594400Y-69764254D01*
X70180760Y-70040639D01*
X69904375Y-70454279D01*
X69837300Y-70791486D01*
X69770225Y-70454279D01*
X69493840Y-70040639D01*
X69080200Y-69764254D01*
X68592279Y-69667200D01*
X68542321Y-69667200D01*
X68054400Y-69764254D01*
X67640760Y-70040639D01*
X67560300Y-70161056D01*
X67560300Y-69567198D01*
X67347495Y-69567198D01*
X67285865Y-69505568D01*
X67053211Y-69409200D01*
X66635550Y-69409200D01*
X66477300Y-69567450D01*
X65577300Y-69567450D01*
X65419050Y-69409200D01*
X65001389Y-69409200D01*
X64768735Y-69505568D01*
X64590669Y-69683634D01*
X64494300Y-69916288D01*
X63936500Y-69916288D01*
X63936500Y-68015534D01*
X64703146Y-68015534D01*
X65050604Y-68478254D01*
X65397971Y-68710320D01*
X65615000Y-68628226D01*
X65615000Y-67798500D01*
X64777419Y-67798500D01*
X64703146Y-68015534D01*
X63936500Y-68015534D01*
X63936500Y-65548606D01*
X64557000Y-64928107D01*
X64557000Y-66208502D01*
X65140780Y-66208502D01*
X65050604Y-66268746D01*
X64703146Y-66731466D01*
X64777419Y-66948500D01*
X65615000Y-66948500D01*
X65615000Y-66118774D01*
X65574621Y-66103500D01*
X65615000Y-66088226D01*
X65615000Y-65258500D01*
X65190000Y-65258500D01*
X65190000Y-64408500D01*
X65615000Y-64408500D01*
X65615000Y-63983500D01*
X65830471Y-63983500D01*
X65950258Y-64063540D01*
X66141600Y-64101600D01*
X66465000Y-64101600D01*
X66465000Y-64408500D01*
X66860800Y-64408500D01*
X66860800Y-65258500D01*
X66465000Y-65258500D01*
X66465000Y-66088226D01*
X66505379Y-66103500D01*
X66465000Y-66118774D01*
X66465000Y-66948500D01*
X66890000Y-66948500D01*
X66890000Y-67798500D01*
X66465000Y-67798500D01*
X66465000Y-68628226D01*
X66682029Y-68710320D01*
X66890000Y-68571380D01*
X66890000Y-68748502D01*
X67523000Y-68748502D01*
X67523000Y-67978161D01*
X67713794Y-68263705D01*
X68111213Y-68529251D01*
X68580000Y-68622499D01*
X69048787Y-68529251D01*
X69446206Y-68263705D01*
X69711752Y-67866286D01*
X69805000Y-67397499D01*
X69805000Y-67349501D01*
X69895000Y-67349501D01*
X69895000Y-67397499D01*
X69988248Y-67866286D01*
X70253794Y-68263705D01*
X70651213Y-68529251D01*
X71120000Y-68622499D01*
X71588787Y-68529251D01*
X71986206Y-68263705D01*
X72251752Y-67866286D01*
X72345000Y-67397499D01*
X72345000Y-67349501D01*
X72251752Y-66880714D01*
X71986206Y-66483295D01*
X71588787Y-66217749D01*
X71120000Y-66124501D01*
X70651213Y-66217749D01*
X70253794Y-66483295D01*
X69988248Y-66880714D01*
X69895000Y-67349501D01*
X69805000Y-67349501D01*
X69711752Y-66880714D01*
X69446206Y-66483295D01*
X69048787Y-66217749D01*
X68580000Y-66124501D01*
X68128013Y-66214407D01*
X67860800Y-65947194D01*
X67860800Y-65821931D01*
X68111213Y-65989251D01*
X68580000Y-66082499D01*
X69048787Y-65989251D01*
X69446206Y-65723705D01*
X69711752Y-65326286D01*
X69805000Y-64857499D01*
X69805000Y-64809501D01*
X69723057Y-64397549D01*
X69887654Y-64232952D01*
X69887654Y-65683500D01*
X69913802Y-65822466D01*
X69995931Y-65950099D01*
X70121246Y-66035723D01*
X70270000Y-66065846D01*
X71970000Y-66065846D01*
X72108966Y-66039698D01*
X72236599Y-65957569D01*
X72322223Y-65832254D01*
X72352346Y-65683500D01*
X72352346Y-63983500D01*
X72331460Y-63872501D01*
X72509145Y-63946283D01*
X72567904Y-63946334D01*
X72981786Y-64422925D01*
X72969501Y-69975894D01*
X72969610Y-69976450D01*
X72969501Y-69977000D01*
X72988374Y-70071884D01*
X73007138Y-70167320D01*
X73007450Y-70167789D01*
X73007560Y-70168342D01*
X73061472Y-70249026D01*
X73115166Y-70329770D01*
X73115634Y-70330084D01*
X73115947Y-70330553D01*
X73477500Y-70692107D01*
X73477500Y-71048880D01*
X73507716Y-71200786D01*
X73515560Y-71240222D01*
X73623947Y-71402433D01*
X73982960Y-71761447D01*
X73982960Y-73609200D01*
X74012671Y-73758566D01*
X74021020Y-73800542D01*
X74129407Y-73962753D01*
X74485880Y-74319227D01*
X74485880Y-75632955D01*
X74404560Y-75754658D01*
X74366500Y-75946000D01*
X74366500Y-78394500D01*
X74404560Y-78585842D01*
X74512947Y-78748053D01*
X75190907Y-79426014D01*
X75101001Y-79878000D01*
X75194249Y-80346787D01*
X75459795Y-80744206D01*
X75857214Y-81009752D01*
X76326001Y-81103000D01*
X76373999Y-81103000D01*
X76842786Y-81009752D01*
X77240205Y-80744206D01*
X77505751Y-80346787D01*
X77598999Y-79878000D01*
X77505751Y-79409213D01*
X77240205Y-79011794D01*
X76842786Y-78746248D01*
X76373999Y-78653000D01*
X76326001Y-78653000D01*
X75914049Y-78734943D01*
X75366500Y-78187394D01*
X75366500Y-78064580D01*
X75459795Y-78204206D01*
X75857214Y-78469752D01*
X76326001Y-78563000D01*
X76373999Y-78563000D01*
X76842786Y-78469752D01*
X77240205Y-78204206D01*
X77505751Y-77806787D01*
X77598999Y-77338000D01*
X77505751Y-76869213D01*
X77240205Y-76471794D01*
X76842786Y-76206248D01*
X76373999Y-76113000D01*
X76326001Y-76113000D01*
X75857214Y-76206248D01*
X75459795Y-76471794D01*
X75366500Y-76611420D01*
X75366500Y-76139666D01*
X75447820Y-76017962D01*
X75485880Y-75826620D01*
X75485880Y-75681635D01*
X75857214Y-75929752D01*
X76326001Y-76023000D01*
X76373999Y-76023000D01*
X76842786Y-75929752D01*
X77240205Y-75664206D01*
X77505751Y-75266787D01*
X77598999Y-74798000D01*
X77505751Y-74329213D01*
X77240205Y-73931794D01*
X76842786Y-73666248D01*
X76373999Y-73573000D01*
X76326001Y-73573000D01*
X75914049Y-73654943D01*
X75470670Y-73211564D01*
X75470670Y-73131472D01*
X75857214Y-73389752D01*
X76326001Y-73483000D01*
X76373999Y-73483000D01*
X76842786Y-73389752D01*
X77240205Y-73124206D01*
X77505751Y-72726787D01*
X77598999Y-72258000D01*
X77505751Y-71789213D01*
X77240205Y-71391794D01*
X76842786Y-71126248D01*
X76373999Y-71033000D01*
X76326001Y-71033000D01*
X75857214Y-71126248D01*
X75470670Y-71384528D01*
X75470670Y-71264810D01*
X75432610Y-71073468D01*
X75324223Y-70911257D01*
X75112500Y-70699534D01*
X75112500Y-70294500D01*
X75098242Y-70222818D01*
X75091187Y-70150073D01*
X75079352Y-70127851D01*
X75074440Y-70103158D01*
X75033837Y-70042392D01*
X74999479Y-69977881D01*
X74775400Y-69704006D01*
X75142946Y-70071553D01*
X75175678Y-70093424D01*
X75194249Y-70186787D01*
X75459795Y-70584206D01*
X75857214Y-70849752D01*
X76326001Y-70943000D01*
X76373999Y-70943000D01*
X76842786Y-70849752D01*
X77240205Y-70584206D01*
X77505751Y-70186787D01*
X77598999Y-69718000D01*
X77505751Y-69249213D01*
X77240205Y-68851794D01*
X76842786Y-68586248D01*
X76373999Y-68493000D01*
X76326001Y-68493000D01*
X75857214Y-68586248D01*
X75459795Y-68851794D01*
X75410771Y-68925164D01*
X75049000Y-68563394D01*
X75049000Y-67178000D01*
X75101001Y-67178000D01*
X75194249Y-67646787D01*
X75459795Y-68044206D01*
X75857214Y-68309752D01*
X76326001Y-68403000D01*
X76373999Y-68403000D01*
X76842786Y-68309752D01*
X77240205Y-68044206D01*
X77505751Y-67646787D01*
X77598999Y-67178000D01*
X77505751Y-66709213D01*
X77240205Y-66311794D01*
X76842786Y-66046248D01*
X76373999Y-65953000D01*
X76326001Y-65953000D01*
X75857214Y-66046248D01*
X75459795Y-66311794D01*
X75194249Y-66709213D01*
X75101001Y-67178000D01*
X75049000Y-67178000D01*
X75049000Y-64262606D01*
X75154656Y-64368262D01*
X75101001Y-64638000D01*
X75194249Y-65106787D01*
X75459795Y-65504206D01*
X75857214Y-65769752D01*
X76326001Y-65863000D01*
X76373999Y-65863000D01*
X76842786Y-65769752D01*
X77240205Y-65504206D01*
X77505751Y-65106787D01*
X77598999Y-64638000D01*
X77505751Y-64169213D01*
X77240205Y-63771794D01*
X76842786Y-63506248D01*
X76373999Y-63413000D01*
X76326001Y-63413000D01*
X75857214Y-63506248D01*
X75767080Y-63566474D01*
X75620500Y-63419894D01*
X75620500Y-63071585D01*
X75857214Y-63229752D01*
X76326001Y-63323000D01*
X76373999Y-63323000D01*
X76842786Y-63229752D01*
X77240205Y-62964206D01*
X77505751Y-62566787D01*
X77598999Y-62098000D01*
X77505751Y-61629213D01*
X77240205Y-61231794D01*
X76842786Y-60966248D01*
X76373999Y-60873000D01*
X76326001Y-60873000D01*
X75857214Y-60966248D01*
X75620500Y-61124415D01*
X75620500Y-60531585D01*
X75857214Y-60689752D01*
X76326001Y-60783000D01*
X76373999Y-60783000D01*
X76842786Y-60689752D01*
X77240205Y-60424206D01*
X77505751Y-60026787D01*
X77598999Y-59558000D01*
X77505751Y-59089213D01*
X77350258Y-58856500D01*
X77406500Y-58856500D01*
X77597842Y-58818440D01*
X77744160Y-58720672D01*
X77744160Y-82834677D01*
X77106976Y-83471860D01*
X76959360Y-83471860D01*
X77240205Y-83284206D01*
X77505751Y-82886787D01*
X77598999Y-82418000D01*
X77505751Y-81949213D01*
X77240205Y-81551794D01*
X76842786Y-81286248D01*
X76373999Y-81193000D01*
X76326001Y-81193000D01*
X75857214Y-81286248D01*
X75459795Y-81551794D01*
X75194249Y-81949213D01*
X75101001Y-82418000D01*
X75194249Y-82886787D01*
X75314218Y-83066334D01*
X73873342Y-81625458D01*
X73670577Y-81489975D01*
X73557889Y-81467560D01*
X73242483Y-80995520D01*
X72763958Y-80675781D01*
X72199500Y-80563503D01*
X71635042Y-80675781D01*
X71156517Y-80995520D01*
X70836778Y-81474045D01*
X70724500Y-82038503D01*
X70724500Y-82096297D01*
X70836778Y-82660755D01*
X71156517Y-83139280D01*
X71635042Y-83459019D01*
X72199500Y-83571297D01*
X72763958Y-83459019D01*
X73242483Y-83139280D01*
X73393453Y-82913337D01*
X75018918Y-84538802D01*
X75221683Y-84674285D01*
X75460860Y-84721860D01*
X75922295Y-84721860D01*
X75839464Y-84804547D01*
X75660204Y-85236253D01*
X75659796Y-85703697D01*
X75838302Y-86135715D01*
X76168547Y-86466536D01*
X76600253Y-86645796D01*
X77067697Y-86646204D01*
X77499715Y-86467698D01*
X77830536Y-86137453D01*
X78009796Y-85705747D01*
X78010204Y-85238303D01*
X77831698Y-84806285D01*
X77661960Y-84636251D01*
X77807802Y-84538802D01*
X78811099Y-83535504D01*
X78811102Y-83535502D01*
X78946585Y-83332737D01*
X78994160Y-83093560D01*
X78994160Y-46949164D01*
X79705182Y-46238142D01*
X79840665Y-46035377D01*
X79888240Y-45796200D01*
X79888240Y-40401245D01*
X79888241Y-40401240D01*
X79840665Y-40162063D01*
X79705182Y-39959298D01*
X78541942Y-38796058D01*
X78339177Y-38660575D01*
X78100000Y-38613000D01*
X77401373Y-38613000D01*
X77240205Y-38371794D01*
X76954661Y-38181000D01*
X77725002Y-38181000D01*
X77725002Y-37548000D01*
X77547880Y-37548000D01*
X77686820Y-37340029D01*
X77604726Y-37123000D01*
X76775000Y-37123000D01*
X76775000Y-37548000D01*
X75925000Y-37548000D01*
X75925000Y-37123000D01*
X75555000Y-37123000D01*
X75555000Y-36273000D01*
X75925000Y-36273000D01*
X75925000Y-35848000D01*
X76775000Y-35848000D01*
X76775000Y-36273000D01*
X77604726Y-36273000D01*
X77686820Y-36055971D01*
X77547880Y-35848000D01*
X77725002Y-35848000D01*
X77725002Y-35215000D01*
X77512425Y-35215000D01*
X77552223Y-35156754D01*
X77582346Y-35008000D01*
X77582346Y-33308000D01*
X77556198Y-33169034D01*
X77474069Y-33041401D01*
X77348754Y-32955777D01*
X77200000Y-32925654D01*
X75500000Y-32925654D01*
X75361034Y-32951802D01*
X75233401Y-33033931D01*
X75147777Y-33159246D01*
X75117654Y-33308000D01*
X75117654Y-34506462D01*
X74488058Y-35136058D01*
X74352575Y-35338823D01*
X74305000Y-35578000D01*
X74305000Y-35706193D01*
X73623706Y-35024899D01*
X73683766Y-35013598D01*
X73811399Y-34931469D01*
X73897023Y-34806154D01*
X73927146Y-34657400D01*
X73927146Y-32957400D01*
X73900998Y-32818434D01*
X73818869Y-32690801D01*
X73693554Y-32605177D01*
X73544800Y-32575054D01*
X71844800Y-32575054D01*
X71705834Y-32601202D01*
X71578201Y-32683331D01*
X71492577Y-32808646D01*
X71462454Y-32957400D01*
X71462454Y-34657400D01*
X71488602Y-34796366D01*
X71570731Y-34923999D01*
X71696046Y-35009623D01*
X71844800Y-35039746D01*
X73211707Y-35039746D01*
X72959412Y-35292041D01*
X73081954Y-35414583D01*
X72863620Y-35458013D01*
X72772102Y-35670416D01*
X73366000Y-36264315D01*
X73648843Y-35981472D01*
X74214528Y-36547157D01*
X73931685Y-36830000D01*
X74214528Y-37112843D01*
X73648843Y-37678528D01*
X73366000Y-37395685D01*
X72772102Y-37989584D01*
X72863620Y-38201987D01*
X73090078Y-38237293D01*
X72959412Y-38367959D01*
X73425130Y-38833677D01*
X73426917Y-38831890D01*
X73393140Y-39001700D01*
X73393140Y-43705976D01*
X72924058Y-44175058D01*
X72788575Y-44377823D01*
X72776566Y-44438197D01*
X72701285Y-44469302D01*
X72370464Y-44799547D01*
X72258828Y-45068396D01*
X72237987Y-44963620D01*
X72025584Y-44872102D01*
X71431685Y-45466000D01*
X71714528Y-45748843D01*
X71148843Y-46314528D01*
X70866000Y-46031685D01*
X70272102Y-46625584D01*
X70363620Y-46837987D01*
X70590078Y-46873293D01*
X70576957Y-46886414D01*
X70541823Y-46886383D01*
X70293643Y-46988929D01*
X70103597Y-47178644D01*
X70000617Y-47426645D01*
X70000383Y-47695177D01*
X70102929Y-47943357D01*
X70289071Y-48129823D01*
X70214394Y-48204500D01*
X69866607Y-48204500D01*
X69778500Y-48116394D01*
X69778500Y-45987814D01*
X70300315Y-45466000D01*
X70017472Y-45183157D01*
X70583157Y-44617472D01*
X70866000Y-44900315D01*
X71459898Y-44306416D01*
X71368380Y-44094013D01*
X71270492Y-44078752D01*
X71350383Y-43886355D01*
X71350617Y-43617823D01*
X71248071Y-43369643D01*
X71058356Y-43179597D01*
X70810355Y-43076617D01*
X70541823Y-43076383D01*
X70293643Y-43178929D01*
X70103597Y-43368644D01*
X70000617Y-43616645D01*
X70000527Y-43719366D01*
X69910164Y-43809729D01*
X69724856Y-43624097D01*
X69476855Y-43521117D01*
X69374134Y-43521027D01*
X69091354Y-43238248D01*
X69191383Y-42997355D01*
X69191617Y-42728823D01*
X69089071Y-42480643D01*
X68899356Y-42290597D01*
X68651355Y-42187617D01*
X68382823Y-42187383D01*
X68134643Y-42289929D01*
X67944597Y-42479644D01*
X67841617Y-42727645D01*
X67841383Y-42996177D01*
X67943929Y-43244357D01*
X68016500Y-43317055D01*
X68016500Y-43370500D01*
X68054225Y-43560159D01*
X68054560Y-43561842D01*
X68162947Y-43724053D01*
X68666972Y-44228078D01*
X68666883Y-44329677D01*
X68769429Y-44577857D01*
X68955571Y-44764323D01*
X68924947Y-44794947D01*
X68816560Y-44957158D01*
X68778500Y-45148500D01*
X68778500Y-45174725D01*
X68624198Y-44801285D01*
X68293953Y-44470464D01*
X67862247Y-44291204D01*
X67394803Y-44290796D01*
X66962785Y-44469302D01*
X66631964Y-44799547D01*
X66452704Y-45231253D01*
X66452296Y-45698697D01*
X66630802Y-46130715D01*
X66961047Y-46461536D01*
X67229896Y-46573172D01*
X67125120Y-46594013D01*
X67033602Y-46806416D01*
X67627500Y-47400315D01*
X68221398Y-46806416D01*
X68129880Y-46594013D01*
X68017000Y-46576415D01*
X68292215Y-46462698D01*
X68623036Y-46132453D01*
X68778500Y-45758054D01*
X68778500Y-47380686D01*
X68193185Y-47966000D01*
X68787084Y-48559898D01*
X68833347Y-48539965D01*
X68924947Y-48677053D01*
X68991489Y-48743595D01*
X68984617Y-48760145D01*
X68984383Y-49028677D01*
X69086929Y-49276857D01*
X69189805Y-49379913D01*
X68953615Y-49281837D01*
X68685083Y-49281603D01*
X68436903Y-49384149D01*
X68246857Y-49573864D01*
X68143877Y-49821865D01*
X68143643Y-50090397D01*
X68246189Y-50338577D01*
X68318760Y-50411275D01*
X68318760Y-50994214D01*
X66283347Y-53029627D01*
X66240334Y-53094000D01*
X64088106Y-53094000D01*
X63492000Y-52497894D01*
X63492000Y-51391027D01*
X63657245Y-51459643D01*
X63925777Y-51459877D01*
X64173957Y-51357331D01*
X64364003Y-51167616D01*
X64466983Y-50919615D01*
X64467217Y-50651083D01*
X64364671Y-50402903D01*
X64293493Y-50331601D01*
X64294638Y-49958254D01*
X64294487Y-49957483D01*
X64294639Y-49956720D01*
X64275804Y-49862027D01*
X64257938Y-49770745D01*
X64456870Y-49969677D01*
X64922588Y-49503959D01*
X64800046Y-49381417D01*
X65018380Y-49337987D01*
X65109898Y-49125584D01*
X67033602Y-49125584D01*
X67125120Y-49337987D01*
X67688397Y-49425804D01*
X68129880Y-49337987D01*
X68221398Y-49125584D01*
X67627500Y-48531685D01*
X67033602Y-49125584D01*
X65109898Y-49125584D01*
X64516000Y-48531685D01*
X64233157Y-48814528D01*
X63667472Y-48248843D01*
X63950315Y-47966000D01*
X65081685Y-47966000D01*
X65675584Y-48559898D01*
X65887987Y-48468380D01*
X65956815Y-48026897D01*
X66167696Y-48026897D01*
X66255513Y-48468380D01*
X66467916Y-48559898D01*
X67061815Y-47966000D01*
X66467916Y-47372102D01*
X66255513Y-47463620D01*
X66167696Y-48026897D01*
X65956815Y-48026897D01*
X65975804Y-47905103D01*
X65887987Y-47463620D01*
X65675584Y-47372102D01*
X65081685Y-47966000D01*
X63950315Y-47966000D01*
X63667472Y-47683157D01*
X64233157Y-47117472D01*
X64516000Y-47400315D01*
X65109898Y-46806416D01*
X65018380Y-46594013D01*
X64905500Y-46576415D01*
X65180715Y-46462698D01*
X65511536Y-46132453D01*
X65690796Y-45700747D01*
X65691204Y-45233303D01*
X65512698Y-44801285D01*
X65182453Y-44470464D01*
X64750747Y-44291204D01*
X64283303Y-44290796D01*
X63851285Y-44469302D01*
X63520464Y-44799547D01*
X63341204Y-45231253D01*
X63340796Y-45698697D01*
X63441482Y-45942376D01*
X62269093Y-44769987D01*
X62358999Y-44318000D01*
X62265751Y-43849213D01*
X62000205Y-43451794D01*
X61602786Y-43186248D01*
X61133999Y-43093000D01*
X61086001Y-43093000D01*
X60617214Y-43186248D01*
X60317000Y-43386844D01*
X60317000Y-42709156D01*
X60617214Y-42909752D01*
X61086001Y-43003000D01*
X61133999Y-43003000D01*
X61602786Y-42909752D01*
X62000205Y-42644206D01*
X62265751Y-42246787D01*
X62358999Y-41778000D01*
X62265751Y-41309213D01*
X62222041Y-41243795D01*
X65495805Y-41243795D01*
X65666715Y-41657429D01*
X65982907Y-41974172D01*
X66396242Y-42145804D01*
X66843795Y-42146195D01*
X67257429Y-41975285D01*
X67574172Y-41659093D01*
X67745804Y-41245758D01*
X67745805Y-41243795D01*
X70375805Y-41243795D01*
X70546715Y-41657429D01*
X70862907Y-41974172D01*
X71276242Y-42145804D01*
X71723795Y-42146195D01*
X72137429Y-41975285D01*
X72454172Y-41659093D01*
X72625804Y-41245758D01*
X72626195Y-40798205D01*
X72455285Y-40384571D01*
X72139093Y-40067828D01*
X71725758Y-39896196D01*
X71278205Y-39895805D01*
X70864571Y-40066715D01*
X70547828Y-40382907D01*
X70376196Y-40796242D01*
X70375805Y-41243795D01*
X67745805Y-41243795D01*
X67746195Y-40798205D01*
X67575285Y-40384571D01*
X67259093Y-40067828D01*
X66845758Y-39896196D01*
X66398205Y-39895805D01*
X65984571Y-40066715D01*
X65667828Y-40382907D01*
X65496196Y-40796242D01*
X65495805Y-41243795D01*
X62222041Y-41243795D01*
X62000205Y-40911794D01*
X61602786Y-40646248D01*
X61133999Y-40553000D01*
X61086001Y-40553000D01*
X60617214Y-40646248D01*
X60317000Y-40846844D01*
X60317000Y-40169156D01*
X60617214Y-40369752D01*
X61086001Y-40463000D01*
X61133999Y-40463000D01*
X61602786Y-40369752D01*
X62000205Y-40104206D01*
X62265751Y-39706787D01*
X62358999Y-39238000D01*
X62265751Y-38769213D01*
X62000205Y-38371794D01*
X61602786Y-38106248D01*
X61133999Y-38013000D01*
X61086001Y-38013000D01*
X60617214Y-38106248D01*
X60317000Y-38306844D01*
X60317000Y-37629156D01*
X60617214Y-37829752D01*
X61086001Y-37923000D01*
X61133999Y-37923000D01*
X61602786Y-37829752D01*
X62000205Y-37564206D01*
X62265751Y-37166787D01*
X62286455Y-37062697D01*
X63594796Y-37062697D01*
X63773302Y-37494715D01*
X64103547Y-37825536D01*
X64535253Y-38004796D01*
X65002697Y-38005204D01*
X65040500Y-37989584D01*
X66676102Y-37989584D01*
X66767620Y-38201987D01*
X67330897Y-38289804D01*
X67772380Y-38201987D01*
X67863898Y-37989584D01*
X67270000Y-37395685D01*
X66676102Y-37989584D01*
X65040500Y-37989584D01*
X65434715Y-37826698D01*
X65765536Y-37496453D01*
X65877172Y-37227604D01*
X65898013Y-37332380D01*
X66110416Y-37423898D01*
X66704315Y-36830000D01*
X67835685Y-36830000D01*
X68429584Y-37423898D01*
X68641987Y-37332380D01*
X68684031Y-37062697D01*
X69690796Y-37062697D01*
X69869302Y-37494715D01*
X70199547Y-37825536D01*
X70631253Y-38004796D01*
X71098697Y-38005204D01*
X71530715Y-37826698D01*
X71861536Y-37496453D01*
X71973172Y-37227604D01*
X71994013Y-37332380D01*
X72206416Y-37423898D01*
X72800315Y-36830000D01*
X72206416Y-36236102D01*
X71994013Y-36327620D01*
X71976415Y-36440500D01*
X71862698Y-36165285D01*
X71532453Y-35834464D01*
X71100747Y-35655204D01*
X70633303Y-35654796D01*
X70201285Y-35833302D01*
X69870464Y-36163547D01*
X69691204Y-36595253D01*
X69690796Y-37062697D01*
X68684031Y-37062697D01*
X68729804Y-36769103D01*
X68641987Y-36327620D01*
X68429584Y-36236102D01*
X67835685Y-36830000D01*
X66704315Y-36830000D01*
X66110416Y-36236102D01*
X65898013Y-36327620D01*
X65880415Y-36440500D01*
X65766698Y-36165285D01*
X65436453Y-35834464D01*
X65041382Y-35670416D01*
X66676102Y-35670416D01*
X67270000Y-36264315D01*
X67863898Y-35670416D01*
X67772380Y-35458013D01*
X67209103Y-35370196D01*
X66767620Y-35458013D01*
X66676102Y-35670416D01*
X65041382Y-35670416D01*
X65004747Y-35655204D01*
X64537303Y-35654796D01*
X64105285Y-35833302D01*
X63774464Y-36163547D01*
X63595204Y-36595253D01*
X63594796Y-37062697D01*
X62286455Y-37062697D01*
X62358999Y-36698000D01*
X62265751Y-36229213D01*
X62000205Y-35831794D01*
X61602786Y-35566248D01*
X61133999Y-35473000D01*
X61086001Y-35473000D01*
X60617214Y-35566248D01*
X60317000Y-35766844D01*
X60317000Y-35576606D01*
X60503260Y-35390346D01*
X61960000Y-35390346D01*
X62098966Y-35364198D01*
X62226599Y-35282069D01*
X62312223Y-35156754D01*
X62342346Y-35008000D01*
X62342346Y-34449434D01*
X63737946Y-34449434D01*
X64085404Y-34912154D01*
X64432771Y-35144220D01*
X64649800Y-35062126D01*
X64649800Y-34232400D01*
X63812219Y-34232400D01*
X63737946Y-34449434D01*
X62342346Y-34449434D01*
X62342346Y-33308000D01*
X62316198Y-33169034D01*
X62313838Y-33165366D01*
X63737946Y-33165366D01*
X63812219Y-33382400D01*
X64649800Y-33382400D01*
X64649800Y-32552674D01*
X65499800Y-32552674D01*
X65499800Y-33382400D01*
X65924800Y-33382400D01*
X65924800Y-34232400D01*
X65499800Y-34232400D01*
X65499800Y-35062126D01*
X65716829Y-35144220D01*
X65924800Y-35005280D01*
X65924800Y-35182402D01*
X66557800Y-35182402D01*
X66557800Y-34412061D01*
X66748594Y-34697605D01*
X67146013Y-34963151D01*
X67614800Y-35056399D01*
X68083587Y-34963151D01*
X68481006Y-34697605D01*
X68746552Y-34300186D01*
X68839800Y-33831399D01*
X68839800Y-33783401D01*
X68929800Y-33783401D01*
X68929800Y-33831399D01*
X69023048Y-34300186D01*
X69288594Y-34697605D01*
X69686013Y-34963151D01*
X70154800Y-35056399D01*
X70623587Y-34963151D01*
X71021006Y-34697605D01*
X71286552Y-34300186D01*
X71379800Y-33831399D01*
X71379800Y-33783401D01*
X71286552Y-33314614D01*
X71021006Y-32917195D01*
X70623587Y-32651649D01*
X70154800Y-32558401D01*
X69686013Y-32651649D01*
X69288594Y-32917195D01*
X69023048Y-33314614D01*
X68929800Y-33783401D01*
X68839800Y-33783401D01*
X68746552Y-33314614D01*
X68481006Y-32917195D01*
X68083587Y-32651649D01*
X67614800Y-32558401D01*
X67146013Y-32651649D01*
X66748594Y-32917195D01*
X66557800Y-33202739D01*
X66557800Y-32432398D01*
X65924800Y-32432398D01*
X65924800Y-32609520D01*
X65716829Y-32470580D01*
X65499800Y-32552674D01*
X64649800Y-32552674D01*
X64432771Y-32470580D01*
X64085404Y-32702646D01*
X63737946Y-33165366D01*
X62313838Y-33165366D01*
X62234069Y-33041401D01*
X62108754Y-32955777D01*
X61960000Y-32925654D01*
X60260000Y-32925654D01*
X60121034Y-32951802D01*
X59993401Y-33033931D01*
X59907777Y-33159246D01*
X59877654Y-33308000D01*
X59877654Y-34601740D01*
X59463447Y-35015947D01*
X59355060Y-35178158D01*
X59317000Y-35369500D01*
X59317000Y-36980677D01*
X59316855Y-36980617D01*
X59048323Y-36980383D01*
X58800143Y-37082929D01*
X58610097Y-37272644D01*
X58507117Y-37520645D01*
X58506883Y-37789177D01*
X58609429Y-38037357D01*
X58745500Y-38173665D01*
X58745500Y-52260500D01*
X58773335Y-52400435D01*
X58783560Y-52451842D01*
X58891947Y-52614053D01*
X59285154Y-53007260D01*
X58960527Y-53331887D01*
X58852140Y-53494098D01*
X58814080Y-53685440D01*
X58814080Y-84243743D01*
X58807053Y-84236704D01*
X58375347Y-84057444D01*
X57907903Y-84057036D01*
X57475885Y-84235542D01*
X57145064Y-84565787D01*
X56965804Y-84997493D01*
X56965396Y-85464937D01*
X57143902Y-85896955D01*
X57474147Y-86227776D01*
X57640600Y-86296893D01*
X57640600Y-87939880D01*
X57678660Y-88131222D01*
X57787047Y-88293433D01*
X58252426Y-88758813D01*
X58017823Y-88855749D01*
X57827777Y-89045464D01*
X57724797Y-89293465D01*
X57724563Y-89561997D01*
X57827109Y-89810177D01*
X57899680Y-89882875D01*
X57899680Y-91338400D01*
X57924269Y-91462018D01*
X57937740Y-91529742D01*
X58034956Y-91675234D01*
X57690947Y-91743662D01*
X57309750Y-91998370D01*
X57055042Y-92379567D01*
X56965600Y-92829220D01*
X56965600Y-92875260D01*
X57055042Y-93324913D01*
X57309750Y-93706110D01*
X57676315Y-93951041D01*
X57399685Y-94065342D01*
X57068864Y-94395587D01*
X56889604Y-94827293D01*
X56889196Y-95294737D01*
X55613840Y-95294737D01*
X55613840Y-29909040D01*
X55656480Y-29909040D01*
X55705112Y-29899192D01*
X55746081Y-29871199D01*
X55772931Y-29829472D01*
X55780224Y-29801718D01*
X55820772Y-29517880D01*
X81236280Y-29517880D01*
X81236280Y-104705880D01*
G36*
X72907146Y-48600252D02*
X72906849Y-48941285D01*
X73001250Y-49169753D01*
X72998743Y-49170789D01*
X72808697Y-49360504D01*
X72705717Y-49608505D01*
X72705483Y-49877037D01*
X72808029Y-50125217D01*
X72997744Y-50315263D01*
X73245745Y-50418243D01*
X73514277Y-50418477D01*
X73762457Y-50315931D01*
X73835155Y-50243360D01*
X74033380Y-50243360D01*
X74224722Y-50205300D01*
X74386933Y-50096913D01*
X74795020Y-49688826D01*
X74867342Y-49674440D01*
X75029553Y-49566053D01*
X75110370Y-49445103D01*
X75194249Y-49866787D01*
X75459795Y-50264206D01*
X75857214Y-50529752D01*
X76326001Y-50623000D01*
X76373999Y-50623000D01*
X76842786Y-50529752D01*
X77160500Y-50317463D01*
X77160500Y-51018537D01*
X76842786Y-50806248D01*
X76373999Y-50713000D01*
X76326001Y-50713000D01*
X75857214Y-50806248D01*
X75459795Y-51071794D01*
X75194249Y-51469213D01*
X75144651Y-51718556D01*
X75119816Y-51693677D01*
X74871815Y-51590697D01*
X74603283Y-51590463D01*
X74355103Y-51693009D01*
X74165057Y-51882724D01*
X74062077Y-52130725D01*
X74061843Y-52399257D01*
X74164389Y-52647437D01*
X74354104Y-52837483D01*
X74365853Y-52842362D01*
X74366504Y-52996610D01*
X74385752Y-53091286D01*
X74404560Y-53185842D01*
X74405158Y-53186737D01*
X74405372Y-53187789D01*
X74459258Y-53267702D01*
X74512947Y-53348053D01*
X75190907Y-54026014D01*
X75101001Y-54478000D01*
X75194249Y-54946787D01*
X75459795Y-55344206D01*
X75857214Y-55609752D01*
X76326001Y-55703000D01*
X76373999Y-55703000D01*
X76842786Y-55609752D01*
X77160500Y-55397463D01*
X77160500Y-56098537D01*
X76842786Y-55886248D01*
X76373999Y-55793000D01*
X76326001Y-55793000D01*
X75914049Y-55874943D01*
X74930553Y-54891447D01*
X74768342Y-54783060D01*
X74577000Y-54745000D01*
X73130507Y-54745000D01*
X72963428Y-54577922D01*
X72963517Y-54476323D01*
X72860971Y-54228143D01*
X72671256Y-54038097D01*
X72423255Y-53935117D01*
X72154723Y-53934883D01*
X71906543Y-54037429D01*
X71716497Y-54227144D01*
X71613517Y-54475145D01*
X71613283Y-54743677D01*
X71715829Y-54991857D01*
X71905544Y-55181903D01*
X72153545Y-55284883D01*
X72256266Y-55284973D01*
X72569847Y-55598554D01*
X72630439Y-55639040D01*
X72732058Y-55706940D01*
X72923400Y-55745000D01*
X74369894Y-55745000D01*
X75190907Y-56566014D01*
X75101786Y-57014055D01*
X74874355Y-56919617D01*
X74605823Y-56919383D01*
X74357643Y-57021929D01*
X74167597Y-57211644D01*
X74064617Y-57459645D01*
X74064383Y-57728177D01*
X74166929Y-57976357D01*
X74356644Y-58166403D01*
X74604645Y-58269383D01*
X74707366Y-58269473D01*
X75147947Y-58710054D01*
X75230952Y-58765516D01*
X75310158Y-58818440D01*
X75367546Y-58829855D01*
X75194249Y-59089213D01*
X75117477Y-59475170D01*
X74970028Y-59327722D01*
X74970117Y-59226123D01*
X74867571Y-58977943D01*
X74677856Y-58787897D01*
X74429855Y-58684917D01*
X74161323Y-58684683D01*
X73913143Y-58787229D01*
X73723097Y-58976944D01*
X73620117Y-59224945D01*
X73619883Y-59493477D01*
X73722429Y-59741657D01*
X73727571Y-59746807D01*
X73617055Y-59700917D01*
X73348523Y-59700683D01*
X73100343Y-59803229D01*
X72910297Y-59992944D01*
X72807317Y-60240945D01*
X72807083Y-60509477D01*
X72909629Y-60757657D01*
X73099344Y-60947703D01*
X73347345Y-61050683D01*
X73450067Y-61050773D01*
X74049000Y-61649706D01*
X74049000Y-62064294D01*
X73750828Y-61766122D01*
X73750917Y-61664523D01*
X73648371Y-61416343D01*
X73458656Y-61226297D01*
X73210655Y-61123317D01*
X72942123Y-61123083D01*
X72693943Y-61225629D01*
X72503897Y-61415344D01*
X72400917Y-61663345D01*
X72400683Y-61931877D01*
X72503229Y-62180057D01*
X72692944Y-62370103D01*
X72940945Y-62473083D01*
X73043667Y-62473173D01*
X73541000Y-62970506D01*
X73541000Y-63541750D01*
X73318988Y-63286099D01*
X73319117Y-63137723D01*
X73216571Y-62889543D01*
X73026856Y-62699497D01*
X72778855Y-62596517D01*
X72510323Y-62596283D01*
X72262143Y-62698829D01*
X72072097Y-62888544D01*
X71969117Y-63136545D01*
X71968883Y-63405077D01*
X72057196Y-63618811D01*
X71970000Y-63601154D01*
X70519452Y-63601154D01*
X70965553Y-63155053D01*
X71073940Y-62992842D01*
X71076466Y-62980142D01*
X71112000Y-62801500D01*
X71112000Y-59797096D01*
X71403415Y-59148035D01*
X71405082Y-59140776D01*
X71409220Y-59134582D01*
X71426846Y-59045969D01*
X71447066Y-58957891D01*
X71445827Y-58950544D01*
X71447280Y-58943240D01*
X71447280Y-56855360D01*
X71409220Y-56664018D01*
X71366980Y-56600802D01*
X71300833Y-56501806D01*
X70687403Y-55888377D01*
X70671871Y-55306527D01*
X70810523Y-55168116D01*
X70913503Y-54920115D01*
X70913737Y-54651583D01*
X70811191Y-54403403D01*
X70621476Y-54213357D01*
X70373475Y-54110377D01*
X70104943Y-54110143D01*
X69856763Y-54212689D01*
X69666717Y-54402404D01*
X69563737Y-54650405D01*
X69563503Y-54918937D01*
X69666049Y-55167117D01*
X69667841Y-55168912D01*
X69693078Y-56114323D01*
X69713213Y-56203097D01*
X69730960Y-56292322D01*
X69734729Y-56297962D01*
X69736230Y-56304581D01*
X69788802Y-56378888D01*
X69839347Y-56454533D01*
X70447280Y-57062467D01*
X70447280Y-58836144D01*
X70155865Y-59485205D01*
X70154198Y-59492464D01*
X70150060Y-59498658D01*
X70132434Y-59587271D01*
X70112214Y-59675349D01*
X70113453Y-59682696D01*
X70112000Y-59690000D01*
X70112000Y-61251151D01*
X70031953Y-61170964D01*
X69600247Y-60991704D01*
X69132803Y-60991296D01*
X68700785Y-61169802D01*
X68369964Y-61500047D01*
X68258328Y-61768896D01*
X68237487Y-61664120D01*
X68025084Y-61572602D01*
X67431185Y-62166500D01*
X68025084Y-62760398D01*
X68237487Y-62668880D01*
X68255085Y-62556000D01*
X68368802Y-62831215D01*
X68699047Y-63162036D01*
X69130753Y-63341296D01*
X69364894Y-63341500D01*
X69031987Y-63674407D01*
X68580000Y-63584501D01*
X68111213Y-63677749D01*
X67800678Y-63885241D01*
X67766939Y-63834746D01*
X67714353Y-63756046D01*
X67523000Y-63564694D01*
X67523000Y-63458498D01*
X67416804Y-63458498D01*
X67415002Y-63456696D01*
X67415002Y-63429123D01*
X67459398Y-63326084D01*
X66865500Y-62732185D01*
X66582657Y-63015028D01*
X66459099Y-62891470D01*
X66451140Y-62851458D01*
X66342753Y-62689247D01*
X66059910Y-62406404D01*
X66299815Y-62166500D01*
X65705916Y-61572602D01*
X65493513Y-61664120D01*
X65473200Y-61794412D01*
X65473200Y-61006916D01*
X66271602Y-61006916D01*
X66865500Y-61600815D01*
X67459398Y-61006916D01*
X67367880Y-60794513D01*
X66804603Y-60706696D01*
X66363120Y-60794513D01*
X66271602Y-61006916D01*
X65473200Y-61006916D01*
X65473200Y-58817606D01*
X66657912Y-57632895D01*
X66723944Y-57699043D01*
X66971945Y-57802023D01*
X67240477Y-57802257D01*
X67488657Y-57699711D01*
X67678703Y-57509996D01*
X67781683Y-57261995D01*
X67781917Y-56993463D01*
X67679371Y-56745283D01*
X67489656Y-56555237D01*
X67241655Y-56452257D01*
X66973123Y-56452023D01*
X66724943Y-56554569D01*
X66652245Y-56627140D01*
X66456560Y-56627140D01*
X66265218Y-56665200D01*
X66103007Y-56773586D01*
X64619647Y-58256947D01*
X64511260Y-58419158D01*
X64473200Y-58610500D01*
X64473200Y-62026800D01*
X64479356Y-62057750D01*
X63301500Y-60879894D01*
X63301500Y-57586500D01*
X63309500Y-57586500D01*
X63500842Y-57548440D01*
X63663053Y-57440053D01*
X65548606Y-55554500D01*
X67119500Y-55554500D01*
X67310842Y-55516440D01*
X67473053Y-55408053D01*
X68231078Y-54650028D01*
X68332677Y-54650117D01*
X68580857Y-54547571D01*
X68770903Y-54357856D01*
X68873883Y-54109855D01*
X68874117Y-53841323D01*
X68771571Y-53593143D01*
X68581856Y-53403097D01*
X68480095Y-53360842D01*
X68578439Y-53265719D01*
X68690817Y-53265817D01*
X68938997Y-53163271D01*
X69129043Y-52973556D01*
X69232023Y-52725555D01*
X69232257Y-52457023D01*
X69129711Y-52208843D01*
X68939996Y-52018797D01*
X68776344Y-51950842D01*
X69172313Y-51554873D01*
X69280700Y-51392662D01*
X69287728Y-51357331D01*
X69318760Y-51201320D01*
X69318760Y-50411354D01*
X69390663Y-50339576D01*
X69493643Y-50091575D01*
X69493877Y-49823043D01*
X69391331Y-49574863D01*
X69288455Y-49471807D01*
X69524645Y-49569883D01*
X69793177Y-49570117D01*
X70041357Y-49467571D01*
X70231403Y-49277856D01*
X70261863Y-49204500D01*
X70421500Y-49204500D01*
X70612842Y-49166440D01*
X70775053Y-49058053D01*
X71006949Y-48826157D01*
X71006849Y-48941285D01*
X71139779Y-49263000D01*
X71385705Y-49509356D01*
X71707188Y-49642848D01*
X72055285Y-49643151D01*
X72377000Y-49510221D01*
X72623356Y-49264295D01*
X72756848Y-48942812D01*
X72757151Y-48594715D01*
X72655433Y-48348539D01*
X72907146Y-48600252D01*
X72907146Y-48600252D01*
G37*
X72907146Y-48600252D02*
X72906849Y-48941285D01*
X73001250Y-49169753D01*
X72998743Y-49170789D01*
X72808697Y-49360504D01*
X72705717Y-49608505D01*
X72705483Y-49877037D01*
X72808029Y-50125217D01*
X72997744Y-50315263D01*
X73245745Y-50418243D01*
X73514277Y-50418477D01*
X73762457Y-50315931D01*
X73835155Y-50243360D01*
X74033380Y-50243360D01*
X74224722Y-50205300D01*
X74386933Y-50096913D01*
X74795020Y-49688826D01*
X74867342Y-49674440D01*
X75029553Y-49566053D01*
X75110370Y-49445103D01*
X75194249Y-49866787D01*
X75459795Y-50264206D01*
X75857214Y-50529752D01*
X76326001Y-50623000D01*
X76373999Y-50623000D01*
X76842786Y-50529752D01*
X77160500Y-50317463D01*
X77160500Y-51018537D01*
X76842786Y-50806248D01*
X76373999Y-50713000D01*
X76326001Y-50713000D01*
X75857214Y-50806248D01*
X75459795Y-51071794D01*
X75194249Y-51469213D01*
X75144651Y-51718556D01*
X75119816Y-51693677D01*
X74871815Y-51590697D01*
X74603283Y-51590463D01*
X74355103Y-51693009D01*
X74165057Y-51882724D01*
X74062077Y-52130725D01*
X74061843Y-52399257D01*
X74164389Y-52647437D01*
X74354104Y-52837483D01*
X74365853Y-52842362D01*
X74366504Y-52996610D01*
X74385752Y-53091286D01*
X74404560Y-53185842D01*
X74405158Y-53186737D01*
X74405372Y-53187789D01*
X74459258Y-53267702D01*
X74512947Y-53348053D01*
X75190907Y-54026014D01*
X75101001Y-54478000D01*
X75194249Y-54946787D01*
X75459795Y-55344206D01*
X75857214Y-55609752D01*
X76326001Y-55703000D01*
X76373999Y-55703000D01*
X76842786Y-55609752D01*
X77160500Y-55397463D01*
X77160500Y-56098537D01*
X76842786Y-55886248D01*
X76373999Y-55793000D01*
X76326001Y-55793000D01*
X75914049Y-55874943D01*
X74930553Y-54891447D01*
X74768342Y-54783060D01*
X74577000Y-54745000D01*
X73130507Y-54745000D01*
X72963428Y-54577922D01*
X72963517Y-54476323D01*
X72860971Y-54228143D01*
X72671256Y-54038097D01*
X72423255Y-53935117D01*
X72154723Y-53934883D01*
X71906543Y-54037429D01*
X71716497Y-54227144D01*
X71613517Y-54475145D01*
X71613283Y-54743677D01*
X71715829Y-54991857D01*
X71905544Y-55181903D01*
X72153545Y-55284883D01*
X72256266Y-55284973D01*
X72569847Y-55598554D01*
X72630439Y-55639040D01*
X72732058Y-55706940D01*
X72923400Y-55745000D01*
X74369894Y-55745000D01*
X75190907Y-56566014D01*
X75101786Y-57014055D01*
X74874355Y-56919617D01*
X74605823Y-56919383D01*
X74357643Y-57021929D01*
X74167597Y-57211644D01*
X74064617Y-57459645D01*
X74064383Y-57728177D01*
X74166929Y-57976357D01*
X74356644Y-58166403D01*
X74604645Y-58269383D01*
X74707366Y-58269473D01*
X75147947Y-58710054D01*
X75230952Y-58765516D01*
X75310158Y-58818440D01*
X75367546Y-58829855D01*
X75194249Y-59089213D01*
X75117477Y-59475170D01*
X74970028Y-59327722D01*
X74970117Y-59226123D01*
X74867571Y-58977943D01*
X74677856Y-58787897D01*
X74429855Y-58684917D01*
X74161323Y-58684683D01*
X73913143Y-58787229D01*
X73723097Y-58976944D01*
X73620117Y-59224945D01*
X73619883Y-59493477D01*
X73722429Y-59741657D01*
X73727571Y-59746807D01*
X73617055Y-59700917D01*
X73348523Y-59700683D01*
X73100343Y-59803229D01*
X72910297Y-59992944D01*
X72807317Y-60240945D01*
X72807083Y-60509477D01*
X72909629Y-60757657D01*
X73099344Y-60947703D01*
X73347345Y-61050683D01*
X73450067Y-61050773D01*
X74049000Y-61649706D01*
X74049000Y-62064294D01*
X73750828Y-61766122D01*
X73750917Y-61664523D01*
X73648371Y-61416343D01*
X73458656Y-61226297D01*
X73210655Y-61123317D01*
X72942123Y-61123083D01*
X72693943Y-61225629D01*
X72503897Y-61415344D01*
X72400917Y-61663345D01*
X72400683Y-61931877D01*
X72503229Y-62180057D01*
X72692944Y-62370103D01*
X72940945Y-62473083D01*
X73043667Y-62473173D01*
X73541000Y-62970506D01*
X73541000Y-63541750D01*
X73318988Y-63286099D01*
X73319117Y-63137723D01*
X73216571Y-62889543D01*
X73026856Y-62699497D01*
X72778855Y-62596517D01*
X72510323Y-62596283D01*
X72262143Y-62698829D01*
X72072097Y-62888544D01*
X71969117Y-63136545D01*
X71968883Y-63405077D01*
X72057196Y-63618811D01*
X71970000Y-63601154D01*
X70519452Y-63601154D01*
X70965553Y-63155053D01*
X71073940Y-62992842D01*
X71076466Y-62980142D01*
X71112000Y-62801500D01*
X71112000Y-59797096D01*
X71403415Y-59148035D01*
X71405082Y-59140776D01*
X71409220Y-59134582D01*
X71426846Y-59045969D01*
X71447066Y-58957891D01*
X71445827Y-58950544D01*
X71447280Y-58943240D01*
X71447280Y-56855360D01*
X71409220Y-56664018D01*
X71366980Y-56600802D01*
X71300833Y-56501806D01*
X70687403Y-55888377D01*
X70671871Y-55306527D01*
X70810523Y-55168116D01*
X70913503Y-54920115D01*
X70913737Y-54651583D01*
X70811191Y-54403403D01*
X70621476Y-54213357D01*
X70373475Y-54110377D01*
X70104943Y-54110143D01*
X69856763Y-54212689D01*
X69666717Y-54402404D01*
X69563737Y-54650405D01*
X69563503Y-54918937D01*
X69666049Y-55167117D01*
X69667841Y-55168912D01*
X69693078Y-56114323D01*
X69713213Y-56203097D01*
X69730960Y-56292322D01*
X69734729Y-56297962D01*
X69736230Y-56304581D01*
X69788802Y-56378888D01*
X69839347Y-56454533D01*
X70447280Y-57062467D01*
X70447280Y-58836144D01*
X70155865Y-59485205D01*
X70154198Y-59492464D01*
X70150060Y-59498658D01*
X70132434Y-59587271D01*
X70112214Y-59675349D01*
X70113453Y-59682696D01*
X70112000Y-59690000D01*
X70112000Y-61251151D01*
X70031953Y-61170964D01*
X69600247Y-60991704D01*
X69132803Y-60991296D01*
X68700785Y-61169802D01*
X68369964Y-61500047D01*
X68258328Y-61768896D01*
X68237487Y-61664120D01*
X68025084Y-61572602D01*
X67431185Y-62166500D01*
X68025084Y-62760398D01*
X68237487Y-62668880D01*
X68255085Y-62556000D01*
X68368802Y-62831215D01*
X68699047Y-63162036D01*
X69130753Y-63341296D01*
X69364894Y-63341500D01*
X69031987Y-63674407D01*
X68580000Y-63584501D01*
X68111213Y-63677749D01*
X67800678Y-63885241D01*
X67766939Y-63834746D01*
X67714353Y-63756046D01*
X67523000Y-63564694D01*
X67523000Y-63458498D01*
X67416804Y-63458498D01*
X67415002Y-63456696D01*
X67415002Y-63429123D01*
X67459398Y-63326084D01*
X66865500Y-62732185D01*
X66582657Y-63015028D01*
X66459099Y-62891470D01*
X66451140Y-62851458D01*
X66342753Y-62689247D01*
X66059910Y-62406404D01*
X66299815Y-62166500D01*
X65705916Y-61572602D01*
X65493513Y-61664120D01*
X65473200Y-61794412D01*
X65473200Y-61006916D01*
X66271602Y-61006916D01*
X66865500Y-61600815D01*
X67459398Y-61006916D01*
X67367880Y-60794513D01*
X66804603Y-60706696D01*
X66363120Y-60794513D01*
X66271602Y-61006916D01*
X65473200Y-61006916D01*
X65473200Y-58817606D01*
X66657912Y-57632895D01*
X66723944Y-57699043D01*
X66971945Y-57802023D01*
X67240477Y-57802257D01*
X67488657Y-57699711D01*
X67678703Y-57509996D01*
X67781683Y-57261995D01*
X67781917Y-56993463D01*
X67679371Y-56745283D01*
X67489656Y-56555237D01*
X67241655Y-56452257D01*
X66973123Y-56452023D01*
X66724943Y-56554569D01*
X66652245Y-56627140D01*
X66456560Y-56627140D01*
X66265218Y-56665200D01*
X66103007Y-56773586D01*
X64619647Y-58256947D01*
X64511260Y-58419158D01*
X64473200Y-58610500D01*
X64473200Y-62026800D01*
X64479356Y-62057750D01*
X63301500Y-60879894D01*
X63301500Y-57586500D01*
X63309500Y-57586500D01*
X63500842Y-57548440D01*
X63663053Y-57440053D01*
X65548606Y-55554500D01*
X67119500Y-55554500D01*
X67310842Y-55516440D01*
X67473053Y-55408053D01*
X68231078Y-54650028D01*
X68332677Y-54650117D01*
X68580857Y-54547571D01*
X68770903Y-54357856D01*
X68873883Y-54109855D01*
X68874117Y-53841323D01*
X68771571Y-53593143D01*
X68581856Y-53403097D01*
X68480095Y-53360842D01*
X68578439Y-53265719D01*
X68690817Y-53265817D01*
X68938997Y-53163271D01*
X69129043Y-52973556D01*
X69232023Y-52725555D01*
X69232257Y-52457023D01*
X69129711Y-52208843D01*
X68939996Y-52018797D01*
X68776344Y-51950842D01*
X69172313Y-51554873D01*
X69280700Y-51392662D01*
X69287728Y-51357331D01*
X69318760Y-51201320D01*
X69318760Y-50411354D01*
X69390663Y-50339576D01*
X69493643Y-50091575D01*
X69493877Y-49823043D01*
X69391331Y-49574863D01*
X69288455Y-49471807D01*
X69524645Y-49569883D01*
X69793177Y-49570117D01*
X70041357Y-49467571D01*
X70231403Y-49277856D01*
X70261863Y-49204500D01*
X70421500Y-49204500D01*
X70612842Y-49166440D01*
X70775053Y-49058053D01*
X71006949Y-48826157D01*
X71006849Y-48941285D01*
X71139779Y-49263000D01*
X71385705Y-49509356D01*
X71707188Y-49642848D01*
X72055285Y-49643151D01*
X72377000Y-49510221D01*
X72623356Y-49264295D01*
X72756848Y-48942812D01*
X72757151Y-48594715D01*
X72655433Y-48348539D01*
X72907146Y-48600252D01*
M02*
