G04 #@! TF.FileFunction,Soldermask,Top*
%FSLAX46Y46*%
G04 Gerber Fmt 4.6, Leading zero omitted, Abs format (unit mm)*
G04 Created by KiCad (PCBNEW 4.0.7) date 10/16/19 18:47:00*
%MOMM*%
%LPD*%
G01*
G04 APERTURE LIST*
%ADD10C,0.100000*%
%ADD11R,2.100000X2.100000*%
%ADD12O,2.100000X2.100000*%
%ADD13C,2.000000*%
%ADD14C,1.900000*%
%ADD15C,1.400000*%
%ADD16R,2.000000X2.000000*%
%ADD17R,2.200000X2.200000*%
%ADD18C,2.200000*%
%ADD19R,2.600000X2.600000*%
%ADD20O,2.600000X2.600000*%
%ADD21C,1.920000*%
%ADD22C,3.100000*%
%ADD23C,2.400000*%
%ADD24O,2.000000X2.000000*%
%ADD25O,2.200000X2.200000*%
G04 APERTURE END LIST*
D10*
G36*
X66947979Y-49827911D02*
X67407598Y-49368292D01*
X68609679Y-50570373D01*
X68150060Y-51029992D01*
X66947979Y-49827911D01*
X66947979Y-49827911D01*
G37*
G36*
X66594426Y-50181464D02*
X67054045Y-49721845D01*
X68256126Y-50923926D01*
X67796507Y-51383545D01*
X66594426Y-50181464D01*
X66594426Y-50181464D01*
G37*
G36*
X66240872Y-50535018D02*
X66700491Y-50075399D01*
X67902572Y-51277480D01*
X67442953Y-51737099D01*
X66240872Y-50535018D01*
X66240872Y-50535018D01*
G37*
G36*
X65887319Y-50888571D02*
X66346938Y-50428952D01*
X67549019Y-51631033D01*
X67089400Y-52090652D01*
X65887319Y-50888571D01*
X65887319Y-50888571D01*
G37*
G36*
X65533766Y-51242124D02*
X65993385Y-50782505D01*
X67195466Y-51984586D01*
X66735847Y-52444205D01*
X65533766Y-51242124D01*
X65533766Y-51242124D01*
G37*
G36*
X65180212Y-51595678D02*
X65639831Y-51136059D01*
X66841912Y-52338140D01*
X66382293Y-52797759D01*
X65180212Y-51595678D01*
X65180212Y-51595678D01*
G37*
G36*
X64826659Y-51949231D02*
X65286278Y-51489612D01*
X66488359Y-52691693D01*
X66028740Y-53151312D01*
X64826659Y-51949231D01*
X64826659Y-51949231D01*
G37*
G36*
X64473105Y-52302785D02*
X64932724Y-51843166D01*
X66134805Y-53045247D01*
X65675186Y-53504866D01*
X64473105Y-52302785D01*
X64473105Y-52302785D01*
G37*
G36*
X64119552Y-52656338D02*
X64579171Y-52196719D01*
X65781252Y-53398800D01*
X65321633Y-53858419D01*
X64119552Y-52656338D01*
X64119552Y-52656338D01*
G37*
G36*
X63765999Y-53009891D02*
X64225618Y-52550272D01*
X65427699Y-53752353D01*
X64968080Y-54211972D01*
X63765999Y-53009891D01*
X63765999Y-53009891D01*
G37*
G36*
X63412445Y-53363445D02*
X63872064Y-52903826D01*
X65074145Y-54105907D01*
X64614526Y-54565526D01*
X63412445Y-53363445D01*
X63412445Y-53363445D01*
G37*
G36*
X63058892Y-53716998D02*
X63518511Y-53257379D01*
X64720592Y-54459460D01*
X64260973Y-54919079D01*
X63058892Y-53716998D01*
X63058892Y-53716998D01*
G37*
G36*
X63518511Y-57181821D02*
X63058892Y-56722202D01*
X64260973Y-55520121D01*
X64720592Y-55979740D01*
X63518511Y-57181821D01*
X63518511Y-57181821D01*
G37*
G36*
X63872064Y-57535374D02*
X63412445Y-57075755D01*
X64614526Y-55873674D01*
X65074145Y-56333293D01*
X63872064Y-57535374D01*
X63872064Y-57535374D01*
G37*
G36*
X64225618Y-57888928D02*
X63765999Y-57429309D01*
X64968080Y-56227228D01*
X65427699Y-56686847D01*
X64225618Y-57888928D01*
X64225618Y-57888928D01*
G37*
G36*
X64579171Y-58242481D02*
X64119552Y-57782862D01*
X65321633Y-56580781D01*
X65781252Y-57040400D01*
X64579171Y-58242481D01*
X64579171Y-58242481D01*
G37*
G36*
X64932724Y-58596034D02*
X64473105Y-58136415D01*
X65675186Y-56934334D01*
X66134805Y-57393953D01*
X64932724Y-58596034D01*
X64932724Y-58596034D01*
G37*
G36*
X65286278Y-58949588D02*
X64826659Y-58489969D01*
X66028740Y-57287888D01*
X66488359Y-57747507D01*
X65286278Y-58949588D01*
X65286278Y-58949588D01*
G37*
G36*
X65639831Y-59303141D02*
X65180212Y-58843522D01*
X66382293Y-57641441D01*
X66841912Y-58101060D01*
X65639831Y-59303141D01*
X65639831Y-59303141D01*
G37*
G36*
X65993385Y-59656695D02*
X65533766Y-59197076D01*
X66735847Y-57994995D01*
X67195466Y-58454614D01*
X65993385Y-59656695D01*
X65993385Y-59656695D01*
G37*
G36*
X66346938Y-60010248D02*
X65887319Y-59550629D01*
X67089400Y-58348548D01*
X67549019Y-58808167D01*
X66346938Y-60010248D01*
X66346938Y-60010248D01*
G37*
G36*
X66700491Y-60363801D02*
X66240872Y-59904182D01*
X67442953Y-58702101D01*
X67902572Y-59161720D01*
X66700491Y-60363801D01*
X66700491Y-60363801D01*
G37*
G36*
X67054045Y-60717355D02*
X66594426Y-60257736D01*
X67796507Y-59055655D01*
X68256126Y-59515274D01*
X67054045Y-60717355D01*
X67054045Y-60717355D01*
G37*
G36*
X67407598Y-61070908D02*
X66947979Y-60611289D01*
X68150060Y-59409208D01*
X68609679Y-59868827D01*
X67407598Y-61070908D01*
X67407598Y-61070908D01*
G37*
G36*
X69210721Y-59868827D02*
X69670340Y-59409208D01*
X70872421Y-60611289D01*
X70412802Y-61070908D01*
X69210721Y-59868827D01*
X69210721Y-59868827D01*
G37*
G36*
X69564274Y-59515274D02*
X70023893Y-59055655D01*
X71225974Y-60257736D01*
X70766355Y-60717355D01*
X69564274Y-59515274D01*
X69564274Y-59515274D01*
G37*
G36*
X69917828Y-59161720D02*
X70377447Y-58702101D01*
X71579528Y-59904182D01*
X71119909Y-60363801D01*
X69917828Y-59161720D01*
X69917828Y-59161720D01*
G37*
G36*
X70271381Y-58808167D02*
X70731000Y-58348548D01*
X71933081Y-59550629D01*
X71473462Y-60010248D01*
X70271381Y-58808167D01*
X70271381Y-58808167D01*
G37*
G36*
X70624934Y-58454614D02*
X71084553Y-57994995D01*
X72286634Y-59197076D01*
X71827015Y-59656695D01*
X70624934Y-58454614D01*
X70624934Y-58454614D01*
G37*
G36*
X70978488Y-58101060D02*
X71438107Y-57641441D01*
X72640188Y-58843522D01*
X72180569Y-59303141D01*
X70978488Y-58101060D01*
X70978488Y-58101060D01*
G37*
G36*
X71332041Y-57747507D02*
X71791660Y-57287888D01*
X72993741Y-58489969D01*
X72534122Y-58949588D01*
X71332041Y-57747507D01*
X71332041Y-57747507D01*
G37*
G36*
X71685595Y-57393953D02*
X72145214Y-56934334D01*
X73347295Y-58136415D01*
X72887676Y-58596034D01*
X71685595Y-57393953D01*
X71685595Y-57393953D01*
G37*
G36*
X72039148Y-57040400D02*
X72498767Y-56580781D01*
X73700848Y-57782862D01*
X73241229Y-58242481D01*
X72039148Y-57040400D01*
X72039148Y-57040400D01*
G37*
G36*
X72392701Y-56686847D02*
X72852320Y-56227228D01*
X74054401Y-57429309D01*
X73594782Y-57888928D01*
X72392701Y-56686847D01*
X72392701Y-56686847D01*
G37*
G36*
X72746255Y-56333293D02*
X73205874Y-55873674D01*
X74407955Y-57075755D01*
X73948336Y-57535374D01*
X72746255Y-56333293D01*
X72746255Y-56333293D01*
G37*
G36*
X73099808Y-55979740D02*
X73559427Y-55520121D01*
X74761508Y-56722202D01*
X74301889Y-57181821D01*
X73099808Y-55979740D01*
X73099808Y-55979740D01*
G37*
G36*
X73559427Y-54919079D02*
X73099808Y-54459460D01*
X74301889Y-53257379D01*
X74761508Y-53716998D01*
X73559427Y-54919079D01*
X73559427Y-54919079D01*
G37*
G36*
X73205874Y-54565526D02*
X72746255Y-54105907D01*
X73948336Y-52903826D01*
X74407955Y-53363445D01*
X73205874Y-54565526D01*
X73205874Y-54565526D01*
G37*
G36*
X72852320Y-54211972D02*
X72392701Y-53752353D01*
X73594782Y-52550272D01*
X74054401Y-53009891D01*
X72852320Y-54211972D01*
X72852320Y-54211972D01*
G37*
G36*
X72498767Y-53858419D02*
X72039148Y-53398800D01*
X73241229Y-52196719D01*
X73700848Y-52656338D01*
X72498767Y-53858419D01*
X72498767Y-53858419D01*
G37*
G36*
X72145214Y-53504866D02*
X71685595Y-53045247D01*
X72887676Y-51843166D01*
X73347295Y-52302785D01*
X72145214Y-53504866D01*
X72145214Y-53504866D01*
G37*
G36*
X71791660Y-53151312D02*
X71332041Y-52691693D01*
X72534122Y-51489612D01*
X72993741Y-51949231D01*
X71791660Y-53151312D01*
X71791660Y-53151312D01*
G37*
G36*
X71438107Y-52797759D02*
X70978488Y-52338140D01*
X72180569Y-51136059D01*
X72640188Y-51595678D01*
X71438107Y-52797759D01*
X71438107Y-52797759D01*
G37*
G36*
X71084553Y-52444205D02*
X70624934Y-51984586D01*
X71827015Y-50782505D01*
X72286634Y-51242124D01*
X71084553Y-52444205D01*
X71084553Y-52444205D01*
G37*
G36*
X70731000Y-52090652D02*
X70271381Y-51631033D01*
X71473462Y-50428952D01*
X71933081Y-50888571D01*
X70731000Y-52090652D01*
X70731000Y-52090652D01*
G37*
G36*
X70377447Y-51737099D02*
X69917828Y-51277480D01*
X71119909Y-50075399D01*
X71579528Y-50535018D01*
X70377447Y-51737099D01*
X70377447Y-51737099D01*
G37*
G36*
X70023893Y-51383545D02*
X69564274Y-50923926D01*
X70766355Y-49721845D01*
X71225974Y-50181464D01*
X70023893Y-51383545D01*
X70023893Y-51383545D01*
G37*
G36*
X69670340Y-51029992D02*
X69210721Y-50570373D01*
X70412802Y-49368292D01*
X70872421Y-49827911D01*
X69670340Y-51029992D01*
X69670340Y-51029992D01*
G37*
D11*
X61110000Y-34158000D03*
D12*
X61110000Y-36698000D03*
X61110000Y-39238000D03*
X61110000Y-41778000D03*
X61110000Y-44318000D03*
X61110000Y-46858000D03*
X61110000Y-49398000D03*
X61110000Y-51938000D03*
X61110000Y-54478000D03*
X61110000Y-57018000D03*
X61110000Y-59558000D03*
X61110000Y-62098000D03*
X61110000Y-64638000D03*
X61110000Y-67178000D03*
X61110000Y-69718000D03*
X61110000Y-72258000D03*
X61110000Y-74798000D03*
X61110000Y-77338000D03*
X61110000Y-79878000D03*
X61110000Y-82418000D03*
D11*
X76350000Y-34158000D03*
D12*
X76350000Y-36698000D03*
X76350000Y-39238000D03*
X76350000Y-41778000D03*
X76350000Y-44318000D03*
X76350000Y-46858000D03*
X76350000Y-49398000D03*
X76350000Y-51938000D03*
X76350000Y-54478000D03*
X76350000Y-57018000D03*
X76350000Y-59558000D03*
X76350000Y-62098000D03*
X76350000Y-64638000D03*
X76350000Y-67178000D03*
X76350000Y-69718000D03*
X76350000Y-72258000D03*
X76350000Y-74798000D03*
X76350000Y-77338000D03*
X76350000Y-79878000D03*
X76350000Y-82418000D03*
D13*
X67627500Y-45466000D03*
X67627500Y-47966000D03*
X64516000Y-45466000D03*
X64516000Y-47966000D03*
X70866000Y-36830000D03*
X73366000Y-36830000D03*
X64770000Y-36830000D03*
X67270000Y-36830000D03*
D11*
X72694800Y-33807400D03*
D12*
X70154800Y-33807400D03*
X67614800Y-33807400D03*
X65074800Y-33807400D03*
D14*
X71501000Y-41021000D03*
X66621000Y-41021000D03*
D15*
X71882000Y-48768000D03*
X73782000Y-48768000D03*
D13*
X70866000Y-45466000D03*
X73366000Y-45466000D03*
D16*
X64709040Y-80076040D03*
D13*
X64709040Y-82576040D03*
X66865500Y-62166500D03*
X69365500Y-62166500D03*
D16*
X64731900Y-76885800D03*
D13*
X64731900Y-74385800D03*
X61153040Y-93497400D03*
X63653040Y-93497400D03*
D17*
X62219840Y-100472240D03*
D18*
X62219840Y-97932240D03*
D19*
X69049900Y-74587100D03*
D20*
X69049900Y-82207100D03*
D19*
X72199500Y-74447400D03*
D20*
X72199500Y-82067400D03*
D21*
X71414640Y-96586040D03*
X73954640Y-96586040D03*
X73954640Y-98586040D03*
X71414640Y-98586040D03*
D22*
X66684640Y-101286040D03*
X78684640Y-101286040D03*
D11*
X71120000Y-64833500D03*
D12*
X71120000Y-67373500D03*
X68580000Y-64833500D03*
X68580000Y-67373500D03*
X66040000Y-64833500D03*
X66040000Y-67373500D03*
D23*
X60960000Y-90606000D03*
X60960000Y-86106000D03*
X67460000Y-90606000D03*
X67460000Y-86106000D03*
D13*
X70485000Y-85217000D03*
D24*
X70485000Y-92837000D03*
D13*
X73533000Y-85090000D03*
D24*
X73533000Y-92710000D03*
D13*
X76835000Y-85471000D03*
D24*
X76835000Y-93091000D03*
D13*
X58140600Y-85232240D03*
D24*
X58140600Y-92852240D03*
D13*
X58064400Y-95062040D03*
D24*
X58064400Y-102682040D03*
D17*
X66027300Y-70942200D03*
D25*
X68567300Y-70942200D03*
X71107300Y-70942200D03*
M02*
