G04 #@! TF.FileFunction,Copper,L1,Top,Signal*
%FSLAX46Y46*%
G04 Gerber Fmt 4.6, Leading zero omitted, Abs format (unit mm)*
G04 Created by KiCad (PCBNEW 4.0.7) date 10/16/19 18:47:00*
%MOMM*%
%LPD*%
G01*
G04 APERTURE LIST*
%ADD10C,0.100000*%
%ADD11R,1.700000X1.700000*%
%ADD12O,1.700000X1.700000*%
%ADD13C,1.600000*%
%ADD14C,1.500000*%
%ADD15C,1.000000*%
%ADD16R,1.600000X1.600000*%
%ADD17R,1.800000X1.800000*%
%ADD18C,1.800000*%
%ADD19R,2.200000X2.200000*%
%ADD20O,2.200000X2.200000*%
%ADD21C,1.520000*%
%ADD22C,2.700000*%
%ADD23C,2.000000*%
%ADD24O,1.600000X1.600000*%
%ADD25O,1.800000X1.800000*%
%ADD26C,0.600000*%
%ADD27C,0.250000*%
%ADD28C,0.500000*%
G04 APERTURE END LIST*
D10*
G36*
X67230821Y-49827911D02*
X67407598Y-49651134D01*
X68326837Y-50570373D01*
X68150060Y-50747150D01*
X67230821Y-49827911D01*
X67230821Y-49827911D01*
G37*
G36*
X66877268Y-50181464D02*
X67054045Y-50004687D01*
X67973284Y-50923926D01*
X67796507Y-51100703D01*
X66877268Y-50181464D01*
X66877268Y-50181464D01*
G37*
G36*
X66523714Y-50535018D02*
X66700491Y-50358241D01*
X67619730Y-51277480D01*
X67442953Y-51454257D01*
X66523714Y-50535018D01*
X66523714Y-50535018D01*
G37*
G36*
X66170161Y-50888571D02*
X66346938Y-50711794D01*
X67266177Y-51631033D01*
X67089400Y-51807810D01*
X66170161Y-50888571D01*
X66170161Y-50888571D01*
G37*
G36*
X65816608Y-51242124D02*
X65993385Y-51065347D01*
X66912624Y-51984586D01*
X66735847Y-52161363D01*
X65816608Y-51242124D01*
X65816608Y-51242124D01*
G37*
G36*
X65463054Y-51595678D02*
X65639831Y-51418901D01*
X66559070Y-52338140D01*
X66382293Y-52514917D01*
X65463054Y-51595678D01*
X65463054Y-51595678D01*
G37*
G36*
X65109501Y-51949231D02*
X65286278Y-51772454D01*
X66205517Y-52691693D01*
X66028740Y-52868470D01*
X65109501Y-51949231D01*
X65109501Y-51949231D01*
G37*
G36*
X64755947Y-52302785D02*
X64932724Y-52126008D01*
X65851963Y-53045247D01*
X65675186Y-53222024D01*
X64755947Y-52302785D01*
X64755947Y-52302785D01*
G37*
G36*
X64402394Y-52656338D02*
X64579171Y-52479561D01*
X65498410Y-53398800D01*
X65321633Y-53575577D01*
X64402394Y-52656338D01*
X64402394Y-52656338D01*
G37*
G36*
X64048841Y-53009891D02*
X64225618Y-52833114D01*
X65144857Y-53752353D01*
X64968080Y-53929130D01*
X64048841Y-53009891D01*
X64048841Y-53009891D01*
G37*
G36*
X63695287Y-53363445D02*
X63872064Y-53186668D01*
X64791303Y-54105907D01*
X64614526Y-54282684D01*
X63695287Y-53363445D01*
X63695287Y-53363445D01*
G37*
G36*
X63341734Y-53716998D02*
X63518511Y-53540221D01*
X64437750Y-54459460D01*
X64260973Y-54636237D01*
X63341734Y-53716998D01*
X63341734Y-53716998D01*
G37*
G36*
X63518511Y-56898979D02*
X63341734Y-56722202D01*
X64260973Y-55802963D01*
X64437750Y-55979740D01*
X63518511Y-56898979D01*
X63518511Y-56898979D01*
G37*
G36*
X63872064Y-57252532D02*
X63695287Y-57075755D01*
X64614526Y-56156516D01*
X64791303Y-56333293D01*
X63872064Y-57252532D01*
X63872064Y-57252532D01*
G37*
G36*
X64225618Y-57606086D02*
X64048841Y-57429309D01*
X64968080Y-56510070D01*
X65144857Y-56686847D01*
X64225618Y-57606086D01*
X64225618Y-57606086D01*
G37*
G36*
X64579171Y-57959639D02*
X64402394Y-57782862D01*
X65321633Y-56863623D01*
X65498410Y-57040400D01*
X64579171Y-57959639D01*
X64579171Y-57959639D01*
G37*
G36*
X64932724Y-58313192D02*
X64755947Y-58136415D01*
X65675186Y-57217176D01*
X65851963Y-57393953D01*
X64932724Y-58313192D01*
X64932724Y-58313192D01*
G37*
G36*
X65286278Y-58666746D02*
X65109501Y-58489969D01*
X66028740Y-57570730D01*
X66205517Y-57747507D01*
X65286278Y-58666746D01*
X65286278Y-58666746D01*
G37*
G36*
X65639831Y-59020299D02*
X65463054Y-58843522D01*
X66382293Y-57924283D01*
X66559070Y-58101060D01*
X65639831Y-59020299D01*
X65639831Y-59020299D01*
G37*
G36*
X65993385Y-59373853D02*
X65816608Y-59197076D01*
X66735847Y-58277837D01*
X66912624Y-58454614D01*
X65993385Y-59373853D01*
X65993385Y-59373853D01*
G37*
G36*
X66346938Y-59727406D02*
X66170161Y-59550629D01*
X67089400Y-58631390D01*
X67266177Y-58808167D01*
X66346938Y-59727406D01*
X66346938Y-59727406D01*
G37*
G36*
X66700491Y-60080959D02*
X66523714Y-59904182D01*
X67442953Y-58984943D01*
X67619730Y-59161720D01*
X66700491Y-60080959D01*
X66700491Y-60080959D01*
G37*
G36*
X67054045Y-60434513D02*
X66877268Y-60257736D01*
X67796507Y-59338497D01*
X67973284Y-59515274D01*
X67054045Y-60434513D01*
X67054045Y-60434513D01*
G37*
G36*
X67407598Y-60788066D02*
X67230821Y-60611289D01*
X68150060Y-59692050D01*
X68326837Y-59868827D01*
X67407598Y-60788066D01*
X67407598Y-60788066D01*
G37*
G36*
X69493563Y-59868827D02*
X69670340Y-59692050D01*
X70589579Y-60611289D01*
X70412802Y-60788066D01*
X69493563Y-59868827D01*
X69493563Y-59868827D01*
G37*
G36*
X69847116Y-59515274D02*
X70023893Y-59338497D01*
X70943132Y-60257736D01*
X70766355Y-60434513D01*
X69847116Y-59515274D01*
X69847116Y-59515274D01*
G37*
G36*
X70200670Y-59161720D02*
X70377447Y-58984943D01*
X71296686Y-59904182D01*
X71119909Y-60080959D01*
X70200670Y-59161720D01*
X70200670Y-59161720D01*
G37*
G36*
X70554223Y-58808167D02*
X70731000Y-58631390D01*
X71650239Y-59550629D01*
X71473462Y-59727406D01*
X70554223Y-58808167D01*
X70554223Y-58808167D01*
G37*
G36*
X70907776Y-58454614D02*
X71084553Y-58277837D01*
X72003792Y-59197076D01*
X71827015Y-59373853D01*
X70907776Y-58454614D01*
X70907776Y-58454614D01*
G37*
G36*
X71261330Y-58101060D02*
X71438107Y-57924283D01*
X72357346Y-58843522D01*
X72180569Y-59020299D01*
X71261330Y-58101060D01*
X71261330Y-58101060D01*
G37*
G36*
X71614883Y-57747507D02*
X71791660Y-57570730D01*
X72710899Y-58489969D01*
X72534122Y-58666746D01*
X71614883Y-57747507D01*
X71614883Y-57747507D01*
G37*
G36*
X71968437Y-57393953D02*
X72145214Y-57217176D01*
X73064453Y-58136415D01*
X72887676Y-58313192D01*
X71968437Y-57393953D01*
X71968437Y-57393953D01*
G37*
G36*
X72321990Y-57040400D02*
X72498767Y-56863623D01*
X73418006Y-57782862D01*
X73241229Y-57959639D01*
X72321990Y-57040400D01*
X72321990Y-57040400D01*
G37*
G36*
X72675543Y-56686847D02*
X72852320Y-56510070D01*
X73771559Y-57429309D01*
X73594782Y-57606086D01*
X72675543Y-56686847D01*
X72675543Y-56686847D01*
G37*
G36*
X73029097Y-56333293D02*
X73205874Y-56156516D01*
X74125113Y-57075755D01*
X73948336Y-57252532D01*
X73029097Y-56333293D01*
X73029097Y-56333293D01*
G37*
G36*
X73382650Y-55979740D02*
X73559427Y-55802963D01*
X74478666Y-56722202D01*
X74301889Y-56898979D01*
X73382650Y-55979740D01*
X73382650Y-55979740D01*
G37*
G36*
X73559427Y-54636237D02*
X73382650Y-54459460D01*
X74301889Y-53540221D01*
X74478666Y-53716998D01*
X73559427Y-54636237D01*
X73559427Y-54636237D01*
G37*
G36*
X73205874Y-54282684D02*
X73029097Y-54105907D01*
X73948336Y-53186668D01*
X74125113Y-53363445D01*
X73205874Y-54282684D01*
X73205874Y-54282684D01*
G37*
G36*
X72852320Y-53929130D02*
X72675543Y-53752353D01*
X73594782Y-52833114D01*
X73771559Y-53009891D01*
X72852320Y-53929130D01*
X72852320Y-53929130D01*
G37*
G36*
X72498767Y-53575577D02*
X72321990Y-53398800D01*
X73241229Y-52479561D01*
X73418006Y-52656338D01*
X72498767Y-53575577D01*
X72498767Y-53575577D01*
G37*
G36*
X72145214Y-53222024D02*
X71968437Y-53045247D01*
X72887676Y-52126008D01*
X73064453Y-52302785D01*
X72145214Y-53222024D01*
X72145214Y-53222024D01*
G37*
G36*
X71791660Y-52868470D02*
X71614883Y-52691693D01*
X72534122Y-51772454D01*
X72710899Y-51949231D01*
X71791660Y-52868470D01*
X71791660Y-52868470D01*
G37*
G36*
X71438107Y-52514917D02*
X71261330Y-52338140D01*
X72180569Y-51418901D01*
X72357346Y-51595678D01*
X71438107Y-52514917D01*
X71438107Y-52514917D01*
G37*
G36*
X71084553Y-52161363D02*
X70907776Y-51984586D01*
X71827015Y-51065347D01*
X72003792Y-51242124D01*
X71084553Y-52161363D01*
X71084553Y-52161363D01*
G37*
G36*
X70731000Y-51807810D02*
X70554223Y-51631033D01*
X71473462Y-50711794D01*
X71650239Y-50888571D01*
X70731000Y-51807810D01*
X70731000Y-51807810D01*
G37*
G36*
X70377447Y-51454257D02*
X70200670Y-51277480D01*
X71119909Y-50358241D01*
X71296686Y-50535018D01*
X70377447Y-51454257D01*
X70377447Y-51454257D01*
G37*
G36*
X70023893Y-51100703D02*
X69847116Y-50923926D01*
X70766355Y-50004687D01*
X70943132Y-50181464D01*
X70023893Y-51100703D01*
X70023893Y-51100703D01*
G37*
G36*
X69670340Y-50747150D02*
X69493563Y-50570373D01*
X70412802Y-49651134D01*
X70589579Y-49827911D01*
X69670340Y-50747150D01*
X69670340Y-50747150D01*
G37*
D11*
X61110000Y-34158000D03*
D12*
X61110000Y-36698000D03*
X61110000Y-39238000D03*
X61110000Y-41778000D03*
X61110000Y-44318000D03*
X61110000Y-46858000D03*
X61110000Y-49398000D03*
X61110000Y-51938000D03*
X61110000Y-54478000D03*
X61110000Y-57018000D03*
X61110000Y-59558000D03*
X61110000Y-62098000D03*
X61110000Y-64638000D03*
X61110000Y-67178000D03*
X61110000Y-69718000D03*
X61110000Y-72258000D03*
X61110000Y-74798000D03*
X61110000Y-77338000D03*
X61110000Y-79878000D03*
X61110000Y-82418000D03*
D11*
X76350000Y-34158000D03*
D12*
X76350000Y-36698000D03*
X76350000Y-39238000D03*
X76350000Y-41778000D03*
X76350000Y-44318000D03*
X76350000Y-46858000D03*
X76350000Y-49398000D03*
X76350000Y-51938000D03*
X76350000Y-54478000D03*
X76350000Y-57018000D03*
X76350000Y-59558000D03*
X76350000Y-62098000D03*
X76350000Y-64638000D03*
X76350000Y-67178000D03*
X76350000Y-69718000D03*
X76350000Y-72258000D03*
X76350000Y-74798000D03*
X76350000Y-77338000D03*
X76350000Y-79878000D03*
X76350000Y-82418000D03*
D13*
X67627500Y-45466000D03*
X67627500Y-47966000D03*
X64516000Y-45466000D03*
X64516000Y-47966000D03*
X70866000Y-36830000D03*
X73366000Y-36830000D03*
X64770000Y-36830000D03*
X67270000Y-36830000D03*
D11*
X72694800Y-33807400D03*
D12*
X70154800Y-33807400D03*
X67614800Y-33807400D03*
X65074800Y-33807400D03*
D14*
X71501000Y-41021000D03*
X66621000Y-41021000D03*
D15*
X71882000Y-48768000D03*
X73782000Y-48768000D03*
D13*
X70866000Y-45466000D03*
X73366000Y-45466000D03*
D16*
X64709040Y-80076040D03*
D13*
X64709040Y-82576040D03*
X66865500Y-62166500D03*
X69365500Y-62166500D03*
D16*
X64731900Y-76885800D03*
D13*
X64731900Y-74385800D03*
X61153040Y-93497400D03*
X63653040Y-93497400D03*
D17*
X62219840Y-100472240D03*
D18*
X62219840Y-97932240D03*
D19*
X69049900Y-74587100D03*
D20*
X69049900Y-82207100D03*
D19*
X72199500Y-74447400D03*
D20*
X72199500Y-82067400D03*
D21*
X71414640Y-96586040D03*
X73954640Y-96586040D03*
X73954640Y-98586040D03*
X71414640Y-98586040D03*
D22*
X66684640Y-101286040D03*
X78684640Y-101286040D03*
D11*
X71120000Y-64833500D03*
D12*
X71120000Y-67373500D03*
X68580000Y-64833500D03*
X68580000Y-67373500D03*
X66040000Y-64833500D03*
X66040000Y-67373500D03*
D23*
X60960000Y-90606000D03*
X60960000Y-86106000D03*
X67460000Y-90606000D03*
X67460000Y-86106000D03*
D13*
X70485000Y-85217000D03*
D24*
X70485000Y-92837000D03*
D13*
X73533000Y-85090000D03*
D24*
X73533000Y-92710000D03*
D13*
X76835000Y-85471000D03*
D24*
X76835000Y-93091000D03*
D13*
X58140600Y-85232240D03*
D24*
X58140600Y-92852240D03*
D13*
X58064400Y-95062040D03*
D24*
X58064400Y-102682040D03*
D17*
X66027300Y-70942200D03*
D25*
X68567300Y-70942200D03*
X71107300Y-70942200D03*
D26*
X68557140Y-52590700D03*
X58887360Y-87294720D03*
X58399680Y-89428320D03*
X59182000Y-37655500D03*
X68534280Y-55397400D03*
X68473320Y-58338720D03*
X78846680Y-98628200D03*
X78958440Y-97063560D03*
X78846680Y-95498920D03*
X78846680Y-93878400D03*
X78958440Y-91978480D03*
X79181960Y-89966800D03*
X79237840Y-88011000D03*
X79405480Y-86166960D03*
X79573120Y-84490560D03*
X79400400Y-81495900D03*
X79400400Y-78676500D03*
X79324200Y-76085700D03*
X79438500Y-73609200D03*
X79400400Y-71247000D03*
X79438500Y-68770500D03*
X79438500Y-66065400D03*
X79514700Y-63588900D03*
X79476600Y-60998100D03*
X79438500Y-58483500D03*
X79438500Y-55892700D03*
X79324200Y-53187600D03*
X79514700Y-50634900D03*
X79265780Y-48168560D03*
X80103980Y-45626020D03*
X80131920Y-43111420D03*
X80020160Y-40848280D03*
X79438500Y-38176200D03*
X79552800Y-35433000D03*
X79362300Y-32842200D03*
X78447900Y-31546800D03*
X76200000Y-31623000D03*
X74523600Y-31508700D03*
X71437500Y-31280100D03*
X68770500Y-31470600D03*
X66294000Y-31623000D03*
X80774540Y-98907600D03*
X80746600Y-100248720D03*
X80858360Y-101645720D03*
X80355440Y-103154480D03*
X79181960Y-103657400D03*
X77617320Y-103769160D03*
X75940920Y-103489760D03*
X74543920Y-103489760D03*
X73258680Y-103545640D03*
X71861680Y-103713280D03*
X70464680Y-103769160D03*
X69067680Y-103713280D03*
X67447160Y-103657400D03*
X65913000Y-103555800D03*
X64350900Y-103517700D03*
X62674500Y-103251000D03*
X61412120Y-102735380D03*
X60071000Y-101450140D03*
X59568080Y-100360480D03*
X58422540Y-99298760D03*
X57388760Y-97873820D03*
X56606440Y-97035620D03*
X56690260Y-95247460D03*
X56382920Y-93599000D03*
X57221120Y-91447620D03*
X57444640Y-89575640D03*
X57416700Y-87955120D03*
X56997600Y-86781640D03*
X58140600Y-83667600D03*
X58407300Y-81153000D03*
X58407300Y-78600300D03*
X58293000Y-76009500D03*
X58293000Y-73571100D03*
X58331100Y-71170800D03*
X58293000Y-68541900D03*
X58366660Y-65994280D03*
X58366660Y-63423800D03*
X58338720Y-60797440D03*
X58562240Y-58450480D03*
X58478420Y-55656480D03*
X58394600Y-53141880D03*
X58310780Y-50739040D03*
X58506360Y-48196500D03*
X58310780Y-45514260D03*
X58254900Y-43195240D03*
X58226960Y-41127680D03*
X58199020Y-39590980D03*
X58140600Y-38023800D03*
X58635900Y-35661600D03*
X58940700Y-32346900D03*
X59969400Y-31432500D03*
X61302900Y-31394400D03*
X62865000Y-31432500D03*
X64510920Y-51676300D03*
X70073520Y-52852320D03*
X72212200Y-56210200D03*
X69342000Y-40894000D03*
X65176400Y-40436800D03*
X70866000Y-69138800D03*
X70205600Y-78435200D03*
X72339200Y-88290400D03*
X70675500Y-43751500D03*
X69659500Y-48895000D03*
X68516500Y-42862500D03*
X69342000Y-44196000D03*
X68199000Y-53975000D03*
X70675500Y-47561500D03*
X78435200Y-42103040D03*
X74739500Y-57594500D03*
X68818760Y-49956720D03*
X63792100Y-50784760D03*
X73380600Y-49743360D03*
X74736960Y-52265580D03*
X72288400Y-54610000D03*
X74295000Y-59359800D03*
X63055500Y-62293500D03*
X73482200Y-60375800D03*
X63614300Y-63944500D03*
X73075800Y-61798200D03*
X72644000Y-63271400D03*
X70238620Y-54785260D03*
X67106800Y-57127140D03*
D27*
X72689798Y-42965969D02*
X72731031Y-42965969D01*
X72689798Y-42965969D02*
X72731031Y-42965969D01*
X72689798Y-42965969D02*
X72731031Y-42965969D01*
X67425276Y-50552695D02*
X67458935Y-50552695D01*
X67458935Y-50552695D02*
X68557140Y-51650900D01*
X68557140Y-51650900D02*
X68557140Y-52590700D01*
X68557140Y-52590700D02*
X68475221Y-52590700D01*
X58887360Y-88940640D02*
X58887360Y-87294720D01*
X58399680Y-89428320D02*
X58887360Y-88940640D01*
X60139500Y-36698000D02*
X59182000Y-37655500D01*
X61110000Y-36698000D02*
X60139500Y-36698000D01*
X67425276Y-50552695D02*
X67425276Y-50559676D01*
D28*
X64709040Y-80076040D02*
X67284600Y-80076040D01*
X69049900Y-78310740D02*
X69049900Y-74587100D01*
X67284600Y-80076040D02*
X69049900Y-78310740D01*
X69049900Y-74587100D02*
X72059800Y-74587100D01*
X72059800Y-74587100D02*
X72199500Y-74447400D01*
X71107300Y-70942200D02*
X71107300Y-73355200D01*
X71107300Y-73355200D02*
X72199500Y-74447400D01*
D27*
X67379978Y-54787800D02*
X67452240Y-54787800D01*
X65303955Y-52711777D02*
X67379978Y-54787800D01*
X68061840Y-55397400D02*
X68534280Y-55397400D01*
X67452240Y-54787800D02*
X68061840Y-55397400D01*
X67425276Y-59886505D02*
X67474175Y-59886505D01*
X67474175Y-59886505D02*
X68473320Y-58887360D01*
X68473320Y-58887360D02*
X68473320Y-58338720D01*
X67425276Y-59886505D02*
X67436075Y-59886505D01*
X65074800Y-33807400D02*
X65074800Y-31602680D01*
X78846680Y-97175320D02*
X78846680Y-98628200D01*
X78958440Y-97063560D02*
X78846680Y-97175320D01*
X78846680Y-93878400D02*
X78846680Y-95498920D01*
X78958440Y-90190320D02*
X78958440Y-91978480D01*
X79181960Y-89966800D02*
X78958440Y-90190320D01*
X79237840Y-86334600D02*
X79237840Y-88011000D01*
X79405480Y-86166960D02*
X79237840Y-86334600D01*
X79573120Y-81668620D02*
X79573120Y-84490560D01*
X79400400Y-81495900D02*
X79573120Y-81668620D01*
X79400400Y-76161900D02*
X79400400Y-78676500D01*
X79324200Y-76085700D02*
X79400400Y-76161900D01*
X79438500Y-71285100D02*
X79438500Y-73609200D01*
X79400400Y-71247000D02*
X79438500Y-71285100D01*
X79438500Y-66065400D02*
X79438500Y-68770500D01*
X79514700Y-61036200D02*
X79514700Y-63588900D01*
X79476600Y-60998100D02*
X79514700Y-61036200D01*
X79438500Y-55892700D02*
X79438500Y-58483500D01*
X79324200Y-50825400D02*
X79324200Y-53187600D01*
X79514700Y-50634900D02*
X79324200Y-50825400D01*
X79265780Y-46464220D02*
X79265780Y-48168560D01*
X80103980Y-45626020D02*
X79265780Y-46464220D01*
X80131920Y-40960040D02*
X80131920Y-43111420D01*
X80020160Y-40848280D02*
X80131920Y-40960040D01*
X79438500Y-35547300D02*
X79438500Y-38176200D01*
X79552800Y-35433000D02*
X79438500Y-35547300D01*
X79362300Y-32461200D02*
X79362300Y-32842200D01*
X78447900Y-31546800D02*
X79362300Y-32461200D01*
X74637900Y-31623000D02*
X76200000Y-31623000D01*
X74523600Y-31508700D02*
X74637900Y-31623000D01*
X68961000Y-31280100D02*
X71437500Y-31280100D01*
X68770500Y-31470600D02*
X68961000Y-31280100D01*
X65095120Y-31623000D02*
X66294000Y-31623000D01*
X65074800Y-31602680D02*
X65095120Y-31623000D01*
X80774540Y-98907600D02*
X78684640Y-100997500D01*
X80746600Y-101533960D02*
X80746600Y-100248720D01*
X80858360Y-101645720D02*
X80746600Y-101533960D01*
X79684880Y-103154480D02*
X80355440Y-103154480D01*
X79181960Y-103657400D02*
X79684880Y-103154480D01*
X76220320Y-103769160D02*
X77617320Y-103769160D01*
X75940920Y-103489760D02*
X76220320Y-103769160D01*
X73314560Y-103489760D02*
X74543920Y-103489760D01*
X73258680Y-103545640D02*
X73314560Y-103489760D01*
X70520560Y-103713280D02*
X71861680Y-103713280D01*
X70464680Y-103769160D02*
X70520560Y-103713280D01*
X67503040Y-103713280D02*
X69067680Y-103713280D01*
X67447160Y-103657400D02*
X67503040Y-103713280D01*
X64389000Y-103555800D02*
X65913000Y-103555800D01*
X64350900Y-103517700D02*
X64389000Y-103555800D01*
X61927740Y-103251000D02*
X62674500Y-103251000D01*
X61412120Y-102735380D02*
X61927740Y-103251000D01*
X60071000Y-100863400D02*
X60071000Y-101450140D01*
X59568080Y-100360480D02*
X60071000Y-100863400D01*
X58422540Y-98907600D02*
X58422540Y-99298760D01*
X57388760Y-97873820D02*
X58422540Y-98907600D01*
X56606440Y-95331280D02*
X56606440Y-97035620D01*
X56690260Y-95247460D02*
X56606440Y-95331280D01*
X56690260Y-93291660D02*
X56382920Y-93599000D01*
X56690260Y-91978480D02*
X56690260Y-93291660D01*
X57221120Y-91447620D02*
X56690260Y-91978480D01*
X57444640Y-87983060D02*
X57444640Y-89575640D01*
X57416700Y-87955120D02*
X57444640Y-87983060D01*
X56959500Y-86743540D02*
X56997600Y-86781640D01*
X56959500Y-84315300D02*
X56959500Y-86743540D01*
X56921400Y-84277200D02*
X56959500Y-84315300D01*
X57531000Y-84277200D02*
X56921400Y-84277200D01*
X58140600Y-83667600D02*
X57531000Y-84277200D01*
X58407300Y-78600300D02*
X58407300Y-81153000D01*
X58293000Y-73571100D02*
X58293000Y-76009500D01*
X58331100Y-68580000D02*
X58331100Y-71170800D01*
X58293000Y-68541900D02*
X58331100Y-68580000D01*
X58366660Y-63423800D02*
X58366660Y-65994280D01*
X58338720Y-58674000D02*
X58338720Y-60797440D01*
X58562240Y-58450480D02*
X58338720Y-58674000D01*
X58478420Y-53225700D02*
X58478420Y-55656480D01*
X58394600Y-53141880D02*
X58478420Y-53225700D01*
X58310780Y-48392080D02*
X58310780Y-50739040D01*
X58506360Y-48196500D02*
X58310780Y-48392080D01*
X58310780Y-43251120D02*
X58310780Y-45514260D01*
X58254900Y-43195240D02*
X58310780Y-43251120D01*
X58226960Y-39618920D02*
X58226960Y-41127680D01*
X58199020Y-39590980D02*
X58226960Y-39618920D01*
X58140600Y-36156900D02*
X58140600Y-38023800D01*
X58635900Y-35661600D02*
X58140600Y-36156900D01*
X59055000Y-32346900D02*
X58940700Y-32346900D01*
X59969400Y-31432500D02*
X59055000Y-32346900D01*
X62826900Y-31394400D02*
X61302900Y-31394400D01*
X62865000Y-31432500D02*
X62826900Y-31394400D01*
X78684640Y-100997500D02*
X78684640Y-101286040D01*
X64566800Y-51936861D02*
X65303955Y-52674016D01*
X64566800Y-51732180D02*
X64566800Y-51936861D01*
X64510920Y-51676300D02*
X64566800Y-51732180D01*
X69753480Y-51194339D02*
X69753480Y-52555140D01*
X70050660Y-52852320D02*
X70073520Y-52852320D01*
X69753480Y-52555140D02*
X70050660Y-52852320D01*
X65303955Y-52674016D02*
X65303955Y-52711777D01*
X69753480Y-51194339D02*
X70395124Y-50552695D01*
X69753480Y-51328320D02*
X69753480Y-51194339D01*
X66865500Y-62166500D02*
X66865500Y-61925200D01*
X66865500Y-61925200D02*
X66497200Y-61556900D01*
X66497200Y-61556900D02*
X66497200Y-60814581D01*
X66497200Y-60814581D02*
X67425276Y-59886505D01*
X67425276Y-59886505D02*
X67469095Y-59886505D01*
X73577105Y-56704524D02*
X73544724Y-56704524D01*
X73544724Y-56704524D02*
X72923400Y-56083200D01*
X72339200Y-56083200D02*
X72212200Y-56210200D01*
X72923400Y-56083200D02*
X72339200Y-56083200D01*
X69342000Y-40894000D02*
X69392800Y-40843200D01*
X69392800Y-40843200D02*
X69392800Y-40284400D01*
X64820800Y-40792400D02*
X64820800Y-41249600D01*
X65176400Y-40436800D02*
X64820800Y-40792400D01*
X70866000Y-69138800D02*
X71628000Y-69138800D01*
X64709040Y-82576040D02*
X66064760Y-82576040D01*
X66064760Y-82576040D02*
X70205600Y-78435200D01*
X67460000Y-90606000D02*
X70023600Y-90606000D01*
X70023600Y-90606000D02*
X72339200Y-88290400D01*
X70395124Y-50552695D02*
X70395124Y-50590578D01*
X65303955Y-52674016D02*
X65262256Y-52674016D01*
X65303955Y-52674016D02*
X65335916Y-52674016D01*
X73577105Y-56704524D02*
X73570124Y-56704524D01*
X65303955Y-52674016D02*
X65303955Y-52692855D01*
X65303955Y-52674016D02*
X65348616Y-52674016D01*
X70395124Y-50552695D02*
X70395124Y-50565178D01*
D28*
X65481200Y-66814700D02*
X66040000Y-67373500D01*
X66040000Y-64833500D02*
X66040000Y-62992000D01*
X66040000Y-62992000D02*
X66865500Y-62166500D01*
D27*
X67425276Y-59886505D02*
X67419693Y-59886505D01*
X67425276Y-59886505D02*
X67425276Y-59879524D01*
D28*
X73366000Y-37084000D02*
X75964000Y-37084000D01*
X75964000Y-37084000D02*
X76350000Y-36698000D01*
X61762000Y-82067400D02*
X61787400Y-82042000D01*
D27*
X65024000Y-49690020D02*
X65024000Y-50272739D01*
X65024000Y-50272739D02*
X66364616Y-51613355D01*
X65024000Y-49212500D02*
X65563750Y-48672750D01*
X65024000Y-49974500D02*
X65024000Y-49690020D01*
X65024000Y-49690020D02*
X65024000Y-49212500D01*
X67627500Y-45466000D02*
X67627500Y-44894500D01*
X67627500Y-44894500D02*
X71501000Y-41021000D01*
X66364616Y-51613355D02*
X66364616Y-51594516D01*
X66484500Y-45466000D02*
X67627500Y-45466000D01*
X65786000Y-45910500D02*
X66484500Y-45466000D01*
X65786000Y-48323500D02*
X65786000Y-45910500D01*
X65563750Y-48672750D02*
X65786000Y-48323500D01*
X63722250Y-46259750D02*
X63341250Y-46259750D01*
X62927805Y-49006150D02*
X64529842Y-50600537D01*
X63119000Y-46926500D02*
X62927805Y-49006150D01*
X63341250Y-46259750D02*
X63119000Y-46926500D01*
X66011062Y-51966909D02*
X65975009Y-51966909D01*
X65975009Y-51966909D02*
X64529842Y-50600537D01*
X63722250Y-46259750D02*
X64516000Y-45466000D01*
X64516000Y-45466000D02*
X64516000Y-45339000D01*
X64516000Y-45339000D02*
X66621000Y-43234000D01*
X66621000Y-43234000D02*
X66621000Y-41021000D01*
X66011062Y-51966909D02*
X66011062Y-51939462D01*
X66751200Y-49453800D02*
X66751200Y-49461420D01*
X66324480Y-50159007D02*
X67071722Y-50906249D01*
X66324480Y-49888140D02*
X66324480Y-50159007D01*
X66751200Y-49461420D02*
X66324480Y-49888140D01*
X70866000Y-36830000D02*
X69240400Y-36830000D01*
X69240400Y-36830000D02*
X67779900Y-35369500D01*
X72898000Y-38862000D02*
X70866000Y-36830000D01*
X72898000Y-41973500D02*
X72898000Y-38862000D01*
X72453500Y-42418000D02*
X72898000Y-41973500D01*
X72009000Y-42418000D02*
X72453500Y-42418000D01*
X70675500Y-43751500D02*
X72009000Y-42418000D01*
X67071722Y-50906249D02*
X67071722Y-50841122D01*
X69405500Y-49149000D02*
X69659500Y-48895000D01*
X67056000Y-49149000D02*
X69405500Y-49149000D01*
X66675000Y-49530000D02*
X66751200Y-49453800D01*
X66751200Y-49453800D02*
X67056000Y-49149000D01*
X61110000Y-39238000D02*
X61155500Y-39238000D01*
X61155500Y-39238000D02*
X63119000Y-37274500D01*
X63119000Y-37274500D02*
X63119000Y-36131500D01*
X63119000Y-36131500D02*
X63881000Y-35369500D01*
X63881000Y-35369500D02*
X67779900Y-35369500D01*
X73782000Y-48768000D02*
X73782000Y-48382000D01*
X67071722Y-50906249D02*
X67071722Y-50904622D01*
X65595500Y-49846102D02*
X65595500Y-50137133D01*
X66135250Y-48926750D02*
X66236002Y-48825998D01*
X66236002Y-48825998D02*
X66236002Y-46984498D01*
X66236002Y-46984498D02*
X66548000Y-46672500D01*
X69215000Y-46672500D02*
X66548000Y-46672500D01*
X65946148Y-48926750D02*
X65595500Y-49277398D01*
X65595500Y-49277398D02*
X65595500Y-49846102D01*
X66135250Y-48926750D02*
X65946148Y-48926750D01*
X65595500Y-50137133D02*
X66718169Y-51259802D01*
X69215000Y-46672500D02*
X71120000Y-46672500D01*
X71374000Y-48260000D02*
X71882000Y-48768000D01*
X71374000Y-46926500D02*
X71374000Y-48260000D01*
X71120000Y-46672500D02*
X71374000Y-46926500D01*
X69215000Y-46672500D02*
X69215000Y-44323000D01*
X68326000Y-40386000D02*
X64770000Y-36830000D01*
X68326000Y-42672000D02*
X68326000Y-40386000D01*
X68516500Y-42862500D02*
X68326000Y-42672000D01*
X69215000Y-44323000D02*
X69342000Y-44196000D01*
X61110000Y-41778000D02*
X62870000Y-41778000D01*
X62870000Y-41778000D02*
X64770000Y-39878000D01*
X64770000Y-39878000D02*
X64770000Y-36830000D01*
X66718169Y-51259802D02*
X66718169Y-51249569D01*
X64770000Y-36893500D02*
X64770000Y-36830000D01*
X65657509Y-52320462D02*
X65657509Y-52337749D01*
X65657509Y-52337749D02*
X67294760Y-53975000D01*
X67294760Y-53975000D02*
X68199000Y-53975000D01*
X58140600Y-92852240D02*
X60507880Y-92852240D01*
X60507880Y-92852240D02*
X61153040Y-93497400D01*
X61153040Y-93497400D02*
X61188600Y-93497400D01*
X61188600Y-93497400D02*
X63093600Y-91592400D01*
X63093600Y-91592400D02*
X63093600Y-88239600D01*
X63093600Y-88239600D02*
X60960000Y-86106000D01*
X65657509Y-52320462D02*
X65657509Y-52341009D01*
D28*
X71414640Y-96586040D02*
X71414640Y-96189800D01*
X71414640Y-96189800D02*
X73192640Y-94411800D01*
X73192640Y-94411800D02*
X75514200Y-94411800D01*
X75514200Y-94411800D02*
X76835000Y-93091000D01*
X73533000Y-92710000D02*
X70612000Y-92710000D01*
X70612000Y-92710000D02*
X70485000Y-92837000D01*
X70485000Y-92837000D02*
X70485000Y-93578680D01*
X70485000Y-93578680D02*
X69306440Y-94757240D01*
X69306440Y-94757240D02*
X69306440Y-96477840D01*
X69306440Y-96477840D02*
X71414640Y-98586040D01*
D27*
X70047662Y-58193940D02*
X70047662Y-57977582D01*
X70047662Y-57977582D02*
X68534280Y-56464200D01*
X68534280Y-56464200D02*
X68419980Y-56464200D01*
X64983349Y-53027569D02*
X67454780Y-55499000D01*
X68419980Y-56464200D02*
X67454780Y-55499000D01*
X64950402Y-53027569D02*
X64983349Y-53027569D01*
X69245480Y-52095400D02*
X69245480Y-55300880D01*
X69245480Y-55300880D02*
X69443600Y-55499000D01*
X69245480Y-50995233D02*
X70041571Y-50199142D01*
X69245480Y-52095400D02*
X69245480Y-50995233D01*
X70041571Y-50199142D02*
X70041571Y-50171549D01*
X70041571Y-50171549D02*
X70675500Y-49537620D01*
X70675500Y-49537620D02*
X70675500Y-47561500D01*
X67778829Y-60240058D02*
X67778829Y-60579829D01*
X67778829Y-60579829D02*
X69365500Y-62166500D01*
X73025000Y-55499000D02*
X73078687Y-55499000D01*
X73078687Y-55499000D02*
X73930658Y-56350971D01*
D28*
X72694800Y-33807400D02*
X75999400Y-33807400D01*
X75999400Y-33807400D02*
X76350000Y-34158000D01*
X68567300Y-70942200D02*
X68567300Y-69926200D01*
X68567300Y-69926200D02*
X71120000Y-67373500D01*
X58140600Y-85232240D02*
X58140600Y-84861400D01*
X58140600Y-84861400D02*
X59436000Y-83566000D01*
X61110000Y-77338000D02*
X60203000Y-77338000D01*
X69596000Y-84328000D02*
X70485000Y-85217000D01*
X60198000Y-84328000D02*
X69596000Y-84328000D01*
X59436000Y-83566000D02*
X60198000Y-84328000D01*
X59436000Y-78105000D02*
X59436000Y-83566000D01*
X60203000Y-77338000D02*
X59436000Y-78105000D01*
X64731900Y-76885800D02*
X61562200Y-76885800D01*
X61562200Y-76885800D02*
X61110000Y-77338000D01*
X64731900Y-76885800D02*
X65532000Y-76885800D01*
X66258440Y-73251060D02*
X68567300Y-70942200D01*
X66258440Y-76159360D02*
X66258440Y-73251060D01*
X65532000Y-76885800D02*
X66258440Y-76159360D01*
X71120000Y-64833500D02*
X71120000Y-67373500D01*
X69365500Y-62166500D02*
X69365500Y-63079000D01*
X69365500Y-63079000D02*
X71120000Y-64833500D01*
D27*
X71215250Y-57118250D02*
X71215250Y-56464200D01*
X71215250Y-56464200D02*
X71215250Y-55784750D01*
X71215250Y-55784750D02*
X70929500Y-55499000D01*
X69443600Y-55499000D02*
X69646800Y-55499000D01*
X69646800Y-55499000D02*
X70929500Y-55499000D01*
X67778829Y-60240058D02*
X67826742Y-60240058D01*
X67826742Y-60240058D02*
X70047662Y-58193940D01*
X70047662Y-58193940D02*
X71215250Y-57118250D01*
X73025000Y-55499000D02*
X70929500Y-55499000D01*
D28*
X76350000Y-34158000D02*
X76068000Y-34158000D01*
D27*
X73152000Y-45466000D02*
X73366000Y-45466000D01*
X73223551Y-57058078D02*
X73237878Y-57058078D01*
X73237878Y-57058078D02*
X73774300Y-57594500D01*
X71688960Y-32273240D02*
X70154800Y-33807400D01*
X78567280Y-33111440D02*
X77729080Y-32273240D01*
X78567280Y-41970960D02*
X78567280Y-33111440D01*
X78435200Y-42103040D02*
X78567280Y-41970960D01*
X77729080Y-32273240D02*
X71688960Y-32273240D01*
X73774300Y-57594500D02*
X74739500Y-57594500D01*
X73223551Y-57058078D02*
X73212478Y-57058078D01*
X73223551Y-57058078D02*
X73223551Y-57118553D01*
X73223551Y-57058078D02*
X73225178Y-57058078D01*
X73930658Y-54088229D02*
X74805887Y-53213000D01*
X77660500Y-52641500D02*
X77089000Y-53213000D01*
X74914760Y-53213000D02*
X74805887Y-53213000D01*
X77089000Y-53213000D02*
X74914760Y-53213000D01*
X77216000Y-35433000D02*
X71602600Y-35433000D01*
X77724000Y-52641500D02*
X77724000Y-35941000D01*
X77724000Y-35941000D02*
X77216000Y-35433000D01*
X77724000Y-52641500D02*
X77660500Y-52641500D01*
X71602600Y-35433000D02*
X69240400Y-35433000D01*
X69240400Y-35433000D02*
X67614800Y-33807400D01*
X71602600Y-35433000D02*
X71374000Y-35433000D01*
X68576338Y-50199142D02*
X67778829Y-50199142D01*
X68818760Y-49956720D02*
X68576338Y-50199142D01*
X68295867Y-50716180D02*
X67778829Y-50199142D01*
X61110000Y-34267000D02*
X61110000Y-34158000D01*
X67778829Y-50199142D02*
X67826742Y-50199142D01*
X72771000Y-49187100D02*
X72771000Y-49453378D01*
X72010627Y-49644300D02*
X70748678Y-50906249D01*
X72580078Y-49644300D02*
X72010627Y-49644300D01*
X72771000Y-49453378D02*
X72580078Y-49644300D01*
X70748678Y-50906249D02*
X70810551Y-50906249D01*
X74549000Y-44005500D02*
X76350000Y-42204500D01*
X74549000Y-46228000D02*
X74549000Y-44005500D01*
X72771000Y-48006000D02*
X74549000Y-46228000D01*
X72771000Y-49212500D02*
X72771000Y-49187100D01*
X72771000Y-49187100D02*
X72771000Y-48006000D01*
X76350000Y-42204500D02*
X76350000Y-41778000D01*
X63809880Y-52594153D02*
X64596849Y-53381122D01*
X63807340Y-50800000D02*
X63809880Y-52594153D01*
X63792100Y-50784760D02*
X63807340Y-50800000D01*
X64596849Y-53381122D02*
X64596849Y-53319249D01*
X64596849Y-53381122D02*
X64595222Y-53381122D01*
X60452000Y-44069000D02*
X60579000Y-44069000D01*
X72252913Y-50109120D02*
X71102231Y-51259802D01*
X73014840Y-50109120D02*
X72252913Y-50109120D01*
X73380600Y-49743360D02*
X73014840Y-50109120D01*
X71102231Y-51259802D02*
X71155498Y-51259802D01*
X64243295Y-53734676D02*
X64189316Y-53734676D01*
X64189316Y-53734676D02*
X63129160Y-52674520D01*
X62306200Y-48054200D02*
X61110000Y-46858000D01*
X62306200Y-49585880D02*
X62306200Y-48054200D01*
X63129160Y-50408840D02*
X62306200Y-49585880D01*
X63129160Y-52674520D02*
X63129160Y-50408840D01*
X64243295Y-53734676D02*
X64243295Y-53727695D01*
X64243295Y-53734676D02*
X64243295Y-53665593D01*
X71809338Y-51966909D02*
X71809338Y-51962322D01*
X71809338Y-51962322D02*
X73304400Y-50467260D01*
X73304400Y-50467260D02*
X74508360Y-50467260D01*
X74508360Y-50467260D02*
X74820780Y-50154840D01*
X74820780Y-50154840D02*
X74820780Y-48387220D01*
X74820780Y-48387220D02*
X76350000Y-46858000D01*
X63889742Y-54088229D02*
X63889742Y-54075182D01*
X63889742Y-54075182D02*
X62491620Y-52677060D01*
X62491620Y-50779620D02*
X61110000Y-49398000D01*
X62491620Y-52677060D02*
X62491620Y-50779620D01*
X63889742Y-54088229D02*
X63889742Y-54072642D01*
X72516445Y-52674016D02*
X72545444Y-52674016D01*
X72545444Y-52674016D02*
X73616820Y-51602640D01*
X73616820Y-51602640D02*
X76014640Y-51602640D01*
X76014640Y-51602640D02*
X76350000Y-51938000D01*
X61110000Y-51938000D02*
X61110000Y-51978700D01*
X61110000Y-51978700D02*
X62717680Y-53586380D01*
X62717680Y-53586380D02*
X62717680Y-55178909D01*
X62717680Y-55178909D02*
X63889742Y-56350971D01*
X64243295Y-56704524D02*
X64243295Y-56712647D01*
X64243295Y-56712647D02*
X63249682Y-57706260D01*
X62392560Y-55760560D02*
X61110000Y-54478000D01*
X62392560Y-57454800D02*
X62392560Y-55760560D01*
X62644020Y-57706260D02*
X62392560Y-57454800D01*
X63249682Y-57706260D02*
X62644020Y-57706260D01*
X64243295Y-56704524D02*
X64243295Y-56711505D01*
X72869998Y-53027569D02*
X72869998Y-52997162D01*
X72869998Y-52997162D02*
X73601580Y-52265580D01*
X73601580Y-52265580D02*
X74736960Y-52265580D01*
X72869998Y-53027569D02*
X72869998Y-53020022D01*
X72869998Y-53027569D02*
X72880231Y-53027569D01*
X64596849Y-57058078D02*
X64534262Y-57058078D01*
X64534262Y-57058078D02*
X63200280Y-58392060D01*
X62484060Y-58392060D02*
X61110000Y-57018000D01*
X63200280Y-58392060D02*
X62484060Y-58392060D01*
X64596849Y-57058078D02*
X64592682Y-57058078D01*
X64596849Y-57058078D02*
X64595222Y-57058078D01*
X72415400Y-54189273D02*
X73223551Y-53381122D01*
X72415400Y-54483000D02*
X72415400Y-54189273D01*
X72288400Y-54610000D02*
X72415400Y-54483000D01*
X73223551Y-53381122D02*
X73225178Y-53381122D01*
X64950402Y-57411631D02*
X64896989Y-57411631D01*
X64896989Y-57411631D02*
X62750620Y-59558000D01*
X62750620Y-59558000D02*
X61110000Y-59558000D01*
X73577105Y-53734676D02*
X73577105Y-53737855D01*
X73577105Y-53737855D02*
X72976740Y-54338220D01*
X77343000Y-55816500D02*
X77724000Y-56197500D01*
X77724000Y-56197500D02*
X77724000Y-58184000D01*
X77724000Y-58184000D02*
X76350000Y-59558000D01*
X75120500Y-55816500D02*
X77343000Y-55816500D01*
X74571860Y-55267860D02*
X75120500Y-55816500D01*
X73483945Y-55267860D02*
X74571860Y-55267860D01*
X72976740Y-54760655D02*
X73483945Y-55267860D01*
X72976740Y-54338220D02*
X72976740Y-54760655D01*
X73577105Y-53734676D02*
X73570124Y-53734676D01*
X61110000Y-62098000D02*
X61528880Y-62098000D01*
X61528880Y-62098000D02*
X63677800Y-59949080D01*
X63677800Y-59949080D02*
X63677800Y-59391339D01*
X63677800Y-59391339D02*
X65303955Y-57765184D01*
X65303955Y-57765184D02*
X65303955Y-57809845D01*
X75057000Y-59817000D02*
X75057000Y-59080400D01*
X73929167Y-58470800D02*
X72869998Y-57411631D01*
X74447400Y-58470800D02*
X73929167Y-58470800D01*
X75057000Y-59080400D02*
X74447400Y-58470800D01*
X76350000Y-62098000D02*
X76350000Y-62761000D01*
X76350000Y-62761000D02*
X78486000Y-64897000D01*
X75311000Y-86995000D02*
X73660000Y-85090000D01*
X77597000Y-86995000D02*
X75311000Y-86995000D01*
X78486000Y-86106000D02*
X77597000Y-86995000D01*
X78486000Y-64897000D02*
X78486000Y-86106000D01*
X73660000Y-85090000D02*
X73533000Y-85090000D01*
X75057000Y-59753500D02*
X75057000Y-59817000D01*
X75057000Y-59817000D02*
X75057000Y-60805000D01*
X75057000Y-60805000D02*
X76350000Y-62098000D01*
X61110000Y-64638000D02*
X61305360Y-64638000D01*
X61305360Y-64638000D02*
X62407800Y-63535560D01*
X62407800Y-63535560D02*
X62407800Y-61950600D01*
X62407800Y-61950600D02*
X64236600Y-60121800D01*
X64236600Y-60121800D02*
X64236600Y-59539647D01*
X64236600Y-59539647D02*
X65657509Y-58118738D01*
X65657509Y-58118738D02*
X65657509Y-58154791D01*
X73228200Y-58470800D02*
X72557939Y-57800539D01*
X73469500Y-58686700D02*
X73228200Y-58470800D01*
X74295000Y-59359800D02*
X73469500Y-58686700D01*
X72557939Y-57800539D02*
X72481090Y-57800539D01*
X72481090Y-57800539D02*
X72516445Y-57765184D01*
X76350000Y-64638000D02*
X76957000Y-64638000D01*
X76957000Y-64638000D02*
X77851000Y-65786000D01*
X77851000Y-84201000D02*
X76835000Y-85471000D01*
X77851000Y-65786000D02*
X77851000Y-84201000D01*
X72516445Y-57765184D02*
X72516445Y-57809845D01*
X72516445Y-57765184D02*
X72529782Y-57765184D01*
X63055500Y-62293500D02*
X63320802Y-62293500D01*
X63320802Y-62293500D02*
X64688720Y-60925582D01*
X64688720Y-60925582D02*
X64688720Y-59794633D01*
X64688720Y-59794633D02*
X66011062Y-58472291D01*
X66011062Y-58472291D02*
X65976407Y-58472291D01*
X74549000Y-60858400D02*
X74549000Y-60504847D01*
X74549000Y-60504847D02*
X72162891Y-58118738D01*
X74549000Y-60858400D02*
X74549000Y-65377000D01*
X72162891Y-58118738D02*
X72162891Y-58154791D01*
X74549000Y-65377000D02*
X76350000Y-67178000D01*
X62928500Y-63500000D02*
X62928500Y-67899500D01*
X62928500Y-67899500D02*
X61110000Y-69718000D01*
X64103250Y-62325250D02*
X62928500Y-63500000D01*
X65163700Y-61087000D02*
X65163700Y-60733867D01*
X65163700Y-60733867D02*
X66718169Y-59179398D01*
X64103250Y-62147450D02*
X65163700Y-61087000D01*
X64103250Y-62325250D02*
X64103250Y-62147450D01*
X66718169Y-59179398D02*
X66664902Y-59179398D01*
X73253600Y-59916553D02*
X71809338Y-58472291D01*
X73253600Y-60147200D02*
X73253600Y-59916553D01*
X73482200Y-60375800D02*
X73253600Y-60147200D01*
X71809338Y-58472291D02*
X71809338Y-58499738D01*
X65697100Y-60907573D02*
X67071722Y-59532951D01*
X65697100Y-61861700D02*
X65697100Y-60907573D01*
X63614300Y-63944500D02*
X65697100Y-61861700D01*
X67071722Y-59532951D02*
X67071722Y-59598078D01*
X74041000Y-61976000D02*
X74041000Y-61874400D01*
X72694800Y-60064861D02*
X71455784Y-58825845D01*
X72694800Y-60528200D02*
X72694800Y-60064861D01*
X74041000Y-61874400D02*
X72694800Y-60528200D01*
X74041000Y-61976000D02*
X74041000Y-65976500D01*
X71455784Y-58825845D02*
X71455784Y-58844684D01*
X74041000Y-65976500D02*
X74549000Y-66611500D01*
X74549000Y-66611500D02*
X74549000Y-70802500D01*
X74549000Y-70802500D02*
X76004500Y-72258000D01*
X76004500Y-72258000D02*
X76350000Y-72258000D01*
X72186800Y-60334675D02*
X71066877Y-59214752D01*
X72186800Y-60426600D02*
X72186800Y-60334675D01*
X72212200Y-60452000D02*
X72186800Y-60426600D01*
X72212200Y-60934600D02*
X72212200Y-60452000D01*
X73075800Y-61798200D02*
X72212200Y-60934600D01*
X71066877Y-59214752D02*
X71102231Y-59179398D01*
X71102231Y-59179398D02*
X71154100Y-59179398D01*
X73469500Y-63195200D02*
X73469500Y-63080900D01*
X71620802Y-60405075D02*
X70748678Y-59532951D01*
X71620802Y-61232202D02*
X71620802Y-60405075D01*
X73469500Y-63080900D02*
X71620802Y-61232202D01*
X74465180Y-73626980D02*
X74465180Y-71432420D01*
X74465180Y-71432420D02*
X73991500Y-70958740D01*
X75041760Y-76029760D02*
X76350000Y-77338000D01*
X73991500Y-70958740D02*
X73991500Y-70372000D01*
X74465180Y-73626980D02*
X75041760Y-74203560D01*
X75041760Y-74203560D02*
X75041760Y-76029760D01*
X73991500Y-70372000D02*
X73469500Y-69850000D01*
X70748678Y-59532951D02*
X70748678Y-59534578D01*
X73469500Y-63195200D02*
X73469500Y-69850000D01*
X71170800Y-60662181D02*
X70395124Y-59886505D01*
X72644000Y-63271400D02*
X72174100Y-62928500D01*
X71170800Y-61925200D02*
X71170800Y-60662181D01*
X72174100Y-62928500D02*
X71170800Y-61925200D01*
X72898000Y-64541400D02*
X72898000Y-64414400D01*
X72898000Y-64414400D02*
X72618600Y-64135000D01*
X76350000Y-82418000D02*
X74231500Y-80299500D01*
X72898000Y-64541400D02*
X72898000Y-70421500D01*
X72898000Y-70421500D02*
X73541498Y-71064998D01*
X74231500Y-80299500D02*
X74231500Y-74363580D01*
X74231500Y-74363580D02*
X73947020Y-74079100D01*
X73947020Y-74079100D02*
X73947020Y-71917138D01*
X73947020Y-71917138D02*
X73541498Y-71511616D01*
X73541498Y-71511616D02*
X73541498Y-71064998D01*
X70662800Y-60861287D02*
X70041571Y-60240058D01*
X70662800Y-62179200D02*
X70662800Y-60861287D01*
X72618600Y-64135000D02*
X70662800Y-62179200D01*
X71455784Y-51613355D02*
X71455784Y-51630076D01*
X71455784Y-51630076D02*
X70843140Y-52242720D01*
X70843140Y-54180740D02*
X70238620Y-54785260D01*
X70843140Y-52242720D02*
X70843140Y-54180740D01*
X71455784Y-51613355D02*
X71455784Y-51619916D01*
X67482720Y-57707741D02*
X66364616Y-58825845D01*
X67482720Y-57503060D02*
X67482720Y-57707741D01*
X67106800Y-57127140D02*
X67482720Y-57503060D01*
X66364616Y-58825845D02*
X66383455Y-58825845D01*
X72162891Y-52320462D02*
X72162891Y-52309809D01*
X72162891Y-52309809D02*
X73320062Y-51152638D01*
X74684042Y-51152638D02*
X76350000Y-49486680D01*
X73320062Y-51152638D02*
X74684042Y-51152638D01*
X76350000Y-49486680D02*
X76350000Y-49398000D01*
X72162891Y-52320462D02*
X72190338Y-52320462D01*
D28*
X58064400Y-102682040D02*
X60010040Y-102682040D01*
X60010040Y-102682040D02*
X62219840Y-100472240D01*
D27*
G36*
X81236280Y-104705880D02*
X55613840Y-104705880D01*
X55613840Y-102659020D01*
X56889400Y-102659020D01*
X56889400Y-102705060D01*
X56978842Y-103154713D01*
X57233550Y-103535910D01*
X57614747Y-103790618D01*
X58064400Y-103880060D01*
X58514053Y-103790618D01*
X58895250Y-103535910D01*
X59048176Y-103307040D01*
X60010040Y-103307040D01*
X60249217Y-103259465D01*
X60451982Y-103123982D01*
X60584340Y-102991624D01*
X65933650Y-102991624D01*
X66110498Y-103224657D01*
X66896078Y-103296803D01*
X67258782Y-103224657D01*
X67435630Y-102991624D01*
X77933650Y-102991624D01*
X78110498Y-103224657D01*
X78896078Y-103296803D01*
X79258782Y-103224657D01*
X79435630Y-102991624D01*
X78684640Y-102240634D01*
X77933650Y-102991624D01*
X67435630Y-102991624D01*
X66684640Y-102240634D01*
X65933650Y-102991624D01*
X60584340Y-102991624D01*
X61821378Y-101754586D01*
X63119840Y-101754586D01*
X63258806Y-101728438D01*
X63386439Y-101646309D01*
X63472063Y-101520994D01*
X63476825Y-101497478D01*
X64673877Y-101497478D01*
X64746023Y-101860182D01*
X64979056Y-102037030D01*
X65730046Y-101286040D01*
X67639234Y-101286040D01*
X68390224Y-102037030D01*
X68623257Y-101860182D01*
X68656566Y-101497478D01*
X76673877Y-101497478D01*
X76746023Y-101860182D01*
X76979056Y-102037030D01*
X77730046Y-101286040D01*
X79639234Y-101286040D01*
X80390224Y-102037030D01*
X80623257Y-101860182D01*
X80695403Y-101074602D01*
X80623257Y-100711898D01*
X80390224Y-100535050D01*
X79639234Y-101286040D01*
X77730046Y-101286040D01*
X76979056Y-100535050D01*
X76746023Y-100711898D01*
X76673877Y-101497478D01*
X68656566Y-101497478D01*
X68695403Y-101074602D01*
X68623257Y-100711898D01*
X68390224Y-100535050D01*
X67639234Y-101286040D01*
X65730046Y-101286040D01*
X64979056Y-100535050D01*
X64746023Y-100711898D01*
X64673877Y-101497478D01*
X63476825Y-101497478D01*
X63502186Y-101372240D01*
X63502186Y-99580456D01*
X65933650Y-99580456D01*
X66684640Y-100331446D01*
X67435630Y-99580456D01*
X67258782Y-99347423D01*
X66473202Y-99275277D01*
X66110498Y-99347423D01*
X65933650Y-99580456D01*
X63502186Y-99580456D01*
X63502186Y-99572240D01*
X63476038Y-99433274D01*
X63393909Y-99305641D01*
X63268594Y-99220017D01*
X63119840Y-99189894D01*
X62514856Y-99189894D01*
X62941126Y-99013763D01*
X63300102Y-98655413D01*
X63494618Y-98186966D01*
X63495061Y-97679739D01*
X63301363Y-97210954D01*
X62943013Y-96851978D01*
X62474566Y-96657462D01*
X61967339Y-96657019D01*
X61498554Y-96850717D01*
X61139578Y-97209067D01*
X60945062Y-97677514D01*
X60944619Y-98184741D01*
X61138317Y-98653526D01*
X61496667Y-99012502D01*
X61923875Y-99189894D01*
X61319840Y-99189894D01*
X61180874Y-99216042D01*
X61053241Y-99298171D01*
X60967617Y-99423486D01*
X60937494Y-99572240D01*
X60937494Y-100870702D01*
X59751156Y-102057040D01*
X59048176Y-102057040D01*
X58895250Y-101828170D01*
X58514053Y-101573462D01*
X58064400Y-101484020D01*
X57614747Y-101573462D01*
X57233550Y-101828170D01*
X56978842Y-102209367D01*
X56889400Y-102659020D01*
X55613840Y-102659020D01*
X55613840Y-95294737D01*
X56889196Y-95294737D01*
X57067702Y-95726755D01*
X57397947Y-96057576D01*
X57829653Y-96236836D01*
X58297097Y-96237244D01*
X58729115Y-96058738D01*
X59059936Y-95728493D01*
X59239196Y-95296787D01*
X59239604Y-94829343D01*
X59061098Y-94397325D01*
X58730853Y-94066504D01*
X58513230Y-93976139D01*
X58590253Y-93960818D01*
X58971450Y-93706110D01*
X59207899Y-93352240D01*
X59978166Y-93352240D01*
X59977836Y-93730097D01*
X60156342Y-94162115D01*
X60486587Y-94492936D01*
X60918293Y-94672196D01*
X61385737Y-94672604D01*
X61423540Y-94656984D01*
X63059142Y-94656984D01*
X63150660Y-94869387D01*
X63713937Y-94957204D01*
X64155420Y-94869387D01*
X64203740Y-94757240D01*
X68681440Y-94757240D01*
X68681440Y-96477840D01*
X68729015Y-96717017D01*
X68864498Y-96919782D01*
X70286927Y-98342211D01*
X70279837Y-98359284D01*
X70279443Y-98810815D01*
X70451873Y-99228126D01*
X70770875Y-99547685D01*
X71187884Y-99720843D01*
X71639415Y-99721237D01*
X71676959Y-99705724D01*
X73372357Y-99705724D01*
X73457676Y-99916547D01*
X74004668Y-100005448D01*
X74451604Y-99916547D01*
X74536923Y-99705724D01*
X74411655Y-99580456D01*
X77933650Y-99580456D01*
X78684640Y-100331446D01*
X79435630Y-99580456D01*
X79258782Y-99347423D01*
X78473202Y-99275277D01*
X78110498Y-99347423D01*
X77933650Y-99580456D01*
X74411655Y-99580456D01*
X73954640Y-99123441D01*
X73372357Y-99705724D01*
X71676959Y-99705724D01*
X72056726Y-99548807D01*
X72376285Y-99229805D01*
X72549443Y-98812796D01*
X72549534Y-98707971D01*
X72624133Y-99083004D01*
X72834956Y-99168323D01*
X73417239Y-98586040D01*
X74492041Y-98586040D01*
X75074324Y-99168323D01*
X75285147Y-99083004D01*
X75374048Y-98536012D01*
X75285147Y-98089076D01*
X75074324Y-98003757D01*
X74492041Y-98586040D01*
X73417239Y-98586040D01*
X72834956Y-98003757D01*
X72624133Y-98089076D01*
X72549675Y-98547204D01*
X72549837Y-98361265D01*
X72377407Y-97943954D01*
X72058405Y-97624395D01*
X71966325Y-97586160D01*
X72056726Y-97548807D01*
X72376285Y-97229805D01*
X72549443Y-96812796D01*
X72549444Y-96810815D01*
X72819443Y-96810815D01*
X72991873Y-97228126D01*
X73310875Y-97547685D01*
X73555096Y-97649095D01*
X73954640Y-98048639D01*
X74354306Y-97648973D01*
X74596726Y-97548807D01*
X74916285Y-97229805D01*
X75089443Y-96812796D01*
X75089837Y-96361265D01*
X74917407Y-95943954D01*
X74598405Y-95624395D01*
X74181396Y-95451237D01*
X73729865Y-95450843D01*
X73312554Y-95623273D01*
X72992995Y-95942275D01*
X72819837Y-96359284D01*
X72819443Y-96810815D01*
X72549444Y-96810815D01*
X72549837Y-96361265D01*
X72426224Y-96062100D01*
X73451524Y-95036800D01*
X75514200Y-95036800D01*
X75753377Y-94989225D01*
X75956142Y-94853742D01*
X76572983Y-94236901D01*
X76835000Y-94289020D01*
X77284653Y-94199578D01*
X77665850Y-93944870D01*
X77920558Y-93563673D01*
X78010000Y-93114020D01*
X78010000Y-93067980D01*
X77920558Y-92618327D01*
X77665850Y-92237130D01*
X77284653Y-91982422D01*
X76835000Y-91892980D01*
X76385347Y-91982422D01*
X76004150Y-92237130D01*
X75749442Y-92618327D01*
X75660000Y-93067980D01*
X75660000Y-93114020D01*
X75704480Y-93337636D01*
X75255316Y-93786800D01*
X74030212Y-93786800D01*
X74363850Y-93563870D01*
X74618558Y-93182673D01*
X74708000Y-92733020D01*
X74708000Y-92686980D01*
X74618558Y-92237327D01*
X74363850Y-91856130D01*
X73982653Y-91601422D01*
X73533000Y-91511980D01*
X73083347Y-91601422D01*
X72702150Y-91856130D01*
X72549224Y-92085000D01*
X71383917Y-92085000D01*
X71315850Y-91983130D01*
X70934653Y-91728422D01*
X70485000Y-91638980D01*
X70035347Y-91728422D01*
X69654150Y-91983130D01*
X69399442Y-92364327D01*
X69310000Y-92813980D01*
X69310000Y-92860020D01*
X69399442Y-93309673D01*
X69587971Y-93591826D01*
X68864498Y-94315298D01*
X68729015Y-94518063D01*
X68681440Y-94757240D01*
X64203740Y-94757240D01*
X64246938Y-94656984D01*
X63653040Y-94063085D01*
X63059142Y-94656984D01*
X61423540Y-94656984D01*
X61817755Y-94494098D01*
X62148576Y-94163853D01*
X62260212Y-93895004D01*
X62281053Y-93999780D01*
X62493456Y-94091298D01*
X63087355Y-93497400D01*
X64218725Y-93497400D01*
X64812624Y-94091298D01*
X65025027Y-93999780D01*
X65112844Y-93436503D01*
X65025027Y-92995020D01*
X64812624Y-92903502D01*
X64218725Y-93497400D01*
X63087355Y-93497400D01*
X62804512Y-93214557D01*
X63370197Y-92648872D01*
X63653040Y-92931715D01*
X64246938Y-92337816D01*
X64155420Y-92125413D01*
X63928962Y-92090107D01*
X64054460Y-91964609D01*
X66808498Y-91964609D01*
X66931021Y-92184727D01*
X67575440Y-92266985D01*
X67988979Y-92184727D01*
X68111502Y-91964609D01*
X67460000Y-91313107D01*
X66808498Y-91964609D01*
X64054460Y-91964609D01*
X64059628Y-91959441D01*
X63593910Y-91493723D01*
X63593600Y-91494033D01*
X63593600Y-90721440D01*
X65799015Y-90721440D01*
X65881273Y-91134979D01*
X66101391Y-91257502D01*
X66752893Y-90606000D01*
X68167107Y-90606000D01*
X68818609Y-91257502D01*
X69038727Y-91134979D01*
X69120985Y-90490560D01*
X69038727Y-90077021D01*
X68818609Y-89954498D01*
X68167107Y-90606000D01*
X66752893Y-90606000D01*
X66101391Y-89954498D01*
X65881273Y-90077021D01*
X65799015Y-90721440D01*
X63593600Y-90721440D01*
X63593600Y-89247391D01*
X66808498Y-89247391D01*
X67460000Y-89898893D01*
X68111502Y-89247391D01*
X67988979Y-89027273D01*
X67344560Y-88945015D01*
X66931021Y-89027273D01*
X66808498Y-89247391D01*
X63593600Y-89247391D01*
X63593600Y-88239600D01*
X63555540Y-88048258D01*
X63447153Y-87886047D01*
X62219468Y-86658362D01*
X62334761Y-86380704D01*
X62335238Y-85833695D01*
X62126348Y-85328143D01*
X61751860Y-84953000D01*
X66668772Y-84953000D01*
X66295011Y-85326108D01*
X66085239Y-85831296D01*
X66084762Y-86378305D01*
X66293652Y-86883857D01*
X66680108Y-87270989D01*
X67185296Y-87480761D01*
X67732305Y-87481238D01*
X68237857Y-87272348D01*
X68624989Y-86885892D01*
X68834761Y-86380704D01*
X68835238Y-85833695D01*
X68626348Y-85328143D01*
X68251860Y-84953000D01*
X69322351Y-84953000D01*
X69310204Y-84982253D01*
X69309796Y-85449697D01*
X69488302Y-85881715D01*
X69818547Y-86212536D01*
X70250253Y-86391796D01*
X70717697Y-86392204D01*
X71149715Y-86213698D01*
X71480536Y-85883453D01*
X71659796Y-85451747D01*
X71660204Y-84984303D01*
X71481698Y-84552285D01*
X71151453Y-84221464D01*
X70719747Y-84042204D01*
X70252303Y-84041796D01*
X70210820Y-84058936D01*
X70037942Y-83886058D01*
X69835177Y-83750575D01*
X69596000Y-83703000D01*
X69090104Y-83703000D01*
X69614358Y-83598719D01*
X70092883Y-83278980D01*
X70412622Y-82800455D01*
X70524900Y-82235997D01*
X70524900Y-82178203D01*
X70497112Y-82038503D01*
X70724500Y-82038503D01*
X70724500Y-82096297D01*
X70836778Y-82660755D01*
X71156517Y-83139280D01*
X71635042Y-83459019D01*
X72199500Y-83571297D01*
X72763958Y-83459019D01*
X73242483Y-83139280D01*
X73562222Y-82660755D01*
X73674500Y-82096297D01*
X73674500Y-82038503D01*
X73562222Y-81474045D01*
X73242483Y-80995520D01*
X72763958Y-80675781D01*
X72199500Y-80563503D01*
X71635042Y-80675781D01*
X71156517Y-80995520D01*
X70836778Y-81474045D01*
X70724500Y-82038503D01*
X70497112Y-82038503D01*
X70412622Y-81613745D01*
X70092883Y-81135220D01*
X69614358Y-80815481D01*
X69049900Y-80703203D01*
X68485442Y-80815481D01*
X68006917Y-81135220D01*
X67687178Y-81613745D01*
X67574900Y-82178203D01*
X67574900Y-82235997D01*
X67687178Y-82800455D01*
X68006917Y-83278980D01*
X68485442Y-83598719D01*
X69009696Y-83703000D01*
X65270314Y-83703000D01*
X64709040Y-83141725D01*
X64147766Y-83703000D01*
X62485002Y-83703000D01*
X62485002Y-83268000D01*
X62307880Y-83268000D01*
X62446820Y-83060029D01*
X62364726Y-82843000D01*
X61535000Y-82843000D01*
X61535000Y-83268000D01*
X60685000Y-83268000D01*
X60685000Y-82843000D01*
X60260000Y-82843000D01*
X60260000Y-82636937D01*
X63249236Y-82636937D01*
X63337053Y-83078420D01*
X63549456Y-83169938D01*
X64143355Y-82576040D01*
X65274725Y-82576040D01*
X65868624Y-83169938D01*
X66081027Y-83078420D01*
X66168844Y-82515143D01*
X66081027Y-82073660D01*
X65868624Y-81982142D01*
X65274725Y-82576040D01*
X64143355Y-82576040D01*
X63549456Y-81982142D01*
X63337053Y-82073660D01*
X63249236Y-82636937D01*
X60260000Y-82636937D01*
X60260000Y-81993000D01*
X60685000Y-81993000D01*
X60685000Y-81155419D01*
X60663321Y-81148000D01*
X60685000Y-81140581D01*
X60685000Y-80303000D01*
X61535000Y-80303000D01*
X61535000Y-81140581D01*
X61556679Y-81148000D01*
X61535000Y-81155419D01*
X61535000Y-81993000D01*
X62364726Y-81993000D01*
X62446820Y-81775971D01*
X62214754Y-81428604D01*
X61841065Y-81148000D01*
X62214754Y-80867396D01*
X62446820Y-80520029D01*
X62364726Y-80303000D01*
X61535000Y-80303000D01*
X60685000Y-80303000D01*
X60260000Y-80303000D01*
X60260000Y-79453000D01*
X60685000Y-79453000D01*
X60685000Y-79028000D01*
X61535000Y-79028000D01*
X61535000Y-79453000D01*
X62364726Y-79453000D01*
X62446820Y-79235971D01*
X62307880Y-79028000D01*
X62485002Y-79028000D01*
X62485002Y-78395000D01*
X61714661Y-78395000D01*
X62000205Y-78204206D01*
X62265751Y-77806787D01*
X62324627Y-77510800D01*
X63549554Y-77510800D01*
X63549554Y-77685800D01*
X63575702Y-77824766D01*
X63657831Y-77952399D01*
X63783146Y-78038023D01*
X63931900Y-78068146D01*
X65531900Y-78068146D01*
X65670866Y-78041998D01*
X65798499Y-77959869D01*
X65884123Y-77834554D01*
X65914246Y-77685800D01*
X65914246Y-77367630D01*
X65973942Y-77327742D01*
X66700382Y-76601302D01*
X66835865Y-76398538D01*
X66883440Y-76159360D01*
X66883440Y-73509944D01*
X68236930Y-72156454D01*
X68542321Y-72217200D01*
X68592279Y-72217200D01*
X69080200Y-72120146D01*
X69493840Y-71843761D01*
X69770225Y-71430121D01*
X69837300Y-71092914D01*
X69904375Y-71430121D01*
X70180760Y-71843761D01*
X70482300Y-72045243D01*
X70482300Y-73311151D01*
X70423969Y-73220501D01*
X70298654Y-73134877D01*
X70149900Y-73104754D01*
X67949900Y-73104754D01*
X67810934Y-73130902D01*
X67683301Y-73213031D01*
X67597677Y-73338346D01*
X67567554Y-73487100D01*
X67567554Y-75687100D01*
X67593702Y-75826066D01*
X67675831Y-75953699D01*
X67801146Y-76039323D01*
X67949900Y-76069446D01*
X68424900Y-76069446D01*
X68424900Y-78051856D01*
X67025716Y-79451040D01*
X65891386Y-79451040D01*
X65891386Y-79276040D01*
X65865238Y-79137074D01*
X65783109Y-79009441D01*
X65657794Y-78923817D01*
X65509040Y-78893694D01*
X63909040Y-78893694D01*
X63770074Y-78919842D01*
X63642441Y-79001971D01*
X63556817Y-79127286D01*
X63526694Y-79276040D01*
X63526694Y-80876040D01*
X63552842Y-81015006D01*
X63634971Y-81142639D01*
X63760286Y-81228263D01*
X63909040Y-81258386D01*
X64183250Y-81258386D01*
X64115142Y-81416456D01*
X64709040Y-82010355D01*
X65302938Y-81416456D01*
X65234830Y-81258386D01*
X65509040Y-81258386D01*
X65648006Y-81232238D01*
X65775639Y-81150109D01*
X65861263Y-81024794D01*
X65891386Y-80876040D01*
X65891386Y-80701040D01*
X67284600Y-80701040D01*
X67523777Y-80653465D01*
X67726542Y-80517982D01*
X69491842Y-78752682D01*
X69627325Y-78549918D01*
X69674900Y-78310740D01*
X69674900Y-76069446D01*
X70149900Y-76069446D01*
X70288866Y-76043298D01*
X70416499Y-75961169D01*
X70502123Y-75835854D01*
X70532246Y-75687100D01*
X70532246Y-75212100D01*
X70717154Y-75212100D01*
X70717154Y-75547400D01*
X70743302Y-75686366D01*
X70825431Y-75813999D01*
X70950746Y-75899623D01*
X71099500Y-75929746D01*
X73299500Y-75929746D01*
X73438466Y-75903598D01*
X73566099Y-75821469D01*
X73651723Y-75696154D01*
X73681846Y-75547400D01*
X73681846Y-74521032D01*
X73731500Y-74570686D01*
X73731500Y-80299500D01*
X73769560Y-80490842D01*
X73877947Y-80653053D01*
X75190907Y-81966014D01*
X75101001Y-82418000D01*
X75194249Y-82886787D01*
X75459795Y-83284206D01*
X75857214Y-83549752D01*
X76326001Y-83643000D01*
X76373999Y-83643000D01*
X76842786Y-83549752D01*
X77240205Y-83284206D01*
X77351000Y-83118389D01*
X77351000Y-84025610D01*
X77118372Y-84316395D01*
X77069747Y-84296204D01*
X76602303Y-84295796D01*
X76170285Y-84474302D01*
X75839464Y-84804547D01*
X75660204Y-85236253D01*
X75659796Y-85703697D01*
X75838302Y-86135715D01*
X76168547Y-86466536D01*
X76237096Y-86495000D01*
X75539315Y-86495000D01*
X74648615Y-85467270D01*
X74707796Y-85324747D01*
X74708204Y-84857303D01*
X74529698Y-84425285D01*
X74199453Y-84094464D01*
X73767747Y-83915204D01*
X73300303Y-83914796D01*
X72868285Y-84093302D01*
X72537464Y-84423547D01*
X72358204Y-84855253D01*
X72357796Y-85322697D01*
X72536302Y-85754715D01*
X72866547Y-86085536D01*
X73298253Y-86264796D01*
X73765697Y-86265204D01*
X73950636Y-86188789D01*
X74933155Y-87322465D01*
X74947417Y-87333542D01*
X74957447Y-87348553D01*
X75024004Y-87393025D01*
X75087233Y-87442134D01*
X75104646Y-87446909D01*
X75119658Y-87456940D01*
X75198176Y-87472558D01*
X75275377Y-87493729D01*
X75293291Y-87491477D01*
X75311000Y-87495000D01*
X77597000Y-87495000D01*
X77788342Y-87456940D01*
X77950553Y-87348553D01*
X78839553Y-86459553D01*
X78947940Y-86297342D01*
X78986000Y-86106000D01*
X78986000Y-64897000D01*
X78947940Y-64705658D01*
X78902732Y-64638000D01*
X78839553Y-64543446D01*
X77248259Y-62952153D01*
X77505751Y-62566787D01*
X77598999Y-62098000D01*
X77505751Y-61629213D01*
X77240205Y-61231794D01*
X76842786Y-60966248D01*
X76373999Y-60873000D01*
X76326001Y-60873000D01*
X75914049Y-60954943D01*
X75557000Y-60597894D01*
X75557000Y-60489156D01*
X75857214Y-60689752D01*
X76326001Y-60783000D01*
X76373999Y-60783000D01*
X76842786Y-60689752D01*
X77240205Y-60424206D01*
X77505751Y-60026787D01*
X77598999Y-59558000D01*
X77509093Y-59106014D01*
X78077553Y-58537554D01*
X78185940Y-58375342D01*
X78191750Y-58346133D01*
X78224000Y-58184000D01*
X78224000Y-56197500D01*
X78185940Y-56006158D01*
X78105818Y-55886248D01*
X78077553Y-55843946D01*
X77696553Y-55462947D01*
X77534342Y-55354560D01*
X77343000Y-55316500D01*
X77258717Y-55316500D01*
X77505751Y-54946787D01*
X77598999Y-54478000D01*
X77505751Y-54009213D01*
X77281763Y-53673990D01*
X77442553Y-53566553D01*
X77903263Y-53105843D01*
X77915342Y-53103440D01*
X78077553Y-52995053D01*
X78185940Y-52832842D01*
X78224000Y-52641500D01*
X78224000Y-42746221D01*
X78300345Y-42777923D01*
X78568877Y-42778157D01*
X78817057Y-42675611D01*
X79007103Y-42485896D01*
X79110083Y-42237895D01*
X79110317Y-41969363D01*
X79067280Y-41865206D01*
X79067280Y-33111440D01*
X79029220Y-32920098D01*
X78961290Y-32818434D01*
X78920834Y-32757887D01*
X78082633Y-31919687D01*
X77920422Y-31811300D01*
X77729080Y-31773240D01*
X71688960Y-31773240D01*
X71497618Y-31811300D01*
X71335407Y-31919687D01*
X70606787Y-32648307D01*
X70154800Y-32558401D01*
X69686013Y-32651649D01*
X69288594Y-32917195D01*
X69023048Y-33314614D01*
X68929800Y-33783401D01*
X68929800Y-33831399D01*
X69023048Y-34300186D01*
X69288594Y-34697605D01*
X69640889Y-34933000D01*
X69447507Y-34933000D01*
X68757857Y-34243351D01*
X68839800Y-33831399D01*
X68839800Y-33783401D01*
X68746552Y-33314614D01*
X68481006Y-32917195D01*
X68083587Y-32651649D01*
X67614800Y-32558401D01*
X67146013Y-32651649D01*
X66748594Y-32917195D01*
X66557800Y-33202739D01*
X66557800Y-32432398D01*
X65924800Y-32432398D01*
X65924800Y-32609520D01*
X65716829Y-32470580D01*
X65499800Y-32552674D01*
X65499800Y-33382400D01*
X65924800Y-33382400D01*
X65924800Y-34232400D01*
X65499800Y-34232400D01*
X65499800Y-34657400D01*
X64649800Y-34657400D01*
X64649800Y-34232400D01*
X63812219Y-34232400D01*
X63737946Y-34449434D01*
X63894108Y-34657400D01*
X63699798Y-34657400D01*
X63699798Y-34905543D01*
X63689658Y-34907560D01*
X63624686Y-34950974D01*
X63527447Y-35015946D01*
X62765447Y-35777947D01*
X62657060Y-35940158D01*
X62619000Y-36131500D01*
X62619000Y-37067393D01*
X61583902Y-38102492D01*
X61133999Y-38013000D01*
X61086001Y-38013000D01*
X60617214Y-38106248D01*
X60219795Y-38371794D01*
X59954249Y-38769213D01*
X59861001Y-39238000D01*
X59954249Y-39706787D01*
X60219795Y-40104206D01*
X60617214Y-40369752D01*
X61086001Y-40463000D01*
X61133999Y-40463000D01*
X61602786Y-40369752D01*
X62000205Y-40104206D01*
X62265751Y-39706787D01*
X62358999Y-39238000D01*
X62276642Y-38823965D01*
X63472553Y-37628054D01*
X63580940Y-37465842D01*
X63594895Y-37395685D01*
X63619000Y-37274500D01*
X63619000Y-37121275D01*
X63773302Y-37494715D01*
X64103547Y-37825536D01*
X64270000Y-37894653D01*
X64270000Y-39670893D01*
X62662894Y-41278000D01*
X62244895Y-41278000D01*
X62000205Y-40911794D01*
X61602786Y-40646248D01*
X61133999Y-40553000D01*
X61086001Y-40553000D01*
X60617214Y-40646248D01*
X60219795Y-40911794D01*
X59954249Y-41309213D01*
X59861001Y-41778000D01*
X59954249Y-42246787D01*
X60219795Y-42644206D01*
X60617214Y-42909752D01*
X61086001Y-43003000D01*
X61133999Y-43003000D01*
X61602786Y-42909752D01*
X62000205Y-42644206D01*
X62244895Y-42278000D01*
X62870000Y-42278000D01*
X63061342Y-42239940D01*
X63223553Y-42131553D01*
X65123554Y-40231553D01*
X65231940Y-40069342D01*
X65270000Y-39878000D01*
X65270000Y-38037106D01*
X67826000Y-40593107D01*
X67826000Y-42672000D01*
X67841597Y-42750413D01*
X67841383Y-42996177D01*
X67943929Y-43244357D01*
X68133644Y-43434403D01*
X68308064Y-43506829D01*
X67523985Y-44290909D01*
X67394803Y-44290796D01*
X66962785Y-44469302D01*
X66631964Y-44799547D01*
X66562847Y-44966000D01*
X66484500Y-44966000D01*
X66441627Y-44974528D01*
X66397924Y-44973552D01*
X66346871Y-44993376D01*
X66293158Y-45004060D01*
X66256811Y-45028346D01*
X66216063Y-45044169D01*
X65691077Y-45378250D01*
X65691204Y-45233303D01*
X65585245Y-44976862D01*
X66974554Y-43587553D01*
X67039526Y-43490314D01*
X67082940Y-43425342D01*
X67121000Y-43234000D01*
X67121000Y-42031656D01*
X67257429Y-41975285D01*
X67574172Y-41659093D01*
X67745804Y-41245758D01*
X67746195Y-40798205D01*
X67575285Y-40384571D01*
X67259093Y-40067828D01*
X66845758Y-39896196D01*
X66398205Y-39895805D01*
X65984571Y-40066715D01*
X65667828Y-40382907D01*
X65496196Y-40796242D01*
X65495805Y-41243795D01*
X65666715Y-41657429D01*
X65982907Y-41974172D01*
X66121000Y-42031513D01*
X66121000Y-43026893D01*
X64825606Y-44322288D01*
X64750747Y-44291204D01*
X64283303Y-44290796D01*
X63851285Y-44469302D01*
X63520464Y-44799547D01*
X63341204Y-45231253D01*
X63340796Y-45698697D01*
X63366023Y-45759750D01*
X63341250Y-45759750D01*
X63323629Y-45763255D01*
X63305805Y-45761008D01*
X63228515Y-45782174D01*
X63149908Y-45797810D01*
X63134969Y-45807792D01*
X63117643Y-45812537D01*
X63054332Y-45861673D01*
X62987697Y-45906197D01*
X62977717Y-45921133D01*
X62963523Y-45932149D01*
X62923833Y-46001776D01*
X62879310Y-46068408D01*
X62875805Y-46086028D01*
X62866908Y-46101636D01*
X62644658Y-46768386D01*
X62637456Y-46825517D01*
X62621100Y-46880725D01*
X62555321Y-47596214D01*
X62269093Y-47309986D01*
X62358999Y-46858000D01*
X62265751Y-46389213D01*
X62000205Y-45991794D01*
X61602786Y-45726248D01*
X61133999Y-45633000D01*
X61086001Y-45633000D01*
X60617214Y-45726248D01*
X60219795Y-45991794D01*
X59954249Y-46389213D01*
X59861001Y-46858000D01*
X59954249Y-47326787D01*
X60219795Y-47724206D01*
X60617214Y-47989752D01*
X61086001Y-48083000D01*
X61133999Y-48083000D01*
X61545951Y-48001057D01*
X61806200Y-48261307D01*
X61806200Y-48402164D01*
X61602786Y-48266248D01*
X61133999Y-48173000D01*
X61086001Y-48173000D01*
X60617214Y-48266248D01*
X60219795Y-48531794D01*
X59954249Y-48929213D01*
X59861001Y-49398000D01*
X59954249Y-49866787D01*
X60219795Y-50264206D01*
X60617214Y-50529752D01*
X61086001Y-50623000D01*
X61133999Y-50623000D01*
X61545951Y-50541057D01*
X61991620Y-50986727D01*
X61991620Y-51066058D01*
X61602786Y-50806248D01*
X61133999Y-50713000D01*
X61086001Y-50713000D01*
X60617214Y-50806248D01*
X60219795Y-51071794D01*
X59954249Y-51469213D01*
X59861001Y-51938000D01*
X59954249Y-52406787D01*
X60219795Y-52804206D01*
X60617214Y-53069752D01*
X61086001Y-53163000D01*
X61133999Y-53163000D01*
X61512004Y-53087810D01*
X62217680Y-53793486D01*
X62217680Y-53937269D01*
X62000205Y-53611794D01*
X61602786Y-53346248D01*
X61133999Y-53253000D01*
X61086001Y-53253000D01*
X60617214Y-53346248D01*
X60219795Y-53611794D01*
X59954249Y-54009213D01*
X59861001Y-54478000D01*
X59954249Y-54946787D01*
X60219795Y-55344206D01*
X60617214Y-55609752D01*
X61086001Y-55703000D01*
X61133999Y-55703000D01*
X61545951Y-55621057D01*
X61892560Y-55967667D01*
X61892560Y-56079868D01*
X61602786Y-55886248D01*
X61133999Y-55793000D01*
X61086001Y-55793000D01*
X60617214Y-55886248D01*
X60219795Y-56151794D01*
X59954249Y-56549213D01*
X59861001Y-57018000D01*
X59954249Y-57486787D01*
X60219795Y-57884206D01*
X60617214Y-58149752D01*
X61086001Y-58243000D01*
X61133999Y-58243000D01*
X61545951Y-58161057D01*
X62130506Y-58745613D01*
X62278776Y-58844684D01*
X62292718Y-58854000D01*
X62484060Y-58892060D01*
X62709454Y-58892060D01*
X62543514Y-59058000D01*
X62244895Y-59058000D01*
X62000205Y-58691794D01*
X61602786Y-58426248D01*
X61133999Y-58333000D01*
X61086001Y-58333000D01*
X60617214Y-58426248D01*
X60219795Y-58691794D01*
X59954249Y-59089213D01*
X59861001Y-59558000D01*
X59954249Y-60026787D01*
X60219795Y-60424206D01*
X60617214Y-60689752D01*
X61086001Y-60783000D01*
X61133999Y-60783000D01*
X61602786Y-60689752D01*
X62000205Y-60424206D01*
X62244895Y-60058000D01*
X62750620Y-60058000D01*
X62889373Y-60030401D01*
X61813039Y-61106734D01*
X61602786Y-60966248D01*
X61133999Y-60873000D01*
X61086001Y-60873000D01*
X60617214Y-60966248D01*
X60219795Y-61231794D01*
X59954249Y-61629213D01*
X59861001Y-62098000D01*
X59954249Y-62566787D01*
X60219795Y-62964206D01*
X60617214Y-63229752D01*
X61086001Y-63323000D01*
X61133999Y-63323000D01*
X61602786Y-63229752D01*
X61907800Y-63025949D01*
X61907800Y-63328453D01*
X61679049Y-63557205D01*
X61602786Y-63506248D01*
X61133999Y-63413000D01*
X61086001Y-63413000D01*
X60617214Y-63506248D01*
X60219795Y-63771794D01*
X59954249Y-64169213D01*
X59861001Y-64638000D01*
X59954249Y-65106787D01*
X60219795Y-65504206D01*
X60617214Y-65769752D01*
X61086001Y-65863000D01*
X61133999Y-65863000D01*
X61602786Y-65769752D01*
X62000205Y-65504206D01*
X62265751Y-65106787D01*
X62358999Y-64638000D01*
X62301505Y-64348961D01*
X62428500Y-64221967D01*
X62428500Y-67692393D01*
X61545951Y-68574943D01*
X61133999Y-68493000D01*
X61086001Y-68493000D01*
X60617214Y-68586248D01*
X60219795Y-68851794D01*
X59954249Y-69249213D01*
X59861001Y-69718000D01*
X59954249Y-70186787D01*
X60219795Y-70584206D01*
X60617214Y-70849752D01*
X61086001Y-70943000D01*
X61133999Y-70943000D01*
X61602786Y-70849752D01*
X62000205Y-70584206D01*
X62265751Y-70186787D01*
X62319556Y-69916288D01*
X64494300Y-69916288D01*
X64494300Y-70333950D01*
X64652550Y-70492200D01*
X65577300Y-70492200D01*
X65577300Y-69567450D01*
X65419050Y-69409200D01*
X65001389Y-69409200D01*
X64768735Y-69505568D01*
X64590669Y-69683634D01*
X64494300Y-69916288D01*
X62319556Y-69916288D01*
X62358999Y-69718000D01*
X62269093Y-69266014D01*
X63282053Y-68253054D01*
X63390440Y-68090842D01*
X63399716Y-68044206D01*
X63405419Y-68015534D01*
X64703146Y-68015534D01*
X65050604Y-68478254D01*
X65397971Y-68710320D01*
X65615000Y-68628226D01*
X65615000Y-67798500D01*
X64777419Y-67798500D01*
X64703146Y-68015534D01*
X63405419Y-68015534D01*
X63428500Y-67899500D01*
X63428500Y-65475534D01*
X64703146Y-65475534D01*
X65050604Y-65938254D01*
X65297952Y-66103500D01*
X65050604Y-66268746D01*
X64703146Y-66731466D01*
X64777419Y-66948500D01*
X65615000Y-66948500D01*
X65615000Y-66118774D01*
X65574621Y-66103500D01*
X65615000Y-66088226D01*
X65615000Y-65258500D01*
X64777419Y-65258500D01*
X64703146Y-65475534D01*
X63428500Y-65475534D01*
X63428500Y-64598229D01*
X63479445Y-64619383D01*
X63747977Y-64619617D01*
X63996157Y-64517071D01*
X64186203Y-64327356D01*
X64242629Y-64191466D01*
X64703146Y-64191466D01*
X64777419Y-64408500D01*
X65615000Y-64408500D01*
X65615000Y-63578774D01*
X65397971Y-63496680D01*
X65050604Y-63728746D01*
X64703146Y-64191466D01*
X64242629Y-64191466D01*
X64289183Y-64079355D01*
X64289273Y-63976633D01*
X65565856Y-62700050D01*
X65705916Y-62760398D01*
X66299815Y-62166500D01*
X66163572Y-62030257D01*
X66171671Y-61989542D01*
X66197100Y-61861700D01*
X66197100Y-61703529D01*
X66582657Y-61317972D01*
X66865500Y-61600815D01*
X67095325Y-61370990D01*
X67490331Y-61765996D01*
X67543349Y-61712978D01*
X67714028Y-61883657D01*
X67431185Y-62166500D01*
X68025084Y-62760398D01*
X68237487Y-62668880D01*
X68255085Y-62556000D01*
X68368802Y-62831215D01*
X68699047Y-63162036D01*
X68762236Y-63188274D01*
X68788075Y-63318177D01*
X68923558Y-63520942D01*
X69143952Y-63741336D01*
X69048787Y-63677749D01*
X68580000Y-63584501D01*
X68111213Y-63677749D01*
X67713794Y-63943295D01*
X67523000Y-64228839D01*
X67523000Y-63458498D01*
X67402345Y-63458498D01*
X67459398Y-63326084D01*
X66865500Y-62732185D01*
X66271602Y-63326084D01*
X66363120Y-63538487D01*
X66510685Y-63561493D01*
X66465000Y-63578774D01*
X66465000Y-64408500D01*
X66890000Y-64408500D01*
X66890000Y-65258500D01*
X66465000Y-65258500D01*
X66465000Y-66088226D01*
X66505379Y-66103500D01*
X66465000Y-66118774D01*
X66465000Y-66948500D01*
X66890000Y-66948500D01*
X66890000Y-67798500D01*
X66465000Y-67798500D01*
X66465000Y-68628226D01*
X66682029Y-68710320D01*
X66890000Y-68571380D01*
X66890000Y-68748502D01*
X67523000Y-68748502D01*
X67523000Y-67978161D01*
X67713794Y-68263705D01*
X68111213Y-68529251D01*
X68580000Y-68622499D01*
X69048787Y-68529251D01*
X69143952Y-68465664D01*
X68125358Y-69484258D01*
X67989875Y-69687023D01*
X67962268Y-69825815D01*
X67640760Y-70040639D01*
X67560300Y-70161056D01*
X67560300Y-69567198D01*
X67347495Y-69567198D01*
X67285865Y-69505568D01*
X67053211Y-69409200D01*
X66635550Y-69409200D01*
X66477300Y-69567450D01*
X66477300Y-70492200D01*
X66927300Y-70492200D01*
X66927300Y-71392200D01*
X66477300Y-71392200D01*
X66477300Y-72148316D01*
X65816498Y-72809118D01*
X65681015Y-73011883D01*
X65637841Y-73228934D01*
X64801177Y-72392270D01*
X65001389Y-72475200D01*
X65419050Y-72475200D01*
X65577300Y-72316950D01*
X65577300Y-71392200D01*
X64652550Y-71392200D01*
X64494300Y-71550450D01*
X64494300Y-71968112D01*
X64590669Y-72200766D01*
X64768735Y-72378832D01*
X64786827Y-72386326D01*
X64325312Y-72847841D01*
X64447854Y-72970383D01*
X64229520Y-73013813D01*
X64138002Y-73226216D01*
X64731900Y-73820115D01*
X65014743Y-73537272D01*
X65580428Y-74102957D01*
X65297585Y-74385800D01*
X65580428Y-74668643D01*
X65014743Y-75234328D01*
X64731900Y-74951485D01*
X64138002Y-75545384D01*
X64206110Y-75703454D01*
X63931900Y-75703454D01*
X63792934Y-75729602D01*
X63665301Y-75811731D01*
X63579677Y-75937046D01*
X63549554Y-76085800D01*
X63549554Y-76260800D01*
X61684429Y-76260800D01*
X61602786Y-76206248D01*
X61133999Y-76113000D01*
X61086001Y-76113000D01*
X60617214Y-76206248D01*
X60219795Y-76471794D01*
X60036498Y-76746119D01*
X59963823Y-76760575D01*
X59761058Y-76896058D01*
X58994058Y-77663058D01*
X58858575Y-77865823D01*
X58811000Y-78105000D01*
X58811000Y-83307116D01*
X58060946Y-84057170D01*
X57907903Y-84057036D01*
X57475885Y-84235542D01*
X57145064Y-84565787D01*
X56965804Y-84997493D01*
X56965396Y-85464937D01*
X57143902Y-85896955D01*
X57474147Y-86227776D01*
X57905853Y-86407036D01*
X58373297Y-86407444D01*
X58805315Y-86228938D01*
X59136136Y-85898693D01*
X59315396Y-85466987D01*
X59315804Y-84999543D01*
X59190237Y-84695647D01*
X59436000Y-84449884D01*
X59756058Y-84769942D01*
X59958823Y-84905425D01*
X60173627Y-84948153D01*
X59795011Y-85326108D01*
X59585239Y-85831296D01*
X59584762Y-86378305D01*
X59793652Y-86883857D01*
X60180108Y-87270989D01*
X60685296Y-87480761D01*
X61232305Y-87481238D01*
X61512399Y-87365505D01*
X62593600Y-88446706D01*
X62593600Y-90352886D01*
X62538727Y-90077021D01*
X62318609Y-89954498D01*
X61667107Y-90606000D01*
X62318609Y-91257502D01*
X62538727Y-91134979D01*
X62593600Y-90705097D01*
X62593600Y-91385293D01*
X61577510Y-92401384D01*
X61387787Y-92322604D01*
X60920343Y-92322196D01*
X60720733Y-92404673D01*
X60699222Y-92390300D01*
X60507880Y-92352240D01*
X59207899Y-92352240D01*
X58971450Y-91998370D01*
X58920924Y-91964609D01*
X60308498Y-91964609D01*
X60431021Y-92184727D01*
X61075440Y-92266985D01*
X61488979Y-92184727D01*
X61611502Y-91964609D01*
X60960000Y-91313107D01*
X60308498Y-91964609D01*
X58920924Y-91964609D01*
X58590253Y-91743662D01*
X58140600Y-91654220D01*
X57690947Y-91743662D01*
X57309750Y-91998370D01*
X57055042Y-92379567D01*
X56965600Y-92829220D01*
X56965600Y-92875260D01*
X57055042Y-93324913D01*
X57309750Y-93706110D01*
X57676315Y-93951041D01*
X57399685Y-94065342D01*
X57068864Y-94395587D01*
X56889604Y-94827293D01*
X56889196Y-95294737D01*
X55613840Y-95294737D01*
X55613840Y-90721440D01*
X59299015Y-90721440D01*
X59381273Y-91134979D01*
X59601391Y-91257502D01*
X60252893Y-90606000D01*
X59601391Y-89954498D01*
X59381273Y-90077021D01*
X59299015Y-90721440D01*
X55613840Y-90721440D01*
X55613840Y-89561997D01*
X57724563Y-89561997D01*
X57827109Y-89810177D01*
X58016824Y-90000223D01*
X58264825Y-90103203D01*
X58533357Y-90103437D01*
X58781537Y-90000891D01*
X58971583Y-89811176D01*
X59074563Y-89563175D01*
X59074653Y-89460454D01*
X59240914Y-89294193D01*
X59272185Y-89247391D01*
X60308498Y-89247391D01*
X60960000Y-89898893D01*
X61611502Y-89247391D01*
X61488979Y-89027273D01*
X60844560Y-88945015D01*
X60431021Y-89027273D01*
X60308498Y-89247391D01*
X59272185Y-89247391D01*
X59305886Y-89196954D01*
X59349300Y-89131982D01*
X59387360Y-88940640D01*
X59387360Y-87749354D01*
X59459263Y-87677576D01*
X59562243Y-87429575D01*
X59562477Y-87161043D01*
X59459931Y-86912863D01*
X59270216Y-86722817D01*
X59022215Y-86619837D01*
X58753683Y-86619603D01*
X58505503Y-86722149D01*
X58315457Y-86911864D01*
X58212477Y-87159865D01*
X58212243Y-87428397D01*
X58314789Y-87676577D01*
X58387360Y-87749275D01*
X58387360Y-88733533D01*
X58367602Y-88753292D01*
X58266003Y-88753203D01*
X58017823Y-88855749D01*
X57827777Y-89045464D01*
X57724797Y-89293465D01*
X57724563Y-89561997D01*
X55613840Y-89561997D01*
X55613840Y-74798000D01*
X59861001Y-74798000D01*
X59954249Y-75266787D01*
X60219795Y-75664206D01*
X60617214Y-75929752D01*
X61086001Y-76023000D01*
X61133999Y-76023000D01*
X61602786Y-75929752D01*
X62000205Y-75664206D01*
X62265751Y-75266787D01*
X62358999Y-74798000D01*
X62289121Y-74446697D01*
X63272096Y-74446697D01*
X63359913Y-74888180D01*
X63572316Y-74979698D01*
X64166215Y-74385800D01*
X63572316Y-73791902D01*
X63359913Y-73883420D01*
X63272096Y-74446697D01*
X62289121Y-74446697D01*
X62265751Y-74329213D01*
X62000205Y-73931794D01*
X61602786Y-73666248D01*
X61133999Y-73573000D01*
X61086001Y-73573000D01*
X60617214Y-73666248D01*
X60219795Y-73931794D01*
X59954249Y-74329213D01*
X59861001Y-74798000D01*
X55613840Y-74798000D01*
X55613840Y-72258000D01*
X59861001Y-72258000D01*
X59954249Y-72726787D01*
X60219795Y-73124206D01*
X60617214Y-73389752D01*
X61086001Y-73483000D01*
X61133999Y-73483000D01*
X61602786Y-73389752D01*
X62000205Y-73124206D01*
X62265751Y-72726787D01*
X62358999Y-72258000D01*
X62265751Y-71789213D01*
X62000205Y-71391794D01*
X61602786Y-71126248D01*
X61133999Y-71033000D01*
X61086001Y-71033000D01*
X60617214Y-71126248D01*
X60219795Y-71391794D01*
X59954249Y-71789213D01*
X59861001Y-72258000D01*
X55613840Y-72258000D01*
X55613840Y-67178000D01*
X59861001Y-67178000D01*
X59954249Y-67646787D01*
X60219795Y-68044206D01*
X60617214Y-68309752D01*
X61086001Y-68403000D01*
X61133999Y-68403000D01*
X61602786Y-68309752D01*
X62000205Y-68044206D01*
X62265751Y-67646787D01*
X62358999Y-67178000D01*
X62265751Y-66709213D01*
X62000205Y-66311794D01*
X61602786Y-66046248D01*
X61133999Y-65953000D01*
X61086001Y-65953000D01*
X60617214Y-66046248D01*
X60219795Y-66311794D01*
X59954249Y-66709213D01*
X59861001Y-67178000D01*
X55613840Y-67178000D01*
X55613840Y-44318000D01*
X59861001Y-44318000D01*
X59954249Y-44786787D01*
X60219795Y-45184206D01*
X60617214Y-45449752D01*
X61086001Y-45543000D01*
X61133999Y-45543000D01*
X61602786Y-45449752D01*
X62000205Y-45184206D01*
X62265751Y-44786787D01*
X62358999Y-44318000D01*
X62265751Y-43849213D01*
X62000205Y-43451794D01*
X61602786Y-43186248D01*
X61133999Y-43093000D01*
X61086001Y-43093000D01*
X60617214Y-43186248D01*
X60219795Y-43451794D01*
X59954249Y-43849213D01*
X59861001Y-44318000D01*
X55613840Y-44318000D01*
X55613840Y-37789177D01*
X58506883Y-37789177D01*
X58609429Y-38037357D01*
X58799144Y-38227403D01*
X59047145Y-38330383D01*
X59315677Y-38330617D01*
X59563857Y-38228071D01*
X59753903Y-38038356D01*
X59856883Y-37790355D01*
X59856973Y-37687634D01*
X60123907Y-37420699D01*
X60219795Y-37564206D01*
X60617214Y-37829752D01*
X61086001Y-37923000D01*
X61133999Y-37923000D01*
X61602786Y-37829752D01*
X62000205Y-37564206D01*
X62265751Y-37166787D01*
X62358999Y-36698000D01*
X62265751Y-36229213D01*
X62000205Y-35831794D01*
X61602786Y-35566248D01*
X61133999Y-35473000D01*
X61086001Y-35473000D01*
X60617214Y-35566248D01*
X60219795Y-35831794D01*
X59954249Y-36229213D01*
X59953082Y-36235081D01*
X59948158Y-36236060D01*
X59785946Y-36344447D01*
X59149922Y-36980472D01*
X59048323Y-36980383D01*
X58800143Y-37082929D01*
X58610097Y-37272644D01*
X58507117Y-37520645D01*
X58506883Y-37789177D01*
X55613840Y-37789177D01*
X55613840Y-33308000D01*
X59877654Y-33308000D01*
X59877654Y-35008000D01*
X59903802Y-35146966D01*
X59985931Y-35274599D01*
X60111246Y-35360223D01*
X60260000Y-35390346D01*
X61960000Y-35390346D01*
X62098966Y-35364198D01*
X62226599Y-35282069D01*
X62312223Y-35156754D01*
X62342346Y-35008000D01*
X62342346Y-33308000D01*
X62316198Y-33169034D01*
X62313838Y-33165366D01*
X63737946Y-33165366D01*
X63812219Y-33382400D01*
X64649800Y-33382400D01*
X64649800Y-32552674D01*
X64432771Y-32470580D01*
X64085404Y-32702646D01*
X63737946Y-33165366D01*
X62313838Y-33165366D01*
X62234069Y-33041401D01*
X62108754Y-32955777D01*
X61960000Y-32925654D01*
X60260000Y-32925654D01*
X60121034Y-32951802D01*
X59993401Y-33033931D01*
X59907777Y-33159246D01*
X59877654Y-33308000D01*
X55613840Y-33308000D01*
X55613840Y-29909040D01*
X55656480Y-29909040D01*
X55705112Y-29899192D01*
X55746081Y-29871199D01*
X55772931Y-29829472D01*
X55780224Y-29801718D01*
X55820772Y-29517880D01*
X81236280Y-29517880D01*
X81236280Y-104705880D01*
X81236280Y-104705880D01*
G37*
X81236280Y-104705880D02*
X55613840Y-104705880D01*
X55613840Y-102659020D01*
X56889400Y-102659020D01*
X56889400Y-102705060D01*
X56978842Y-103154713D01*
X57233550Y-103535910D01*
X57614747Y-103790618D01*
X58064400Y-103880060D01*
X58514053Y-103790618D01*
X58895250Y-103535910D01*
X59048176Y-103307040D01*
X60010040Y-103307040D01*
X60249217Y-103259465D01*
X60451982Y-103123982D01*
X60584340Y-102991624D01*
X65933650Y-102991624D01*
X66110498Y-103224657D01*
X66896078Y-103296803D01*
X67258782Y-103224657D01*
X67435630Y-102991624D01*
X77933650Y-102991624D01*
X78110498Y-103224657D01*
X78896078Y-103296803D01*
X79258782Y-103224657D01*
X79435630Y-102991624D01*
X78684640Y-102240634D01*
X77933650Y-102991624D01*
X67435630Y-102991624D01*
X66684640Y-102240634D01*
X65933650Y-102991624D01*
X60584340Y-102991624D01*
X61821378Y-101754586D01*
X63119840Y-101754586D01*
X63258806Y-101728438D01*
X63386439Y-101646309D01*
X63472063Y-101520994D01*
X63476825Y-101497478D01*
X64673877Y-101497478D01*
X64746023Y-101860182D01*
X64979056Y-102037030D01*
X65730046Y-101286040D01*
X67639234Y-101286040D01*
X68390224Y-102037030D01*
X68623257Y-101860182D01*
X68656566Y-101497478D01*
X76673877Y-101497478D01*
X76746023Y-101860182D01*
X76979056Y-102037030D01*
X77730046Y-101286040D01*
X79639234Y-101286040D01*
X80390224Y-102037030D01*
X80623257Y-101860182D01*
X80695403Y-101074602D01*
X80623257Y-100711898D01*
X80390224Y-100535050D01*
X79639234Y-101286040D01*
X77730046Y-101286040D01*
X76979056Y-100535050D01*
X76746023Y-100711898D01*
X76673877Y-101497478D01*
X68656566Y-101497478D01*
X68695403Y-101074602D01*
X68623257Y-100711898D01*
X68390224Y-100535050D01*
X67639234Y-101286040D01*
X65730046Y-101286040D01*
X64979056Y-100535050D01*
X64746023Y-100711898D01*
X64673877Y-101497478D01*
X63476825Y-101497478D01*
X63502186Y-101372240D01*
X63502186Y-99580456D01*
X65933650Y-99580456D01*
X66684640Y-100331446D01*
X67435630Y-99580456D01*
X67258782Y-99347423D01*
X66473202Y-99275277D01*
X66110498Y-99347423D01*
X65933650Y-99580456D01*
X63502186Y-99580456D01*
X63502186Y-99572240D01*
X63476038Y-99433274D01*
X63393909Y-99305641D01*
X63268594Y-99220017D01*
X63119840Y-99189894D01*
X62514856Y-99189894D01*
X62941126Y-99013763D01*
X63300102Y-98655413D01*
X63494618Y-98186966D01*
X63495061Y-97679739D01*
X63301363Y-97210954D01*
X62943013Y-96851978D01*
X62474566Y-96657462D01*
X61967339Y-96657019D01*
X61498554Y-96850717D01*
X61139578Y-97209067D01*
X60945062Y-97677514D01*
X60944619Y-98184741D01*
X61138317Y-98653526D01*
X61496667Y-99012502D01*
X61923875Y-99189894D01*
X61319840Y-99189894D01*
X61180874Y-99216042D01*
X61053241Y-99298171D01*
X60967617Y-99423486D01*
X60937494Y-99572240D01*
X60937494Y-100870702D01*
X59751156Y-102057040D01*
X59048176Y-102057040D01*
X58895250Y-101828170D01*
X58514053Y-101573462D01*
X58064400Y-101484020D01*
X57614747Y-101573462D01*
X57233550Y-101828170D01*
X56978842Y-102209367D01*
X56889400Y-102659020D01*
X55613840Y-102659020D01*
X55613840Y-95294737D01*
X56889196Y-95294737D01*
X57067702Y-95726755D01*
X57397947Y-96057576D01*
X57829653Y-96236836D01*
X58297097Y-96237244D01*
X58729115Y-96058738D01*
X59059936Y-95728493D01*
X59239196Y-95296787D01*
X59239604Y-94829343D01*
X59061098Y-94397325D01*
X58730853Y-94066504D01*
X58513230Y-93976139D01*
X58590253Y-93960818D01*
X58971450Y-93706110D01*
X59207899Y-93352240D01*
X59978166Y-93352240D01*
X59977836Y-93730097D01*
X60156342Y-94162115D01*
X60486587Y-94492936D01*
X60918293Y-94672196D01*
X61385737Y-94672604D01*
X61423540Y-94656984D01*
X63059142Y-94656984D01*
X63150660Y-94869387D01*
X63713937Y-94957204D01*
X64155420Y-94869387D01*
X64203740Y-94757240D01*
X68681440Y-94757240D01*
X68681440Y-96477840D01*
X68729015Y-96717017D01*
X68864498Y-96919782D01*
X70286927Y-98342211D01*
X70279837Y-98359284D01*
X70279443Y-98810815D01*
X70451873Y-99228126D01*
X70770875Y-99547685D01*
X71187884Y-99720843D01*
X71639415Y-99721237D01*
X71676959Y-99705724D01*
X73372357Y-99705724D01*
X73457676Y-99916547D01*
X74004668Y-100005448D01*
X74451604Y-99916547D01*
X74536923Y-99705724D01*
X74411655Y-99580456D01*
X77933650Y-99580456D01*
X78684640Y-100331446D01*
X79435630Y-99580456D01*
X79258782Y-99347423D01*
X78473202Y-99275277D01*
X78110498Y-99347423D01*
X77933650Y-99580456D01*
X74411655Y-99580456D01*
X73954640Y-99123441D01*
X73372357Y-99705724D01*
X71676959Y-99705724D01*
X72056726Y-99548807D01*
X72376285Y-99229805D01*
X72549443Y-98812796D01*
X72549534Y-98707971D01*
X72624133Y-99083004D01*
X72834956Y-99168323D01*
X73417239Y-98586040D01*
X74492041Y-98586040D01*
X75074324Y-99168323D01*
X75285147Y-99083004D01*
X75374048Y-98536012D01*
X75285147Y-98089076D01*
X75074324Y-98003757D01*
X74492041Y-98586040D01*
X73417239Y-98586040D01*
X72834956Y-98003757D01*
X72624133Y-98089076D01*
X72549675Y-98547204D01*
X72549837Y-98361265D01*
X72377407Y-97943954D01*
X72058405Y-97624395D01*
X71966325Y-97586160D01*
X72056726Y-97548807D01*
X72376285Y-97229805D01*
X72549443Y-96812796D01*
X72549444Y-96810815D01*
X72819443Y-96810815D01*
X72991873Y-97228126D01*
X73310875Y-97547685D01*
X73555096Y-97649095D01*
X73954640Y-98048639D01*
X74354306Y-97648973D01*
X74596726Y-97548807D01*
X74916285Y-97229805D01*
X75089443Y-96812796D01*
X75089837Y-96361265D01*
X74917407Y-95943954D01*
X74598405Y-95624395D01*
X74181396Y-95451237D01*
X73729865Y-95450843D01*
X73312554Y-95623273D01*
X72992995Y-95942275D01*
X72819837Y-96359284D01*
X72819443Y-96810815D01*
X72549444Y-96810815D01*
X72549837Y-96361265D01*
X72426224Y-96062100D01*
X73451524Y-95036800D01*
X75514200Y-95036800D01*
X75753377Y-94989225D01*
X75956142Y-94853742D01*
X76572983Y-94236901D01*
X76835000Y-94289020D01*
X77284653Y-94199578D01*
X77665850Y-93944870D01*
X77920558Y-93563673D01*
X78010000Y-93114020D01*
X78010000Y-93067980D01*
X77920558Y-92618327D01*
X77665850Y-92237130D01*
X77284653Y-91982422D01*
X76835000Y-91892980D01*
X76385347Y-91982422D01*
X76004150Y-92237130D01*
X75749442Y-92618327D01*
X75660000Y-93067980D01*
X75660000Y-93114020D01*
X75704480Y-93337636D01*
X75255316Y-93786800D01*
X74030212Y-93786800D01*
X74363850Y-93563870D01*
X74618558Y-93182673D01*
X74708000Y-92733020D01*
X74708000Y-92686980D01*
X74618558Y-92237327D01*
X74363850Y-91856130D01*
X73982653Y-91601422D01*
X73533000Y-91511980D01*
X73083347Y-91601422D01*
X72702150Y-91856130D01*
X72549224Y-92085000D01*
X71383917Y-92085000D01*
X71315850Y-91983130D01*
X70934653Y-91728422D01*
X70485000Y-91638980D01*
X70035347Y-91728422D01*
X69654150Y-91983130D01*
X69399442Y-92364327D01*
X69310000Y-92813980D01*
X69310000Y-92860020D01*
X69399442Y-93309673D01*
X69587971Y-93591826D01*
X68864498Y-94315298D01*
X68729015Y-94518063D01*
X68681440Y-94757240D01*
X64203740Y-94757240D01*
X64246938Y-94656984D01*
X63653040Y-94063085D01*
X63059142Y-94656984D01*
X61423540Y-94656984D01*
X61817755Y-94494098D01*
X62148576Y-94163853D01*
X62260212Y-93895004D01*
X62281053Y-93999780D01*
X62493456Y-94091298D01*
X63087355Y-93497400D01*
X64218725Y-93497400D01*
X64812624Y-94091298D01*
X65025027Y-93999780D01*
X65112844Y-93436503D01*
X65025027Y-92995020D01*
X64812624Y-92903502D01*
X64218725Y-93497400D01*
X63087355Y-93497400D01*
X62804512Y-93214557D01*
X63370197Y-92648872D01*
X63653040Y-92931715D01*
X64246938Y-92337816D01*
X64155420Y-92125413D01*
X63928962Y-92090107D01*
X64054460Y-91964609D01*
X66808498Y-91964609D01*
X66931021Y-92184727D01*
X67575440Y-92266985D01*
X67988979Y-92184727D01*
X68111502Y-91964609D01*
X67460000Y-91313107D01*
X66808498Y-91964609D01*
X64054460Y-91964609D01*
X64059628Y-91959441D01*
X63593910Y-91493723D01*
X63593600Y-91494033D01*
X63593600Y-90721440D01*
X65799015Y-90721440D01*
X65881273Y-91134979D01*
X66101391Y-91257502D01*
X66752893Y-90606000D01*
X68167107Y-90606000D01*
X68818609Y-91257502D01*
X69038727Y-91134979D01*
X69120985Y-90490560D01*
X69038727Y-90077021D01*
X68818609Y-89954498D01*
X68167107Y-90606000D01*
X66752893Y-90606000D01*
X66101391Y-89954498D01*
X65881273Y-90077021D01*
X65799015Y-90721440D01*
X63593600Y-90721440D01*
X63593600Y-89247391D01*
X66808498Y-89247391D01*
X67460000Y-89898893D01*
X68111502Y-89247391D01*
X67988979Y-89027273D01*
X67344560Y-88945015D01*
X66931021Y-89027273D01*
X66808498Y-89247391D01*
X63593600Y-89247391D01*
X63593600Y-88239600D01*
X63555540Y-88048258D01*
X63447153Y-87886047D01*
X62219468Y-86658362D01*
X62334761Y-86380704D01*
X62335238Y-85833695D01*
X62126348Y-85328143D01*
X61751860Y-84953000D01*
X66668772Y-84953000D01*
X66295011Y-85326108D01*
X66085239Y-85831296D01*
X66084762Y-86378305D01*
X66293652Y-86883857D01*
X66680108Y-87270989D01*
X67185296Y-87480761D01*
X67732305Y-87481238D01*
X68237857Y-87272348D01*
X68624989Y-86885892D01*
X68834761Y-86380704D01*
X68835238Y-85833695D01*
X68626348Y-85328143D01*
X68251860Y-84953000D01*
X69322351Y-84953000D01*
X69310204Y-84982253D01*
X69309796Y-85449697D01*
X69488302Y-85881715D01*
X69818547Y-86212536D01*
X70250253Y-86391796D01*
X70717697Y-86392204D01*
X71149715Y-86213698D01*
X71480536Y-85883453D01*
X71659796Y-85451747D01*
X71660204Y-84984303D01*
X71481698Y-84552285D01*
X71151453Y-84221464D01*
X70719747Y-84042204D01*
X70252303Y-84041796D01*
X70210820Y-84058936D01*
X70037942Y-83886058D01*
X69835177Y-83750575D01*
X69596000Y-83703000D01*
X69090104Y-83703000D01*
X69614358Y-83598719D01*
X70092883Y-83278980D01*
X70412622Y-82800455D01*
X70524900Y-82235997D01*
X70524900Y-82178203D01*
X70497112Y-82038503D01*
X70724500Y-82038503D01*
X70724500Y-82096297D01*
X70836778Y-82660755D01*
X71156517Y-83139280D01*
X71635042Y-83459019D01*
X72199500Y-83571297D01*
X72763958Y-83459019D01*
X73242483Y-83139280D01*
X73562222Y-82660755D01*
X73674500Y-82096297D01*
X73674500Y-82038503D01*
X73562222Y-81474045D01*
X73242483Y-80995520D01*
X72763958Y-80675781D01*
X72199500Y-80563503D01*
X71635042Y-80675781D01*
X71156517Y-80995520D01*
X70836778Y-81474045D01*
X70724500Y-82038503D01*
X70497112Y-82038503D01*
X70412622Y-81613745D01*
X70092883Y-81135220D01*
X69614358Y-80815481D01*
X69049900Y-80703203D01*
X68485442Y-80815481D01*
X68006917Y-81135220D01*
X67687178Y-81613745D01*
X67574900Y-82178203D01*
X67574900Y-82235997D01*
X67687178Y-82800455D01*
X68006917Y-83278980D01*
X68485442Y-83598719D01*
X69009696Y-83703000D01*
X65270314Y-83703000D01*
X64709040Y-83141725D01*
X64147766Y-83703000D01*
X62485002Y-83703000D01*
X62485002Y-83268000D01*
X62307880Y-83268000D01*
X62446820Y-83060029D01*
X62364726Y-82843000D01*
X61535000Y-82843000D01*
X61535000Y-83268000D01*
X60685000Y-83268000D01*
X60685000Y-82843000D01*
X60260000Y-82843000D01*
X60260000Y-82636937D01*
X63249236Y-82636937D01*
X63337053Y-83078420D01*
X63549456Y-83169938D01*
X64143355Y-82576040D01*
X65274725Y-82576040D01*
X65868624Y-83169938D01*
X66081027Y-83078420D01*
X66168844Y-82515143D01*
X66081027Y-82073660D01*
X65868624Y-81982142D01*
X65274725Y-82576040D01*
X64143355Y-82576040D01*
X63549456Y-81982142D01*
X63337053Y-82073660D01*
X63249236Y-82636937D01*
X60260000Y-82636937D01*
X60260000Y-81993000D01*
X60685000Y-81993000D01*
X60685000Y-81155419D01*
X60663321Y-81148000D01*
X60685000Y-81140581D01*
X60685000Y-80303000D01*
X61535000Y-80303000D01*
X61535000Y-81140581D01*
X61556679Y-81148000D01*
X61535000Y-81155419D01*
X61535000Y-81993000D01*
X62364726Y-81993000D01*
X62446820Y-81775971D01*
X62214754Y-81428604D01*
X61841065Y-81148000D01*
X62214754Y-80867396D01*
X62446820Y-80520029D01*
X62364726Y-80303000D01*
X61535000Y-80303000D01*
X60685000Y-80303000D01*
X60260000Y-80303000D01*
X60260000Y-79453000D01*
X60685000Y-79453000D01*
X60685000Y-79028000D01*
X61535000Y-79028000D01*
X61535000Y-79453000D01*
X62364726Y-79453000D01*
X62446820Y-79235971D01*
X62307880Y-79028000D01*
X62485002Y-79028000D01*
X62485002Y-78395000D01*
X61714661Y-78395000D01*
X62000205Y-78204206D01*
X62265751Y-77806787D01*
X62324627Y-77510800D01*
X63549554Y-77510800D01*
X63549554Y-77685800D01*
X63575702Y-77824766D01*
X63657831Y-77952399D01*
X63783146Y-78038023D01*
X63931900Y-78068146D01*
X65531900Y-78068146D01*
X65670866Y-78041998D01*
X65798499Y-77959869D01*
X65884123Y-77834554D01*
X65914246Y-77685800D01*
X65914246Y-77367630D01*
X65973942Y-77327742D01*
X66700382Y-76601302D01*
X66835865Y-76398538D01*
X66883440Y-76159360D01*
X66883440Y-73509944D01*
X68236930Y-72156454D01*
X68542321Y-72217200D01*
X68592279Y-72217200D01*
X69080200Y-72120146D01*
X69493840Y-71843761D01*
X69770225Y-71430121D01*
X69837300Y-71092914D01*
X69904375Y-71430121D01*
X70180760Y-71843761D01*
X70482300Y-72045243D01*
X70482300Y-73311151D01*
X70423969Y-73220501D01*
X70298654Y-73134877D01*
X70149900Y-73104754D01*
X67949900Y-73104754D01*
X67810934Y-73130902D01*
X67683301Y-73213031D01*
X67597677Y-73338346D01*
X67567554Y-73487100D01*
X67567554Y-75687100D01*
X67593702Y-75826066D01*
X67675831Y-75953699D01*
X67801146Y-76039323D01*
X67949900Y-76069446D01*
X68424900Y-76069446D01*
X68424900Y-78051856D01*
X67025716Y-79451040D01*
X65891386Y-79451040D01*
X65891386Y-79276040D01*
X65865238Y-79137074D01*
X65783109Y-79009441D01*
X65657794Y-78923817D01*
X65509040Y-78893694D01*
X63909040Y-78893694D01*
X63770074Y-78919842D01*
X63642441Y-79001971D01*
X63556817Y-79127286D01*
X63526694Y-79276040D01*
X63526694Y-80876040D01*
X63552842Y-81015006D01*
X63634971Y-81142639D01*
X63760286Y-81228263D01*
X63909040Y-81258386D01*
X64183250Y-81258386D01*
X64115142Y-81416456D01*
X64709040Y-82010355D01*
X65302938Y-81416456D01*
X65234830Y-81258386D01*
X65509040Y-81258386D01*
X65648006Y-81232238D01*
X65775639Y-81150109D01*
X65861263Y-81024794D01*
X65891386Y-80876040D01*
X65891386Y-80701040D01*
X67284600Y-80701040D01*
X67523777Y-80653465D01*
X67726542Y-80517982D01*
X69491842Y-78752682D01*
X69627325Y-78549918D01*
X69674900Y-78310740D01*
X69674900Y-76069446D01*
X70149900Y-76069446D01*
X70288866Y-76043298D01*
X70416499Y-75961169D01*
X70502123Y-75835854D01*
X70532246Y-75687100D01*
X70532246Y-75212100D01*
X70717154Y-75212100D01*
X70717154Y-75547400D01*
X70743302Y-75686366D01*
X70825431Y-75813999D01*
X70950746Y-75899623D01*
X71099500Y-75929746D01*
X73299500Y-75929746D01*
X73438466Y-75903598D01*
X73566099Y-75821469D01*
X73651723Y-75696154D01*
X73681846Y-75547400D01*
X73681846Y-74521032D01*
X73731500Y-74570686D01*
X73731500Y-80299500D01*
X73769560Y-80490842D01*
X73877947Y-80653053D01*
X75190907Y-81966014D01*
X75101001Y-82418000D01*
X75194249Y-82886787D01*
X75459795Y-83284206D01*
X75857214Y-83549752D01*
X76326001Y-83643000D01*
X76373999Y-83643000D01*
X76842786Y-83549752D01*
X77240205Y-83284206D01*
X77351000Y-83118389D01*
X77351000Y-84025610D01*
X77118372Y-84316395D01*
X77069747Y-84296204D01*
X76602303Y-84295796D01*
X76170285Y-84474302D01*
X75839464Y-84804547D01*
X75660204Y-85236253D01*
X75659796Y-85703697D01*
X75838302Y-86135715D01*
X76168547Y-86466536D01*
X76237096Y-86495000D01*
X75539315Y-86495000D01*
X74648615Y-85467270D01*
X74707796Y-85324747D01*
X74708204Y-84857303D01*
X74529698Y-84425285D01*
X74199453Y-84094464D01*
X73767747Y-83915204D01*
X73300303Y-83914796D01*
X72868285Y-84093302D01*
X72537464Y-84423547D01*
X72358204Y-84855253D01*
X72357796Y-85322697D01*
X72536302Y-85754715D01*
X72866547Y-86085536D01*
X73298253Y-86264796D01*
X73765697Y-86265204D01*
X73950636Y-86188789D01*
X74933155Y-87322465D01*
X74947417Y-87333542D01*
X74957447Y-87348553D01*
X75024004Y-87393025D01*
X75087233Y-87442134D01*
X75104646Y-87446909D01*
X75119658Y-87456940D01*
X75198176Y-87472558D01*
X75275377Y-87493729D01*
X75293291Y-87491477D01*
X75311000Y-87495000D01*
X77597000Y-87495000D01*
X77788342Y-87456940D01*
X77950553Y-87348553D01*
X78839553Y-86459553D01*
X78947940Y-86297342D01*
X78986000Y-86106000D01*
X78986000Y-64897000D01*
X78947940Y-64705658D01*
X78902732Y-64638000D01*
X78839553Y-64543446D01*
X77248259Y-62952153D01*
X77505751Y-62566787D01*
X77598999Y-62098000D01*
X77505751Y-61629213D01*
X77240205Y-61231794D01*
X76842786Y-60966248D01*
X76373999Y-60873000D01*
X76326001Y-60873000D01*
X75914049Y-60954943D01*
X75557000Y-60597894D01*
X75557000Y-60489156D01*
X75857214Y-60689752D01*
X76326001Y-60783000D01*
X76373999Y-60783000D01*
X76842786Y-60689752D01*
X77240205Y-60424206D01*
X77505751Y-60026787D01*
X77598999Y-59558000D01*
X77509093Y-59106014D01*
X78077553Y-58537554D01*
X78185940Y-58375342D01*
X78191750Y-58346133D01*
X78224000Y-58184000D01*
X78224000Y-56197500D01*
X78185940Y-56006158D01*
X78105818Y-55886248D01*
X78077553Y-55843946D01*
X77696553Y-55462947D01*
X77534342Y-55354560D01*
X77343000Y-55316500D01*
X77258717Y-55316500D01*
X77505751Y-54946787D01*
X77598999Y-54478000D01*
X77505751Y-54009213D01*
X77281763Y-53673990D01*
X77442553Y-53566553D01*
X77903263Y-53105843D01*
X77915342Y-53103440D01*
X78077553Y-52995053D01*
X78185940Y-52832842D01*
X78224000Y-52641500D01*
X78224000Y-42746221D01*
X78300345Y-42777923D01*
X78568877Y-42778157D01*
X78817057Y-42675611D01*
X79007103Y-42485896D01*
X79110083Y-42237895D01*
X79110317Y-41969363D01*
X79067280Y-41865206D01*
X79067280Y-33111440D01*
X79029220Y-32920098D01*
X78961290Y-32818434D01*
X78920834Y-32757887D01*
X78082633Y-31919687D01*
X77920422Y-31811300D01*
X77729080Y-31773240D01*
X71688960Y-31773240D01*
X71497618Y-31811300D01*
X71335407Y-31919687D01*
X70606787Y-32648307D01*
X70154800Y-32558401D01*
X69686013Y-32651649D01*
X69288594Y-32917195D01*
X69023048Y-33314614D01*
X68929800Y-33783401D01*
X68929800Y-33831399D01*
X69023048Y-34300186D01*
X69288594Y-34697605D01*
X69640889Y-34933000D01*
X69447507Y-34933000D01*
X68757857Y-34243351D01*
X68839800Y-33831399D01*
X68839800Y-33783401D01*
X68746552Y-33314614D01*
X68481006Y-32917195D01*
X68083587Y-32651649D01*
X67614800Y-32558401D01*
X67146013Y-32651649D01*
X66748594Y-32917195D01*
X66557800Y-33202739D01*
X66557800Y-32432398D01*
X65924800Y-32432398D01*
X65924800Y-32609520D01*
X65716829Y-32470580D01*
X65499800Y-32552674D01*
X65499800Y-33382400D01*
X65924800Y-33382400D01*
X65924800Y-34232400D01*
X65499800Y-34232400D01*
X65499800Y-34657400D01*
X64649800Y-34657400D01*
X64649800Y-34232400D01*
X63812219Y-34232400D01*
X63737946Y-34449434D01*
X63894108Y-34657400D01*
X63699798Y-34657400D01*
X63699798Y-34905543D01*
X63689658Y-34907560D01*
X63624686Y-34950974D01*
X63527447Y-35015946D01*
X62765447Y-35777947D01*
X62657060Y-35940158D01*
X62619000Y-36131500D01*
X62619000Y-37067393D01*
X61583902Y-38102492D01*
X61133999Y-38013000D01*
X61086001Y-38013000D01*
X60617214Y-38106248D01*
X60219795Y-38371794D01*
X59954249Y-38769213D01*
X59861001Y-39238000D01*
X59954249Y-39706787D01*
X60219795Y-40104206D01*
X60617214Y-40369752D01*
X61086001Y-40463000D01*
X61133999Y-40463000D01*
X61602786Y-40369752D01*
X62000205Y-40104206D01*
X62265751Y-39706787D01*
X62358999Y-39238000D01*
X62276642Y-38823965D01*
X63472553Y-37628054D01*
X63580940Y-37465842D01*
X63594895Y-37395685D01*
X63619000Y-37274500D01*
X63619000Y-37121275D01*
X63773302Y-37494715D01*
X64103547Y-37825536D01*
X64270000Y-37894653D01*
X64270000Y-39670893D01*
X62662894Y-41278000D01*
X62244895Y-41278000D01*
X62000205Y-40911794D01*
X61602786Y-40646248D01*
X61133999Y-40553000D01*
X61086001Y-40553000D01*
X60617214Y-40646248D01*
X60219795Y-40911794D01*
X59954249Y-41309213D01*
X59861001Y-41778000D01*
X59954249Y-42246787D01*
X60219795Y-42644206D01*
X60617214Y-42909752D01*
X61086001Y-43003000D01*
X61133999Y-43003000D01*
X61602786Y-42909752D01*
X62000205Y-42644206D01*
X62244895Y-42278000D01*
X62870000Y-42278000D01*
X63061342Y-42239940D01*
X63223553Y-42131553D01*
X65123554Y-40231553D01*
X65231940Y-40069342D01*
X65270000Y-39878000D01*
X65270000Y-38037106D01*
X67826000Y-40593107D01*
X67826000Y-42672000D01*
X67841597Y-42750413D01*
X67841383Y-42996177D01*
X67943929Y-43244357D01*
X68133644Y-43434403D01*
X68308064Y-43506829D01*
X67523985Y-44290909D01*
X67394803Y-44290796D01*
X66962785Y-44469302D01*
X66631964Y-44799547D01*
X66562847Y-44966000D01*
X66484500Y-44966000D01*
X66441627Y-44974528D01*
X66397924Y-44973552D01*
X66346871Y-44993376D01*
X66293158Y-45004060D01*
X66256811Y-45028346D01*
X66216063Y-45044169D01*
X65691077Y-45378250D01*
X65691204Y-45233303D01*
X65585245Y-44976862D01*
X66974554Y-43587553D01*
X67039526Y-43490314D01*
X67082940Y-43425342D01*
X67121000Y-43234000D01*
X67121000Y-42031656D01*
X67257429Y-41975285D01*
X67574172Y-41659093D01*
X67745804Y-41245758D01*
X67746195Y-40798205D01*
X67575285Y-40384571D01*
X67259093Y-40067828D01*
X66845758Y-39896196D01*
X66398205Y-39895805D01*
X65984571Y-40066715D01*
X65667828Y-40382907D01*
X65496196Y-40796242D01*
X65495805Y-41243795D01*
X65666715Y-41657429D01*
X65982907Y-41974172D01*
X66121000Y-42031513D01*
X66121000Y-43026893D01*
X64825606Y-44322288D01*
X64750747Y-44291204D01*
X64283303Y-44290796D01*
X63851285Y-44469302D01*
X63520464Y-44799547D01*
X63341204Y-45231253D01*
X63340796Y-45698697D01*
X63366023Y-45759750D01*
X63341250Y-45759750D01*
X63323629Y-45763255D01*
X63305805Y-45761008D01*
X63228515Y-45782174D01*
X63149908Y-45797810D01*
X63134969Y-45807792D01*
X63117643Y-45812537D01*
X63054332Y-45861673D01*
X62987697Y-45906197D01*
X62977717Y-45921133D01*
X62963523Y-45932149D01*
X62923833Y-46001776D01*
X62879310Y-46068408D01*
X62875805Y-46086028D01*
X62866908Y-46101636D01*
X62644658Y-46768386D01*
X62637456Y-46825517D01*
X62621100Y-46880725D01*
X62555321Y-47596214D01*
X62269093Y-47309986D01*
X62358999Y-46858000D01*
X62265751Y-46389213D01*
X62000205Y-45991794D01*
X61602786Y-45726248D01*
X61133999Y-45633000D01*
X61086001Y-45633000D01*
X60617214Y-45726248D01*
X60219795Y-45991794D01*
X59954249Y-46389213D01*
X59861001Y-46858000D01*
X59954249Y-47326787D01*
X60219795Y-47724206D01*
X60617214Y-47989752D01*
X61086001Y-48083000D01*
X61133999Y-48083000D01*
X61545951Y-48001057D01*
X61806200Y-48261307D01*
X61806200Y-48402164D01*
X61602786Y-48266248D01*
X61133999Y-48173000D01*
X61086001Y-48173000D01*
X60617214Y-48266248D01*
X60219795Y-48531794D01*
X59954249Y-48929213D01*
X59861001Y-49398000D01*
X59954249Y-49866787D01*
X60219795Y-50264206D01*
X60617214Y-50529752D01*
X61086001Y-50623000D01*
X61133999Y-50623000D01*
X61545951Y-50541057D01*
X61991620Y-50986727D01*
X61991620Y-51066058D01*
X61602786Y-50806248D01*
X61133999Y-50713000D01*
X61086001Y-50713000D01*
X60617214Y-50806248D01*
X60219795Y-51071794D01*
X59954249Y-51469213D01*
X59861001Y-51938000D01*
X59954249Y-52406787D01*
X60219795Y-52804206D01*
X60617214Y-53069752D01*
X61086001Y-53163000D01*
X61133999Y-53163000D01*
X61512004Y-53087810D01*
X62217680Y-53793486D01*
X62217680Y-53937269D01*
X62000205Y-53611794D01*
X61602786Y-53346248D01*
X61133999Y-53253000D01*
X61086001Y-53253000D01*
X60617214Y-53346248D01*
X60219795Y-53611794D01*
X59954249Y-54009213D01*
X59861001Y-54478000D01*
X59954249Y-54946787D01*
X60219795Y-55344206D01*
X60617214Y-55609752D01*
X61086001Y-55703000D01*
X61133999Y-55703000D01*
X61545951Y-55621057D01*
X61892560Y-55967667D01*
X61892560Y-56079868D01*
X61602786Y-55886248D01*
X61133999Y-55793000D01*
X61086001Y-55793000D01*
X60617214Y-55886248D01*
X60219795Y-56151794D01*
X59954249Y-56549213D01*
X59861001Y-57018000D01*
X59954249Y-57486787D01*
X60219795Y-57884206D01*
X60617214Y-58149752D01*
X61086001Y-58243000D01*
X61133999Y-58243000D01*
X61545951Y-58161057D01*
X62130506Y-58745613D01*
X62278776Y-58844684D01*
X62292718Y-58854000D01*
X62484060Y-58892060D01*
X62709454Y-58892060D01*
X62543514Y-59058000D01*
X62244895Y-59058000D01*
X62000205Y-58691794D01*
X61602786Y-58426248D01*
X61133999Y-58333000D01*
X61086001Y-58333000D01*
X60617214Y-58426248D01*
X60219795Y-58691794D01*
X59954249Y-59089213D01*
X59861001Y-59558000D01*
X59954249Y-60026787D01*
X60219795Y-60424206D01*
X60617214Y-60689752D01*
X61086001Y-60783000D01*
X61133999Y-60783000D01*
X61602786Y-60689752D01*
X62000205Y-60424206D01*
X62244895Y-60058000D01*
X62750620Y-60058000D01*
X62889373Y-60030401D01*
X61813039Y-61106734D01*
X61602786Y-60966248D01*
X61133999Y-60873000D01*
X61086001Y-60873000D01*
X60617214Y-60966248D01*
X60219795Y-61231794D01*
X59954249Y-61629213D01*
X59861001Y-62098000D01*
X59954249Y-62566787D01*
X60219795Y-62964206D01*
X60617214Y-63229752D01*
X61086001Y-63323000D01*
X61133999Y-63323000D01*
X61602786Y-63229752D01*
X61907800Y-63025949D01*
X61907800Y-63328453D01*
X61679049Y-63557205D01*
X61602786Y-63506248D01*
X61133999Y-63413000D01*
X61086001Y-63413000D01*
X60617214Y-63506248D01*
X60219795Y-63771794D01*
X59954249Y-64169213D01*
X59861001Y-64638000D01*
X59954249Y-65106787D01*
X60219795Y-65504206D01*
X60617214Y-65769752D01*
X61086001Y-65863000D01*
X61133999Y-65863000D01*
X61602786Y-65769752D01*
X62000205Y-65504206D01*
X62265751Y-65106787D01*
X62358999Y-64638000D01*
X62301505Y-64348961D01*
X62428500Y-64221967D01*
X62428500Y-67692393D01*
X61545951Y-68574943D01*
X61133999Y-68493000D01*
X61086001Y-68493000D01*
X60617214Y-68586248D01*
X60219795Y-68851794D01*
X59954249Y-69249213D01*
X59861001Y-69718000D01*
X59954249Y-70186787D01*
X60219795Y-70584206D01*
X60617214Y-70849752D01*
X61086001Y-70943000D01*
X61133999Y-70943000D01*
X61602786Y-70849752D01*
X62000205Y-70584206D01*
X62265751Y-70186787D01*
X62319556Y-69916288D01*
X64494300Y-69916288D01*
X64494300Y-70333950D01*
X64652550Y-70492200D01*
X65577300Y-70492200D01*
X65577300Y-69567450D01*
X65419050Y-69409200D01*
X65001389Y-69409200D01*
X64768735Y-69505568D01*
X64590669Y-69683634D01*
X64494300Y-69916288D01*
X62319556Y-69916288D01*
X62358999Y-69718000D01*
X62269093Y-69266014D01*
X63282053Y-68253054D01*
X63390440Y-68090842D01*
X63399716Y-68044206D01*
X63405419Y-68015534D01*
X64703146Y-68015534D01*
X65050604Y-68478254D01*
X65397971Y-68710320D01*
X65615000Y-68628226D01*
X65615000Y-67798500D01*
X64777419Y-67798500D01*
X64703146Y-68015534D01*
X63405419Y-68015534D01*
X63428500Y-67899500D01*
X63428500Y-65475534D01*
X64703146Y-65475534D01*
X65050604Y-65938254D01*
X65297952Y-66103500D01*
X65050604Y-66268746D01*
X64703146Y-66731466D01*
X64777419Y-66948500D01*
X65615000Y-66948500D01*
X65615000Y-66118774D01*
X65574621Y-66103500D01*
X65615000Y-66088226D01*
X65615000Y-65258500D01*
X64777419Y-65258500D01*
X64703146Y-65475534D01*
X63428500Y-65475534D01*
X63428500Y-64598229D01*
X63479445Y-64619383D01*
X63747977Y-64619617D01*
X63996157Y-64517071D01*
X64186203Y-64327356D01*
X64242629Y-64191466D01*
X64703146Y-64191466D01*
X64777419Y-64408500D01*
X65615000Y-64408500D01*
X65615000Y-63578774D01*
X65397971Y-63496680D01*
X65050604Y-63728746D01*
X64703146Y-64191466D01*
X64242629Y-64191466D01*
X64289183Y-64079355D01*
X64289273Y-63976633D01*
X65565856Y-62700050D01*
X65705916Y-62760398D01*
X66299815Y-62166500D01*
X66163572Y-62030257D01*
X66171671Y-61989542D01*
X66197100Y-61861700D01*
X66197100Y-61703529D01*
X66582657Y-61317972D01*
X66865500Y-61600815D01*
X67095325Y-61370990D01*
X67490331Y-61765996D01*
X67543349Y-61712978D01*
X67714028Y-61883657D01*
X67431185Y-62166500D01*
X68025084Y-62760398D01*
X68237487Y-62668880D01*
X68255085Y-62556000D01*
X68368802Y-62831215D01*
X68699047Y-63162036D01*
X68762236Y-63188274D01*
X68788075Y-63318177D01*
X68923558Y-63520942D01*
X69143952Y-63741336D01*
X69048787Y-63677749D01*
X68580000Y-63584501D01*
X68111213Y-63677749D01*
X67713794Y-63943295D01*
X67523000Y-64228839D01*
X67523000Y-63458498D01*
X67402345Y-63458498D01*
X67459398Y-63326084D01*
X66865500Y-62732185D01*
X66271602Y-63326084D01*
X66363120Y-63538487D01*
X66510685Y-63561493D01*
X66465000Y-63578774D01*
X66465000Y-64408500D01*
X66890000Y-64408500D01*
X66890000Y-65258500D01*
X66465000Y-65258500D01*
X66465000Y-66088226D01*
X66505379Y-66103500D01*
X66465000Y-66118774D01*
X66465000Y-66948500D01*
X66890000Y-66948500D01*
X66890000Y-67798500D01*
X66465000Y-67798500D01*
X66465000Y-68628226D01*
X66682029Y-68710320D01*
X66890000Y-68571380D01*
X66890000Y-68748502D01*
X67523000Y-68748502D01*
X67523000Y-67978161D01*
X67713794Y-68263705D01*
X68111213Y-68529251D01*
X68580000Y-68622499D01*
X69048787Y-68529251D01*
X69143952Y-68465664D01*
X68125358Y-69484258D01*
X67989875Y-69687023D01*
X67962268Y-69825815D01*
X67640760Y-70040639D01*
X67560300Y-70161056D01*
X67560300Y-69567198D01*
X67347495Y-69567198D01*
X67285865Y-69505568D01*
X67053211Y-69409200D01*
X66635550Y-69409200D01*
X66477300Y-69567450D01*
X66477300Y-70492200D01*
X66927300Y-70492200D01*
X66927300Y-71392200D01*
X66477300Y-71392200D01*
X66477300Y-72148316D01*
X65816498Y-72809118D01*
X65681015Y-73011883D01*
X65637841Y-73228934D01*
X64801177Y-72392270D01*
X65001389Y-72475200D01*
X65419050Y-72475200D01*
X65577300Y-72316950D01*
X65577300Y-71392200D01*
X64652550Y-71392200D01*
X64494300Y-71550450D01*
X64494300Y-71968112D01*
X64590669Y-72200766D01*
X64768735Y-72378832D01*
X64786827Y-72386326D01*
X64325312Y-72847841D01*
X64447854Y-72970383D01*
X64229520Y-73013813D01*
X64138002Y-73226216D01*
X64731900Y-73820115D01*
X65014743Y-73537272D01*
X65580428Y-74102957D01*
X65297585Y-74385800D01*
X65580428Y-74668643D01*
X65014743Y-75234328D01*
X64731900Y-74951485D01*
X64138002Y-75545384D01*
X64206110Y-75703454D01*
X63931900Y-75703454D01*
X63792934Y-75729602D01*
X63665301Y-75811731D01*
X63579677Y-75937046D01*
X63549554Y-76085800D01*
X63549554Y-76260800D01*
X61684429Y-76260800D01*
X61602786Y-76206248D01*
X61133999Y-76113000D01*
X61086001Y-76113000D01*
X60617214Y-76206248D01*
X60219795Y-76471794D01*
X60036498Y-76746119D01*
X59963823Y-76760575D01*
X59761058Y-76896058D01*
X58994058Y-77663058D01*
X58858575Y-77865823D01*
X58811000Y-78105000D01*
X58811000Y-83307116D01*
X58060946Y-84057170D01*
X57907903Y-84057036D01*
X57475885Y-84235542D01*
X57145064Y-84565787D01*
X56965804Y-84997493D01*
X56965396Y-85464937D01*
X57143902Y-85896955D01*
X57474147Y-86227776D01*
X57905853Y-86407036D01*
X58373297Y-86407444D01*
X58805315Y-86228938D01*
X59136136Y-85898693D01*
X59315396Y-85466987D01*
X59315804Y-84999543D01*
X59190237Y-84695647D01*
X59436000Y-84449884D01*
X59756058Y-84769942D01*
X59958823Y-84905425D01*
X60173627Y-84948153D01*
X59795011Y-85326108D01*
X59585239Y-85831296D01*
X59584762Y-86378305D01*
X59793652Y-86883857D01*
X60180108Y-87270989D01*
X60685296Y-87480761D01*
X61232305Y-87481238D01*
X61512399Y-87365505D01*
X62593600Y-88446706D01*
X62593600Y-90352886D01*
X62538727Y-90077021D01*
X62318609Y-89954498D01*
X61667107Y-90606000D01*
X62318609Y-91257502D01*
X62538727Y-91134979D01*
X62593600Y-90705097D01*
X62593600Y-91385293D01*
X61577510Y-92401384D01*
X61387787Y-92322604D01*
X60920343Y-92322196D01*
X60720733Y-92404673D01*
X60699222Y-92390300D01*
X60507880Y-92352240D01*
X59207899Y-92352240D01*
X58971450Y-91998370D01*
X58920924Y-91964609D01*
X60308498Y-91964609D01*
X60431021Y-92184727D01*
X61075440Y-92266985D01*
X61488979Y-92184727D01*
X61611502Y-91964609D01*
X60960000Y-91313107D01*
X60308498Y-91964609D01*
X58920924Y-91964609D01*
X58590253Y-91743662D01*
X58140600Y-91654220D01*
X57690947Y-91743662D01*
X57309750Y-91998370D01*
X57055042Y-92379567D01*
X56965600Y-92829220D01*
X56965600Y-92875260D01*
X57055042Y-93324913D01*
X57309750Y-93706110D01*
X57676315Y-93951041D01*
X57399685Y-94065342D01*
X57068864Y-94395587D01*
X56889604Y-94827293D01*
X56889196Y-95294737D01*
X55613840Y-95294737D01*
X55613840Y-90721440D01*
X59299015Y-90721440D01*
X59381273Y-91134979D01*
X59601391Y-91257502D01*
X60252893Y-90606000D01*
X59601391Y-89954498D01*
X59381273Y-90077021D01*
X59299015Y-90721440D01*
X55613840Y-90721440D01*
X55613840Y-89561997D01*
X57724563Y-89561997D01*
X57827109Y-89810177D01*
X58016824Y-90000223D01*
X58264825Y-90103203D01*
X58533357Y-90103437D01*
X58781537Y-90000891D01*
X58971583Y-89811176D01*
X59074563Y-89563175D01*
X59074653Y-89460454D01*
X59240914Y-89294193D01*
X59272185Y-89247391D01*
X60308498Y-89247391D01*
X60960000Y-89898893D01*
X61611502Y-89247391D01*
X61488979Y-89027273D01*
X60844560Y-88945015D01*
X60431021Y-89027273D01*
X60308498Y-89247391D01*
X59272185Y-89247391D01*
X59305886Y-89196954D01*
X59349300Y-89131982D01*
X59387360Y-88940640D01*
X59387360Y-87749354D01*
X59459263Y-87677576D01*
X59562243Y-87429575D01*
X59562477Y-87161043D01*
X59459931Y-86912863D01*
X59270216Y-86722817D01*
X59022215Y-86619837D01*
X58753683Y-86619603D01*
X58505503Y-86722149D01*
X58315457Y-86911864D01*
X58212477Y-87159865D01*
X58212243Y-87428397D01*
X58314789Y-87676577D01*
X58387360Y-87749275D01*
X58387360Y-88733533D01*
X58367602Y-88753292D01*
X58266003Y-88753203D01*
X58017823Y-88855749D01*
X57827777Y-89045464D01*
X57724797Y-89293465D01*
X57724563Y-89561997D01*
X55613840Y-89561997D01*
X55613840Y-74798000D01*
X59861001Y-74798000D01*
X59954249Y-75266787D01*
X60219795Y-75664206D01*
X60617214Y-75929752D01*
X61086001Y-76023000D01*
X61133999Y-76023000D01*
X61602786Y-75929752D01*
X62000205Y-75664206D01*
X62265751Y-75266787D01*
X62358999Y-74798000D01*
X62289121Y-74446697D01*
X63272096Y-74446697D01*
X63359913Y-74888180D01*
X63572316Y-74979698D01*
X64166215Y-74385800D01*
X63572316Y-73791902D01*
X63359913Y-73883420D01*
X63272096Y-74446697D01*
X62289121Y-74446697D01*
X62265751Y-74329213D01*
X62000205Y-73931794D01*
X61602786Y-73666248D01*
X61133999Y-73573000D01*
X61086001Y-73573000D01*
X60617214Y-73666248D01*
X60219795Y-73931794D01*
X59954249Y-74329213D01*
X59861001Y-74798000D01*
X55613840Y-74798000D01*
X55613840Y-72258000D01*
X59861001Y-72258000D01*
X59954249Y-72726787D01*
X60219795Y-73124206D01*
X60617214Y-73389752D01*
X61086001Y-73483000D01*
X61133999Y-73483000D01*
X61602786Y-73389752D01*
X62000205Y-73124206D01*
X62265751Y-72726787D01*
X62358999Y-72258000D01*
X62265751Y-71789213D01*
X62000205Y-71391794D01*
X61602786Y-71126248D01*
X61133999Y-71033000D01*
X61086001Y-71033000D01*
X60617214Y-71126248D01*
X60219795Y-71391794D01*
X59954249Y-71789213D01*
X59861001Y-72258000D01*
X55613840Y-72258000D01*
X55613840Y-67178000D01*
X59861001Y-67178000D01*
X59954249Y-67646787D01*
X60219795Y-68044206D01*
X60617214Y-68309752D01*
X61086001Y-68403000D01*
X61133999Y-68403000D01*
X61602786Y-68309752D01*
X62000205Y-68044206D01*
X62265751Y-67646787D01*
X62358999Y-67178000D01*
X62265751Y-66709213D01*
X62000205Y-66311794D01*
X61602786Y-66046248D01*
X61133999Y-65953000D01*
X61086001Y-65953000D01*
X60617214Y-66046248D01*
X60219795Y-66311794D01*
X59954249Y-66709213D01*
X59861001Y-67178000D01*
X55613840Y-67178000D01*
X55613840Y-44318000D01*
X59861001Y-44318000D01*
X59954249Y-44786787D01*
X60219795Y-45184206D01*
X60617214Y-45449752D01*
X61086001Y-45543000D01*
X61133999Y-45543000D01*
X61602786Y-45449752D01*
X62000205Y-45184206D01*
X62265751Y-44786787D01*
X62358999Y-44318000D01*
X62265751Y-43849213D01*
X62000205Y-43451794D01*
X61602786Y-43186248D01*
X61133999Y-43093000D01*
X61086001Y-43093000D01*
X60617214Y-43186248D01*
X60219795Y-43451794D01*
X59954249Y-43849213D01*
X59861001Y-44318000D01*
X55613840Y-44318000D01*
X55613840Y-37789177D01*
X58506883Y-37789177D01*
X58609429Y-38037357D01*
X58799144Y-38227403D01*
X59047145Y-38330383D01*
X59315677Y-38330617D01*
X59563857Y-38228071D01*
X59753903Y-38038356D01*
X59856883Y-37790355D01*
X59856973Y-37687634D01*
X60123907Y-37420699D01*
X60219795Y-37564206D01*
X60617214Y-37829752D01*
X61086001Y-37923000D01*
X61133999Y-37923000D01*
X61602786Y-37829752D01*
X62000205Y-37564206D01*
X62265751Y-37166787D01*
X62358999Y-36698000D01*
X62265751Y-36229213D01*
X62000205Y-35831794D01*
X61602786Y-35566248D01*
X61133999Y-35473000D01*
X61086001Y-35473000D01*
X60617214Y-35566248D01*
X60219795Y-35831794D01*
X59954249Y-36229213D01*
X59953082Y-36235081D01*
X59948158Y-36236060D01*
X59785946Y-36344447D01*
X59149922Y-36980472D01*
X59048323Y-36980383D01*
X58800143Y-37082929D01*
X58610097Y-37272644D01*
X58507117Y-37520645D01*
X58506883Y-37789177D01*
X55613840Y-37789177D01*
X55613840Y-33308000D01*
X59877654Y-33308000D01*
X59877654Y-35008000D01*
X59903802Y-35146966D01*
X59985931Y-35274599D01*
X60111246Y-35360223D01*
X60260000Y-35390346D01*
X61960000Y-35390346D01*
X62098966Y-35364198D01*
X62226599Y-35282069D01*
X62312223Y-35156754D01*
X62342346Y-35008000D01*
X62342346Y-33308000D01*
X62316198Y-33169034D01*
X62313838Y-33165366D01*
X63737946Y-33165366D01*
X63812219Y-33382400D01*
X64649800Y-33382400D01*
X64649800Y-32552674D01*
X64432771Y-32470580D01*
X64085404Y-32702646D01*
X63737946Y-33165366D01*
X62313838Y-33165366D01*
X62234069Y-33041401D01*
X62108754Y-32955777D01*
X61960000Y-32925654D01*
X60260000Y-32925654D01*
X60121034Y-32951802D01*
X59993401Y-33033931D01*
X59907777Y-33159246D01*
X59877654Y-33308000D01*
X55613840Y-33308000D01*
X55613840Y-29909040D01*
X55656480Y-29909040D01*
X55705112Y-29899192D01*
X55746081Y-29871199D01*
X55772931Y-29829472D01*
X55780224Y-29801718D01*
X55820772Y-29517880D01*
X81236280Y-29517880D01*
X81236280Y-104705880D01*
G36*
X72398000Y-64621506D02*
X72398000Y-70421500D01*
X72430364Y-70584206D01*
X72436060Y-70612842D01*
X72544447Y-70775053D01*
X73041498Y-71272105D01*
X73041498Y-71511616D01*
X73063805Y-71623762D01*
X73079558Y-71702958D01*
X73187945Y-71865169D01*
X73447020Y-72124245D01*
X73447020Y-72994927D01*
X73299500Y-72965054D01*
X71732300Y-72965054D01*
X71732300Y-72045243D01*
X72033840Y-71843761D01*
X72310225Y-71430121D01*
X72407279Y-70942200D01*
X72310225Y-70454279D01*
X72033840Y-70040639D01*
X71620200Y-69764254D01*
X71132279Y-69667200D01*
X71082321Y-69667200D01*
X70594400Y-69764254D01*
X70180760Y-70040639D01*
X69904375Y-70454279D01*
X69837300Y-70791486D01*
X69770225Y-70454279D01*
X69493840Y-70040639D01*
X69399668Y-69977716D01*
X70815462Y-68561922D01*
X71120000Y-68622499D01*
X71588787Y-68529251D01*
X71986206Y-68263705D01*
X72251752Y-67866286D01*
X72345000Y-67397499D01*
X72345000Y-67349501D01*
X72251752Y-66880714D01*
X71986206Y-66483295D01*
X71745000Y-66322127D01*
X71745000Y-66065846D01*
X71970000Y-66065846D01*
X72108966Y-66039698D01*
X72236599Y-65957569D01*
X72322223Y-65832254D01*
X72352346Y-65683500D01*
X72352346Y-64575852D01*
X72398000Y-64621506D01*
X72398000Y-64621506D01*
G37*
X72398000Y-64621506D02*
X72398000Y-70421500D01*
X72430364Y-70584206D01*
X72436060Y-70612842D01*
X72544447Y-70775053D01*
X73041498Y-71272105D01*
X73041498Y-71511616D01*
X73063805Y-71623762D01*
X73079558Y-71702958D01*
X73187945Y-71865169D01*
X73447020Y-72124245D01*
X73447020Y-72994927D01*
X73299500Y-72965054D01*
X71732300Y-72965054D01*
X71732300Y-72045243D01*
X72033840Y-71843761D01*
X72310225Y-71430121D01*
X72407279Y-70942200D01*
X72310225Y-70454279D01*
X72033840Y-70040639D01*
X71620200Y-69764254D01*
X71132279Y-69667200D01*
X71082321Y-69667200D01*
X70594400Y-69764254D01*
X70180760Y-70040639D01*
X69904375Y-70454279D01*
X69837300Y-70791486D01*
X69770225Y-70454279D01*
X69493840Y-70040639D01*
X69399668Y-69977716D01*
X70815462Y-68561922D01*
X71120000Y-68622499D01*
X71588787Y-68529251D01*
X71986206Y-68263705D01*
X72251752Y-67866286D01*
X72345000Y-67397499D01*
X72345000Y-67349501D01*
X72251752Y-66880714D01*
X71986206Y-66483295D01*
X71745000Y-66322127D01*
X71745000Y-66065846D01*
X71970000Y-66065846D01*
X72108966Y-66039698D01*
X72236599Y-65957569D01*
X72322223Y-65832254D01*
X72352346Y-65683500D01*
X72352346Y-64575852D01*
X72398000Y-64621506D01*
G36*
X63990614Y-54906596D02*
X64107367Y-54986371D01*
X64255691Y-55018547D01*
X64404847Y-54990481D01*
X64531332Y-54906596D01*
X64708109Y-54729819D01*
X64782501Y-54620944D01*
X64884885Y-54553043D01*
X65061660Y-54376268D01*
X65238900Y-54553507D01*
X65520540Y-54271867D01*
X67101226Y-55852553D01*
X67101229Y-55852555D01*
X68066427Y-56817753D01*
X68228638Y-56926140D01*
X68304130Y-56941156D01*
X69438386Y-58075413D01*
X68287863Y-59135381D01*
X68264789Y-59135381D01*
X68075384Y-59324785D01*
X68006186Y-59337806D01*
X67911677Y-59400485D01*
X67969864Y-59315326D01*
X67986984Y-59236409D01*
X68176400Y-59046992D01*
X68176400Y-58958604D01*
X68309161Y-58825843D01*
X67861562Y-58378245D01*
X67602514Y-58637293D01*
X67536536Y-58537808D01*
X67448148Y-58449420D01*
X67836274Y-58061294D01*
X67944660Y-57899083D01*
X67982720Y-57707741D01*
X67982720Y-57503060D01*
X67944660Y-57311718D01*
X67920595Y-57275703D01*
X67836273Y-57149506D01*
X67781828Y-57095062D01*
X67781917Y-56993463D01*
X67679371Y-56745283D01*
X67489656Y-56555237D01*
X67241655Y-56452257D01*
X66973123Y-56452023D01*
X66724943Y-56554569D01*
X66534897Y-56744284D01*
X66431917Y-56992285D01*
X66431683Y-57260817D01*
X66534229Y-57508997D01*
X66723944Y-57699043D01*
X66766599Y-57716755D01*
X66741041Y-57742313D01*
X66652652Y-57653924D01*
X66543777Y-57579532D01*
X66475876Y-57477148D01*
X66299099Y-57300371D01*
X66190224Y-57225979D01*
X66122322Y-57123594D01*
X65945545Y-56946817D01*
X65836670Y-56872425D01*
X65768769Y-56770041D01*
X65591992Y-56593264D01*
X65483117Y-56518872D01*
X65415216Y-56416488D01*
X65238439Y-56239711D01*
X65129564Y-56165319D01*
X65061662Y-56062934D01*
X64884885Y-55886157D01*
X64776010Y-55811765D01*
X64708109Y-55709381D01*
X64531332Y-55532604D01*
X64414579Y-55452829D01*
X64266255Y-55420653D01*
X64117099Y-55448719D01*
X63990614Y-55532604D01*
X63884548Y-55638671D01*
X63217680Y-54971803D01*
X63217680Y-54133662D01*
X63990614Y-54906596D01*
X63990614Y-54906596D01*
G37*
X63990614Y-54906596D02*
X64107367Y-54986371D01*
X64255691Y-55018547D01*
X64404847Y-54990481D01*
X64531332Y-54906596D01*
X64708109Y-54729819D01*
X64782501Y-54620944D01*
X64884885Y-54553043D01*
X65061660Y-54376268D01*
X65238900Y-54553507D01*
X65520540Y-54271867D01*
X67101226Y-55852553D01*
X67101229Y-55852555D01*
X68066427Y-56817753D01*
X68228638Y-56926140D01*
X68304130Y-56941156D01*
X69438386Y-58075413D01*
X68287863Y-59135381D01*
X68264789Y-59135381D01*
X68075384Y-59324785D01*
X68006186Y-59337806D01*
X67911677Y-59400485D01*
X67969864Y-59315326D01*
X67986984Y-59236409D01*
X68176400Y-59046992D01*
X68176400Y-58958604D01*
X68309161Y-58825843D01*
X67861562Y-58378245D01*
X67602514Y-58637293D01*
X67536536Y-58537808D01*
X67448148Y-58449420D01*
X67836274Y-58061294D01*
X67944660Y-57899083D01*
X67982720Y-57707741D01*
X67982720Y-57503060D01*
X67944660Y-57311718D01*
X67920595Y-57275703D01*
X67836273Y-57149506D01*
X67781828Y-57095062D01*
X67781917Y-56993463D01*
X67679371Y-56745283D01*
X67489656Y-56555237D01*
X67241655Y-56452257D01*
X66973123Y-56452023D01*
X66724943Y-56554569D01*
X66534897Y-56744284D01*
X66431917Y-56992285D01*
X66431683Y-57260817D01*
X66534229Y-57508997D01*
X66723944Y-57699043D01*
X66766599Y-57716755D01*
X66741041Y-57742313D01*
X66652652Y-57653924D01*
X66543777Y-57579532D01*
X66475876Y-57477148D01*
X66299099Y-57300371D01*
X66190224Y-57225979D01*
X66122322Y-57123594D01*
X65945545Y-56946817D01*
X65836670Y-56872425D01*
X65768769Y-56770041D01*
X65591992Y-56593264D01*
X65483117Y-56518872D01*
X65415216Y-56416488D01*
X65238439Y-56239711D01*
X65129564Y-56165319D01*
X65061662Y-56062934D01*
X64884885Y-55886157D01*
X64776010Y-55811765D01*
X64708109Y-55709381D01*
X64531332Y-55532604D01*
X64414579Y-55452829D01*
X64266255Y-55420653D01*
X64117099Y-55448719D01*
X63990614Y-55532604D01*
X63884548Y-55638671D01*
X63217680Y-54971803D01*
X63217680Y-54133662D01*
X63990614Y-54906596D01*
G36*
X68745480Y-55300880D02*
X68776972Y-55459202D01*
X68783540Y-55492222D01*
X68891927Y-55654433D01*
X69090047Y-55852553D01*
X69252258Y-55960940D01*
X69443600Y-55999000D01*
X70715250Y-55999000D01*
X70715250Y-56899047D01*
X70174460Y-57397273D01*
X68887833Y-56110647D01*
X68725622Y-56002260D01*
X68650130Y-55987244D01*
X67808335Y-55145449D01*
X67808333Y-55145446D01*
X67092595Y-54429708D01*
X67103418Y-54436940D01*
X67294760Y-54475000D01*
X67744366Y-54475000D01*
X67816144Y-54546903D01*
X68064145Y-54649883D01*
X68332677Y-54650117D01*
X68580857Y-54547571D01*
X68745480Y-54383235D01*
X68745480Y-55300880D01*
X68745480Y-55300880D01*
G37*
X68745480Y-55300880D02*
X68776972Y-55459202D01*
X68783540Y-55492222D01*
X68891927Y-55654433D01*
X69090047Y-55852553D01*
X69252258Y-55960940D01*
X69443600Y-55999000D01*
X70715250Y-55999000D01*
X70715250Y-56899047D01*
X70174460Y-57397273D01*
X68887833Y-56110647D01*
X68725622Y-56002260D01*
X68650130Y-55987244D01*
X67808335Y-55145449D01*
X67808333Y-55145446D01*
X67092595Y-54429708D01*
X67103418Y-54436940D01*
X67294760Y-54475000D01*
X67744366Y-54475000D01*
X67816144Y-54546903D01*
X68064145Y-54649883D01*
X68332677Y-54650117D01*
X68580857Y-54547571D01*
X68745480Y-54383235D01*
X68745480Y-55300880D01*
G36*
X69958838Y-52060955D02*
X70023893Y-51995900D01*
X70343140Y-52315147D01*
X70343140Y-53973633D01*
X70206542Y-54110232D01*
X70104943Y-54110143D01*
X69856763Y-54212689D01*
X69745480Y-54323778D01*
X69745480Y-51847597D01*
X69958838Y-52060955D01*
X69958838Y-52060955D01*
G37*
X69958838Y-52060955D02*
X70023893Y-51995900D01*
X70343140Y-52315147D01*
X70343140Y-53973633D01*
X70206542Y-54110232D01*
X70104943Y-54110143D01*
X69856763Y-54212689D01*
X69745480Y-54323778D01*
X69745480Y-51847597D01*
X69958838Y-52060955D01*
G36*
X64640327Y-51393098D02*
X64420070Y-51613354D01*
X64552831Y-51746115D01*
X64552831Y-51834503D01*
X64742237Y-52023909D01*
X64755257Y-52093105D01*
X64817936Y-52187614D01*
X64732777Y-52129427D01*
X64653857Y-52112307D01*
X64464442Y-51922892D01*
X64376054Y-51922892D01*
X64308835Y-51855673D01*
X64307940Y-51223582D01*
X64364003Y-51167616D01*
X64374671Y-51141926D01*
X64640327Y-51393098D01*
X64640327Y-51393098D01*
G37*
X64640327Y-51393098D02*
X64420070Y-51613354D01*
X64552831Y-51746115D01*
X64552831Y-51834503D01*
X64742237Y-52023909D01*
X64755257Y-52093105D01*
X64817936Y-52187614D01*
X64732777Y-52129427D01*
X64653857Y-52112307D01*
X64464442Y-51922892D01*
X64376054Y-51922892D01*
X64308835Y-51855673D01*
X64307940Y-51223582D01*
X64364003Y-51167616D01*
X64374671Y-51141926D01*
X64640327Y-51393098D01*
G36*
X65286000Y-47604629D02*
X65286000Y-47761685D01*
X65081685Y-47966000D01*
X65286000Y-48170315D01*
X65286000Y-48177900D01*
X65171386Y-48358007D01*
X64756854Y-48772540D01*
X64516000Y-48531685D01*
X64233157Y-48814528D01*
X63667472Y-48248843D01*
X63950315Y-47966000D01*
X63667472Y-47683157D01*
X64233157Y-47117472D01*
X64516000Y-47400315D01*
X64798843Y-47117472D01*
X65286000Y-47604629D01*
X65286000Y-47604629D01*
G37*
X65286000Y-47604629D02*
X65286000Y-47761685D01*
X65081685Y-47966000D01*
X65286000Y-48170315D01*
X65286000Y-48177900D01*
X65171386Y-48358007D01*
X64756854Y-48772540D01*
X64516000Y-48531685D01*
X64233157Y-48814528D01*
X63667472Y-48248843D01*
X63950315Y-47966000D01*
X63667472Y-47683157D01*
X64233157Y-47117472D01*
X64516000Y-47400315D01*
X64798843Y-47117472D01*
X65286000Y-47604629D01*
G36*
X67627500Y-47400315D02*
X67855315Y-47172500D01*
X67965371Y-47172500D01*
X68476028Y-47683157D01*
X68193185Y-47966000D01*
X68476028Y-48248843D01*
X68075871Y-48649000D01*
X67744815Y-48649000D01*
X67627500Y-48531685D01*
X67510185Y-48649000D01*
X67179129Y-48649000D01*
X66778972Y-48248843D01*
X67061815Y-47966000D01*
X66778972Y-47683157D01*
X67289629Y-47172500D01*
X67399685Y-47172500D01*
X67627500Y-47400315D01*
X67627500Y-47400315D01*
G37*
X67627500Y-47400315D02*
X67855315Y-47172500D01*
X67965371Y-47172500D01*
X68476028Y-47683157D01*
X68193185Y-47966000D01*
X68476028Y-48248843D01*
X68075871Y-48649000D01*
X67744815Y-48649000D01*
X67627500Y-48531685D01*
X67510185Y-48649000D01*
X67179129Y-48649000D01*
X66778972Y-48248843D01*
X67061815Y-47966000D01*
X66778972Y-47683157D01*
X67289629Y-47172500D01*
X67399685Y-47172500D01*
X67627500Y-47400315D01*
G36*
X75013180Y-36055971D02*
X75095274Y-36273000D01*
X75925000Y-36273000D01*
X75925000Y-35933000D01*
X76775000Y-35933000D01*
X76775000Y-36273000D01*
X77200000Y-36273000D01*
X77200000Y-37123000D01*
X76775000Y-37123000D01*
X76775000Y-37548000D01*
X75925000Y-37548000D01*
X75925000Y-37123000D01*
X75095274Y-37123000D01*
X75013180Y-37340029D01*
X75152120Y-37548000D01*
X74974998Y-37548000D01*
X74974998Y-38181000D01*
X75745339Y-38181000D01*
X75459795Y-38371794D01*
X75194249Y-38769213D01*
X75101001Y-39238000D01*
X75194249Y-39706787D01*
X75459795Y-40104206D01*
X75857214Y-40369752D01*
X76326001Y-40463000D01*
X76373999Y-40463000D01*
X76842786Y-40369752D01*
X77224000Y-40115034D01*
X77224000Y-40900966D01*
X76842786Y-40646248D01*
X76373999Y-40553000D01*
X76326001Y-40553000D01*
X75857214Y-40646248D01*
X75459795Y-40911794D01*
X75194249Y-41309213D01*
X75101001Y-41778000D01*
X75194249Y-42246787D01*
X75357013Y-42490381D01*
X74195447Y-43651947D01*
X74087060Y-43814158D01*
X74049000Y-44005500D01*
X74049000Y-44487040D01*
X74032453Y-44470464D01*
X73600747Y-44291204D01*
X73133303Y-44290796D01*
X72701285Y-44469302D01*
X72370464Y-44799547D01*
X72258828Y-45068396D01*
X72237987Y-44963620D01*
X72025584Y-44872102D01*
X71431685Y-45466000D01*
X72025584Y-46059898D01*
X72237987Y-45968380D01*
X72255585Y-45855500D01*
X72369302Y-46130715D01*
X72699547Y-46461536D01*
X73131253Y-46640796D01*
X73428838Y-46641056D01*
X72417447Y-47652447D01*
X72309060Y-47814658D01*
X72275393Y-47983915D01*
X72056812Y-47893152D01*
X71874000Y-47892993D01*
X71874000Y-46926500D01*
X71835940Y-46735158D01*
X71794073Y-46672500D01*
X71727553Y-46572946D01*
X71473553Y-46318947D01*
X71311342Y-46210560D01*
X71120000Y-46172500D01*
X71006815Y-46172500D01*
X70866000Y-46031685D01*
X70725185Y-46172500D01*
X70441129Y-46172500D01*
X70017472Y-45748843D01*
X70300315Y-45466000D01*
X70017472Y-45183157D01*
X70583157Y-44617472D01*
X70866000Y-44900315D01*
X71459898Y-44306416D01*
X71368380Y-44094013D01*
X71270492Y-44078752D01*
X71350383Y-43886355D01*
X71350473Y-43783634D01*
X72195176Y-42938931D01*
X72189798Y-42965969D01*
X72227858Y-43157311D01*
X72336245Y-43319522D01*
X72498456Y-43427909D01*
X72689798Y-43465969D01*
X72731031Y-43465969D01*
X72922373Y-43427909D01*
X73084584Y-43319522D01*
X73192971Y-43157311D01*
X73231031Y-42965969D01*
X73192971Y-42774627D01*
X73084584Y-42612416D01*
X73013612Y-42564994D01*
X73251553Y-42327053D01*
X73359940Y-42164842D01*
X73363727Y-42145804D01*
X73398000Y-41973500D01*
X73398000Y-38862000D01*
X73378182Y-38762365D01*
X73772588Y-38367959D01*
X73650046Y-38245417D01*
X73868380Y-38201987D01*
X73959898Y-37989584D01*
X73366000Y-37395685D01*
X73083157Y-37678528D01*
X72517472Y-37112843D01*
X72800315Y-36830000D01*
X72517472Y-36547157D01*
X73083157Y-35981472D01*
X73366000Y-36264315D01*
X73648843Y-35981472D01*
X74214528Y-36547157D01*
X73931685Y-36830000D01*
X74525584Y-37423898D01*
X74737987Y-37332380D01*
X74773293Y-37105922D01*
X74903959Y-37236588D01*
X75369677Y-36770870D01*
X74531807Y-35933000D01*
X75095333Y-35933000D01*
X75013180Y-36055971D01*
X75013180Y-36055971D01*
G37*
X75013180Y-36055971D02*
X75095274Y-36273000D01*
X75925000Y-36273000D01*
X75925000Y-35933000D01*
X76775000Y-35933000D01*
X76775000Y-36273000D01*
X77200000Y-36273000D01*
X77200000Y-37123000D01*
X76775000Y-37123000D01*
X76775000Y-37548000D01*
X75925000Y-37548000D01*
X75925000Y-37123000D01*
X75095274Y-37123000D01*
X75013180Y-37340029D01*
X75152120Y-37548000D01*
X74974998Y-37548000D01*
X74974998Y-38181000D01*
X75745339Y-38181000D01*
X75459795Y-38371794D01*
X75194249Y-38769213D01*
X75101001Y-39238000D01*
X75194249Y-39706787D01*
X75459795Y-40104206D01*
X75857214Y-40369752D01*
X76326001Y-40463000D01*
X76373999Y-40463000D01*
X76842786Y-40369752D01*
X77224000Y-40115034D01*
X77224000Y-40900966D01*
X76842786Y-40646248D01*
X76373999Y-40553000D01*
X76326001Y-40553000D01*
X75857214Y-40646248D01*
X75459795Y-40911794D01*
X75194249Y-41309213D01*
X75101001Y-41778000D01*
X75194249Y-42246787D01*
X75357013Y-42490381D01*
X74195447Y-43651947D01*
X74087060Y-43814158D01*
X74049000Y-44005500D01*
X74049000Y-44487040D01*
X74032453Y-44470464D01*
X73600747Y-44291204D01*
X73133303Y-44290796D01*
X72701285Y-44469302D01*
X72370464Y-44799547D01*
X72258828Y-45068396D01*
X72237987Y-44963620D01*
X72025584Y-44872102D01*
X71431685Y-45466000D01*
X72025584Y-46059898D01*
X72237987Y-45968380D01*
X72255585Y-45855500D01*
X72369302Y-46130715D01*
X72699547Y-46461536D01*
X73131253Y-46640796D01*
X73428838Y-46641056D01*
X72417447Y-47652447D01*
X72309060Y-47814658D01*
X72275393Y-47983915D01*
X72056812Y-47893152D01*
X71874000Y-47892993D01*
X71874000Y-46926500D01*
X71835940Y-46735158D01*
X71794073Y-46672500D01*
X71727553Y-46572946D01*
X71473553Y-46318947D01*
X71311342Y-46210560D01*
X71120000Y-46172500D01*
X71006815Y-46172500D01*
X70866000Y-46031685D01*
X70725185Y-46172500D01*
X70441129Y-46172500D01*
X70017472Y-45748843D01*
X70300315Y-45466000D01*
X70017472Y-45183157D01*
X70583157Y-44617472D01*
X70866000Y-44900315D01*
X71459898Y-44306416D01*
X71368380Y-44094013D01*
X71270492Y-44078752D01*
X71350383Y-43886355D01*
X71350473Y-43783634D01*
X72195176Y-42938931D01*
X72189798Y-42965969D01*
X72227858Y-43157311D01*
X72336245Y-43319522D01*
X72498456Y-43427909D01*
X72689798Y-43465969D01*
X72731031Y-43465969D01*
X72922373Y-43427909D01*
X73084584Y-43319522D01*
X73192971Y-43157311D01*
X73231031Y-42965969D01*
X73192971Y-42774627D01*
X73084584Y-42612416D01*
X73013612Y-42564994D01*
X73251553Y-42327053D01*
X73359940Y-42164842D01*
X73363727Y-42145804D01*
X73398000Y-41973500D01*
X73398000Y-38862000D01*
X73378182Y-38762365D01*
X73772588Y-38367959D01*
X73650046Y-38245417D01*
X73868380Y-38201987D01*
X73959898Y-37989584D01*
X73366000Y-37395685D01*
X73083157Y-37678528D01*
X72517472Y-37112843D01*
X72800315Y-36830000D01*
X72517472Y-36547157D01*
X73083157Y-35981472D01*
X73366000Y-36264315D01*
X73648843Y-35981472D01*
X74214528Y-36547157D01*
X73931685Y-36830000D01*
X74525584Y-37423898D01*
X74737987Y-37332380D01*
X74773293Y-37105922D01*
X74903959Y-37236588D01*
X75369677Y-36770870D01*
X74531807Y-35933000D01*
X75095333Y-35933000D01*
X75013180Y-36055971D01*
G36*
X68118528Y-36547157D02*
X67835685Y-36830000D01*
X68429584Y-37423898D01*
X68641987Y-37332380D01*
X68677293Y-37105922D01*
X68807959Y-37236588D01*
X68873921Y-37170627D01*
X68886847Y-37183553D01*
X69049058Y-37291940D01*
X69240400Y-37330000D01*
X69801243Y-37330000D01*
X69869302Y-37494715D01*
X70199547Y-37825536D01*
X70631253Y-38004796D01*
X71098697Y-38005204D01*
X71265271Y-37936377D01*
X72398000Y-39069106D01*
X72398000Y-40327186D01*
X72139093Y-40067828D01*
X71725758Y-39896196D01*
X71278205Y-39895805D01*
X70864571Y-40066715D01*
X70547828Y-40382907D01*
X70376196Y-40796242D01*
X70375805Y-41243795D01*
X70432905Y-41381988D01*
X69160757Y-42654136D01*
X69089071Y-42480643D01*
X68899356Y-42290597D01*
X68826000Y-42260137D01*
X68826000Y-40386000D01*
X68787940Y-40194658D01*
X68679553Y-40032446D01*
X67345827Y-38698720D01*
X67676588Y-38367959D01*
X67554046Y-38245417D01*
X67772380Y-38201987D01*
X67863898Y-37989584D01*
X67270000Y-37395685D01*
X66987157Y-37678528D01*
X66421472Y-37112843D01*
X66704315Y-36830000D01*
X66421472Y-36547157D01*
X66987157Y-35981472D01*
X67270000Y-36264315D01*
X67552843Y-35981472D01*
X68118528Y-36547157D01*
X68118528Y-36547157D01*
G37*
X68118528Y-36547157D02*
X67835685Y-36830000D01*
X68429584Y-37423898D01*
X68641987Y-37332380D01*
X68677293Y-37105922D01*
X68807959Y-37236588D01*
X68873921Y-37170627D01*
X68886847Y-37183553D01*
X69049058Y-37291940D01*
X69240400Y-37330000D01*
X69801243Y-37330000D01*
X69869302Y-37494715D01*
X70199547Y-37825536D01*
X70631253Y-38004796D01*
X71098697Y-38005204D01*
X71265271Y-37936377D01*
X72398000Y-39069106D01*
X72398000Y-40327186D01*
X72139093Y-40067828D01*
X71725758Y-39896196D01*
X71278205Y-39895805D01*
X70864571Y-40066715D01*
X70547828Y-40382907D01*
X70376196Y-40796242D01*
X70375805Y-41243795D01*
X70432905Y-41381988D01*
X69160757Y-42654136D01*
X69089071Y-42480643D01*
X68899356Y-42290597D01*
X68826000Y-42260137D01*
X68826000Y-40386000D01*
X68787940Y-40194658D01*
X68679553Y-40032446D01*
X67345827Y-38698720D01*
X67676588Y-38367959D01*
X67554046Y-38245417D01*
X67772380Y-38201987D01*
X67863898Y-37989584D01*
X67270000Y-37395685D01*
X66987157Y-37678528D01*
X66421472Y-37112843D01*
X66704315Y-36830000D01*
X66421472Y-36547157D01*
X66987157Y-35981472D01*
X67270000Y-36264315D01*
X67552843Y-35981472D01*
X68118528Y-36547157D01*
M02*
