M48
;DRILL file {KiCad 4.0.7} date 10/08/18 12:12:54
;FORMAT={-:-/ absolute / metric / decimal}
FMAT,2
METRIC,TZ
T1C0.400
T2C0.500
T3C0.800
T4C0.810
T5C0.900
T6C1.000
T7C1.100
T8C2.300
%
G90
G05
M71
T1
X58.4Y-89.428
X58.887Y-87.295
X59.182Y-37.655
X63.055Y-62.293
X63.691Y-63.627
X64.105Y-50.945
X64.823Y-51.493
X65.176Y-40.437
X67.361Y-57.099
X68.199Y-53.975
X68.516Y-42.862
X68.529Y-54.762
X68.58Y-58.483
X69.025Y-52.07
X69.215Y-50.101
X69.342Y-40.894
X69.342Y-44.196
X69.659Y-48.895
X70.206Y-78.435
X70.333Y-52.852
X70.675Y-43.752
X70.675Y-47.561
X70.866Y-69.139
X71.425Y-54.61
X72.263Y-56.197
X72.339Y-88.29
X72.517Y-50.482
X72.517Y-54.292
X72.707Y-62.928
X73.279Y-61.658
X73.85Y-60.325
X74.295Y-58.991
X74.739Y-51.689
X74.739Y-57.594
X77.729Y-32.273
X78.435Y-42.103
T2
X71.882Y-48.768
X73.782Y-48.768
T3
X58.064Y-95.062
X58.064Y-102.682
X58.141Y-85.232
X58.141Y-92.852
X61.153Y-93.497
X63.653Y-93.497
X64.516Y-45.466
X64.516Y-47.966
X64.709Y-80.076
X64.709Y-82.576
X64.732Y-74.386
X64.732Y-76.886
X64.77Y-36.83
X66.621Y-41.021
X66.865Y-62.166
X67.27Y-36.83
X67.627Y-45.466
X67.627Y-47.966
X69.365Y-62.166
X70.485Y-85.217
X70.485Y-92.837
X70.866Y-36.83
X70.866Y-45.466
X71.501Y-41.021
X73.366Y-36.83
X73.366Y-45.466
X73.533Y-85.09
X73.533Y-92.71
X76.835Y-85.471
X76.835Y-93.091
T4
X71.415Y-96.586
X71.415Y-98.586
X73.955Y-96.586
X73.955Y-98.586
T5
X62.22Y-97.932
X62.22Y-100.472
T6
X61.11Y-34.158
X61.11Y-36.698
X61.11Y-39.238
X61.11Y-41.778
X61.11Y-44.318
X61.11Y-46.858
X61.11Y-49.398
X61.11Y-51.938
X61.11Y-54.478
X61.11Y-57.018
X61.11Y-59.558
X61.11Y-62.098
X61.11Y-64.638
X61.11Y-67.178
X61.11Y-69.718
X61.11Y-72.258
X61.11Y-74.798
X61.11Y-77.338
X61.11Y-79.878
X61.11Y-82.418
X64.77Y-33.528
X66.027Y-70.942
X66.04Y-64.834
X66.04Y-67.373
X67.31Y-33.528
X68.567Y-70.942
X68.58Y-64.834
X68.58Y-67.373
X69.85Y-33.528
X71.107Y-70.942
X71.12Y-64.834
X71.12Y-67.373
X72.39Y-33.528
X76.35Y-34.158
X76.35Y-36.698
X76.35Y-39.238
X76.35Y-41.778
X76.35Y-44.318
X76.35Y-46.858
X76.35Y-49.398
X76.35Y-51.938
X76.35Y-54.478
X76.35Y-57.018
X76.35Y-59.558
X76.35Y-62.098
X76.35Y-64.638
X76.35Y-67.178
X76.35Y-69.718
X76.35Y-72.258
X76.35Y-74.798
X76.35Y-77.338
X76.35Y-79.878
X76.35Y-82.418
T7
X60.96Y-86.106
X60.96Y-90.606
X67.46Y-86.106
X67.46Y-90.606
X69.05Y-74.587
X69.05Y-82.207
X72.2Y-74.447
X72.2Y-82.067
T8
X66.685Y-101.286
X78.685Y-101.286
T0
M30
