G04 #@! TF.FileFunction,Legend,Top*
%FSLAX46Y46*%
G04 Gerber Fmt 4.6, Leading zero omitted, Abs format (unit mm)*
G04 Created by KiCad (PCBNEW 4.0.7) date 10/16/19 18:47:00*
%MOMM*%
%LPD*%
G01*
G04 APERTURE LIST*
%ADD10C,0.100000*%
%ADD11C,0.150000*%
%ADD12C,0.120000*%
G04 APERTURE END LIST*
D10*
D11*
X73458439Y-67594171D02*
X73601296Y-67641790D01*
X73648915Y-67689410D01*
X73696534Y-67784648D01*
X73696534Y-67927505D01*
X73648915Y-68022743D01*
X73601296Y-68070362D01*
X73506058Y-68117981D01*
X73125105Y-68117981D01*
X73125105Y-67117981D01*
X73458439Y-67117981D01*
X73553677Y-67165600D01*
X73601296Y-67213219D01*
X73648915Y-67308457D01*
X73648915Y-67403695D01*
X73601296Y-67498933D01*
X73553677Y-67546552D01*
X73458439Y-67594171D01*
X73125105Y-67594171D01*
X74648915Y-68117981D02*
X74077486Y-68117981D01*
X74363200Y-68117981D02*
X74363200Y-67117981D01*
X74267962Y-67260838D01*
X74172724Y-67356076D01*
X74077486Y-67403695D01*
X73356839Y-64495371D02*
X73499696Y-64542990D01*
X73547315Y-64590610D01*
X73594934Y-64685848D01*
X73594934Y-64828705D01*
X73547315Y-64923943D01*
X73499696Y-64971562D01*
X73404458Y-65019181D01*
X73023505Y-65019181D01*
X73023505Y-64019181D01*
X73356839Y-64019181D01*
X73452077Y-64066800D01*
X73499696Y-64114419D01*
X73547315Y-64209657D01*
X73547315Y-64304895D01*
X73499696Y-64400133D01*
X73452077Y-64447752D01*
X73356839Y-64495371D01*
X73023505Y-64495371D01*
X74213981Y-64019181D02*
X74309220Y-64019181D01*
X74404458Y-64066800D01*
X74452077Y-64114419D01*
X74499696Y-64209657D01*
X74547315Y-64400133D01*
X74547315Y-64638229D01*
X74499696Y-64828705D01*
X74452077Y-64923943D01*
X74404458Y-64971562D01*
X74309220Y-65019181D01*
X74213981Y-65019181D01*
X74118743Y-64971562D01*
X74071124Y-64923943D01*
X74023505Y-64828705D01*
X73975886Y-64638229D01*
X73975886Y-64400133D01*
X74023505Y-64209657D01*
X74071124Y-64114419D01*
X74118743Y-64066800D01*
X74213981Y-64019181D01*
X64419124Y-68016381D02*
X63942933Y-68016381D01*
X63942933Y-67016381D01*
X71291486Y-63190381D02*
X71291486Y-62190381D01*
X71291486Y-62666571D02*
X71862915Y-62666571D01*
X71862915Y-63190381D02*
X71862915Y-62190381D01*
X68222762Y-31740314D02*
X68270381Y-31597457D01*
X68270381Y-31359361D01*
X68222762Y-31264123D01*
X68175143Y-31216504D01*
X68079905Y-31168885D01*
X67984667Y-31168885D01*
X67889429Y-31216504D01*
X67841810Y-31264123D01*
X67794190Y-31359361D01*
X67746571Y-31549838D01*
X67698952Y-31645076D01*
X67651333Y-31692695D01*
X67556095Y-31740314D01*
X67460857Y-31740314D01*
X67365619Y-31692695D01*
X67318000Y-31645076D01*
X67270381Y-31549838D01*
X67270381Y-31311742D01*
X67318000Y-31168885D01*
X68175143Y-30168885D02*
X68222762Y-30216504D01*
X68270381Y-30359361D01*
X68270381Y-30454599D01*
X68222762Y-30597457D01*
X68127524Y-30692695D01*
X68032286Y-30740314D01*
X67841810Y-30787933D01*
X67698952Y-30787933D01*
X67508476Y-30740314D01*
X67413238Y-30692695D01*
X67318000Y-30597457D01*
X67270381Y-30454599D01*
X67270381Y-30359361D01*
X67318000Y-30216504D01*
X67365619Y-30168885D01*
X68270381Y-29740314D02*
X67270381Y-29740314D01*
X68270381Y-29168885D02*
X67698952Y-29597457D01*
X67270381Y-29168885D02*
X67841810Y-29740314D01*
X70635762Y-31451419D02*
X70683381Y-31308562D01*
X70683381Y-31070466D01*
X70635762Y-30975228D01*
X70588143Y-30927609D01*
X70492905Y-30879990D01*
X70397667Y-30879990D01*
X70302429Y-30927609D01*
X70254810Y-30975228D01*
X70207190Y-31070466D01*
X70159571Y-31260943D01*
X70111952Y-31356181D01*
X70064333Y-31403800D01*
X69969095Y-31451419D01*
X69873857Y-31451419D01*
X69778619Y-31403800D01*
X69731000Y-31356181D01*
X69683381Y-31260943D01*
X69683381Y-31022847D01*
X69731000Y-30879990D01*
X70683381Y-30451419D02*
X69683381Y-30451419D01*
X69683381Y-29784753D02*
X69683381Y-29594276D01*
X69731000Y-29499038D01*
X69826238Y-29403800D01*
X70016714Y-29356181D01*
X70350048Y-29356181D01*
X70540524Y-29403800D01*
X70635762Y-29499038D01*
X70683381Y-29594276D01*
X70683381Y-29784753D01*
X70635762Y-29879991D01*
X70540524Y-29975229D01*
X70350048Y-30022848D01*
X70016714Y-30022848D01*
X69826238Y-29975229D01*
X69731000Y-29879991D01*
X69683381Y-29784753D01*
X64676400Y-31267304D02*
X64628781Y-31362542D01*
X64628781Y-31505399D01*
X64676400Y-31648257D01*
X64771638Y-31743495D01*
X64866876Y-31791114D01*
X65057352Y-31838733D01*
X65200210Y-31838733D01*
X65390686Y-31791114D01*
X65485924Y-31743495D01*
X65581162Y-31648257D01*
X65628781Y-31505399D01*
X65628781Y-31410161D01*
X65581162Y-31267304D01*
X65533543Y-31219685D01*
X65200210Y-31219685D01*
X65200210Y-31410161D01*
X65628781Y-30791114D02*
X64628781Y-30791114D01*
X65628781Y-30219685D01*
X64628781Y-30219685D01*
X65628781Y-29743495D02*
X64628781Y-29743495D01*
X64628781Y-29505400D01*
X64676400Y-29362542D01*
X64771638Y-29267304D01*
X64866876Y-29219685D01*
X65057352Y-29172066D01*
X65200210Y-29172066D01*
X65390686Y-29219685D01*
X65485924Y-29267304D01*
X65581162Y-29362542D01*
X65628781Y-29505400D01*
X65628781Y-29743495D01*
X72324981Y-31768895D02*
X72324981Y-31149847D01*
X72705933Y-31483181D01*
X72705933Y-31340323D01*
X72753552Y-31245085D01*
X72801171Y-31197466D01*
X72896410Y-31149847D01*
X73134505Y-31149847D01*
X73229743Y-31197466D01*
X73277362Y-31245085D01*
X73324981Y-31340323D01*
X73324981Y-31626038D01*
X73277362Y-31721276D01*
X73229743Y-31768895D01*
X72324981Y-30864133D02*
X73324981Y-30530800D01*
X72324981Y-30197466D01*
X72324981Y-29959371D02*
X72324981Y-29340323D01*
X72705933Y-29673657D01*
X72705933Y-29530799D01*
X72753552Y-29435561D01*
X72801171Y-29387942D01*
X72896410Y-29340323D01*
X73134505Y-29340323D01*
X73229743Y-29387942D01*
X73277362Y-29435561D01*
X73324981Y-29530799D01*
X73324981Y-29816514D01*
X73277362Y-29911752D01*
X73229743Y-29959371D01*
X77908305Y-33640781D02*
X78527353Y-33640781D01*
X78194019Y-34021733D01*
X78336877Y-34021733D01*
X78432115Y-34069352D01*
X78479734Y-34116971D01*
X78527353Y-34212210D01*
X78527353Y-34450305D01*
X78479734Y-34545543D01*
X78432115Y-34593162D01*
X78336877Y-34640781D01*
X78051162Y-34640781D01*
X77955924Y-34593162D01*
X77908305Y-34545543D01*
X78813067Y-33640781D02*
X79146400Y-34640781D01*
X79479734Y-33640781D01*
X79717829Y-33640781D02*
X80336877Y-33640781D01*
X80003543Y-34021733D01*
X80146401Y-34021733D01*
X80241639Y-34069352D01*
X80289258Y-34116971D01*
X80336877Y-34212210D01*
X80336877Y-34450305D01*
X80289258Y-34545543D01*
X80241639Y-34593162D01*
X80146401Y-34640781D01*
X79860686Y-34640781D01*
X79765448Y-34593162D01*
X79717829Y-34545543D01*
X78498796Y-36431600D02*
X78403558Y-36383981D01*
X78260701Y-36383981D01*
X78117843Y-36431600D01*
X78022605Y-36526838D01*
X77974986Y-36622076D01*
X77927367Y-36812552D01*
X77927367Y-36955410D01*
X77974986Y-37145886D01*
X78022605Y-37241124D01*
X78117843Y-37336362D01*
X78260701Y-37383981D01*
X78355939Y-37383981D01*
X78498796Y-37336362D01*
X78546415Y-37288743D01*
X78546415Y-36955410D01*
X78355939Y-36955410D01*
X78974986Y-37383981D02*
X78974986Y-36383981D01*
X79546415Y-37383981D01*
X79546415Y-36383981D01*
X80022605Y-37383981D02*
X80022605Y-36383981D01*
X80260700Y-36383981D01*
X80403558Y-36431600D01*
X80498796Y-36526838D01*
X80546415Y-36622076D01*
X80594034Y-36812552D01*
X80594034Y-36955410D01*
X80546415Y-37145886D01*
X80498796Y-37241124D01*
X80403558Y-37336362D01*
X80260700Y-37383981D01*
X80022605Y-37383981D01*
X78625724Y-38847781D02*
X78149533Y-38847781D01*
X78101914Y-39323971D01*
X78149533Y-39276352D01*
X78244771Y-39228733D01*
X78482867Y-39228733D01*
X78578105Y-39276352D01*
X78625724Y-39323971D01*
X78673343Y-39419210D01*
X78673343Y-39657305D01*
X78625724Y-39752543D01*
X78578105Y-39800162D01*
X78482867Y-39847781D01*
X78244771Y-39847781D01*
X78149533Y-39800162D01*
X78101914Y-39752543D01*
X78959057Y-38847781D02*
X79292390Y-39847781D01*
X79625724Y-38847781D01*
X78086105Y-42311581D02*
X78086105Y-41311581D01*
X78467058Y-41311581D01*
X78562296Y-41359200D01*
X78609915Y-41406819D01*
X78657534Y-41502057D01*
X78657534Y-41644914D01*
X78609915Y-41740152D01*
X78562296Y-41787771D01*
X78467058Y-41835390D01*
X78086105Y-41835390D01*
X79419439Y-41787771D02*
X79562296Y-41835390D01*
X79609915Y-41883010D01*
X79657534Y-41978248D01*
X79657534Y-42121105D01*
X79609915Y-42216343D01*
X79562296Y-42263962D01*
X79467058Y-42311581D01*
X79086105Y-42311581D01*
X79086105Y-41311581D01*
X79419439Y-41311581D01*
X79514677Y-41359200D01*
X79562296Y-41406819D01*
X79609915Y-41502057D01*
X79609915Y-41597295D01*
X79562296Y-41692533D01*
X79514677Y-41740152D01*
X79419439Y-41787771D01*
X79086105Y-41787771D01*
X80133724Y-42311581D02*
X80324200Y-42311581D01*
X80419439Y-42263962D01*
X80467058Y-42216343D01*
X80562296Y-42073486D01*
X80609915Y-41883010D01*
X80609915Y-41502057D01*
X80562296Y-41406819D01*
X80514677Y-41359200D01*
X80419439Y-41311581D01*
X80228962Y-41311581D01*
X80133724Y-41359200D01*
X80086105Y-41406819D01*
X80038486Y-41502057D01*
X80038486Y-41740152D01*
X80086105Y-41835390D01*
X80133724Y-41883010D01*
X80228962Y-41930629D01*
X80419439Y-41930629D01*
X80514677Y-41883010D01*
X80562296Y-41835390D01*
X80609915Y-41740152D01*
X78136905Y-44711881D02*
X78136905Y-43711881D01*
X78517858Y-43711881D01*
X78613096Y-43759500D01*
X78660715Y-43807119D01*
X78708334Y-43902357D01*
X78708334Y-44045214D01*
X78660715Y-44140452D01*
X78613096Y-44188071D01*
X78517858Y-44235690D01*
X78136905Y-44235690D01*
X79470239Y-44188071D02*
X79613096Y-44235690D01*
X79660715Y-44283310D01*
X79708334Y-44378548D01*
X79708334Y-44521405D01*
X79660715Y-44616643D01*
X79613096Y-44664262D01*
X79517858Y-44711881D01*
X79136905Y-44711881D01*
X79136905Y-43711881D01*
X79470239Y-43711881D01*
X79565477Y-43759500D01*
X79613096Y-43807119D01*
X79660715Y-43902357D01*
X79660715Y-43997595D01*
X79613096Y-44092833D01*
X79565477Y-44140452D01*
X79470239Y-44188071D01*
X79136905Y-44188071D01*
X80279762Y-44140452D02*
X80184524Y-44092833D01*
X80136905Y-44045214D01*
X80089286Y-43949976D01*
X80089286Y-43902357D01*
X80136905Y-43807119D01*
X80184524Y-43759500D01*
X80279762Y-43711881D01*
X80470239Y-43711881D01*
X80565477Y-43759500D01*
X80613096Y-43807119D01*
X80660715Y-43902357D01*
X80660715Y-43949976D01*
X80613096Y-44045214D01*
X80565477Y-44092833D01*
X80470239Y-44140452D01*
X80279762Y-44140452D01*
X80184524Y-44188071D01*
X80136905Y-44235690D01*
X80089286Y-44330929D01*
X80089286Y-44521405D01*
X80136905Y-44616643D01*
X80184524Y-44664262D01*
X80279762Y-44711881D01*
X80470239Y-44711881D01*
X80565477Y-44664262D01*
X80613096Y-44616643D01*
X80660715Y-44521405D01*
X80660715Y-44330929D01*
X80613096Y-44235690D01*
X80565477Y-44188071D01*
X80470239Y-44140452D01*
X78136905Y-47505881D02*
X78136905Y-46505881D01*
X78517858Y-46505881D01*
X78613096Y-46553500D01*
X78660715Y-46601119D01*
X78708334Y-46696357D01*
X78708334Y-46839214D01*
X78660715Y-46934452D01*
X78613096Y-46982071D01*
X78517858Y-47029690D01*
X78136905Y-47029690D01*
X79470239Y-46982071D02*
X79613096Y-47029690D01*
X79660715Y-47077310D01*
X79708334Y-47172548D01*
X79708334Y-47315405D01*
X79660715Y-47410643D01*
X79613096Y-47458262D01*
X79517858Y-47505881D01*
X79136905Y-47505881D01*
X79136905Y-46505881D01*
X79470239Y-46505881D01*
X79565477Y-46553500D01*
X79613096Y-46601119D01*
X79660715Y-46696357D01*
X79660715Y-46791595D01*
X79613096Y-46886833D01*
X79565477Y-46934452D01*
X79470239Y-46982071D01*
X79136905Y-46982071D01*
X80041667Y-46505881D02*
X80708334Y-46505881D01*
X80279762Y-47505881D01*
X78187705Y-49855381D02*
X78187705Y-48855381D01*
X78568658Y-48855381D01*
X78663896Y-48903000D01*
X78711515Y-48950619D01*
X78759134Y-49045857D01*
X78759134Y-49188714D01*
X78711515Y-49283952D01*
X78663896Y-49331571D01*
X78568658Y-49379190D01*
X78187705Y-49379190D01*
X79521039Y-49331571D02*
X79663896Y-49379190D01*
X79711515Y-49426810D01*
X79759134Y-49522048D01*
X79759134Y-49664905D01*
X79711515Y-49760143D01*
X79663896Y-49807762D01*
X79568658Y-49855381D01*
X79187705Y-49855381D01*
X79187705Y-48855381D01*
X79521039Y-48855381D01*
X79616277Y-48903000D01*
X79663896Y-48950619D01*
X79711515Y-49045857D01*
X79711515Y-49141095D01*
X79663896Y-49236333D01*
X79616277Y-49283952D01*
X79521039Y-49331571D01*
X79187705Y-49331571D01*
X80616277Y-48855381D02*
X80425800Y-48855381D01*
X80330562Y-48903000D01*
X80282943Y-48950619D01*
X80187705Y-49093476D01*
X80140086Y-49283952D01*
X80140086Y-49664905D01*
X80187705Y-49760143D01*
X80235324Y-49807762D01*
X80330562Y-49855381D01*
X80521039Y-49855381D01*
X80616277Y-49807762D01*
X80663896Y-49760143D01*
X80711515Y-49664905D01*
X80711515Y-49426810D01*
X80663896Y-49331571D01*
X80616277Y-49283952D01*
X80521039Y-49236333D01*
X80330562Y-49236333D01*
X80235324Y-49283952D01*
X80187705Y-49331571D01*
X80140086Y-49426810D01*
X78187705Y-52420781D02*
X78187705Y-51420781D01*
X78568658Y-51420781D01*
X78663896Y-51468400D01*
X78711515Y-51516019D01*
X78759134Y-51611257D01*
X78759134Y-51754114D01*
X78711515Y-51849352D01*
X78663896Y-51896971D01*
X78568658Y-51944590D01*
X78187705Y-51944590D01*
X79521039Y-51896971D02*
X79663896Y-51944590D01*
X79711515Y-51992210D01*
X79759134Y-52087448D01*
X79759134Y-52230305D01*
X79711515Y-52325543D01*
X79663896Y-52373162D01*
X79568658Y-52420781D01*
X79187705Y-52420781D01*
X79187705Y-51420781D01*
X79521039Y-51420781D01*
X79616277Y-51468400D01*
X79663896Y-51516019D01*
X79711515Y-51611257D01*
X79711515Y-51706495D01*
X79663896Y-51801733D01*
X79616277Y-51849352D01*
X79521039Y-51896971D01*
X79187705Y-51896971D01*
X80663896Y-51420781D02*
X80187705Y-51420781D01*
X80140086Y-51896971D01*
X80187705Y-51849352D01*
X80282943Y-51801733D01*
X80521039Y-51801733D01*
X80616277Y-51849352D01*
X80663896Y-51896971D01*
X80711515Y-51992210D01*
X80711515Y-52230305D01*
X80663896Y-52325543D01*
X80616277Y-52373162D01*
X80521039Y-52420781D01*
X80282943Y-52420781D01*
X80187705Y-52373162D01*
X80140086Y-52325543D01*
X78136905Y-54884581D02*
X78136905Y-53884581D01*
X78517858Y-53884581D01*
X78613096Y-53932200D01*
X78660715Y-53979819D01*
X78708334Y-54075057D01*
X78708334Y-54217914D01*
X78660715Y-54313152D01*
X78613096Y-54360771D01*
X78517858Y-54408390D01*
X78136905Y-54408390D01*
X79470239Y-54360771D02*
X79613096Y-54408390D01*
X79660715Y-54456010D01*
X79708334Y-54551248D01*
X79708334Y-54694105D01*
X79660715Y-54789343D01*
X79613096Y-54836962D01*
X79517858Y-54884581D01*
X79136905Y-54884581D01*
X79136905Y-53884581D01*
X79470239Y-53884581D01*
X79565477Y-53932200D01*
X79613096Y-53979819D01*
X79660715Y-54075057D01*
X79660715Y-54170295D01*
X79613096Y-54265533D01*
X79565477Y-54313152D01*
X79470239Y-54360771D01*
X79136905Y-54360771D01*
X80565477Y-54217914D02*
X80565477Y-54884581D01*
X80327381Y-53836962D02*
X80089286Y-54551248D01*
X80708334Y-54551248D01*
X78022605Y-57564281D02*
X78022605Y-56564281D01*
X78403558Y-56564281D01*
X78498796Y-56611900D01*
X78546415Y-56659519D01*
X78594034Y-56754757D01*
X78594034Y-56897614D01*
X78546415Y-56992852D01*
X78498796Y-57040471D01*
X78403558Y-57088090D01*
X78022605Y-57088090D01*
X79355939Y-57040471D02*
X79498796Y-57088090D01*
X79546415Y-57135710D01*
X79594034Y-57230948D01*
X79594034Y-57373805D01*
X79546415Y-57469043D01*
X79498796Y-57516662D01*
X79403558Y-57564281D01*
X79022605Y-57564281D01*
X79022605Y-56564281D01*
X79355939Y-56564281D01*
X79451177Y-56611900D01*
X79498796Y-56659519D01*
X79546415Y-56754757D01*
X79546415Y-56849995D01*
X79498796Y-56945233D01*
X79451177Y-56992852D01*
X79355939Y-57040471D01*
X79022605Y-57040471D01*
X79927367Y-56564281D02*
X80546415Y-56564281D01*
X80213081Y-56945233D01*
X80355939Y-56945233D01*
X80451177Y-56992852D01*
X80498796Y-57040471D01*
X80546415Y-57135710D01*
X80546415Y-57373805D01*
X80498796Y-57469043D01*
X80451177Y-57516662D01*
X80355939Y-57564281D01*
X80070224Y-57564281D01*
X79974986Y-57516662D01*
X79927367Y-57469043D01*
X78011543Y-60015381D02*
X78011543Y-59015381D01*
X78392496Y-59015381D01*
X78487734Y-59063000D01*
X78535353Y-59110619D01*
X78582972Y-59205857D01*
X78582972Y-59348714D01*
X78535353Y-59443952D01*
X78487734Y-59491571D01*
X78392496Y-59539190D01*
X78011543Y-59539190D01*
X78963924Y-59729667D02*
X79440115Y-59729667D01*
X78868686Y-60015381D02*
X79202019Y-59015381D01*
X79535353Y-60015381D01*
X80392496Y-60015381D02*
X79821067Y-60015381D01*
X80106781Y-60015381D02*
X80106781Y-59015381D01*
X80011543Y-59158238D01*
X79916305Y-59253476D01*
X79821067Y-59301095D01*
X81297258Y-59015381D02*
X80821067Y-59015381D01*
X80773448Y-59491571D01*
X80821067Y-59443952D01*
X80916305Y-59396333D01*
X81154401Y-59396333D01*
X81249639Y-59443952D01*
X81297258Y-59491571D01*
X81344877Y-59586810D01*
X81344877Y-59824905D01*
X81297258Y-59920143D01*
X81249639Y-59967762D01*
X81154401Y-60015381D01*
X80916305Y-60015381D01*
X80821067Y-59967762D01*
X80773448Y-59920143D01*
X78011543Y-62593481D02*
X78011543Y-61593481D01*
X78392496Y-61593481D01*
X78487734Y-61641100D01*
X78535353Y-61688719D01*
X78582972Y-61783957D01*
X78582972Y-61926814D01*
X78535353Y-62022052D01*
X78487734Y-62069671D01*
X78392496Y-62117290D01*
X78011543Y-62117290D01*
X78963924Y-62307767D02*
X79440115Y-62307767D01*
X78868686Y-62593481D02*
X79202019Y-61593481D01*
X79535353Y-62593481D01*
X80392496Y-62593481D02*
X79821067Y-62593481D01*
X80106781Y-62593481D02*
X80106781Y-61593481D01*
X80011543Y-61736338D01*
X79916305Y-61831576D01*
X79821067Y-61879195D01*
X80773448Y-61688719D02*
X80821067Y-61641100D01*
X80916305Y-61593481D01*
X81154401Y-61593481D01*
X81249639Y-61641100D01*
X81297258Y-61688719D01*
X81344877Y-61783957D01*
X81344877Y-61879195D01*
X81297258Y-62022052D01*
X80725829Y-62593481D01*
X81344877Y-62593481D01*
X77960743Y-65273181D02*
X77960743Y-64273181D01*
X78341696Y-64273181D01*
X78436934Y-64320800D01*
X78484553Y-64368419D01*
X78532172Y-64463657D01*
X78532172Y-64606514D01*
X78484553Y-64701752D01*
X78436934Y-64749371D01*
X78341696Y-64796990D01*
X77960743Y-64796990D01*
X78913124Y-64987467D02*
X79389315Y-64987467D01*
X78817886Y-65273181D02*
X79151219Y-64273181D01*
X79484553Y-65273181D01*
X80341696Y-65273181D02*
X79770267Y-65273181D01*
X80055981Y-65273181D02*
X80055981Y-64273181D01*
X79960743Y-64416038D01*
X79865505Y-64511276D01*
X79770267Y-64558895D01*
X81294077Y-65273181D02*
X80722648Y-65273181D01*
X81008362Y-65273181D02*
X81008362Y-64273181D01*
X80913124Y-64416038D01*
X80817886Y-64511276D01*
X80722648Y-64558895D01*
X77846443Y-67736981D02*
X77846443Y-66736981D01*
X78227396Y-66736981D01*
X78322634Y-66784600D01*
X78370253Y-66832219D01*
X78417872Y-66927457D01*
X78417872Y-67070314D01*
X78370253Y-67165552D01*
X78322634Y-67213171D01*
X78227396Y-67260790D01*
X77846443Y-67260790D01*
X78798824Y-67451267D02*
X79275015Y-67451267D01*
X78703586Y-67736981D02*
X79036919Y-66736981D01*
X79370253Y-67736981D01*
X80227396Y-67736981D02*
X79655967Y-67736981D01*
X79941681Y-67736981D02*
X79941681Y-66736981D01*
X79846443Y-66879838D01*
X79751205Y-66975076D01*
X79655967Y-67022695D01*
X80846443Y-66736981D02*
X80941682Y-66736981D01*
X81036920Y-66784600D01*
X81084539Y-66832219D01*
X81132158Y-66927457D01*
X81179777Y-67117933D01*
X81179777Y-67356029D01*
X81132158Y-67546505D01*
X81084539Y-67641743D01*
X81036920Y-67689362D01*
X80941682Y-67736981D01*
X80846443Y-67736981D01*
X80751205Y-67689362D01*
X80703586Y-67641743D01*
X80655967Y-67546505D01*
X80608348Y-67356029D01*
X80608348Y-67117933D01*
X80655967Y-66927457D01*
X80703586Y-66832219D01*
X80751205Y-66784600D01*
X80846443Y-66736981D01*
X77979733Y-70302381D02*
X77979733Y-69302381D01*
X78360686Y-69302381D01*
X78455924Y-69350000D01*
X78503543Y-69397619D01*
X78551162Y-69492857D01*
X78551162Y-69635714D01*
X78503543Y-69730952D01*
X78455924Y-69778571D01*
X78360686Y-69826190D01*
X77979733Y-69826190D01*
X78932114Y-70016667D02*
X79408305Y-70016667D01*
X78836876Y-70302381D02*
X79170209Y-69302381D01*
X79503543Y-70302381D01*
X79884495Y-70302381D02*
X80074971Y-70302381D01*
X80170210Y-70254762D01*
X80217829Y-70207143D01*
X80313067Y-70064286D01*
X80360686Y-69873810D01*
X80360686Y-69492857D01*
X80313067Y-69397619D01*
X80265448Y-69350000D01*
X80170210Y-69302381D01*
X79979733Y-69302381D01*
X79884495Y-69350000D01*
X79836876Y-69397619D01*
X79789257Y-69492857D01*
X79789257Y-69730952D01*
X79836876Y-69826190D01*
X79884495Y-69873810D01*
X79979733Y-69921429D01*
X80170210Y-69921429D01*
X80265448Y-69873810D01*
X80313067Y-69826190D01*
X80360686Y-69730952D01*
X77928933Y-72816981D02*
X77928933Y-71816981D01*
X78309886Y-71816981D01*
X78405124Y-71864600D01*
X78452743Y-71912219D01*
X78500362Y-72007457D01*
X78500362Y-72150314D01*
X78452743Y-72245552D01*
X78405124Y-72293171D01*
X78309886Y-72340790D01*
X77928933Y-72340790D01*
X78881314Y-72531267D02*
X79357505Y-72531267D01*
X78786076Y-72816981D02*
X79119409Y-71816981D01*
X79452743Y-72816981D01*
X79928933Y-72245552D02*
X79833695Y-72197933D01*
X79786076Y-72150314D01*
X79738457Y-72055076D01*
X79738457Y-72007457D01*
X79786076Y-71912219D01*
X79833695Y-71864600D01*
X79928933Y-71816981D01*
X80119410Y-71816981D01*
X80214648Y-71864600D01*
X80262267Y-71912219D01*
X80309886Y-72007457D01*
X80309886Y-72055076D01*
X80262267Y-72150314D01*
X80214648Y-72197933D01*
X80119410Y-72245552D01*
X79928933Y-72245552D01*
X79833695Y-72293171D01*
X79786076Y-72340790D01*
X79738457Y-72436029D01*
X79738457Y-72626505D01*
X79786076Y-72721743D01*
X79833695Y-72769362D01*
X79928933Y-72816981D01*
X80119410Y-72816981D01*
X80214648Y-72769362D01*
X80262267Y-72721743D01*
X80309886Y-72626505D01*
X80309886Y-72436029D01*
X80262267Y-72340790D01*
X80214648Y-72293171D01*
X80119410Y-72245552D01*
X77940114Y-75166481D02*
X77940114Y-74166481D01*
X78321067Y-74166481D01*
X78416305Y-74214100D01*
X78463924Y-74261719D01*
X78511543Y-74356957D01*
X78511543Y-74499814D01*
X78463924Y-74595052D01*
X78416305Y-74642671D01*
X78321067Y-74690290D01*
X77940114Y-74690290D01*
X79273448Y-74642671D02*
X79416305Y-74690290D01*
X79463924Y-74737910D01*
X79511543Y-74833148D01*
X79511543Y-74976005D01*
X79463924Y-75071243D01*
X79416305Y-75118862D01*
X79321067Y-75166481D01*
X78940114Y-75166481D01*
X78940114Y-74166481D01*
X79273448Y-74166481D01*
X79368686Y-74214100D01*
X79416305Y-74261719D01*
X79463924Y-74356957D01*
X79463924Y-74452195D01*
X79416305Y-74547433D01*
X79368686Y-74595052D01*
X79273448Y-74642671D01*
X78940114Y-74642671D01*
X80463924Y-75166481D02*
X79892495Y-75166481D01*
X80178209Y-75166481D02*
X80178209Y-74166481D01*
X80082971Y-74309338D01*
X79987733Y-74404576D01*
X79892495Y-74452195D01*
X81368686Y-74166481D02*
X80892495Y-74166481D01*
X80844876Y-74642671D01*
X80892495Y-74595052D01*
X80987733Y-74547433D01*
X81225829Y-74547433D01*
X81321067Y-74595052D01*
X81368686Y-74642671D01*
X81416305Y-74737910D01*
X81416305Y-74976005D01*
X81368686Y-75071243D01*
X81321067Y-75118862D01*
X81225829Y-75166481D01*
X80987733Y-75166481D01*
X80892495Y-75118862D01*
X80844876Y-75071243D01*
X77940114Y-77795381D02*
X77940114Y-76795381D01*
X78321067Y-76795381D01*
X78416305Y-76843000D01*
X78463924Y-76890619D01*
X78511543Y-76985857D01*
X78511543Y-77128714D01*
X78463924Y-77223952D01*
X78416305Y-77271571D01*
X78321067Y-77319190D01*
X77940114Y-77319190D01*
X79273448Y-77271571D02*
X79416305Y-77319190D01*
X79463924Y-77366810D01*
X79511543Y-77462048D01*
X79511543Y-77604905D01*
X79463924Y-77700143D01*
X79416305Y-77747762D01*
X79321067Y-77795381D01*
X78940114Y-77795381D01*
X78940114Y-76795381D01*
X79273448Y-76795381D01*
X79368686Y-76843000D01*
X79416305Y-76890619D01*
X79463924Y-76985857D01*
X79463924Y-77081095D01*
X79416305Y-77176333D01*
X79368686Y-77223952D01*
X79273448Y-77271571D01*
X78940114Y-77271571D01*
X80463924Y-77795381D02*
X79892495Y-77795381D01*
X80178209Y-77795381D02*
X80178209Y-76795381D01*
X80082971Y-76938238D01*
X79987733Y-77033476D01*
X79892495Y-77081095D01*
X81321067Y-77128714D02*
X81321067Y-77795381D01*
X81082971Y-76747762D02*
X80844876Y-77462048D01*
X81463924Y-77462048D01*
X77940114Y-80309981D02*
X77940114Y-79309981D01*
X78321067Y-79309981D01*
X78416305Y-79357600D01*
X78463924Y-79405219D01*
X78511543Y-79500457D01*
X78511543Y-79643314D01*
X78463924Y-79738552D01*
X78416305Y-79786171D01*
X78321067Y-79833790D01*
X77940114Y-79833790D01*
X79273448Y-79786171D02*
X79416305Y-79833790D01*
X79463924Y-79881410D01*
X79511543Y-79976648D01*
X79511543Y-80119505D01*
X79463924Y-80214743D01*
X79416305Y-80262362D01*
X79321067Y-80309981D01*
X78940114Y-80309981D01*
X78940114Y-79309981D01*
X79273448Y-79309981D01*
X79368686Y-79357600D01*
X79416305Y-79405219D01*
X79463924Y-79500457D01*
X79463924Y-79595695D01*
X79416305Y-79690933D01*
X79368686Y-79738552D01*
X79273448Y-79786171D01*
X78940114Y-79786171D01*
X80463924Y-80309981D02*
X79892495Y-80309981D01*
X80178209Y-80309981D02*
X80178209Y-79309981D01*
X80082971Y-79452838D01*
X79987733Y-79548076D01*
X79892495Y-79595695D01*
X80797257Y-79309981D02*
X81416305Y-79309981D01*
X81082971Y-79690933D01*
X81225829Y-79690933D01*
X81321067Y-79738552D01*
X81368686Y-79786171D01*
X81416305Y-79881410D01*
X81416305Y-80119505D01*
X81368686Y-80214743D01*
X81321067Y-80262362D01*
X81225829Y-80309981D01*
X80940114Y-80309981D01*
X80844876Y-80262362D01*
X80797257Y-80214743D01*
X77940114Y-82989681D02*
X77940114Y-81989681D01*
X78321067Y-81989681D01*
X78416305Y-82037300D01*
X78463924Y-82084919D01*
X78511543Y-82180157D01*
X78511543Y-82323014D01*
X78463924Y-82418252D01*
X78416305Y-82465871D01*
X78321067Y-82513490D01*
X77940114Y-82513490D01*
X79273448Y-82465871D02*
X79416305Y-82513490D01*
X79463924Y-82561110D01*
X79511543Y-82656348D01*
X79511543Y-82799205D01*
X79463924Y-82894443D01*
X79416305Y-82942062D01*
X79321067Y-82989681D01*
X78940114Y-82989681D01*
X78940114Y-81989681D01*
X79273448Y-81989681D01*
X79368686Y-82037300D01*
X79416305Y-82084919D01*
X79463924Y-82180157D01*
X79463924Y-82275395D01*
X79416305Y-82370633D01*
X79368686Y-82418252D01*
X79273448Y-82465871D01*
X78940114Y-82465871D01*
X80463924Y-82989681D02*
X79892495Y-82989681D01*
X80178209Y-82989681D02*
X80178209Y-81989681D01*
X80082971Y-82132538D01*
X79987733Y-82227776D01*
X79892495Y-82275395D01*
X80844876Y-82084919D02*
X80892495Y-82037300D01*
X80987733Y-81989681D01*
X81225829Y-81989681D01*
X81321067Y-82037300D01*
X81368686Y-82084919D01*
X81416305Y-82180157D01*
X81416305Y-82275395D01*
X81368686Y-82418252D01*
X80797257Y-82989681D01*
X81416305Y-82989681D01*
X57378696Y-82090640D02*
X57283458Y-82043021D01*
X57140601Y-82043021D01*
X56997743Y-82090640D01*
X56902505Y-82185878D01*
X56854886Y-82281116D01*
X56807267Y-82471592D01*
X56807267Y-82614450D01*
X56854886Y-82804926D01*
X56902505Y-82900164D01*
X56997743Y-82995402D01*
X57140601Y-83043021D01*
X57235839Y-83043021D01*
X57378696Y-82995402D01*
X57426315Y-82947783D01*
X57426315Y-82614450D01*
X57235839Y-82614450D01*
X57854886Y-83043021D02*
X57854886Y-82043021D01*
X58426315Y-83043021D01*
X58426315Y-82043021D01*
X58902505Y-83043021D02*
X58902505Y-82043021D01*
X59140600Y-82043021D01*
X59283458Y-82090640D01*
X59378696Y-82185878D01*
X59426315Y-82281116D01*
X59473934Y-82471592D01*
X59473934Y-82614450D01*
X59426315Y-82804926D01*
X59378696Y-82900164D01*
X59283458Y-82995402D01*
X59140600Y-83043021D01*
X58902505Y-83043021D01*
X57434576Y-79296640D02*
X57339338Y-79249021D01*
X57196481Y-79249021D01*
X57053623Y-79296640D01*
X56958385Y-79391878D01*
X56910766Y-79487116D01*
X56863147Y-79677592D01*
X56863147Y-79820450D01*
X56910766Y-80010926D01*
X56958385Y-80106164D01*
X57053623Y-80201402D01*
X57196481Y-80249021D01*
X57291719Y-80249021D01*
X57434576Y-80201402D01*
X57482195Y-80153783D01*
X57482195Y-79820450D01*
X57291719Y-79820450D01*
X57910766Y-80249021D02*
X57910766Y-79249021D01*
X58482195Y-80249021D01*
X58482195Y-79249021D01*
X58958385Y-80249021D02*
X58958385Y-79249021D01*
X59196480Y-79249021D01*
X59339338Y-79296640D01*
X59434576Y-79391878D01*
X59482195Y-79487116D01*
X59529814Y-79677592D01*
X59529814Y-79820450D01*
X59482195Y-80010926D01*
X59434576Y-80106164D01*
X59339338Y-80201402D01*
X59196480Y-80249021D01*
X58958385Y-80249021D01*
X57070145Y-76846181D02*
X57689193Y-76846181D01*
X57355859Y-77227133D01*
X57498717Y-77227133D01*
X57593955Y-77274752D01*
X57641574Y-77322371D01*
X57689193Y-77417610D01*
X57689193Y-77655705D01*
X57641574Y-77750943D01*
X57593955Y-77798562D01*
X57498717Y-77846181D01*
X57213002Y-77846181D01*
X57117764Y-77798562D01*
X57070145Y-77750943D01*
X57974907Y-76846181D02*
X58308240Y-77846181D01*
X58641574Y-76846181D01*
X58879669Y-76846181D02*
X59498717Y-76846181D01*
X59165383Y-77227133D01*
X59308241Y-77227133D01*
X59403479Y-77274752D01*
X59451098Y-77322371D01*
X59498717Y-77417610D01*
X59498717Y-77655705D01*
X59451098Y-77750943D01*
X59403479Y-77798562D01*
X59308241Y-77846181D01*
X59022526Y-77846181D01*
X58927288Y-77798562D01*
X58879669Y-77750943D01*
X56050703Y-75219821D02*
X56050703Y-74219821D01*
X56622132Y-75219821D01*
X56622132Y-74219821D01*
X57669751Y-75219821D02*
X57336417Y-74743630D01*
X57098322Y-75219821D02*
X57098322Y-74219821D01*
X57479275Y-74219821D01*
X57574513Y-74267440D01*
X57622132Y-74315059D01*
X57669751Y-74410297D01*
X57669751Y-74553154D01*
X57622132Y-74648392D01*
X57574513Y-74696011D01*
X57479275Y-74743630D01*
X57098322Y-74743630D01*
X58050703Y-75172202D02*
X58193560Y-75219821D01*
X58431656Y-75219821D01*
X58526894Y-75172202D01*
X58574513Y-75124583D01*
X58622132Y-75029345D01*
X58622132Y-74934107D01*
X58574513Y-74838869D01*
X58526894Y-74791250D01*
X58431656Y-74743630D01*
X58241179Y-74696011D01*
X58145941Y-74648392D01*
X58098322Y-74600773D01*
X58050703Y-74505535D01*
X58050703Y-74410297D01*
X58098322Y-74315059D01*
X58145941Y-74267440D01*
X58241179Y-74219821D01*
X58479275Y-74219821D01*
X58622132Y-74267440D01*
X58907846Y-74219821D02*
X59479275Y-74219821D01*
X59193560Y-75219821D02*
X59193560Y-74219821D01*
X56258674Y-72593461D02*
X56258674Y-71593461D01*
X56639627Y-71593461D01*
X56734865Y-71641080D01*
X56782484Y-71688699D01*
X56830103Y-71783937D01*
X56830103Y-71926794D01*
X56782484Y-72022032D01*
X56734865Y-72069651D01*
X56639627Y-72117270D01*
X56258674Y-72117270D01*
X57592008Y-72069651D02*
X57734865Y-72117270D01*
X57782484Y-72164890D01*
X57830103Y-72260128D01*
X57830103Y-72402985D01*
X57782484Y-72498223D01*
X57734865Y-72545842D01*
X57639627Y-72593461D01*
X57258674Y-72593461D01*
X57258674Y-71593461D01*
X57592008Y-71593461D01*
X57687246Y-71641080D01*
X57734865Y-71688699D01*
X57782484Y-71783937D01*
X57782484Y-71879175D01*
X57734865Y-71974413D01*
X57687246Y-72022032D01*
X57592008Y-72069651D01*
X57258674Y-72069651D01*
X58782484Y-72593461D02*
X58211055Y-72593461D01*
X58496769Y-72593461D02*
X58496769Y-71593461D01*
X58401531Y-71736318D01*
X58306293Y-71831556D01*
X58211055Y-71879175D01*
X59734865Y-72593461D02*
X59163436Y-72593461D01*
X59449150Y-72593461D02*
X59449150Y-71593461D01*
X59353912Y-71736318D01*
X59258674Y-71831556D01*
X59163436Y-71879175D01*
X56091034Y-70134741D02*
X56091034Y-69134741D01*
X56471987Y-69134741D01*
X56567225Y-69182360D01*
X56614844Y-69229979D01*
X56662463Y-69325217D01*
X56662463Y-69468074D01*
X56614844Y-69563312D01*
X56567225Y-69610931D01*
X56471987Y-69658550D01*
X56091034Y-69658550D01*
X57424368Y-69610931D02*
X57567225Y-69658550D01*
X57614844Y-69706170D01*
X57662463Y-69801408D01*
X57662463Y-69944265D01*
X57614844Y-70039503D01*
X57567225Y-70087122D01*
X57471987Y-70134741D01*
X57091034Y-70134741D01*
X57091034Y-69134741D01*
X57424368Y-69134741D01*
X57519606Y-69182360D01*
X57567225Y-69229979D01*
X57614844Y-69325217D01*
X57614844Y-69420455D01*
X57567225Y-69515693D01*
X57519606Y-69563312D01*
X57424368Y-69610931D01*
X57091034Y-69610931D01*
X58614844Y-70134741D02*
X58043415Y-70134741D01*
X58329129Y-70134741D02*
X58329129Y-69134741D01*
X58233891Y-69277598D01*
X58138653Y-69372836D01*
X58043415Y-69420455D01*
X59233891Y-69134741D02*
X59329130Y-69134741D01*
X59424368Y-69182360D01*
X59471987Y-69229979D01*
X59519606Y-69325217D01*
X59567225Y-69515693D01*
X59567225Y-69753789D01*
X59519606Y-69944265D01*
X59471987Y-70039503D01*
X59424368Y-70087122D01*
X59329130Y-70134741D01*
X59233891Y-70134741D01*
X59138653Y-70087122D01*
X59091034Y-70039503D01*
X59043415Y-69944265D01*
X58995796Y-69753789D01*
X58995796Y-69515693D01*
X59043415Y-69325217D01*
X59091034Y-69229979D01*
X59138653Y-69182360D01*
X59233891Y-69134741D01*
X57126025Y-67620141D02*
X57126025Y-66620141D01*
X57506978Y-66620141D01*
X57602216Y-66667760D01*
X57649835Y-66715379D01*
X57697454Y-66810617D01*
X57697454Y-66953474D01*
X57649835Y-67048712D01*
X57602216Y-67096331D01*
X57506978Y-67143950D01*
X57126025Y-67143950D01*
X58459359Y-67096331D02*
X58602216Y-67143950D01*
X58649835Y-67191570D01*
X58697454Y-67286808D01*
X58697454Y-67429665D01*
X58649835Y-67524903D01*
X58602216Y-67572522D01*
X58506978Y-67620141D01*
X58126025Y-67620141D01*
X58126025Y-66620141D01*
X58459359Y-66620141D01*
X58554597Y-66667760D01*
X58602216Y-66715379D01*
X58649835Y-66810617D01*
X58649835Y-66905855D01*
X58602216Y-67001093D01*
X58554597Y-67048712D01*
X58459359Y-67096331D01*
X58126025Y-67096331D01*
X59649835Y-67620141D02*
X59078406Y-67620141D01*
X59364120Y-67620141D02*
X59364120Y-66620141D01*
X59268882Y-66762998D01*
X59173644Y-66858236D01*
X59078406Y-66905855D01*
X57126025Y-65217301D02*
X57126025Y-64217301D01*
X57506978Y-64217301D01*
X57602216Y-64264920D01*
X57649835Y-64312539D01*
X57697454Y-64407777D01*
X57697454Y-64550634D01*
X57649835Y-64645872D01*
X57602216Y-64693491D01*
X57506978Y-64741110D01*
X57126025Y-64741110D01*
X58459359Y-64693491D02*
X58602216Y-64741110D01*
X58649835Y-64788730D01*
X58697454Y-64883968D01*
X58697454Y-65026825D01*
X58649835Y-65122063D01*
X58602216Y-65169682D01*
X58506978Y-65217301D01*
X58126025Y-65217301D01*
X58126025Y-64217301D01*
X58459359Y-64217301D01*
X58554597Y-64264920D01*
X58602216Y-64312539D01*
X58649835Y-64407777D01*
X58649835Y-64503015D01*
X58602216Y-64598253D01*
X58554597Y-64645872D01*
X58459359Y-64693491D01*
X58126025Y-64693491D01*
X59316501Y-64217301D02*
X59411740Y-64217301D01*
X59506978Y-64264920D01*
X59554597Y-64312539D01*
X59602216Y-64407777D01*
X59649835Y-64598253D01*
X59649835Y-64836349D01*
X59602216Y-65026825D01*
X59554597Y-65122063D01*
X59506978Y-65169682D01*
X59411740Y-65217301D01*
X59316501Y-65217301D01*
X59221263Y-65169682D01*
X59173644Y-65122063D01*
X59126025Y-65026825D01*
X59078406Y-64836349D01*
X59078406Y-64598253D01*
X59126025Y-64407777D01*
X59173644Y-64312539D01*
X59221263Y-64264920D01*
X59316501Y-64217301D01*
X57085693Y-62590941D02*
X57085693Y-61590941D01*
X57466646Y-61590941D01*
X57561884Y-61638560D01*
X57609503Y-61686179D01*
X57657122Y-61781417D01*
X57657122Y-61924274D01*
X57609503Y-62019512D01*
X57561884Y-62067131D01*
X57466646Y-62114750D01*
X57085693Y-62114750D01*
X58038074Y-62305227D02*
X58514265Y-62305227D01*
X57942836Y-62590941D02*
X58276169Y-61590941D01*
X58609503Y-62590941D01*
X58847598Y-61590941D02*
X59514265Y-61590941D01*
X59085693Y-62590941D01*
X57085693Y-59964581D02*
X57085693Y-58964581D01*
X57466646Y-58964581D01*
X57561884Y-59012200D01*
X57609503Y-59059819D01*
X57657122Y-59155057D01*
X57657122Y-59297914D01*
X57609503Y-59393152D01*
X57561884Y-59440771D01*
X57466646Y-59488390D01*
X57085693Y-59488390D01*
X58038074Y-59678867D02*
X58514265Y-59678867D01*
X57942836Y-59964581D02*
X58276169Y-58964581D01*
X58609503Y-59964581D01*
X59371408Y-58964581D02*
X59180931Y-58964581D01*
X59085693Y-59012200D01*
X59038074Y-59059819D01*
X58942836Y-59202676D01*
X58895217Y-59393152D01*
X58895217Y-59774105D01*
X58942836Y-59869343D01*
X58990455Y-59916962D01*
X59085693Y-59964581D01*
X59276170Y-59964581D01*
X59371408Y-59916962D01*
X59419027Y-59869343D01*
X59466646Y-59774105D01*
X59466646Y-59536010D01*
X59419027Y-59440771D01*
X59371408Y-59393152D01*
X59276170Y-59345533D01*
X59085693Y-59345533D01*
X58990455Y-59393152D01*
X58942836Y-59440771D01*
X58895217Y-59536010D01*
X57085693Y-57449981D02*
X57085693Y-56449981D01*
X57466646Y-56449981D01*
X57561884Y-56497600D01*
X57609503Y-56545219D01*
X57657122Y-56640457D01*
X57657122Y-56783314D01*
X57609503Y-56878552D01*
X57561884Y-56926171D01*
X57466646Y-56973790D01*
X57085693Y-56973790D01*
X58038074Y-57164267D02*
X58514265Y-57164267D01*
X57942836Y-57449981D02*
X58276169Y-56449981D01*
X58609503Y-57449981D01*
X59419027Y-56449981D02*
X58942836Y-56449981D01*
X58895217Y-56926171D01*
X58942836Y-56878552D01*
X59038074Y-56830933D01*
X59276170Y-56830933D01*
X59371408Y-56878552D01*
X59419027Y-56926171D01*
X59466646Y-57021410D01*
X59466646Y-57259505D01*
X59419027Y-57354743D01*
X59371408Y-57402362D01*
X59276170Y-57449981D01*
X59038074Y-57449981D01*
X58942836Y-57402362D01*
X58895217Y-57354743D01*
X57197453Y-54823621D02*
X57197453Y-53823621D01*
X57578406Y-53823621D01*
X57673644Y-53871240D01*
X57721263Y-53918859D01*
X57768882Y-54014097D01*
X57768882Y-54156954D01*
X57721263Y-54252192D01*
X57673644Y-54299811D01*
X57578406Y-54347430D01*
X57197453Y-54347430D01*
X58149834Y-54537907D02*
X58626025Y-54537907D01*
X58054596Y-54823621D02*
X58387929Y-53823621D01*
X58721263Y-54823621D01*
X59483168Y-54156954D02*
X59483168Y-54823621D01*
X59245072Y-53776002D02*
X59006977Y-54490288D01*
X59626025Y-54490288D01*
X57365093Y-52420781D02*
X57365093Y-51420781D01*
X57746046Y-51420781D01*
X57841284Y-51468400D01*
X57888903Y-51516019D01*
X57936522Y-51611257D01*
X57936522Y-51754114D01*
X57888903Y-51849352D01*
X57841284Y-51896971D01*
X57746046Y-51944590D01*
X57365093Y-51944590D01*
X58317474Y-52135067D02*
X58793665Y-52135067D01*
X58222236Y-52420781D02*
X58555569Y-51420781D01*
X58888903Y-52420781D01*
X59126998Y-51420781D02*
X59746046Y-51420781D01*
X59412712Y-51801733D01*
X59555570Y-51801733D01*
X59650808Y-51849352D01*
X59698427Y-51896971D01*
X59746046Y-51992210D01*
X59746046Y-52230305D01*
X59698427Y-52325543D01*
X59650808Y-52373162D01*
X59555570Y-52420781D01*
X59269855Y-52420781D01*
X59174617Y-52373162D01*
X59126998Y-52325543D01*
X57202533Y-49728381D02*
X57202533Y-48728381D01*
X57583486Y-48728381D01*
X57678724Y-48776000D01*
X57726343Y-48823619D01*
X57773962Y-48918857D01*
X57773962Y-49061714D01*
X57726343Y-49156952D01*
X57678724Y-49204571D01*
X57583486Y-49252190D01*
X57202533Y-49252190D01*
X58154914Y-49442667D02*
X58631105Y-49442667D01*
X58059676Y-49728381D02*
X58393009Y-48728381D01*
X58726343Y-49728381D01*
X59012057Y-48823619D02*
X59059676Y-48776000D01*
X59154914Y-48728381D01*
X59393010Y-48728381D01*
X59488248Y-48776000D01*
X59535867Y-48823619D01*
X59583486Y-48918857D01*
X59583486Y-49014095D01*
X59535867Y-49156952D01*
X58964438Y-49728381D01*
X59583486Y-49728381D01*
X57075533Y-47340781D02*
X57075533Y-46340781D01*
X57456486Y-46340781D01*
X57551724Y-46388400D01*
X57599343Y-46436019D01*
X57646962Y-46531257D01*
X57646962Y-46674114D01*
X57599343Y-46769352D01*
X57551724Y-46816971D01*
X57456486Y-46864590D01*
X57075533Y-46864590D01*
X58027914Y-47055067D02*
X58504105Y-47055067D01*
X57932676Y-47340781D02*
X58266009Y-46340781D01*
X58599343Y-47340781D01*
X59456486Y-47340781D02*
X58885057Y-47340781D01*
X59170771Y-47340781D02*
X59170771Y-46340781D01*
X59075533Y-46483638D01*
X58980295Y-46578876D01*
X58885057Y-46626495D01*
X57304133Y-44927781D02*
X57304133Y-43927781D01*
X57685086Y-43927781D01*
X57780324Y-43975400D01*
X57827943Y-44023019D01*
X57875562Y-44118257D01*
X57875562Y-44261114D01*
X57827943Y-44356352D01*
X57780324Y-44403971D01*
X57685086Y-44451590D01*
X57304133Y-44451590D01*
X58256514Y-44642067D02*
X58732705Y-44642067D01*
X58161276Y-44927781D02*
X58494609Y-43927781D01*
X58827943Y-44927781D01*
X59351752Y-43927781D02*
X59446991Y-43927781D01*
X59542229Y-43975400D01*
X59589848Y-44023019D01*
X59637467Y-44118257D01*
X59685086Y-44308733D01*
X59685086Y-44546829D01*
X59637467Y-44737305D01*
X59589848Y-44832543D01*
X59542229Y-44880162D01*
X59446991Y-44927781D01*
X59351752Y-44927781D01*
X59256514Y-44880162D01*
X59208895Y-44832543D01*
X59161276Y-44737305D01*
X59113657Y-44546829D01*
X59113657Y-44308733D01*
X59161276Y-44118257D01*
X59208895Y-44023019D01*
X59256514Y-43975400D01*
X59351752Y-43927781D01*
X56197714Y-37282381D02*
X56197714Y-36282381D01*
X56578667Y-36282381D01*
X56673905Y-36330000D01*
X56721524Y-36377619D01*
X56769143Y-36472857D01*
X56769143Y-36615714D01*
X56721524Y-36710952D01*
X56673905Y-36758571D01*
X56578667Y-36806190D01*
X56197714Y-36806190D01*
X57769143Y-37187143D02*
X57721524Y-37234762D01*
X57578667Y-37282381D01*
X57483429Y-37282381D01*
X57340571Y-37234762D01*
X57245333Y-37139524D01*
X57197714Y-37044286D01*
X57150095Y-36853810D01*
X57150095Y-36710952D01*
X57197714Y-36520476D01*
X57245333Y-36425238D01*
X57340571Y-36330000D01*
X57483429Y-36282381D01*
X57578667Y-36282381D01*
X57721524Y-36330000D01*
X57769143Y-36377619D01*
X58721524Y-37282381D02*
X58150095Y-37282381D01*
X58435809Y-37282381D02*
X58435809Y-36282381D01*
X58340571Y-36425238D01*
X58245333Y-36520476D01*
X58150095Y-36568095D01*
X59054857Y-36282381D02*
X59673905Y-36282381D01*
X59340571Y-36663333D01*
X59483429Y-36663333D01*
X59578667Y-36710952D01*
X59626286Y-36758571D01*
X59673905Y-36853810D01*
X59673905Y-37091905D01*
X59626286Y-37187143D01*
X59578667Y-37234762D01*
X59483429Y-37282381D01*
X59197714Y-37282381D01*
X59102476Y-37234762D01*
X59054857Y-37187143D01*
X56497743Y-33767781D02*
X56831076Y-34767781D01*
X57164410Y-33767781D01*
X57831077Y-34243971D02*
X57973934Y-34291590D01*
X58021553Y-34339210D01*
X58069172Y-34434448D01*
X58069172Y-34577305D01*
X58021553Y-34672543D01*
X57973934Y-34720162D01*
X57878696Y-34767781D01*
X57497743Y-34767781D01*
X57497743Y-33767781D01*
X57831077Y-33767781D01*
X57926315Y-33815400D01*
X57973934Y-33863019D01*
X58021553Y-33958257D01*
X58021553Y-34053495D01*
X57973934Y-34148733D01*
X57926315Y-34196352D01*
X57831077Y-34243971D01*
X57497743Y-34243971D01*
X58450124Y-34482067D02*
X58926315Y-34482067D01*
X58354886Y-34767781D02*
X58688219Y-33767781D01*
X59021553Y-34767781D01*
X59212029Y-33767781D02*
X59783458Y-33767781D01*
X59497743Y-34767781D02*
X59497743Y-33767781D01*
X68910200Y-50093076D02*
X68592002Y-50411274D01*
X74036724Y-55219600D02*
X73665493Y-55590831D01*
X68910200Y-60346124D02*
X69281431Y-59974893D01*
X63783676Y-55219600D02*
X64154907Y-54848369D01*
X68910200Y-50093076D02*
X69281431Y-50464307D01*
X63783676Y-55219600D02*
X64154907Y-55590831D01*
X68910200Y-60346124D02*
X68538969Y-59974893D01*
X74036724Y-55219600D02*
X73665493Y-54848369D01*
X68592002Y-50411274D02*
X67619730Y-49439002D01*
D12*
X59780000Y-83748000D02*
X62440000Y-83748000D01*
X59780000Y-35428000D02*
X59780000Y-83748000D01*
X62440000Y-35428000D02*
X62440000Y-83748000D01*
X59780000Y-35428000D02*
X62440000Y-35428000D01*
X59780000Y-34158000D02*
X59780000Y-32828000D01*
X59780000Y-32828000D02*
X61110000Y-32828000D01*
X75020000Y-83748000D02*
X77680000Y-83748000D01*
X75020000Y-35428000D02*
X75020000Y-83748000D01*
X77680000Y-35428000D02*
X77680000Y-83748000D01*
X75020000Y-35428000D02*
X77680000Y-35428000D01*
X75020000Y-34158000D02*
X75020000Y-32828000D01*
X75020000Y-32828000D02*
X76350000Y-32828000D01*
X68937500Y-44156000D02*
X68937500Y-49276000D01*
X66317500Y-44156000D02*
X66317500Y-49276000D01*
X68937500Y-44156000D02*
X66317500Y-44156000D01*
X68937500Y-49276000D02*
X66317500Y-49276000D01*
X65826000Y-44156000D02*
X65826000Y-49276000D01*
X63206000Y-44156000D02*
X63206000Y-49276000D01*
X65826000Y-44156000D02*
X63206000Y-44156000D01*
X65826000Y-49276000D02*
X63206000Y-49276000D01*
X69556000Y-35520000D02*
X74676000Y-35520000D01*
X69556000Y-38140000D02*
X74676000Y-38140000D01*
X69556000Y-35520000D02*
X69556000Y-38140000D01*
X74676000Y-35520000D02*
X74676000Y-38140000D01*
X63460000Y-35520000D02*
X68580000Y-35520000D01*
X63460000Y-38140000D02*
X68580000Y-38140000D01*
X63460000Y-35520000D02*
X63460000Y-38140000D01*
X68580000Y-35520000D02*
X68580000Y-38140000D01*
X63744800Y-32477400D02*
X63744800Y-35137400D01*
X71424800Y-32477400D02*
X63744800Y-32477400D01*
X71424800Y-35137400D02*
X63744800Y-35137400D01*
X71424800Y-32477400D02*
X71424800Y-35137400D01*
X72694800Y-32477400D02*
X74024800Y-32477400D01*
X74024800Y-32477400D02*
X74024800Y-33807400D01*
X72186000Y-43546000D02*
X65936000Y-43546000D01*
X72186000Y-38496000D02*
X65936000Y-38496000D01*
X72186000Y-38496000D02*
G75*
G02X72186000Y-43546000I0J-2525000D01*
G01*
X65936000Y-38496000D02*
G75*
G03X65936000Y-43546000I0J-2525000D01*
G01*
X73782217Y-48035137D02*
G75*
G03X71882000Y-48034856I-950217J-732863D01*
G01*
X73782217Y-49500863D02*
G75*
G02X71882000Y-49501144I-950217J732863D01*
G01*
X69556000Y-44156000D02*
X74676000Y-44156000D01*
X69556000Y-46776000D02*
X74676000Y-46776000D01*
X69556000Y-44156000D02*
X69556000Y-46776000D01*
X74676000Y-44156000D02*
X74676000Y-46776000D01*
X65888763Y-83631762D02*
G75*
G03X65889040Y-79020460I-1179723J2305722D01*
G01*
X63529317Y-83631762D02*
G75*
G02X63529040Y-79020460I1179723J2305722D01*
G01*
X63529317Y-83631762D02*
G75*
G03X65889040Y-83631620I1179723J2305722D01*
G01*
X67259040Y-81326040D02*
X62159040Y-81326040D01*
X67259040Y-81366040D02*
X62159040Y-81366040D01*
X67258040Y-81406040D02*
X62160040Y-81406040D01*
X67257040Y-81446040D02*
X62161040Y-81446040D01*
X67255040Y-81486040D02*
X62163040Y-81486040D01*
X67252040Y-81526040D02*
X62166040Y-81526040D01*
X67248040Y-81566040D02*
X62170040Y-81566040D01*
X67244040Y-81606040D02*
X65689040Y-81606040D01*
X63729040Y-81606040D02*
X62174040Y-81606040D01*
X67240040Y-81646040D02*
X65689040Y-81646040D01*
X63729040Y-81646040D02*
X62178040Y-81646040D01*
X67234040Y-81686040D02*
X65689040Y-81686040D01*
X63729040Y-81686040D02*
X62184040Y-81686040D01*
X67228040Y-81726040D02*
X65689040Y-81726040D01*
X63729040Y-81726040D02*
X62190040Y-81726040D01*
X67222040Y-81766040D02*
X65689040Y-81766040D01*
X63729040Y-81766040D02*
X62196040Y-81766040D01*
X67215040Y-81806040D02*
X65689040Y-81806040D01*
X63729040Y-81806040D02*
X62203040Y-81806040D01*
X67207040Y-81846040D02*
X65689040Y-81846040D01*
X63729040Y-81846040D02*
X62211040Y-81846040D01*
X67198040Y-81886040D02*
X65689040Y-81886040D01*
X63729040Y-81886040D02*
X62220040Y-81886040D01*
X67189040Y-81926040D02*
X65689040Y-81926040D01*
X63729040Y-81926040D02*
X62229040Y-81926040D01*
X67179040Y-81966040D02*
X65689040Y-81966040D01*
X63729040Y-81966040D02*
X62239040Y-81966040D01*
X67169040Y-82006040D02*
X65689040Y-82006040D01*
X63729040Y-82006040D02*
X62249040Y-82006040D01*
X67157040Y-82047040D02*
X65689040Y-82047040D01*
X63729040Y-82047040D02*
X62261040Y-82047040D01*
X67145040Y-82087040D02*
X65689040Y-82087040D01*
X63729040Y-82087040D02*
X62273040Y-82087040D01*
X67133040Y-82127040D02*
X65689040Y-82127040D01*
X63729040Y-82127040D02*
X62285040Y-82127040D01*
X67119040Y-82167040D02*
X65689040Y-82167040D01*
X63729040Y-82167040D02*
X62299040Y-82167040D01*
X67105040Y-82207040D02*
X65689040Y-82207040D01*
X63729040Y-82207040D02*
X62313040Y-82207040D01*
X67091040Y-82247040D02*
X65689040Y-82247040D01*
X63729040Y-82247040D02*
X62327040Y-82247040D01*
X67075040Y-82287040D02*
X65689040Y-82287040D01*
X63729040Y-82287040D02*
X62343040Y-82287040D01*
X67059040Y-82327040D02*
X65689040Y-82327040D01*
X63729040Y-82327040D02*
X62359040Y-82327040D01*
X67042040Y-82367040D02*
X65689040Y-82367040D01*
X63729040Y-82367040D02*
X62376040Y-82367040D01*
X67024040Y-82407040D02*
X65689040Y-82407040D01*
X63729040Y-82407040D02*
X62394040Y-82407040D01*
X67005040Y-82447040D02*
X65689040Y-82447040D01*
X63729040Y-82447040D02*
X62413040Y-82447040D01*
X66985040Y-82487040D02*
X65689040Y-82487040D01*
X63729040Y-82487040D02*
X62433040Y-82487040D01*
X66965040Y-82527040D02*
X65689040Y-82527040D01*
X63729040Y-82527040D02*
X62453040Y-82527040D01*
X66943040Y-82567040D02*
X65689040Y-82567040D01*
X63729040Y-82567040D02*
X62475040Y-82567040D01*
X66921040Y-82607040D02*
X65689040Y-82607040D01*
X63729040Y-82607040D02*
X62497040Y-82607040D01*
X66898040Y-82647040D02*
X65689040Y-82647040D01*
X63729040Y-82647040D02*
X62520040Y-82647040D01*
X66874040Y-82687040D02*
X65689040Y-82687040D01*
X63729040Y-82687040D02*
X62544040Y-82687040D01*
X66849040Y-82727040D02*
X65689040Y-82727040D01*
X63729040Y-82727040D02*
X62569040Y-82727040D01*
X66822040Y-82767040D02*
X65689040Y-82767040D01*
X63729040Y-82767040D02*
X62596040Y-82767040D01*
X66795040Y-82807040D02*
X65689040Y-82807040D01*
X63729040Y-82807040D02*
X62623040Y-82807040D01*
X66767040Y-82847040D02*
X65689040Y-82847040D01*
X63729040Y-82847040D02*
X62651040Y-82847040D01*
X66737040Y-82887040D02*
X65689040Y-82887040D01*
X63729040Y-82887040D02*
X62681040Y-82887040D01*
X66706040Y-82927040D02*
X65689040Y-82927040D01*
X63729040Y-82927040D02*
X62712040Y-82927040D01*
X66674040Y-82967040D02*
X65689040Y-82967040D01*
X63729040Y-82967040D02*
X62744040Y-82967040D01*
X66641040Y-83007040D02*
X65689040Y-83007040D01*
X63729040Y-83007040D02*
X62777040Y-83007040D01*
X66606040Y-83047040D02*
X65689040Y-83047040D01*
X63729040Y-83047040D02*
X62812040Y-83047040D01*
X66570040Y-83087040D02*
X65689040Y-83087040D01*
X63729040Y-83087040D02*
X62848040Y-83087040D01*
X66532040Y-83127040D02*
X65689040Y-83127040D01*
X63729040Y-83127040D02*
X62886040Y-83127040D01*
X66492040Y-83167040D02*
X65689040Y-83167040D01*
X63729040Y-83167040D02*
X62926040Y-83167040D01*
X66451040Y-83207040D02*
X65689040Y-83207040D01*
X63729040Y-83207040D02*
X62967040Y-83207040D01*
X66408040Y-83247040D02*
X65689040Y-83247040D01*
X63729040Y-83247040D02*
X63010040Y-83247040D01*
X66363040Y-83287040D02*
X65689040Y-83287040D01*
X63729040Y-83287040D02*
X63055040Y-83287040D01*
X66315040Y-83327040D02*
X65689040Y-83327040D01*
X63729040Y-83327040D02*
X63103040Y-83327040D01*
X66265040Y-83367040D02*
X65689040Y-83367040D01*
X63729040Y-83367040D02*
X63153040Y-83367040D01*
X66213040Y-83407040D02*
X65689040Y-83407040D01*
X63729040Y-83407040D02*
X63205040Y-83407040D01*
X66157040Y-83447040D02*
X65689040Y-83447040D01*
X63729040Y-83447040D02*
X63261040Y-83447040D01*
X66099040Y-83487040D02*
X65689040Y-83487040D01*
X63729040Y-83487040D02*
X63319040Y-83487040D01*
X66036040Y-83527040D02*
X65689040Y-83527040D01*
X63729040Y-83527040D02*
X63382040Y-83527040D01*
X65970040Y-83567040D02*
X63448040Y-83567040D01*
X65898040Y-83607040D02*
X63520040Y-83607040D01*
X65821040Y-83647040D02*
X63597040Y-83647040D01*
X65737040Y-83687040D02*
X63681040Y-83687040D01*
X65643040Y-83727040D02*
X63775040Y-83727040D01*
X65538040Y-83767040D02*
X63880040Y-83767040D01*
X65416040Y-83807040D02*
X64002040Y-83807040D01*
X65268040Y-83847040D02*
X64150040Y-83847040D01*
X65063040Y-83887040D02*
X64355040Y-83887040D01*
X64709040Y-77876040D02*
X64709040Y-79076040D01*
X65359040Y-78476040D02*
X64059040Y-78476040D01*
X65555500Y-60856500D02*
X70675500Y-60856500D01*
X65555500Y-63476500D02*
X70675500Y-63476500D01*
X65555500Y-60856500D02*
X65555500Y-63476500D01*
X70675500Y-60856500D02*
X70675500Y-63476500D01*
X63552177Y-73330078D02*
G75*
G03X63551900Y-77941380I1179723J-2305722D01*
G01*
X65911623Y-73330078D02*
G75*
G02X65911900Y-77941380I-1179723J-2305722D01*
G01*
X65911623Y-73330078D02*
G75*
G03X63551900Y-73330220I-1179723J-2305722D01*
G01*
X62181900Y-75635800D02*
X67281900Y-75635800D01*
X62181900Y-75595800D02*
X67281900Y-75595800D01*
X62182900Y-75555800D02*
X67280900Y-75555800D01*
X62183900Y-75515800D02*
X67279900Y-75515800D01*
X62185900Y-75475800D02*
X67277900Y-75475800D01*
X62188900Y-75435800D02*
X67274900Y-75435800D01*
X62192900Y-75395800D02*
X67270900Y-75395800D01*
X62196900Y-75355800D02*
X63751900Y-75355800D01*
X65711900Y-75355800D02*
X67266900Y-75355800D01*
X62200900Y-75315800D02*
X63751900Y-75315800D01*
X65711900Y-75315800D02*
X67262900Y-75315800D01*
X62206900Y-75275800D02*
X63751900Y-75275800D01*
X65711900Y-75275800D02*
X67256900Y-75275800D01*
X62212900Y-75235800D02*
X63751900Y-75235800D01*
X65711900Y-75235800D02*
X67250900Y-75235800D01*
X62218900Y-75195800D02*
X63751900Y-75195800D01*
X65711900Y-75195800D02*
X67244900Y-75195800D01*
X62225900Y-75155800D02*
X63751900Y-75155800D01*
X65711900Y-75155800D02*
X67237900Y-75155800D01*
X62233900Y-75115800D02*
X63751900Y-75115800D01*
X65711900Y-75115800D02*
X67229900Y-75115800D01*
X62242900Y-75075800D02*
X63751900Y-75075800D01*
X65711900Y-75075800D02*
X67220900Y-75075800D01*
X62251900Y-75035800D02*
X63751900Y-75035800D01*
X65711900Y-75035800D02*
X67211900Y-75035800D01*
X62261900Y-74995800D02*
X63751900Y-74995800D01*
X65711900Y-74995800D02*
X67201900Y-74995800D01*
X62271900Y-74955800D02*
X63751900Y-74955800D01*
X65711900Y-74955800D02*
X67191900Y-74955800D01*
X62283900Y-74914800D02*
X63751900Y-74914800D01*
X65711900Y-74914800D02*
X67179900Y-74914800D01*
X62295900Y-74874800D02*
X63751900Y-74874800D01*
X65711900Y-74874800D02*
X67167900Y-74874800D01*
X62307900Y-74834800D02*
X63751900Y-74834800D01*
X65711900Y-74834800D02*
X67155900Y-74834800D01*
X62321900Y-74794800D02*
X63751900Y-74794800D01*
X65711900Y-74794800D02*
X67141900Y-74794800D01*
X62335900Y-74754800D02*
X63751900Y-74754800D01*
X65711900Y-74754800D02*
X67127900Y-74754800D01*
X62349900Y-74714800D02*
X63751900Y-74714800D01*
X65711900Y-74714800D02*
X67113900Y-74714800D01*
X62365900Y-74674800D02*
X63751900Y-74674800D01*
X65711900Y-74674800D02*
X67097900Y-74674800D01*
X62381900Y-74634800D02*
X63751900Y-74634800D01*
X65711900Y-74634800D02*
X67081900Y-74634800D01*
X62398900Y-74594800D02*
X63751900Y-74594800D01*
X65711900Y-74594800D02*
X67064900Y-74594800D01*
X62416900Y-74554800D02*
X63751900Y-74554800D01*
X65711900Y-74554800D02*
X67046900Y-74554800D01*
X62435900Y-74514800D02*
X63751900Y-74514800D01*
X65711900Y-74514800D02*
X67027900Y-74514800D01*
X62455900Y-74474800D02*
X63751900Y-74474800D01*
X65711900Y-74474800D02*
X67007900Y-74474800D01*
X62475900Y-74434800D02*
X63751900Y-74434800D01*
X65711900Y-74434800D02*
X66987900Y-74434800D01*
X62497900Y-74394800D02*
X63751900Y-74394800D01*
X65711900Y-74394800D02*
X66965900Y-74394800D01*
X62519900Y-74354800D02*
X63751900Y-74354800D01*
X65711900Y-74354800D02*
X66943900Y-74354800D01*
X62542900Y-74314800D02*
X63751900Y-74314800D01*
X65711900Y-74314800D02*
X66920900Y-74314800D01*
X62566900Y-74274800D02*
X63751900Y-74274800D01*
X65711900Y-74274800D02*
X66896900Y-74274800D01*
X62591900Y-74234800D02*
X63751900Y-74234800D01*
X65711900Y-74234800D02*
X66871900Y-74234800D01*
X62618900Y-74194800D02*
X63751900Y-74194800D01*
X65711900Y-74194800D02*
X66844900Y-74194800D01*
X62645900Y-74154800D02*
X63751900Y-74154800D01*
X65711900Y-74154800D02*
X66817900Y-74154800D01*
X62673900Y-74114800D02*
X63751900Y-74114800D01*
X65711900Y-74114800D02*
X66789900Y-74114800D01*
X62703900Y-74074800D02*
X63751900Y-74074800D01*
X65711900Y-74074800D02*
X66759900Y-74074800D01*
X62734900Y-74034800D02*
X63751900Y-74034800D01*
X65711900Y-74034800D02*
X66728900Y-74034800D01*
X62766900Y-73994800D02*
X63751900Y-73994800D01*
X65711900Y-73994800D02*
X66696900Y-73994800D01*
X62799900Y-73954800D02*
X63751900Y-73954800D01*
X65711900Y-73954800D02*
X66663900Y-73954800D01*
X62834900Y-73914800D02*
X63751900Y-73914800D01*
X65711900Y-73914800D02*
X66628900Y-73914800D01*
X62870900Y-73874800D02*
X63751900Y-73874800D01*
X65711900Y-73874800D02*
X66592900Y-73874800D01*
X62908900Y-73834800D02*
X63751900Y-73834800D01*
X65711900Y-73834800D02*
X66554900Y-73834800D01*
X62948900Y-73794800D02*
X63751900Y-73794800D01*
X65711900Y-73794800D02*
X66514900Y-73794800D01*
X62989900Y-73754800D02*
X63751900Y-73754800D01*
X65711900Y-73754800D02*
X66473900Y-73754800D01*
X63032900Y-73714800D02*
X63751900Y-73714800D01*
X65711900Y-73714800D02*
X66430900Y-73714800D01*
X63077900Y-73674800D02*
X63751900Y-73674800D01*
X65711900Y-73674800D02*
X66385900Y-73674800D01*
X63125900Y-73634800D02*
X63751900Y-73634800D01*
X65711900Y-73634800D02*
X66337900Y-73634800D01*
X63175900Y-73594800D02*
X63751900Y-73594800D01*
X65711900Y-73594800D02*
X66287900Y-73594800D01*
X63227900Y-73554800D02*
X63751900Y-73554800D01*
X65711900Y-73554800D02*
X66235900Y-73554800D01*
X63283900Y-73514800D02*
X63751900Y-73514800D01*
X65711900Y-73514800D02*
X66179900Y-73514800D01*
X63341900Y-73474800D02*
X63751900Y-73474800D01*
X65711900Y-73474800D02*
X66121900Y-73474800D01*
X63404900Y-73434800D02*
X63751900Y-73434800D01*
X65711900Y-73434800D02*
X66058900Y-73434800D01*
X63470900Y-73394800D02*
X65992900Y-73394800D01*
X63542900Y-73354800D02*
X65920900Y-73354800D01*
X63619900Y-73314800D02*
X65843900Y-73314800D01*
X63703900Y-73274800D02*
X65759900Y-73274800D01*
X63797900Y-73234800D02*
X65665900Y-73234800D01*
X63902900Y-73194800D02*
X65560900Y-73194800D01*
X64024900Y-73154800D02*
X65438900Y-73154800D01*
X64172900Y-73114800D02*
X65290900Y-73114800D01*
X64377900Y-73074800D02*
X65085900Y-73074800D01*
X64731900Y-79085800D02*
X64731900Y-77885800D01*
X64081900Y-78485800D02*
X65381900Y-78485800D01*
X59843040Y-92187400D02*
X64963040Y-92187400D01*
X59843040Y-94807400D02*
X64963040Y-94807400D01*
X59843040Y-92187400D02*
X59843040Y-94807400D01*
X64963040Y-92187400D02*
X64963040Y-94807400D01*
X61141232Y-97529905D02*
G75*
G03X60984324Y-100762240I1078608J-1672335D01*
G01*
X63298448Y-97529905D02*
G75*
G02X63455356Y-100762240I-1078608J-1672335D01*
G01*
X61140003Y-98161110D02*
G75*
G03X61139840Y-100243201I1079837J-1041130D01*
G01*
X63299677Y-98161110D02*
G75*
G02X63299840Y-100243201I-1079837J-1041130D01*
G01*
X60983840Y-100762240D02*
X61139840Y-100762240D01*
X63299840Y-100762240D02*
X63455840Y-100762240D01*
X70329900Y-75737100D02*
X70459900Y-75737100D01*
X70459900Y-75737100D02*
X70459900Y-81057100D01*
X70459900Y-81057100D02*
X70329900Y-81057100D01*
X67769900Y-75737100D02*
X67639900Y-75737100D01*
X67639900Y-75737100D02*
X67639900Y-81057100D01*
X67639900Y-81057100D02*
X67769900Y-81057100D01*
X70459900Y-76577100D02*
X67639900Y-76577100D01*
X73479500Y-75597400D02*
X73609500Y-75597400D01*
X73609500Y-75597400D02*
X73609500Y-80917400D01*
X73609500Y-80917400D02*
X73479500Y-80917400D01*
X70919500Y-75597400D02*
X70789500Y-75597400D01*
X70789500Y-75597400D02*
X70789500Y-80917400D01*
X70789500Y-80917400D02*
X70919500Y-80917400D01*
X73609500Y-76437400D02*
X70789500Y-76437400D01*
X66584640Y-102936040D02*
X66584640Y-111576040D01*
X66584640Y-94556040D02*
X66584640Y-99636040D01*
X78784640Y-102936040D02*
X78784640Y-111576040D01*
X78784640Y-94556040D02*
X78784640Y-99636040D01*
X78784640Y-111576040D02*
X66584640Y-111576040D01*
X66584640Y-94556040D02*
X78784640Y-94556040D01*
X64710000Y-63503500D02*
X64710000Y-68703500D01*
X69850000Y-63503500D02*
X64710000Y-63503500D01*
X72450000Y-68703500D02*
X64710000Y-68703500D01*
X69850000Y-63503500D02*
X69850000Y-66103500D01*
X69850000Y-66103500D02*
X72450000Y-66103500D01*
X72450000Y-66103500D02*
X72450000Y-68703500D01*
X71120000Y-63503500D02*
X72450000Y-63503500D01*
X72450000Y-63503500D02*
X72450000Y-64833500D01*
X61960000Y-91606000D02*
X66460000Y-91606000D01*
X60710000Y-87606000D02*
X60710000Y-89106000D01*
X66460000Y-85106000D02*
X61960000Y-85106000D01*
X67710000Y-89106000D02*
X67710000Y-87606000D01*
X71465000Y-85817000D02*
X71795000Y-85817000D01*
X71795000Y-85817000D02*
X71795000Y-92237000D01*
X71795000Y-92237000D02*
X71465000Y-92237000D01*
X69505000Y-85817000D02*
X69175000Y-85817000D01*
X69175000Y-85817000D02*
X69175000Y-92237000D01*
X69175000Y-92237000D02*
X69505000Y-92237000D01*
X74513000Y-85690000D02*
X74843000Y-85690000D01*
X74843000Y-85690000D02*
X74843000Y-92110000D01*
X74843000Y-92110000D02*
X74513000Y-92110000D01*
X72553000Y-85690000D02*
X72223000Y-85690000D01*
X72223000Y-85690000D02*
X72223000Y-92110000D01*
X72223000Y-92110000D02*
X72553000Y-92110000D01*
X77815000Y-86071000D02*
X78145000Y-86071000D01*
X78145000Y-86071000D02*
X78145000Y-92491000D01*
X78145000Y-92491000D02*
X77815000Y-92491000D01*
X75855000Y-86071000D02*
X75525000Y-86071000D01*
X75525000Y-86071000D02*
X75525000Y-92491000D01*
X75525000Y-92491000D02*
X75855000Y-92491000D01*
X59120600Y-85832240D02*
X59450600Y-85832240D01*
X59450600Y-85832240D02*
X59450600Y-92252240D01*
X59450600Y-92252240D02*
X59120600Y-92252240D01*
X57160600Y-85832240D02*
X56830600Y-85832240D01*
X56830600Y-85832240D02*
X56830600Y-92252240D01*
X56830600Y-92252240D02*
X57160600Y-92252240D01*
X59044400Y-95662040D02*
X59374400Y-95662040D01*
X59374400Y-95662040D02*
X59374400Y-102082040D01*
X59374400Y-102082040D02*
X59044400Y-102082040D01*
X57084400Y-95662040D02*
X56754400Y-95662040D01*
X56754400Y-95662040D02*
X56754400Y-102082040D01*
X56754400Y-102082040D02*
X57084400Y-102082040D01*
X63447300Y-68322200D02*
X73687300Y-68322200D01*
X63447300Y-72963200D02*
X73687300Y-72963200D01*
X63447300Y-68322200D02*
X63447300Y-72963200D01*
X73687300Y-68322200D02*
X73687300Y-72963200D01*
X63447300Y-69832200D02*
X73687300Y-69832200D01*
X66717300Y-68322200D02*
X66717300Y-69832200D01*
X70418300Y-68322200D02*
X70418300Y-69832200D01*
D11*
X73001318Y-50050986D02*
X72428898Y-50623406D01*
X72395226Y-50724421D01*
X72395226Y-50791764D01*
X72428898Y-50892779D01*
X72563586Y-51027467D01*
X72664601Y-51061139D01*
X72731944Y-51061139D01*
X72832959Y-51027467D01*
X73405379Y-50455047D01*
X73641081Y-50825436D02*
X73708425Y-50825436D01*
X73809440Y-50859108D01*
X73977799Y-51027467D01*
X74011471Y-51128482D01*
X74011471Y-51195826D01*
X73977799Y-51296841D01*
X73910456Y-51364184D01*
X73775769Y-51431528D01*
X72967646Y-51431528D01*
X73405379Y-51869261D01*
X62190381Y-35639333D02*
X62904667Y-35639333D01*
X63047524Y-35686953D01*
X63142762Y-35782191D01*
X63190381Y-35925048D01*
X63190381Y-36020286D01*
X62190381Y-34686952D02*
X62190381Y-35163143D01*
X62666571Y-35210762D01*
X62618952Y-35163143D01*
X62571333Y-35067905D01*
X62571333Y-34829809D01*
X62618952Y-34734571D01*
X62666571Y-34686952D01*
X62761810Y-34639333D01*
X62999905Y-34639333D01*
X63095143Y-34686952D01*
X63142762Y-34734571D01*
X63190381Y-34829809D01*
X63190381Y-35067905D01*
X63142762Y-35163143D01*
X63095143Y-35210762D01*
X75017381Y-35512333D02*
X75731667Y-35512333D01*
X75874524Y-35559953D01*
X75969762Y-35655191D01*
X76017381Y-35798048D01*
X76017381Y-35893286D01*
X76017381Y-34988524D02*
X76017381Y-34798048D01*
X75969762Y-34702809D01*
X75922143Y-34655190D01*
X75779286Y-34559952D01*
X75588810Y-34512333D01*
X75207857Y-34512333D01*
X75112619Y-34559952D01*
X75065000Y-34607571D01*
X75017381Y-34702809D01*
X75017381Y-34893286D01*
X75065000Y-34988524D01*
X75112619Y-35036143D01*
X75207857Y-35083762D01*
X75445952Y-35083762D01*
X75541190Y-35036143D01*
X75588810Y-34988524D01*
X75636429Y-34893286D01*
X75636429Y-34702809D01*
X75588810Y-34607571D01*
X75541190Y-34559952D01*
X75445952Y-34512333D01*
X66921143Y-44362643D02*
X66873524Y-44410262D01*
X66730667Y-44457881D01*
X66635429Y-44457881D01*
X66492571Y-44410262D01*
X66397333Y-44315024D01*
X66349714Y-44219786D01*
X66302095Y-44029310D01*
X66302095Y-43886452D01*
X66349714Y-43695976D01*
X66397333Y-43600738D01*
X66492571Y-43505500D01*
X66635429Y-43457881D01*
X66730667Y-43457881D01*
X66873524Y-43505500D01*
X66921143Y-43553119D01*
X67873524Y-44457881D02*
X67302095Y-44457881D01*
X67587809Y-44457881D02*
X67587809Y-43457881D01*
X67492571Y-43600738D01*
X67397333Y-43695976D01*
X67302095Y-43743595D01*
X68254476Y-43553119D02*
X68302095Y-43505500D01*
X68397333Y-43457881D01*
X68635429Y-43457881D01*
X68730667Y-43505500D01*
X68778286Y-43553119D01*
X68825905Y-43648357D01*
X68825905Y-43743595D01*
X68778286Y-43886452D01*
X68206857Y-44457881D01*
X68825905Y-44457881D01*
X63936643Y-44235643D02*
X63889024Y-44283262D01*
X63746167Y-44330881D01*
X63650929Y-44330881D01*
X63508071Y-44283262D01*
X63412833Y-44188024D01*
X63365214Y-44092786D01*
X63317595Y-43902310D01*
X63317595Y-43759452D01*
X63365214Y-43568976D01*
X63412833Y-43473738D01*
X63508071Y-43378500D01*
X63650929Y-43330881D01*
X63746167Y-43330881D01*
X63889024Y-43378500D01*
X63936643Y-43426119D01*
X64889024Y-44330881D02*
X64317595Y-44330881D01*
X64603309Y-44330881D02*
X64603309Y-43330881D01*
X64508071Y-43473738D01*
X64412833Y-43568976D01*
X64317595Y-43616595D01*
X65746167Y-43664214D02*
X65746167Y-44330881D01*
X65508071Y-43283262D02*
X65269976Y-43997548D01*
X65889024Y-43997548D01*
X72543943Y-37625257D02*
X72591562Y-37672876D01*
X72639181Y-37815733D01*
X72639181Y-37910971D01*
X72591562Y-38053829D01*
X72496324Y-38149067D01*
X72401086Y-38196686D01*
X72210610Y-38244305D01*
X72067752Y-38244305D01*
X71877276Y-38196686D01*
X71782038Y-38149067D01*
X71686800Y-38053829D01*
X71639181Y-37910971D01*
X71639181Y-37815733D01*
X71686800Y-37672876D01*
X71734419Y-37625257D01*
X72639181Y-36672876D02*
X72639181Y-37244305D01*
X72639181Y-36958591D02*
X71639181Y-36958591D01*
X71782038Y-37053829D01*
X71877276Y-37149067D01*
X71924895Y-37244305D01*
X71639181Y-35768114D02*
X71639181Y-36244305D01*
X72115371Y-36291924D01*
X72067752Y-36244305D01*
X72020133Y-36149067D01*
X72020133Y-35910971D01*
X72067752Y-35815733D01*
X72115371Y-35768114D01*
X72210610Y-35720495D01*
X72448705Y-35720495D01*
X72543943Y-35768114D01*
X72591562Y-35815733D01*
X72639181Y-35910971D01*
X72639181Y-36149067D01*
X72591562Y-36244305D01*
X72543943Y-36291924D01*
X66498743Y-37422057D02*
X66546362Y-37469676D01*
X66593981Y-37612533D01*
X66593981Y-37707771D01*
X66546362Y-37850629D01*
X66451124Y-37945867D01*
X66355886Y-37993486D01*
X66165410Y-38041105D01*
X66022552Y-38041105D01*
X65832076Y-37993486D01*
X65736838Y-37945867D01*
X65641600Y-37850629D01*
X65593981Y-37707771D01*
X65593981Y-37612533D01*
X65641600Y-37469676D01*
X65689219Y-37422057D01*
X66593981Y-36469676D02*
X66593981Y-37041105D01*
X66593981Y-36755391D02*
X65593981Y-36755391D01*
X65736838Y-36850629D01*
X65832076Y-36945867D01*
X65879695Y-37041105D01*
X65593981Y-35612533D02*
X65593981Y-35803010D01*
X65641600Y-35898248D01*
X65689219Y-35945867D01*
X65832076Y-36041105D01*
X66022552Y-36088724D01*
X66403505Y-36088724D01*
X66498743Y-36041105D01*
X66546362Y-35993486D01*
X66593981Y-35898248D01*
X66593981Y-35707771D01*
X66546362Y-35612533D01*
X66498743Y-35564914D01*
X66403505Y-35517295D01*
X66165410Y-35517295D01*
X66070171Y-35564914D01*
X66022552Y-35612533D01*
X65974933Y-35707771D01*
X65974933Y-35898248D01*
X66022552Y-35993486D01*
X66070171Y-36041105D01*
X66165410Y-36088724D01*
X62647581Y-33937533D02*
X63361867Y-33937533D01*
X63504724Y-33985153D01*
X63599962Y-34080391D01*
X63647581Y-34223248D01*
X63647581Y-34318486D01*
X62980914Y-33032771D02*
X63647581Y-33032771D01*
X62599962Y-33270867D02*
X63314248Y-33508962D01*
X63314248Y-32889914D01*
X68484809Y-40997190D02*
X68484809Y-41473381D01*
X68151476Y-40473381D02*
X68484809Y-40997190D01*
X68818143Y-40473381D01*
X69675286Y-41473381D02*
X69103857Y-41473381D01*
X69389571Y-41473381D02*
X69389571Y-40473381D01*
X69294333Y-40616238D01*
X69199095Y-40711476D01*
X69103857Y-40759095D01*
X72358309Y-47410690D02*
X72358309Y-47886881D01*
X72024976Y-46886881D02*
X72358309Y-47410690D01*
X72691643Y-46886881D01*
X72977357Y-46982119D02*
X73024976Y-46934500D01*
X73120214Y-46886881D01*
X73358310Y-46886881D01*
X73453548Y-46934500D01*
X73501167Y-46982119D01*
X73548786Y-47077357D01*
X73548786Y-47172595D01*
X73501167Y-47315452D01*
X72929738Y-47886881D01*
X73548786Y-47886881D01*
X72032834Y-44426143D02*
X71985215Y-44473762D01*
X71842358Y-44521381D01*
X71747120Y-44521381D01*
X71604262Y-44473762D01*
X71509024Y-44378524D01*
X71461405Y-44283286D01*
X71413786Y-44092810D01*
X71413786Y-43949952D01*
X71461405Y-43759476D01*
X71509024Y-43664238D01*
X71604262Y-43569000D01*
X71747120Y-43521381D01*
X71842358Y-43521381D01*
X71985215Y-43569000D01*
X72032834Y-43616619D01*
X72604262Y-43949952D02*
X72509024Y-43902333D01*
X72461405Y-43854714D01*
X72413786Y-43759476D01*
X72413786Y-43711857D01*
X72461405Y-43616619D01*
X72509024Y-43569000D01*
X72604262Y-43521381D01*
X72794739Y-43521381D01*
X72889977Y-43569000D01*
X72937596Y-43616619D01*
X72985215Y-43711857D01*
X72985215Y-43759476D01*
X72937596Y-43854714D01*
X72889977Y-43902333D01*
X72794739Y-43949952D01*
X72604262Y-43949952D01*
X72509024Y-43997571D01*
X72461405Y-44045190D01*
X72413786Y-44140429D01*
X72413786Y-44330905D01*
X72461405Y-44426143D01*
X72509024Y-44473762D01*
X72604262Y-44521381D01*
X72794739Y-44521381D01*
X72889977Y-44473762D01*
X72937596Y-44426143D01*
X72985215Y-44330905D01*
X72985215Y-44140429D01*
X72937596Y-44045190D01*
X72889977Y-43997571D01*
X72794739Y-43949952D01*
X66882283Y-80103006D02*
X66929902Y-80150625D01*
X66977521Y-80293482D01*
X66977521Y-80388720D01*
X66929902Y-80531578D01*
X66834664Y-80626816D01*
X66739426Y-80674435D01*
X66548950Y-80722054D01*
X66406092Y-80722054D01*
X66215616Y-80674435D01*
X66120378Y-80626816D01*
X66025140Y-80531578D01*
X65977521Y-80388720D01*
X65977521Y-80293482D01*
X66025140Y-80150625D01*
X66072759Y-80103006D01*
X65977521Y-79769673D02*
X65977521Y-79103006D01*
X66977521Y-79531578D01*
X67905334Y-63476143D02*
X67857715Y-63523762D01*
X67714858Y-63571381D01*
X67619620Y-63571381D01*
X67476762Y-63523762D01*
X67381524Y-63428524D01*
X67333905Y-63333286D01*
X67286286Y-63142810D01*
X67286286Y-62999952D01*
X67333905Y-62809476D01*
X67381524Y-62714238D01*
X67476762Y-62619000D01*
X67619620Y-62571381D01*
X67714858Y-62571381D01*
X67857715Y-62619000D01*
X67905334Y-62666619D01*
X68381524Y-63571381D02*
X68572000Y-63571381D01*
X68667239Y-63523762D01*
X68714858Y-63476143D01*
X68810096Y-63333286D01*
X68857715Y-63142810D01*
X68857715Y-62761857D01*
X68810096Y-62666619D01*
X68762477Y-62619000D01*
X68667239Y-62571381D01*
X68476762Y-62571381D01*
X68381524Y-62619000D01*
X68333905Y-62666619D01*
X68286286Y-62761857D01*
X68286286Y-62999952D01*
X68333905Y-63095190D01*
X68381524Y-63142810D01*
X68476762Y-63190429D01*
X68667239Y-63190429D01*
X68762477Y-63142810D01*
X68810096Y-63095190D01*
X68857715Y-62999952D01*
X63311043Y-77261957D02*
X63358662Y-77309576D01*
X63406281Y-77452433D01*
X63406281Y-77547671D01*
X63358662Y-77690529D01*
X63263424Y-77785767D01*
X63168186Y-77833386D01*
X62977710Y-77881005D01*
X62834852Y-77881005D01*
X62644376Y-77833386D01*
X62549138Y-77785767D01*
X62453900Y-77690529D01*
X62406281Y-77547671D01*
X62406281Y-77452433D01*
X62453900Y-77309576D01*
X62501519Y-77261957D01*
X63406281Y-76309576D02*
X63406281Y-76881005D01*
X63406281Y-76595291D02*
X62406281Y-76595291D01*
X62549138Y-76690529D01*
X62644376Y-76785767D01*
X62691995Y-76881005D01*
X62406281Y-75976243D02*
X62406281Y-75357195D01*
X62787233Y-75690529D01*
X62787233Y-75547671D01*
X62834852Y-75452433D01*
X62882471Y-75404814D01*
X62977710Y-75357195D01*
X63215805Y-75357195D01*
X63311043Y-75404814D01*
X63358662Y-75452433D01*
X63406281Y-75547671D01*
X63406281Y-75833386D01*
X63358662Y-75928624D01*
X63311043Y-75976243D01*
X61536343Y-96216743D02*
X61488724Y-96264362D01*
X61345867Y-96311981D01*
X61250629Y-96311981D01*
X61107771Y-96264362D01*
X61012533Y-96169124D01*
X60964914Y-96073886D01*
X60917295Y-95883410D01*
X60917295Y-95740552D01*
X60964914Y-95550076D01*
X61012533Y-95454838D01*
X61107771Y-95359600D01*
X61250629Y-95311981D01*
X61345867Y-95311981D01*
X61488724Y-95359600D01*
X61536343Y-95407219D01*
X62488724Y-96311981D02*
X61917295Y-96311981D01*
X62203009Y-96311981D02*
X62203009Y-95311981D01*
X62107771Y-95454838D01*
X62012533Y-95550076D01*
X61917295Y-95597695D01*
X62822057Y-95311981D02*
X63488724Y-95311981D01*
X63060152Y-96311981D01*
X61618905Y-102814381D02*
X61618905Y-101814381D01*
X61857000Y-101814381D01*
X61999858Y-101862000D01*
X62095096Y-101957238D01*
X62142715Y-102052476D01*
X62190334Y-102242952D01*
X62190334Y-102385810D01*
X62142715Y-102576286D01*
X62095096Y-102671524D01*
X61999858Y-102766762D01*
X61857000Y-102814381D01*
X61618905Y-102814381D01*
X63047477Y-102147714D02*
X63047477Y-102814381D01*
X62809381Y-101766762D02*
X62571286Y-102481048D01*
X63190334Y-102481048D01*
X69502281Y-79122495D02*
X68502281Y-79122495D01*
X68502281Y-78884400D01*
X68549900Y-78741542D01*
X68645138Y-78646304D01*
X68740376Y-78598685D01*
X68930852Y-78551066D01*
X69073710Y-78551066D01*
X69264186Y-78598685D01*
X69359424Y-78646304D01*
X69454662Y-78741542D01*
X69502281Y-78884400D01*
X69502281Y-79122495D01*
X68502281Y-77646304D02*
X68502281Y-78122495D01*
X68978471Y-78170114D01*
X68930852Y-78122495D01*
X68883233Y-78027257D01*
X68883233Y-77789161D01*
X68930852Y-77693923D01*
X68978471Y-77646304D01*
X69073710Y-77598685D01*
X69311805Y-77598685D01*
X69407043Y-77646304D01*
X69454662Y-77693923D01*
X69502281Y-77789161D01*
X69502281Y-78027257D01*
X69454662Y-78122495D01*
X69407043Y-78170114D01*
X72715381Y-79046295D02*
X71715381Y-79046295D01*
X71715381Y-78808200D01*
X71763000Y-78665342D01*
X71858238Y-78570104D01*
X71953476Y-78522485D01*
X72143952Y-78474866D01*
X72286810Y-78474866D01*
X72477286Y-78522485D01*
X72572524Y-78570104D01*
X72667762Y-78665342D01*
X72715381Y-78808200D01*
X72715381Y-79046295D01*
X71715381Y-77617723D02*
X71715381Y-77808200D01*
X71763000Y-77903438D01*
X71810619Y-77951057D01*
X71953476Y-78046295D01*
X72143952Y-78093914D01*
X72524905Y-78093914D01*
X72620143Y-78046295D01*
X72667762Y-77998676D01*
X72715381Y-77903438D01*
X72715381Y-77712961D01*
X72667762Y-77617723D01*
X72620143Y-77570104D01*
X72524905Y-77522485D01*
X72286810Y-77522485D01*
X72191571Y-77570104D01*
X72143952Y-77617723D01*
X72096333Y-77712961D01*
X72096333Y-77903438D01*
X72143952Y-77998676D01*
X72191571Y-78046295D01*
X72286810Y-78093914D01*
X71802667Y-102830381D02*
X71802667Y-103544667D01*
X71755047Y-103687524D01*
X71659809Y-103782762D01*
X71516952Y-103830381D01*
X71421714Y-103830381D01*
X72183619Y-102830381D02*
X72802667Y-102830381D01*
X72469333Y-103211333D01*
X72612191Y-103211333D01*
X72707429Y-103258952D01*
X72755048Y-103306571D01*
X72802667Y-103401810D01*
X72802667Y-103639905D01*
X72755048Y-103735143D01*
X72707429Y-103782762D01*
X72612191Y-103830381D01*
X72326476Y-103830381D01*
X72231238Y-103782762D01*
X72183619Y-103735143D01*
X63376561Y-65098253D02*
X64090847Y-65098253D01*
X64233704Y-65145873D01*
X64328942Y-65241111D01*
X64376561Y-65383968D01*
X64376561Y-65479206D01*
X63376561Y-64193491D02*
X63376561Y-64383968D01*
X63424180Y-64479206D01*
X63471799Y-64526825D01*
X63614656Y-64622063D01*
X63805132Y-64669682D01*
X64186085Y-64669682D01*
X64281323Y-64622063D01*
X64328942Y-64574444D01*
X64376561Y-64479206D01*
X64376561Y-64288729D01*
X64328942Y-64193491D01*
X64281323Y-64145872D01*
X64186085Y-64098253D01*
X63947990Y-64098253D01*
X63852751Y-64145872D01*
X63805132Y-64193491D01*
X63757513Y-64288729D01*
X63757513Y-64479206D01*
X63805132Y-64574444D01*
X63852751Y-64622063D01*
X63947990Y-64669682D01*
X63928667Y-87844381D02*
X63928667Y-88558667D01*
X63881047Y-88701524D01*
X63785809Y-88796762D01*
X63642952Y-88844381D01*
X63547714Y-88844381D01*
X64309619Y-87844381D02*
X64976286Y-87844381D01*
X64547714Y-88844381D01*
X70759581Y-89130166D02*
X70283390Y-89463500D01*
X70759581Y-89701595D02*
X69759581Y-89701595D01*
X69759581Y-89320642D01*
X69807200Y-89225404D01*
X69854819Y-89177785D01*
X69950057Y-89130166D01*
X70092914Y-89130166D01*
X70188152Y-89177785D01*
X70235771Y-89225404D01*
X70283390Y-89320642D01*
X70283390Y-89701595D01*
X69759581Y-88796833D02*
X69759581Y-88177785D01*
X70140533Y-88511119D01*
X70140533Y-88368261D01*
X70188152Y-88273023D01*
X70235771Y-88225404D01*
X70331010Y-88177785D01*
X70569105Y-88177785D01*
X70664343Y-88225404D01*
X70711962Y-88273023D01*
X70759581Y-88368261D01*
X70759581Y-88653976D01*
X70711962Y-88749214D01*
X70664343Y-88796833D01*
X73871081Y-88952366D02*
X73394890Y-89285700D01*
X73871081Y-89523795D02*
X72871081Y-89523795D01*
X72871081Y-89142842D01*
X72918700Y-89047604D01*
X72966319Y-88999985D01*
X73061557Y-88952366D01*
X73204414Y-88952366D01*
X73299652Y-88999985D01*
X73347271Y-89047604D01*
X73394890Y-89142842D01*
X73394890Y-89523795D01*
X73204414Y-88095223D02*
X73871081Y-88095223D01*
X72823462Y-88333319D02*
X73537748Y-88571414D01*
X73537748Y-87952366D01*
X77236581Y-89320666D02*
X76760390Y-89654000D01*
X77236581Y-89892095D02*
X76236581Y-89892095D01*
X76236581Y-89511142D01*
X76284200Y-89415904D01*
X76331819Y-89368285D01*
X76427057Y-89320666D01*
X76569914Y-89320666D01*
X76665152Y-89368285D01*
X76712771Y-89415904D01*
X76760390Y-89511142D01*
X76760390Y-89892095D01*
X76236581Y-88463523D02*
X76236581Y-88654000D01*
X76284200Y-88749238D01*
X76331819Y-88796857D01*
X76474676Y-88892095D01*
X76665152Y-88939714D01*
X77046105Y-88939714D01*
X77141343Y-88892095D01*
X77188962Y-88844476D01*
X77236581Y-88749238D01*
X77236581Y-88558761D01*
X77188962Y-88463523D01*
X77141343Y-88415904D01*
X77046105Y-88368285D01*
X76808010Y-88368285D01*
X76712771Y-88415904D01*
X76665152Y-88463523D01*
X76617533Y-88558761D01*
X76617533Y-88749238D01*
X76665152Y-88844476D01*
X76712771Y-88892095D01*
X76808010Y-88939714D01*
X58592981Y-89208906D02*
X58116790Y-89542240D01*
X58592981Y-89780335D02*
X57592981Y-89780335D01*
X57592981Y-89399382D01*
X57640600Y-89304144D01*
X57688219Y-89256525D01*
X57783457Y-89208906D01*
X57926314Y-89208906D01*
X58021552Y-89256525D01*
X58069171Y-89304144D01*
X58116790Y-89399382D01*
X58116790Y-89780335D01*
X58592981Y-88732716D02*
X58592981Y-88542240D01*
X58545362Y-88447001D01*
X58497743Y-88399382D01*
X58354886Y-88304144D01*
X58164410Y-88256525D01*
X57783457Y-88256525D01*
X57688219Y-88304144D01*
X57640600Y-88351763D01*
X57592981Y-88447001D01*
X57592981Y-88637478D01*
X57640600Y-88732716D01*
X57688219Y-88780335D01*
X57783457Y-88827954D01*
X58021552Y-88827954D01*
X58116790Y-88780335D01*
X58164410Y-88732716D01*
X58212029Y-88637478D01*
X58212029Y-88447001D01*
X58164410Y-88351763D01*
X58116790Y-88304144D01*
X58021552Y-88256525D01*
X58516781Y-99527597D02*
X58040590Y-99860931D01*
X58516781Y-100099026D02*
X57516781Y-100099026D01*
X57516781Y-99718073D01*
X57564400Y-99622835D01*
X57612019Y-99575216D01*
X57707257Y-99527597D01*
X57850114Y-99527597D01*
X57945352Y-99575216D01*
X57992971Y-99622835D01*
X58040590Y-99718073D01*
X58040590Y-100099026D01*
X58516781Y-98575216D02*
X58516781Y-99146645D01*
X58516781Y-98860931D02*
X57516781Y-98860931D01*
X57659638Y-98956169D01*
X57754876Y-99051407D01*
X57802495Y-99146645D01*
X58516781Y-97622835D02*
X58516781Y-98194264D01*
X58516781Y-97908550D02*
X57516781Y-97908550D01*
X57659638Y-98003788D01*
X57754876Y-98099026D01*
X57802495Y-98194264D01*
X67805395Y-66774581D02*
X67805395Y-67584105D01*
X67853014Y-67679343D01*
X67900633Y-67726962D01*
X67995871Y-67774581D01*
X68186348Y-67774581D01*
X68281586Y-67726962D01*
X68329205Y-67679343D01*
X68376824Y-67584105D01*
X68376824Y-66774581D01*
X69376824Y-67774581D02*
X68805395Y-67774581D01*
X69091109Y-67774581D02*
X69091109Y-66774581D01*
X68995871Y-66917438D01*
X68900633Y-67012676D01*
X68805395Y-67060295D01*
M02*
