G04 #@! TF.FileFunction,Copper,L1,Top,Signal*
%FSLAX46Y46*%
G04 Gerber Fmt 4.6, Leading zero omitted, Abs format (unit mm)*
G04 Created by KiCad (PCBNEW 4.0.7) date 10/08/18 12:12:52*
%MOMM*%
%LPD*%
G01*
G04 APERTURE LIST*
%ADD10C,0.100000*%
%ADD11R,1.700000X1.700000*%
%ADD12O,1.700000X1.700000*%
%ADD13C,1.600000*%
%ADD14C,1.500000*%
%ADD15C,1.000000*%
%ADD16R,1.600000X1.600000*%
%ADD17R,1.800000X1.800000*%
%ADD18C,1.800000*%
%ADD19R,2.200000X2.200000*%
%ADD20O,2.200000X2.200000*%
%ADD21C,1.520000*%
%ADD22C,2.700000*%
%ADD23C,2.000000*%
%ADD24O,1.600000X1.600000*%
%ADD25O,1.800000X1.800000*%
%ADD26C,0.600000*%
%ADD27C,0.250000*%
%ADD28C,0.500000*%
G04 APERTURE END LIST*
D10*
G36*
X67535621Y-49789811D02*
X67712398Y-49613034D01*
X68631637Y-50532273D01*
X68454860Y-50709050D01*
X67535621Y-49789811D01*
X67535621Y-49789811D01*
G37*
G36*
X67182068Y-50143364D02*
X67358845Y-49966587D01*
X68278084Y-50885826D01*
X68101307Y-51062603D01*
X67182068Y-50143364D01*
X67182068Y-50143364D01*
G37*
G36*
X66828514Y-50496918D02*
X67005291Y-50320141D01*
X67924530Y-51239380D01*
X67747753Y-51416157D01*
X66828514Y-50496918D01*
X66828514Y-50496918D01*
G37*
G36*
X66474961Y-50850471D02*
X66651738Y-50673694D01*
X67570977Y-51592933D01*
X67394200Y-51769710D01*
X66474961Y-50850471D01*
X66474961Y-50850471D01*
G37*
G36*
X66121408Y-51204024D02*
X66298185Y-51027247D01*
X67217424Y-51946486D01*
X67040647Y-52123263D01*
X66121408Y-51204024D01*
X66121408Y-51204024D01*
G37*
G36*
X65767854Y-51557578D02*
X65944631Y-51380801D01*
X66863870Y-52300040D01*
X66687093Y-52476817D01*
X65767854Y-51557578D01*
X65767854Y-51557578D01*
G37*
G36*
X65414301Y-51911131D02*
X65591078Y-51734354D01*
X66510317Y-52653593D01*
X66333540Y-52830370D01*
X65414301Y-51911131D01*
X65414301Y-51911131D01*
G37*
G36*
X65060747Y-52264685D02*
X65237524Y-52087908D01*
X66156763Y-53007147D01*
X65979986Y-53183924D01*
X65060747Y-52264685D01*
X65060747Y-52264685D01*
G37*
G36*
X64707194Y-52618238D02*
X64883971Y-52441461D01*
X65803210Y-53360700D01*
X65626433Y-53537477D01*
X64707194Y-52618238D01*
X64707194Y-52618238D01*
G37*
G36*
X64353641Y-52971791D02*
X64530418Y-52795014D01*
X65449657Y-53714253D01*
X65272880Y-53891030D01*
X64353641Y-52971791D01*
X64353641Y-52971791D01*
G37*
G36*
X64000087Y-53325345D02*
X64176864Y-53148568D01*
X65096103Y-54067807D01*
X64919326Y-54244584D01*
X64000087Y-53325345D01*
X64000087Y-53325345D01*
G37*
G36*
X63646534Y-53678898D02*
X63823311Y-53502121D01*
X64742550Y-54421360D01*
X64565773Y-54598137D01*
X63646534Y-53678898D01*
X63646534Y-53678898D01*
G37*
G36*
X63823311Y-56860879D02*
X63646534Y-56684102D01*
X64565773Y-55764863D01*
X64742550Y-55941640D01*
X63823311Y-56860879D01*
X63823311Y-56860879D01*
G37*
G36*
X64176864Y-57214432D02*
X64000087Y-57037655D01*
X64919326Y-56118416D01*
X65096103Y-56295193D01*
X64176864Y-57214432D01*
X64176864Y-57214432D01*
G37*
G36*
X64530418Y-57567986D02*
X64353641Y-57391209D01*
X65272880Y-56471970D01*
X65449657Y-56648747D01*
X64530418Y-57567986D01*
X64530418Y-57567986D01*
G37*
G36*
X64883971Y-57921539D02*
X64707194Y-57744762D01*
X65626433Y-56825523D01*
X65803210Y-57002300D01*
X64883971Y-57921539D01*
X64883971Y-57921539D01*
G37*
G36*
X65237524Y-58275092D02*
X65060747Y-58098315D01*
X65979986Y-57179076D01*
X66156763Y-57355853D01*
X65237524Y-58275092D01*
X65237524Y-58275092D01*
G37*
G36*
X65591078Y-58628646D02*
X65414301Y-58451869D01*
X66333540Y-57532630D01*
X66510317Y-57709407D01*
X65591078Y-58628646D01*
X65591078Y-58628646D01*
G37*
G36*
X65944631Y-58982199D02*
X65767854Y-58805422D01*
X66687093Y-57886183D01*
X66863870Y-58062960D01*
X65944631Y-58982199D01*
X65944631Y-58982199D01*
G37*
G36*
X66298185Y-59335753D02*
X66121408Y-59158976D01*
X67040647Y-58239737D01*
X67217424Y-58416514D01*
X66298185Y-59335753D01*
X66298185Y-59335753D01*
G37*
G36*
X66651738Y-59689306D02*
X66474961Y-59512529D01*
X67394200Y-58593290D01*
X67570977Y-58770067D01*
X66651738Y-59689306D01*
X66651738Y-59689306D01*
G37*
G36*
X67005291Y-60042859D02*
X66828514Y-59866082D01*
X67747753Y-58946843D01*
X67924530Y-59123620D01*
X67005291Y-60042859D01*
X67005291Y-60042859D01*
G37*
G36*
X67358845Y-60396413D02*
X67182068Y-60219636D01*
X68101307Y-59300397D01*
X68278084Y-59477174D01*
X67358845Y-60396413D01*
X67358845Y-60396413D01*
G37*
G36*
X67712398Y-60749966D02*
X67535621Y-60573189D01*
X68454860Y-59653950D01*
X68631637Y-59830727D01*
X67712398Y-60749966D01*
X67712398Y-60749966D01*
G37*
G36*
X69798363Y-59830727D02*
X69975140Y-59653950D01*
X70894379Y-60573189D01*
X70717602Y-60749966D01*
X69798363Y-59830727D01*
X69798363Y-59830727D01*
G37*
G36*
X70151916Y-59477174D02*
X70328693Y-59300397D01*
X71247932Y-60219636D01*
X71071155Y-60396413D01*
X70151916Y-59477174D01*
X70151916Y-59477174D01*
G37*
G36*
X70505470Y-59123620D02*
X70682247Y-58946843D01*
X71601486Y-59866082D01*
X71424709Y-60042859D01*
X70505470Y-59123620D01*
X70505470Y-59123620D01*
G37*
G36*
X70859023Y-58770067D02*
X71035800Y-58593290D01*
X71955039Y-59512529D01*
X71778262Y-59689306D01*
X70859023Y-58770067D01*
X70859023Y-58770067D01*
G37*
G36*
X71212576Y-58416514D02*
X71389353Y-58239737D01*
X72308592Y-59158976D01*
X72131815Y-59335753D01*
X71212576Y-58416514D01*
X71212576Y-58416514D01*
G37*
G36*
X71566130Y-58062960D02*
X71742907Y-57886183D01*
X72662146Y-58805422D01*
X72485369Y-58982199D01*
X71566130Y-58062960D01*
X71566130Y-58062960D01*
G37*
G36*
X71919683Y-57709407D02*
X72096460Y-57532630D01*
X73015699Y-58451869D01*
X72838922Y-58628646D01*
X71919683Y-57709407D01*
X71919683Y-57709407D01*
G37*
G36*
X72273237Y-57355853D02*
X72450014Y-57179076D01*
X73369253Y-58098315D01*
X73192476Y-58275092D01*
X72273237Y-57355853D01*
X72273237Y-57355853D01*
G37*
G36*
X72626790Y-57002300D02*
X72803567Y-56825523D01*
X73722806Y-57744762D01*
X73546029Y-57921539D01*
X72626790Y-57002300D01*
X72626790Y-57002300D01*
G37*
G36*
X72980343Y-56648747D02*
X73157120Y-56471970D01*
X74076359Y-57391209D01*
X73899582Y-57567986D01*
X72980343Y-56648747D01*
X72980343Y-56648747D01*
G37*
G36*
X73333897Y-56295193D02*
X73510674Y-56118416D01*
X74429913Y-57037655D01*
X74253136Y-57214432D01*
X73333897Y-56295193D01*
X73333897Y-56295193D01*
G37*
G36*
X73687450Y-55941640D02*
X73864227Y-55764863D01*
X74783466Y-56684102D01*
X74606689Y-56860879D01*
X73687450Y-55941640D01*
X73687450Y-55941640D01*
G37*
G36*
X73864227Y-54598137D02*
X73687450Y-54421360D01*
X74606689Y-53502121D01*
X74783466Y-53678898D01*
X73864227Y-54598137D01*
X73864227Y-54598137D01*
G37*
G36*
X73510674Y-54244584D02*
X73333897Y-54067807D01*
X74253136Y-53148568D01*
X74429913Y-53325345D01*
X73510674Y-54244584D01*
X73510674Y-54244584D01*
G37*
G36*
X73157120Y-53891030D02*
X72980343Y-53714253D01*
X73899582Y-52795014D01*
X74076359Y-52971791D01*
X73157120Y-53891030D01*
X73157120Y-53891030D01*
G37*
G36*
X72803567Y-53537477D02*
X72626790Y-53360700D01*
X73546029Y-52441461D01*
X73722806Y-52618238D01*
X72803567Y-53537477D01*
X72803567Y-53537477D01*
G37*
G36*
X72450014Y-53183924D02*
X72273237Y-53007147D01*
X73192476Y-52087908D01*
X73369253Y-52264685D01*
X72450014Y-53183924D01*
X72450014Y-53183924D01*
G37*
G36*
X72096460Y-52830370D02*
X71919683Y-52653593D01*
X72838922Y-51734354D01*
X73015699Y-51911131D01*
X72096460Y-52830370D01*
X72096460Y-52830370D01*
G37*
G36*
X71742907Y-52476817D02*
X71566130Y-52300040D01*
X72485369Y-51380801D01*
X72662146Y-51557578D01*
X71742907Y-52476817D01*
X71742907Y-52476817D01*
G37*
G36*
X71389353Y-52123263D02*
X71212576Y-51946486D01*
X72131815Y-51027247D01*
X72308592Y-51204024D01*
X71389353Y-52123263D01*
X71389353Y-52123263D01*
G37*
G36*
X71035800Y-51769710D02*
X70859023Y-51592933D01*
X71778262Y-50673694D01*
X71955039Y-50850471D01*
X71035800Y-51769710D01*
X71035800Y-51769710D01*
G37*
G36*
X70682247Y-51416157D02*
X70505470Y-51239380D01*
X71424709Y-50320141D01*
X71601486Y-50496918D01*
X70682247Y-51416157D01*
X70682247Y-51416157D01*
G37*
G36*
X70328693Y-51062603D02*
X70151916Y-50885826D01*
X71071155Y-49966587D01*
X71247932Y-50143364D01*
X70328693Y-51062603D01*
X70328693Y-51062603D01*
G37*
G36*
X69975140Y-50709050D02*
X69798363Y-50532273D01*
X70717602Y-49613034D01*
X70894379Y-49789811D01*
X69975140Y-50709050D01*
X69975140Y-50709050D01*
G37*
D11*
X61110000Y-34158000D03*
D12*
X61110000Y-36698000D03*
X61110000Y-39238000D03*
X61110000Y-41778000D03*
X61110000Y-44318000D03*
X61110000Y-46858000D03*
X61110000Y-49398000D03*
X61110000Y-51938000D03*
X61110000Y-54478000D03*
X61110000Y-57018000D03*
X61110000Y-59558000D03*
X61110000Y-62098000D03*
X61110000Y-64638000D03*
X61110000Y-67178000D03*
X61110000Y-69718000D03*
X61110000Y-72258000D03*
X61110000Y-74798000D03*
X61110000Y-77338000D03*
X61110000Y-79878000D03*
X61110000Y-82418000D03*
D11*
X76350000Y-34158000D03*
D12*
X76350000Y-36698000D03*
X76350000Y-39238000D03*
X76350000Y-41778000D03*
X76350000Y-44318000D03*
X76350000Y-46858000D03*
X76350000Y-49398000D03*
X76350000Y-51938000D03*
X76350000Y-54478000D03*
X76350000Y-57018000D03*
X76350000Y-59558000D03*
X76350000Y-62098000D03*
X76350000Y-64638000D03*
X76350000Y-67178000D03*
X76350000Y-69718000D03*
X76350000Y-72258000D03*
X76350000Y-74798000D03*
X76350000Y-77338000D03*
X76350000Y-79878000D03*
X76350000Y-82418000D03*
D13*
X67627500Y-45466000D03*
X67627500Y-47966000D03*
X64516000Y-45466000D03*
X64516000Y-47966000D03*
X70866000Y-36830000D03*
X73366000Y-36830000D03*
X64770000Y-36830000D03*
X67270000Y-36830000D03*
D11*
X64770000Y-33528000D03*
D12*
X67310000Y-33528000D03*
X69850000Y-33528000D03*
X72390000Y-33528000D03*
D14*
X71501000Y-41021000D03*
X66621000Y-41021000D03*
D15*
X71882000Y-48768000D03*
X73782000Y-48768000D03*
D13*
X70866000Y-45466000D03*
X73366000Y-45466000D03*
D16*
X64709040Y-80076040D03*
D13*
X64709040Y-82576040D03*
X66865500Y-62166500D03*
X69365500Y-62166500D03*
D16*
X64731900Y-76885800D03*
D13*
X64731900Y-74385800D03*
X61153040Y-93497400D03*
X63653040Y-93497400D03*
D17*
X62219840Y-100472240D03*
D18*
X62219840Y-97932240D03*
D19*
X69049900Y-74587100D03*
D20*
X69049900Y-82207100D03*
D19*
X72199500Y-74447400D03*
D20*
X72199500Y-82067400D03*
D21*
X71414640Y-96586040D03*
X73954640Y-96586040D03*
X73954640Y-98586040D03*
X71414640Y-98586040D03*
D22*
X66684640Y-101286040D03*
X78684640Y-101286040D03*
D11*
X71120000Y-64833500D03*
D12*
X71120000Y-67373500D03*
X68580000Y-64833500D03*
X68580000Y-67373500D03*
X66040000Y-64833500D03*
X66040000Y-67373500D03*
D23*
X60960000Y-90606000D03*
X60960000Y-86106000D03*
X67460000Y-90606000D03*
X67460000Y-86106000D03*
D13*
X70485000Y-85217000D03*
D24*
X70485000Y-92837000D03*
D13*
X73533000Y-85090000D03*
D24*
X73533000Y-92710000D03*
D13*
X76835000Y-85471000D03*
D24*
X76835000Y-93091000D03*
D13*
X58140600Y-85232240D03*
D24*
X58140600Y-92852240D03*
D13*
X58064400Y-95062040D03*
D24*
X58064400Y-102682040D03*
D17*
X66027300Y-70942200D03*
D25*
X68567300Y-70942200D03*
X71107300Y-70942200D03*
D26*
X58887360Y-87294720D03*
X58399680Y-89428320D03*
X59182000Y-37655500D03*
X69024500Y-52070000D03*
X69342000Y-40894000D03*
X65176400Y-40436800D03*
X70866000Y-69138800D03*
X70205600Y-78435200D03*
X72339200Y-88290400D03*
X70332600Y-52852320D03*
X64823340Y-51493420D03*
X68529200Y-54762400D03*
X72263000Y-56197500D03*
X68580000Y-58483500D03*
X70675500Y-43751500D03*
X69659500Y-48895000D03*
X68516500Y-42862500D03*
X69342000Y-44196000D03*
X68199000Y-53975000D03*
X70675500Y-47561500D03*
X77729080Y-32273240D03*
X78435200Y-42103040D03*
X74739500Y-57594500D03*
X69215000Y-50101500D03*
X64104520Y-50944780D03*
X72517000Y-50482500D03*
X74739500Y-51689000D03*
X72517000Y-54292500D03*
X74295000Y-58991500D03*
X63055500Y-62293500D03*
X73850500Y-60325000D03*
X63690500Y-63627000D03*
X73279000Y-61658500D03*
X72707500Y-62928500D03*
X71424800Y-54610000D03*
X67360800Y-57099200D03*
D27*
X72689798Y-42965969D02*
X72731031Y-42965969D01*
X72689798Y-42965969D02*
X72731031Y-42965969D01*
X72689798Y-42965969D02*
X72731031Y-42965969D01*
X58887360Y-88940640D02*
X58887360Y-87294720D01*
X58399680Y-89428320D02*
X58887360Y-88940640D01*
X60139500Y-36698000D02*
X59182000Y-37655500D01*
X61110000Y-36698000D02*
X60139500Y-36698000D01*
X68770500Y-51555019D02*
X67730076Y-50514595D01*
X68770500Y-51816000D02*
X68770500Y-51555019D01*
X69024500Y-52070000D02*
X68770500Y-51816000D01*
X67730076Y-50514595D02*
X67730076Y-50521576D01*
D28*
X64709040Y-80076040D02*
X67284600Y-80076040D01*
X69049900Y-78310740D02*
X69049900Y-74587100D01*
X67284600Y-80076040D02*
X69049900Y-78310740D01*
X69049900Y-74587100D02*
X72059800Y-74587100D01*
X72059800Y-74587100D02*
X72199500Y-74447400D01*
X71107300Y-70942200D02*
X71107300Y-73355200D01*
X71107300Y-73355200D02*
X72199500Y-74447400D01*
D27*
X69342000Y-40894000D02*
X69392800Y-40843200D01*
X69392800Y-40843200D02*
X69392800Y-40284400D01*
X64820800Y-40792400D02*
X64820800Y-41249600D01*
X65176400Y-40436800D02*
X64820800Y-40792400D01*
X70866000Y-69138800D02*
X71628000Y-69138800D01*
X64709040Y-82576040D02*
X66064760Y-82576040D01*
X66064760Y-82576040D02*
X70205600Y-78435200D01*
X67460000Y-90606000D02*
X70023600Y-90606000D01*
X70023600Y-90606000D02*
X72339200Y-88290400D01*
X70699924Y-50514595D02*
X70699924Y-50552478D01*
X70699924Y-50552478D02*
X70046002Y-51206400D01*
X70391020Y-52793900D02*
X70332600Y-52852320D01*
X70391020Y-51937920D02*
X70391020Y-52793900D01*
X70046002Y-51592902D02*
X70391020Y-51937920D01*
X70046002Y-51206400D02*
X70046002Y-51592902D01*
X65608755Y-52635916D02*
X65567056Y-52635916D01*
X65567056Y-52635916D02*
X64823340Y-51892200D01*
X64823340Y-51892200D02*
X64823340Y-51493420D01*
X65608755Y-52635916D02*
X65640716Y-52635916D01*
X65640716Y-52635916D02*
X67919600Y-54914800D01*
X68376800Y-54914800D02*
X68529200Y-54762400D01*
X67919600Y-54914800D02*
X68376800Y-54914800D01*
X73881905Y-56666424D02*
X73874924Y-56666424D01*
X73874924Y-56666424D02*
X73215500Y-56007000D01*
X73215500Y-56007000D02*
X72453500Y-56007000D01*
X72453500Y-56007000D02*
X72263000Y-56197500D01*
X65608755Y-52635916D02*
X65608755Y-52654755D01*
X65608755Y-52635916D02*
X65653416Y-52635916D01*
X70699924Y-50514595D02*
X70699924Y-50527078D01*
D28*
X65481200Y-66814700D02*
X66040000Y-67373500D01*
X66040000Y-64833500D02*
X66040000Y-62992000D01*
X66040000Y-62992000D02*
X66865500Y-62166500D01*
D27*
X67730076Y-59848405D02*
X67724493Y-59848405D01*
X67724493Y-59848405D02*
X66865500Y-60707398D01*
X66865500Y-60707398D02*
X66865500Y-62166500D01*
X67730076Y-59848405D02*
X67730076Y-59841424D01*
X67730076Y-59841424D02*
X68580000Y-58991500D01*
X68580000Y-58991500D02*
X68580000Y-58483500D01*
D28*
X73366000Y-37084000D02*
X75964000Y-37084000D01*
X75964000Y-37084000D02*
X76350000Y-36698000D01*
X61762000Y-82067400D02*
X61787400Y-82042000D01*
D27*
X65405000Y-50292000D02*
X65341500Y-50292000D01*
X65024000Y-49212500D02*
X65563750Y-48672750D01*
X65024000Y-49974500D02*
X65024000Y-49212500D01*
X65341500Y-50292000D02*
X65024000Y-49974500D01*
X67627500Y-45466000D02*
X67627500Y-44894500D01*
X67627500Y-44894500D02*
X71501000Y-41021000D01*
X66669416Y-51575255D02*
X66669416Y-51556416D01*
X66669416Y-51556416D02*
X65405000Y-50292000D01*
X66484500Y-45466000D02*
X67627500Y-45466000D01*
X65786000Y-45910500D02*
X66484500Y-45466000D01*
X65786000Y-48323500D02*
X65786000Y-45910500D01*
X65563750Y-48672750D02*
X65786000Y-48323500D01*
X63722250Y-46259750D02*
X63341250Y-46259750D01*
X63119000Y-48450500D02*
X64770000Y-50419000D01*
X63119000Y-46926500D02*
X63119000Y-48450500D01*
X63341250Y-46259750D02*
X63119000Y-46926500D01*
X66315862Y-51928809D02*
X66279809Y-51928809D01*
X66279809Y-51928809D02*
X64770000Y-50419000D01*
X63722250Y-46259750D02*
X64516000Y-45466000D01*
X64516000Y-45466000D02*
X64516000Y-45339000D01*
X64516000Y-45339000D02*
X66621000Y-43234000D01*
X66621000Y-43234000D02*
X66621000Y-41021000D01*
X66315862Y-51928809D02*
X66315862Y-51901362D01*
X72898000Y-38862000D02*
X70866000Y-36830000D01*
X72898000Y-41973500D02*
X72898000Y-38862000D01*
X72453500Y-42418000D02*
X72898000Y-41973500D01*
X72009000Y-42418000D02*
X72453500Y-42418000D01*
X70675500Y-43751500D02*
X72009000Y-42418000D01*
X67376522Y-50868149D02*
X67376522Y-50803022D01*
X67376522Y-50803022D02*
X66675000Y-50101500D01*
X69405500Y-49149000D02*
X69659500Y-48895000D01*
X67056000Y-49149000D02*
X69405500Y-49149000D01*
X66675000Y-49530000D02*
X67056000Y-49149000D01*
X66675000Y-50101500D02*
X66675000Y-49530000D01*
X61110000Y-39238000D02*
X61155500Y-39238000D01*
X61155500Y-39238000D02*
X63119000Y-37274500D01*
X69405500Y-35369500D02*
X70866000Y-36830000D01*
X63881000Y-35369500D02*
X69405500Y-35369500D01*
X63119000Y-36131500D02*
X63881000Y-35369500D01*
X63119000Y-37274500D02*
X63119000Y-36131500D01*
X73782000Y-48768000D02*
X73782000Y-48382000D01*
X67376522Y-50868149D02*
X67376522Y-50866522D01*
X66135250Y-48926750D02*
X65946148Y-48926750D01*
X66072449Y-50323051D02*
X66072449Y-50260949D01*
X65595500Y-49846102D02*
X66072449Y-50323051D01*
X65595500Y-49277398D02*
X65595500Y-49846102D01*
X65946148Y-48926750D02*
X65595500Y-49277398D01*
X69215000Y-46672500D02*
X71120000Y-46672500D01*
X71374000Y-48260000D02*
X71882000Y-48768000D01*
X71374000Y-46926500D02*
X71374000Y-48260000D01*
X71120000Y-46672500D02*
X71374000Y-46926500D01*
X69215000Y-46672500D02*
X69215000Y-44323000D01*
X68326000Y-40386000D02*
X64770000Y-36830000D01*
X68326000Y-42672000D02*
X68326000Y-40386000D01*
X68516500Y-42862500D02*
X68326000Y-42672000D01*
X69215000Y-44323000D02*
X69342000Y-44196000D01*
X61110000Y-41778000D02*
X62870000Y-41778000D01*
X62870000Y-41778000D02*
X64770000Y-39878000D01*
X64770000Y-39878000D02*
X64770000Y-36830000D01*
X67022969Y-51221702D02*
X67022969Y-51211469D01*
X67022969Y-51211469D02*
X66072449Y-50260949D01*
X66548000Y-46672500D02*
X69215000Y-46672500D01*
X66236002Y-46984498D02*
X66548000Y-46672500D01*
X66236002Y-48825998D02*
X66236002Y-46984498D01*
X66135250Y-48926750D02*
X66236002Y-48825998D01*
X64770000Y-36893500D02*
X64770000Y-36830000D01*
X58140600Y-92852240D02*
X60507880Y-92852240D01*
X60507880Y-92852240D02*
X61153040Y-93497400D01*
X61153040Y-93497400D02*
X61188600Y-93497400D01*
X61188600Y-93497400D02*
X63093600Y-91592400D01*
X63093600Y-91592400D02*
X63093600Y-88239600D01*
X63093600Y-88239600D02*
X60960000Y-86106000D01*
X65962309Y-52282362D02*
X65962309Y-52302909D01*
X65962309Y-52302909D02*
X67634400Y-53975000D01*
X67634400Y-53975000D02*
X68199000Y-53975000D01*
D28*
X71414640Y-96586040D02*
X71414640Y-96189800D01*
X71414640Y-96189800D02*
X73192640Y-94411800D01*
X73192640Y-94411800D02*
X75514200Y-94411800D01*
X75514200Y-94411800D02*
X76835000Y-93091000D01*
X73533000Y-92710000D02*
X70612000Y-92710000D01*
X70612000Y-92710000D02*
X70485000Y-92837000D01*
X70485000Y-92837000D02*
X70485000Y-93578680D01*
X70485000Y-93578680D02*
X69306440Y-94757240D01*
X69306440Y-94757240D02*
X69306440Y-96477840D01*
X69306440Y-96477840D02*
X71414640Y-98586040D01*
X68567300Y-70942200D02*
X68567300Y-69926200D01*
X68567300Y-69926200D02*
X71120000Y-67373500D01*
X58140600Y-85232240D02*
X58140600Y-84861400D01*
X58140600Y-84861400D02*
X59436000Y-83566000D01*
X61110000Y-77338000D02*
X60203000Y-77338000D01*
X69596000Y-84328000D02*
X70485000Y-85217000D01*
X60198000Y-84328000D02*
X69596000Y-84328000D01*
X59436000Y-83566000D02*
X60198000Y-84328000D01*
X59436000Y-78105000D02*
X59436000Y-83566000D01*
X60203000Y-77338000D02*
X59436000Y-78105000D01*
X64731900Y-76885800D02*
X61562200Y-76885800D01*
X61562200Y-76885800D02*
X61110000Y-77338000D01*
X64731900Y-76885800D02*
X65532000Y-76885800D01*
X66258440Y-73251060D02*
X68567300Y-70942200D01*
X66258440Y-76159360D02*
X66258440Y-73251060D01*
X65532000Y-76885800D02*
X66258440Y-76159360D01*
D27*
X69646800Y-55499000D02*
X69646800Y-52590700D01*
X69646800Y-52590700D02*
X69786500Y-52451000D01*
D28*
X71120000Y-64833500D02*
X71120000Y-67373500D01*
X69365500Y-62166500D02*
X69365500Y-63079000D01*
X69365500Y-63079000D02*
X71120000Y-64833500D01*
D27*
X68083629Y-60201958D02*
X68083629Y-60884629D01*
X68083629Y-60884629D02*
X69365500Y-62166500D01*
X71215250Y-57118250D02*
X71215250Y-55784750D01*
X71215250Y-55784750D02*
X70929500Y-55499000D01*
X66680117Y-54414384D02*
X66680117Y-54424617D01*
X66680117Y-54414384D02*
X65255202Y-52989469D01*
X66680117Y-54424617D02*
X67754500Y-55499000D01*
X67754500Y-55499000D02*
X69646800Y-55499000D01*
X69646800Y-55499000D02*
X70929500Y-55499000D01*
X68083629Y-60201958D02*
X68131542Y-60201958D01*
X68131542Y-60201958D02*
X71215250Y-57118250D01*
X74235458Y-56312871D02*
X74235458Y-56201458D01*
X74235458Y-56201458D02*
X73533000Y-55499000D01*
X73533000Y-55499000D02*
X70929500Y-55499000D01*
X70346371Y-50161042D02*
X70298458Y-50161042D01*
X70298458Y-50161042D02*
X69596000Y-50863500D01*
X69596000Y-50863500D02*
X69596000Y-51816000D01*
X69596000Y-51816000D02*
X69786500Y-52006500D01*
X69786500Y-52006500D02*
X69786500Y-52451000D01*
X70346371Y-50161042D02*
X70346371Y-47890629D01*
X70346371Y-47890629D02*
X70675500Y-47561500D01*
D28*
X76350000Y-34158000D02*
X76068000Y-34158000D01*
X76068000Y-34158000D02*
X73787000Y-31877000D01*
X73787000Y-31877000D02*
X66421000Y-31877000D01*
X66421000Y-31877000D02*
X64770000Y-33528000D01*
D27*
X70346371Y-50161042D02*
X70346371Y-50049629D01*
X70346371Y-50049629D02*
X70612000Y-49784000D01*
X73152000Y-45466000D02*
X73366000Y-45466000D01*
X78567280Y-33111440D02*
X77729080Y-32273240D01*
X78567280Y-41970960D02*
X78567280Y-33111440D01*
X78435200Y-42103040D02*
X78567280Y-41970960D01*
X73528351Y-57019978D02*
X73528351Y-57080453D01*
X73528351Y-57080453D02*
X74042398Y-57594500D01*
X74042398Y-57594500D02*
X74739500Y-57594500D01*
X73528351Y-57019978D02*
X73529978Y-57019978D01*
X77216000Y-35433000D02*
X71374000Y-35433000D01*
X77724000Y-52641500D02*
X77724000Y-35941000D01*
X77089000Y-53276500D02*
X77724000Y-52641500D01*
X75057000Y-53276500D02*
X77089000Y-53276500D01*
X74283371Y-54050129D02*
X75057000Y-53276500D01*
X77724000Y-35941000D02*
X77216000Y-35433000D01*
X71374000Y-35433000D02*
X69850000Y-33909000D01*
X69850000Y-33909000D02*
X69850000Y-33528000D01*
X74235458Y-54050129D02*
X74283371Y-54050129D01*
X69913500Y-33528000D02*
X69850000Y-33528000D01*
X68206671Y-50038000D02*
X68083629Y-50161042D01*
X69151500Y-50038000D02*
X68206671Y-50038000D01*
X69215000Y-50101500D02*
X69151500Y-50038000D01*
X68258542Y-50161042D02*
X68083629Y-50161042D01*
X68083629Y-50161042D02*
X68202958Y-50161042D01*
X61110000Y-34267000D02*
X61110000Y-34158000D01*
X68083629Y-50161042D02*
X68131542Y-50161042D01*
X71053478Y-50868149D02*
X71115351Y-50868149D01*
X71115351Y-50868149D02*
X72771000Y-49212500D01*
X74549000Y-44005500D02*
X76350000Y-42204500D01*
X74549000Y-46228000D02*
X74549000Y-44005500D01*
X72771000Y-48006000D02*
X74549000Y-46228000D01*
X72771000Y-49212500D02*
X72771000Y-48006000D01*
X76350000Y-42204500D02*
X76350000Y-41778000D01*
X64901649Y-53343022D02*
X64901649Y-53281149D01*
X64901649Y-53281149D02*
X64325500Y-52705000D01*
X64325500Y-52705000D02*
X64104520Y-50944780D01*
X64901649Y-53343022D02*
X64900022Y-53343022D01*
X60452000Y-44069000D02*
X60579000Y-44069000D01*
X71407031Y-51221702D02*
X71460298Y-51221702D01*
X71460298Y-51221702D02*
X72199500Y-50482500D01*
X72199500Y-50482500D02*
X72517000Y-50482500D01*
X64548095Y-53696576D02*
X64548095Y-53689595D01*
X64548095Y-53689595D02*
X63436500Y-52578000D01*
X62420500Y-48168500D02*
X61110000Y-46858000D01*
X62420500Y-49212500D02*
X62420500Y-48168500D01*
X63436500Y-50228500D02*
X62420500Y-49212500D01*
X63436500Y-52578000D02*
X63436500Y-50228500D01*
X64548095Y-53696576D02*
X64548095Y-53627493D01*
X73406000Y-50609500D02*
X73406000Y-50419000D01*
X73406000Y-50419000D02*
X74676000Y-49149000D01*
X72114138Y-51928809D02*
X72114138Y-51901362D01*
X72114138Y-51901362D02*
X73406000Y-50609500D01*
X74676000Y-49149000D02*
X74676000Y-48532000D01*
X74676000Y-48532000D02*
X76350000Y-46858000D01*
X64194542Y-54050129D02*
X64194542Y-54034542D01*
X64194542Y-54034542D02*
X62928500Y-52768500D01*
X62928500Y-52768500D02*
X62928500Y-51216500D01*
X62928500Y-51216500D02*
X61110000Y-49398000D01*
X72840084Y-52635916D02*
X74993500Y-50482500D01*
X75501500Y-50482500D02*
X76350000Y-51331000D01*
X74993500Y-50482500D02*
X75501500Y-50482500D01*
X76350000Y-51331000D02*
X76350000Y-51938000D01*
X72821245Y-52635916D02*
X72840084Y-52635916D01*
X64194542Y-56312871D02*
X64194542Y-55022542D01*
X64194542Y-55022542D02*
X61110000Y-51938000D01*
X64548095Y-56666424D02*
X64548095Y-56673405D01*
X64548095Y-56673405D02*
X63944500Y-57277000D01*
X63944500Y-57277000D02*
X63373000Y-57277000D01*
X63373000Y-57277000D02*
X62992000Y-56896000D01*
X62992000Y-56896000D02*
X62992000Y-56360000D01*
X62992000Y-56360000D02*
X61110000Y-54478000D01*
X73174798Y-52989469D02*
X73185031Y-52989469D01*
X73185031Y-52989469D02*
X74485500Y-51689000D01*
X74485500Y-51689000D02*
X74739500Y-51689000D01*
X64901649Y-57019978D02*
X64900022Y-57019978D01*
X64900022Y-57019978D02*
X63817500Y-58102500D01*
X63817500Y-58102500D02*
X62194500Y-58102500D01*
X62194500Y-58102500D02*
X61110000Y-57018000D01*
X73528351Y-53343022D02*
X73466478Y-53343022D01*
X73466478Y-53343022D02*
X72517000Y-54292500D01*
X73528351Y-53343022D02*
X73529978Y-53343022D01*
X65255202Y-57373531D02*
X65244969Y-57373531D01*
X65244969Y-57373531D02*
X63060500Y-59558000D01*
X63060500Y-59558000D02*
X61110000Y-59558000D01*
X75120500Y-55816500D02*
X77343000Y-55816500D01*
X77724000Y-58184000D02*
X76350000Y-59558000D01*
X77724000Y-56197500D02*
X77724000Y-58184000D01*
X77343000Y-55816500D02*
X77724000Y-56197500D01*
X73310750Y-54959250D02*
X74517250Y-54959250D01*
X74517250Y-54959250D02*
X75120500Y-55562500D01*
X73881905Y-53696576D02*
X73874924Y-53696576D01*
X73874924Y-53696576D02*
X73215500Y-54356000D01*
X75120500Y-55562500D02*
X75120500Y-55816500D01*
X73215500Y-54864000D02*
X73310750Y-54959250D01*
X73215500Y-54356000D02*
X73215500Y-54864000D01*
X73881905Y-53696576D02*
X73811424Y-53696576D01*
X65608755Y-57727084D02*
X65608755Y-57771745D01*
X65608755Y-57771745D02*
X63182500Y-60198000D01*
X63182500Y-60198000D02*
X63055500Y-60198000D01*
X63055500Y-60198000D02*
X62611000Y-60642500D01*
X62611000Y-60642500D02*
X62565500Y-60642500D01*
X62565500Y-60642500D02*
X61110000Y-62098000D01*
X76350000Y-62098000D02*
X76350000Y-62761000D01*
X76350000Y-62761000D02*
X78486000Y-64897000D01*
X75311000Y-86995000D02*
X73660000Y-85090000D01*
X77597000Y-86995000D02*
X75311000Y-86995000D01*
X78486000Y-86106000D02*
X77597000Y-86995000D01*
X78486000Y-64897000D02*
X78486000Y-86106000D01*
X73660000Y-85090000D02*
X73533000Y-85090000D01*
X73945750Y-58134250D02*
X74390250Y-58134250D01*
X74993500Y-59753500D02*
X75057000Y-59753500D01*
X74993500Y-58737500D02*
X74993500Y-59753500D01*
X74390250Y-58134250D02*
X74993500Y-58737500D01*
X73174798Y-57373531D02*
X73185031Y-57373531D01*
X73185031Y-57373531D02*
X73945750Y-58134250D01*
X75057000Y-59753500D02*
X75057000Y-60805000D01*
X75057000Y-60805000D02*
X76350000Y-62098000D01*
X65962309Y-58080638D02*
X65962309Y-58116691D01*
X65962309Y-58116691D02*
X62293500Y-61785500D01*
X62293500Y-61785500D02*
X62293500Y-63454500D01*
X62293500Y-63454500D02*
X61110000Y-64638000D01*
X76350000Y-64638000D02*
X76957000Y-64638000D01*
X76957000Y-64638000D02*
X77851000Y-65786000D01*
X77851000Y-84201000D02*
X76835000Y-85471000D01*
X77851000Y-65786000D02*
X77851000Y-84201000D01*
X72821245Y-57727084D02*
X72821245Y-57771745D01*
X72821245Y-57771745D02*
X73723500Y-58674000D01*
X73977500Y-58674000D02*
X74295000Y-58991500D01*
X73723500Y-58674000D02*
X73977500Y-58674000D01*
X72821245Y-57727084D02*
X72834582Y-57727084D01*
X66315862Y-58434191D02*
X66281207Y-58434191D01*
X66281207Y-58434191D02*
X63055500Y-61659898D01*
X63055500Y-61659898D02*
X63055500Y-62293500D01*
X72467691Y-58080638D02*
X72467691Y-58116691D01*
X72467691Y-58116691D02*
X74104500Y-59753500D01*
X74104500Y-59753500D02*
X74295000Y-59753500D01*
X74295000Y-59753500D02*
X74549000Y-60007500D01*
X74549000Y-60007500D02*
X74549000Y-65377000D01*
X74549000Y-65377000D02*
X76350000Y-67178000D01*
X67022969Y-59141298D02*
X66969702Y-59141298D01*
X66969702Y-59141298D02*
X64325500Y-61785500D01*
X64325500Y-61785500D02*
X64325500Y-62103000D01*
X64325500Y-62103000D02*
X62928500Y-63500000D01*
X62928500Y-63500000D02*
X62928500Y-67899500D01*
X62928500Y-67899500D02*
X61110000Y-69718000D01*
X72114138Y-58434191D02*
X72114138Y-58461638D01*
X72114138Y-58461638D02*
X73660000Y-60007500D01*
X73660000Y-60007500D02*
X73660000Y-60261500D01*
X73660000Y-60261500D02*
X73850500Y-60325000D01*
X67376522Y-59494851D02*
X67376522Y-59559978D01*
X67376522Y-59559978D02*
X65024000Y-61912500D01*
X65024000Y-61912500D02*
X65024000Y-62230000D01*
X65024000Y-62230000D02*
X63690500Y-63563500D01*
X63690500Y-63563500D02*
X63690500Y-63627000D01*
X71760584Y-58787745D02*
X71760584Y-58806584D01*
X71760584Y-58806584D02*
X72961500Y-60007500D01*
X72961500Y-60007500D02*
X72961500Y-60388500D01*
X72961500Y-60388500D02*
X74041000Y-61341000D01*
X74041000Y-61341000D02*
X74041000Y-65976500D01*
X74041000Y-65976500D02*
X74549000Y-66611500D01*
X74549000Y-66611500D02*
X74549000Y-70802500D01*
X74549000Y-70802500D02*
X76004500Y-72258000D01*
X76004500Y-72258000D02*
X76350000Y-72258000D01*
X71407031Y-59141298D02*
X71458900Y-59141298D01*
X71458900Y-59141298D02*
X72453500Y-60135898D01*
X73279000Y-61531500D02*
X73279000Y-61658500D01*
X72453500Y-60706000D02*
X73279000Y-61531500D01*
X72453500Y-60135898D02*
X72453500Y-60706000D01*
X74465180Y-73626980D02*
X74465180Y-71432420D01*
X74465180Y-71432420D02*
X73991500Y-70958740D01*
X75041760Y-76029760D02*
X76350000Y-77338000D01*
X73991500Y-70958740D02*
X73991500Y-70372000D01*
X74465180Y-73626980D02*
X75041760Y-74203560D01*
X75041760Y-74203560D02*
X75041760Y-76029760D01*
X73991500Y-70372000D02*
X73469500Y-69850000D01*
X71053478Y-59494851D02*
X71053478Y-59496478D01*
X71053478Y-59496478D02*
X71818500Y-60261500D01*
X73469500Y-62738000D02*
X73469500Y-69850000D01*
X72517000Y-61785500D02*
X73469500Y-62738000D01*
X72517000Y-61468000D02*
X72517000Y-61785500D01*
X71818500Y-60769500D02*
X72517000Y-61468000D01*
X71818500Y-60261500D02*
X71818500Y-60769500D01*
X70699924Y-59848405D02*
X70699924Y-59904924D01*
X70699924Y-59904924D02*
X71247000Y-60452000D01*
X71247000Y-61468000D02*
X72707500Y-62928500D01*
X71247000Y-60452000D02*
X71247000Y-61468000D01*
X73541498Y-71511616D02*
X73541498Y-71064998D01*
X73947020Y-71917138D02*
X73541498Y-71511616D01*
X73947020Y-74079100D02*
X73947020Y-71917138D01*
X74231500Y-74363580D02*
X73947020Y-74079100D01*
X74231500Y-80299500D02*
X74231500Y-74363580D01*
X71818500Y-63119000D02*
X72644000Y-63944500D01*
X71818500Y-62738000D02*
X71818500Y-63119000D01*
X70346371Y-61265871D02*
X71818500Y-62738000D01*
X70346371Y-60201958D02*
X70346371Y-61265871D01*
X72898000Y-70421500D02*
X73541498Y-71064998D01*
X72898000Y-64135000D02*
X72898000Y-70421500D01*
X72707500Y-63944500D02*
X72898000Y-64135000D01*
X72644000Y-63944500D02*
X72707500Y-63944500D01*
X74231500Y-80299500D02*
X76350000Y-82418000D01*
X71760584Y-51575255D02*
X71760584Y-51581816D01*
X71760584Y-51581816D02*
X70967600Y-52374800D01*
X70967600Y-52374800D02*
X70967600Y-54152800D01*
X70967600Y-54152800D02*
X71424800Y-54610000D01*
X66669416Y-58787745D02*
X66688255Y-58787745D01*
X66688255Y-58787745D02*
X67564000Y-57912000D01*
X67564000Y-57912000D02*
X67564000Y-57302400D01*
X67564000Y-57302400D02*
X67360800Y-57099200D01*
X73564750Y-51212750D02*
X73564750Y-51149250D01*
X75316000Y-49398000D02*
X76350000Y-49398000D01*
X73564750Y-51149250D02*
X75316000Y-49398000D01*
X72467691Y-52282362D02*
X72495138Y-52282362D01*
X72495138Y-52282362D02*
X73564750Y-51212750D01*
D28*
X58064400Y-102682040D02*
X60010040Y-102682040D01*
X60010040Y-102682040D02*
X62219840Y-100472240D01*
D27*
G36*
X69904375Y-71430121D02*
X70180760Y-71843761D01*
X70482300Y-72045243D01*
X70482300Y-73311151D01*
X70423969Y-73220501D01*
X70298654Y-73134877D01*
X70149900Y-73104754D01*
X67949900Y-73104754D01*
X67810934Y-73130902D01*
X67683301Y-73213031D01*
X67597677Y-73338346D01*
X67567554Y-73487100D01*
X67567554Y-75687100D01*
X67593702Y-75826066D01*
X67675831Y-75953699D01*
X67801146Y-76039323D01*
X67949900Y-76069446D01*
X68424900Y-76069446D01*
X68424900Y-78051856D01*
X67025716Y-79451040D01*
X65891386Y-79451040D01*
X65891386Y-79276040D01*
X65865238Y-79137074D01*
X65783109Y-79009441D01*
X65657794Y-78923817D01*
X65509040Y-78893694D01*
X63909040Y-78893694D01*
X63770074Y-78919842D01*
X63642441Y-79001971D01*
X63556817Y-79127286D01*
X63526694Y-79276040D01*
X63526694Y-80876040D01*
X63552842Y-81015006D01*
X63634971Y-81142639D01*
X63760286Y-81228263D01*
X63909040Y-81258386D01*
X64183250Y-81258386D01*
X64115142Y-81416456D01*
X64709040Y-82010355D01*
X65302938Y-81416456D01*
X65234830Y-81258386D01*
X65509040Y-81258386D01*
X65648006Y-81232238D01*
X65775639Y-81150109D01*
X65861263Y-81024794D01*
X65891386Y-80876040D01*
X65891386Y-80701040D01*
X67284600Y-80701040D01*
X67523777Y-80653465D01*
X67726542Y-80517982D01*
X69491842Y-78752682D01*
X69627325Y-78549918D01*
X69674900Y-78310740D01*
X69674900Y-76069446D01*
X70149900Y-76069446D01*
X70288866Y-76043298D01*
X70416499Y-75961169D01*
X70502123Y-75835854D01*
X70532246Y-75687100D01*
X70532246Y-75212100D01*
X70717154Y-75212100D01*
X70717154Y-75547400D01*
X70743302Y-75686366D01*
X70825431Y-75813999D01*
X70950746Y-75899623D01*
X71099500Y-75929746D01*
X73299500Y-75929746D01*
X73438466Y-75903598D01*
X73566099Y-75821469D01*
X73651723Y-75696154D01*
X73681846Y-75547400D01*
X73681846Y-74521032D01*
X73731500Y-74570686D01*
X73731500Y-80299500D01*
X73769560Y-80490842D01*
X73877947Y-80653053D01*
X74597028Y-81372135D01*
X74583617Y-84555779D01*
X74529698Y-84425285D01*
X74199453Y-84094464D01*
X73767747Y-83915204D01*
X73300303Y-83914796D01*
X72868285Y-84093302D01*
X72537464Y-84423547D01*
X72358204Y-84855253D01*
X72357796Y-85322697D01*
X72536302Y-85754715D01*
X72866547Y-86085536D01*
X73298253Y-86264796D01*
X73765697Y-86265204D01*
X73950636Y-86188789D01*
X74573709Y-86907719D01*
X74551679Y-92137235D01*
X74363850Y-91856130D01*
X73982653Y-91601422D01*
X73533000Y-91511980D01*
X73083347Y-91601422D01*
X72702150Y-91856130D01*
X72549224Y-92085000D01*
X71383917Y-92085000D01*
X71315850Y-91983130D01*
X70934653Y-91728422D01*
X70485000Y-91638980D01*
X70035347Y-91728422D01*
X69654150Y-91983130D01*
X69399442Y-92364327D01*
X69310000Y-92813980D01*
X69310000Y-92860020D01*
X69399442Y-93309673D01*
X69587971Y-93591826D01*
X68864498Y-94315298D01*
X68729015Y-94518063D01*
X68681440Y-94757240D01*
X68681440Y-95188500D01*
X63906487Y-95188500D01*
X64059628Y-95035359D01*
X63937086Y-94912817D01*
X64155420Y-94869387D01*
X64246938Y-94656984D01*
X63653040Y-94063085D01*
X63370197Y-94345928D01*
X63109476Y-94085207D01*
X63111952Y-93497400D01*
X64218725Y-93497400D01*
X64812624Y-94091298D01*
X65025027Y-93999780D01*
X65112844Y-93436503D01*
X65025027Y-92995020D01*
X64812624Y-92903502D01*
X64218725Y-93497400D01*
X63111952Y-93497400D01*
X63114449Y-92904620D01*
X63370197Y-92648872D01*
X63653040Y-92931715D01*
X64246938Y-92337816D01*
X64155420Y-92125413D01*
X63928962Y-92090107D01*
X64054460Y-91964609D01*
X66808498Y-91964609D01*
X66931021Y-92184727D01*
X67575440Y-92266985D01*
X67988979Y-92184727D01*
X68111502Y-91964609D01*
X67460000Y-91313107D01*
X66808498Y-91964609D01*
X64054460Y-91964609D01*
X64059628Y-91959441D01*
X63593910Y-91493723D01*
X63593600Y-91494033D01*
X63593600Y-90721440D01*
X65799015Y-90721440D01*
X65881273Y-91134979D01*
X66101391Y-91257502D01*
X66752893Y-90606000D01*
X68167107Y-90606000D01*
X68818609Y-91257502D01*
X69038727Y-91134979D01*
X69120985Y-90490560D01*
X69038727Y-90077021D01*
X68818609Y-89954498D01*
X68167107Y-90606000D01*
X66752893Y-90606000D01*
X66101391Y-89954498D01*
X65881273Y-90077021D01*
X65799015Y-90721440D01*
X63593600Y-90721440D01*
X63593600Y-89247391D01*
X66808498Y-89247391D01*
X67460000Y-89898893D01*
X68111502Y-89247391D01*
X67988979Y-89027273D01*
X67344560Y-88945015D01*
X66931021Y-89027273D01*
X66808498Y-89247391D01*
X63593600Y-89247391D01*
X63593600Y-88239600D01*
X63555540Y-88048258D01*
X63447153Y-87886047D01*
X63136898Y-87575792D01*
X63147946Y-84953000D01*
X66668772Y-84953000D01*
X66295011Y-85326108D01*
X66085239Y-85831296D01*
X66084762Y-86378305D01*
X66293652Y-86883857D01*
X66680108Y-87270989D01*
X67185296Y-87480761D01*
X67732305Y-87481238D01*
X68237857Y-87272348D01*
X68624989Y-86885892D01*
X68834761Y-86380704D01*
X68835238Y-85833695D01*
X68626348Y-85328143D01*
X68251860Y-84953000D01*
X69322351Y-84953000D01*
X69310204Y-84982253D01*
X69309796Y-85449697D01*
X69488302Y-85881715D01*
X69818547Y-86212536D01*
X70250253Y-86391796D01*
X70717697Y-86392204D01*
X71149715Y-86213698D01*
X71480536Y-85883453D01*
X71659796Y-85451747D01*
X71660204Y-84984303D01*
X71481698Y-84552285D01*
X71151453Y-84221464D01*
X70719747Y-84042204D01*
X70252303Y-84041796D01*
X70210820Y-84058936D01*
X70037942Y-83886058D01*
X69835177Y-83750575D01*
X69596000Y-83703000D01*
X69090104Y-83703000D01*
X69614358Y-83598719D01*
X70092883Y-83278980D01*
X70412622Y-82800455D01*
X70524900Y-82235997D01*
X70524900Y-82178203D01*
X70497112Y-82038503D01*
X70724500Y-82038503D01*
X70724500Y-82096297D01*
X70836778Y-82660755D01*
X71156517Y-83139280D01*
X71635042Y-83459019D01*
X72199500Y-83571297D01*
X72763958Y-83459019D01*
X73242483Y-83139280D01*
X73562222Y-82660755D01*
X73674500Y-82096297D01*
X73674500Y-82038503D01*
X73562222Y-81474045D01*
X73242483Y-80995520D01*
X72763958Y-80675781D01*
X72199500Y-80563503D01*
X71635042Y-80675781D01*
X71156517Y-80995520D01*
X70836778Y-81474045D01*
X70724500Y-82038503D01*
X70497112Y-82038503D01*
X70412622Y-81613745D01*
X70092883Y-81135220D01*
X69614358Y-80815481D01*
X69049900Y-80703203D01*
X68485442Y-80815481D01*
X68006917Y-81135220D01*
X67687178Y-81613745D01*
X67574900Y-82178203D01*
X67574900Y-82235997D01*
X67687178Y-82800455D01*
X68006917Y-83278980D01*
X68485442Y-83598719D01*
X69009696Y-83703000D01*
X65270314Y-83703000D01*
X64709040Y-83141725D01*
X64147766Y-83703000D01*
X63153212Y-83703000D01*
X63157703Y-82636937D01*
X63249236Y-82636937D01*
X63337053Y-83078420D01*
X63549456Y-83169938D01*
X64143355Y-82576040D01*
X65274725Y-82576040D01*
X65868624Y-83169938D01*
X66081027Y-83078420D01*
X66168844Y-82515143D01*
X66081027Y-82073660D01*
X65868624Y-81982142D01*
X65274725Y-82576040D01*
X64143355Y-82576040D01*
X63549456Y-81982142D01*
X63337053Y-82073660D01*
X63249236Y-82636937D01*
X63157703Y-82636937D01*
X63179298Y-77510800D01*
X63549554Y-77510800D01*
X63549554Y-77685800D01*
X63575702Y-77824766D01*
X63657831Y-77952399D01*
X63783146Y-78038023D01*
X63931900Y-78068146D01*
X65531900Y-78068146D01*
X65670866Y-78041998D01*
X65798499Y-77959869D01*
X65884123Y-77834554D01*
X65914246Y-77685800D01*
X65914246Y-77367630D01*
X65973942Y-77327742D01*
X66700382Y-76601302D01*
X66835865Y-76398538D01*
X66883440Y-76159360D01*
X66883440Y-73509944D01*
X68236930Y-72156454D01*
X68542321Y-72217200D01*
X68592279Y-72217200D01*
X69080200Y-72120146D01*
X69493840Y-71843761D01*
X69770225Y-71430121D01*
X69837300Y-71092914D01*
X69904375Y-71430121D01*
X69904375Y-71430121D01*
G37*
X69904375Y-71430121D02*
X70180760Y-71843761D01*
X70482300Y-72045243D01*
X70482300Y-73311151D01*
X70423969Y-73220501D01*
X70298654Y-73134877D01*
X70149900Y-73104754D01*
X67949900Y-73104754D01*
X67810934Y-73130902D01*
X67683301Y-73213031D01*
X67597677Y-73338346D01*
X67567554Y-73487100D01*
X67567554Y-75687100D01*
X67593702Y-75826066D01*
X67675831Y-75953699D01*
X67801146Y-76039323D01*
X67949900Y-76069446D01*
X68424900Y-76069446D01*
X68424900Y-78051856D01*
X67025716Y-79451040D01*
X65891386Y-79451040D01*
X65891386Y-79276040D01*
X65865238Y-79137074D01*
X65783109Y-79009441D01*
X65657794Y-78923817D01*
X65509040Y-78893694D01*
X63909040Y-78893694D01*
X63770074Y-78919842D01*
X63642441Y-79001971D01*
X63556817Y-79127286D01*
X63526694Y-79276040D01*
X63526694Y-80876040D01*
X63552842Y-81015006D01*
X63634971Y-81142639D01*
X63760286Y-81228263D01*
X63909040Y-81258386D01*
X64183250Y-81258386D01*
X64115142Y-81416456D01*
X64709040Y-82010355D01*
X65302938Y-81416456D01*
X65234830Y-81258386D01*
X65509040Y-81258386D01*
X65648006Y-81232238D01*
X65775639Y-81150109D01*
X65861263Y-81024794D01*
X65891386Y-80876040D01*
X65891386Y-80701040D01*
X67284600Y-80701040D01*
X67523777Y-80653465D01*
X67726542Y-80517982D01*
X69491842Y-78752682D01*
X69627325Y-78549918D01*
X69674900Y-78310740D01*
X69674900Y-76069446D01*
X70149900Y-76069446D01*
X70288866Y-76043298D01*
X70416499Y-75961169D01*
X70502123Y-75835854D01*
X70532246Y-75687100D01*
X70532246Y-75212100D01*
X70717154Y-75212100D01*
X70717154Y-75547400D01*
X70743302Y-75686366D01*
X70825431Y-75813999D01*
X70950746Y-75899623D01*
X71099500Y-75929746D01*
X73299500Y-75929746D01*
X73438466Y-75903598D01*
X73566099Y-75821469D01*
X73651723Y-75696154D01*
X73681846Y-75547400D01*
X73681846Y-74521032D01*
X73731500Y-74570686D01*
X73731500Y-80299500D01*
X73769560Y-80490842D01*
X73877947Y-80653053D01*
X74597028Y-81372135D01*
X74583617Y-84555779D01*
X74529698Y-84425285D01*
X74199453Y-84094464D01*
X73767747Y-83915204D01*
X73300303Y-83914796D01*
X72868285Y-84093302D01*
X72537464Y-84423547D01*
X72358204Y-84855253D01*
X72357796Y-85322697D01*
X72536302Y-85754715D01*
X72866547Y-86085536D01*
X73298253Y-86264796D01*
X73765697Y-86265204D01*
X73950636Y-86188789D01*
X74573709Y-86907719D01*
X74551679Y-92137235D01*
X74363850Y-91856130D01*
X73982653Y-91601422D01*
X73533000Y-91511980D01*
X73083347Y-91601422D01*
X72702150Y-91856130D01*
X72549224Y-92085000D01*
X71383917Y-92085000D01*
X71315850Y-91983130D01*
X70934653Y-91728422D01*
X70485000Y-91638980D01*
X70035347Y-91728422D01*
X69654150Y-91983130D01*
X69399442Y-92364327D01*
X69310000Y-92813980D01*
X69310000Y-92860020D01*
X69399442Y-93309673D01*
X69587971Y-93591826D01*
X68864498Y-94315298D01*
X68729015Y-94518063D01*
X68681440Y-94757240D01*
X68681440Y-95188500D01*
X63906487Y-95188500D01*
X64059628Y-95035359D01*
X63937086Y-94912817D01*
X64155420Y-94869387D01*
X64246938Y-94656984D01*
X63653040Y-94063085D01*
X63370197Y-94345928D01*
X63109476Y-94085207D01*
X63111952Y-93497400D01*
X64218725Y-93497400D01*
X64812624Y-94091298D01*
X65025027Y-93999780D01*
X65112844Y-93436503D01*
X65025027Y-92995020D01*
X64812624Y-92903502D01*
X64218725Y-93497400D01*
X63111952Y-93497400D01*
X63114449Y-92904620D01*
X63370197Y-92648872D01*
X63653040Y-92931715D01*
X64246938Y-92337816D01*
X64155420Y-92125413D01*
X63928962Y-92090107D01*
X64054460Y-91964609D01*
X66808498Y-91964609D01*
X66931021Y-92184727D01*
X67575440Y-92266985D01*
X67988979Y-92184727D01*
X68111502Y-91964609D01*
X67460000Y-91313107D01*
X66808498Y-91964609D01*
X64054460Y-91964609D01*
X64059628Y-91959441D01*
X63593910Y-91493723D01*
X63593600Y-91494033D01*
X63593600Y-90721440D01*
X65799015Y-90721440D01*
X65881273Y-91134979D01*
X66101391Y-91257502D01*
X66752893Y-90606000D01*
X68167107Y-90606000D01*
X68818609Y-91257502D01*
X69038727Y-91134979D01*
X69120985Y-90490560D01*
X69038727Y-90077021D01*
X68818609Y-89954498D01*
X68167107Y-90606000D01*
X66752893Y-90606000D01*
X66101391Y-89954498D01*
X65881273Y-90077021D01*
X65799015Y-90721440D01*
X63593600Y-90721440D01*
X63593600Y-89247391D01*
X66808498Y-89247391D01*
X67460000Y-89898893D01*
X68111502Y-89247391D01*
X67988979Y-89027273D01*
X67344560Y-88945015D01*
X66931021Y-89027273D01*
X66808498Y-89247391D01*
X63593600Y-89247391D01*
X63593600Y-88239600D01*
X63555540Y-88048258D01*
X63447153Y-87886047D01*
X63136898Y-87575792D01*
X63147946Y-84953000D01*
X66668772Y-84953000D01*
X66295011Y-85326108D01*
X66085239Y-85831296D01*
X66084762Y-86378305D01*
X66293652Y-86883857D01*
X66680108Y-87270989D01*
X67185296Y-87480761D01*
X67732305Y-87481238D01*
X68237857Y-87272348D01*
X68624989Y-86885892D01*
X68834761Y-86380704D01*
X68835238Y-85833695D01*
X68626348Y-85328143D01*
X68251860Y-84953000D01*
X69322351Y-84953000D01*
X69310204Y-84982253D01*
X69309796Y-85449697D01*
X69488302Y-85881715D01*
X69818547Y-86212536D01*
X70250253Y-86391796D01*
X70717697Y-86392204D01*
X71149715Y-86213698D01*
X71480536Y-85883453D01*
X71659796Y-85451747D01*
X71660204Y-84984303D01*
X71481698Y-84552285D01*
X71151453Y-84221464D01*
X70719747Y-84042204D01*
X70252303Y-84041796D01*
X70210820Y-84058936D01*
X70037942Y-83886058D01*
X69835177Y-83750575D01*
X69596000Y-83703000D01*
X69090104Y-83703000D01*
X69614358Y-83598719D01*
X70092883Y-83278980D01*
X70412622Y-82800455D01*
X70524900Y-82235997D01*
X70524900Y-82178203D01*
X70497112Y-82038503D01*
X70724500Y-82038503D01*
X70724500Y-82096297D01*
X70836778Y-82660755D01*
X71156517Y-83139280D01*
X71635042Y-83459019D01*
X72199500Y-83571297D01*
X72763958Y-83459019D01*
X73242483Y-83139280D01*
X73562222Y-82660755D01*
X73674500Y-82096297D01*
X73674500Y-82038503D01*
X73562222Y-81474045D01*
X73242483Y-80995520D01*
X72763958Y-80675781D01*
X72199500Y-80563503D01*
X71635042Y-80675781D01*
X71156517Y-80995520D01*
X70836778Y-81474045D01*
X70724500Y-82038503D01*
X70497112Y-82038503D01*
X70412622Y-81613745D01*
X70092883Y-81135220D01*
X69614358Y-80815481D01*
X69049900Y-80703203D01*
X68485442Y-80815481D01*
X68006917Y-81135220D01*
X67687178Y-81613745D01*
X67574900Y-82178203D01*
X67574900Y-82235997D01*
X67687178Y-82800455D01*
X68006917Y-83278980D01*
X68485442Y-83598719D01*
X69009696Y-83703000D01*
X65270314Y-83703000D01*
X64709040Y-83141725D01*
X64147766Y-83703000D01*
X63153212Y-83703000D01*
X63157703Y-82636937D01*
X63249236Y-82636937D01*
X63337053Y-83078420D01*
X63549456Y-83169938D01*
X64143355Y-82576040D01*
X65274725Y-82576040D01*
X65868624Y-83169938D01*
X66081027Y-83078420D01*
X66168844Y-82515143D01*
X66081027Y-82073660D01*
X65868624Y-81982142D01*
X65274725Y-82576040D01*
X64143355Y-82576040D01*
X63549456Y-81982142D01*
X63337053Y-82073660D01*
X63249236Y-82636937D01*
X63157703Y-82636937D01*
X63179298Y-77510800D01*
X63549554Y-77510800D01*
X63549554Y-77685800D01*
X63575702Y-77824766D01*
X63657831Y-77952399D01*
X63783146Y-78038023D01*
X63931900Y-78068146D01*
X65531900Y-78068146D01*
X65670866Y-78041998D01*
X65798499Y-77959869D01*
X65884123Y-77834554D01*
X65914246Y-77685800D01*
X65914246Y-77367630D01*
X65973942Y-77327742D01*
X66700382Y-76601302D01*
X66835865Y-76398538D01*
X66883440Y-76159360D01*
X66883440Y-73509944D01*
X68236930Y-72156454D01*
X68542321Y-72217200D01*
X68592279Y-72217200D01*
X69080200Y-72120146D01*
X69493840Y-71843761D01*
X69770225Y-71430121D01*
X69837300Y-71092914D01*
X69904375Y-71430121D01*
G36*
X67714028Y-61883657D02*
X67431185Y-62166500D01*
X68025084Y-62760398D01*
X68237487Y-62668880D01*
X68255085Y-62556000D01*
X68368802Y-62831215D01*
X68699047Y-63162036D01*
X68762236Y-63188274D01*
X68788075Y-63318177D01*
X68923558Y-63520942D01*
X69143952Y-63741336D01*
X69048787Y-63677749D01*
X68580000Y-63584501D01*
X68111213Y-63677749D01*
X67713794Y-63943295D01*
X67523000Y-64228839D01*
X67523000Y-63458498D01*
X67402345Y-63458498D01*
X67459398Y-63326084D01*
X66865500Y-62732185D01*
X66271602Y-63326084D01*
X66363120Y-63538487D01*
X66510685Y-63561493D01*
X66465000Y-63578774D01*
X66465000Y-64408500D01*
X66890000Y-64408500D01*
X66890000Y-65258500D01*
X66465000Y-65258500D01*
X66465000Y-66088226D01*
X66505379Y-66103500D01*
X66465000Y-66118774D01*
X66465000Y-66948500D01*
X66890000Y-66948500D01*
X66890000Y-67798500D01*
X66465000Y-67798500D01*
X66465000Y-68628226D01*
X66682029Y-68710320D01*
X66890000Y-68571380D01*
X66890000Y-68748502D01*
X67523000Y-68748502D01*
X67523000Y-67978161D01*
X67713794Y-68263705D01*
X68111213Y-68529251D01*
X68580000Y-68622499D01*
X69048787Y-68529251D01*
X69143952Y-68465664D01*
X68125358Y-69484258D01*
X67989875Y-69687023D01*
X67962268Y-69825815D01*
X67640760Y-70040639D01*
X67560300Y-70161056D01*
X67560300Y-69567198D01*
X67347495Y-69567198D01*
X67285865Y-69505568D01*
X67053211Y-69409200D01*
X66635550Y-69409200D01*
X66477300Y-69567450D01*
X66477300Y-70492200D01*
X66927300Y-70492200D01*
X66927300Y-71392200D01*
X66477300Y-71392200D01*
X66477300Y-72148316D01*
X65816498Y-72809118D01*
X65681015Y-73011883D01*
X65637841Y-73228934D01*
X64801177Y-72392270D01*
X65001389Y-72475200D01*
X65419050Y-72475200D01*
X65577300Y-72316950D01*
X65577300Y-71392200D01*
X64652550Y-71392200D01*
X64494300Y-71550450D01*
X64494300Y-71968112D01*
X64590669Y-72200766D01*
X64768735Y-72378832D01*
X64786827Y-72386326D01*
X64325312Y-72847841D01*
X64447854Y-72970383D01*
X64229520Y-73013813D01*
X64138002Y-73226216D01*
X64731900Y-73820115D01*
X65014743Y-73537272D01*
X65580428Y-74102957D01*
X65297585Y-74385800D01*
X65580428Y-74668643D01*
X65014743Y-75234328D01*
X64731900Y-74951485D01*
X64138002Y-75545384D01*
X64206110Y-75703454D01*
X63931900Y-75703454D01*
X63792934Y-75729602D01*
X63665301Y-75811731D01*
X63579677Y-75937046D01*
X63549554Y-76085800D01*
X63549554Y-76260800D01*
X63184564Y-76260800D01*
X63192206Y-74446697D01*
X63272096Y-74446697D01*
X63359913Y-74888180D01*
X63572316Y-74979698D01*
X64166215Y-74385800D01*
X63572316Y-73791902D01*
X63359913Y-73883420D01*
X63272096Y-74446697D01*
X63192206Y-74446697D01*
X63211291Y-69916288D01*
X64494300Y-69916288D01*
X64494300Y-70333950D01*
X64652550Y-70492200D01*
X65577300Y-70492200D01*
X65577300Y-69567450D01*
X65419050Y-69409200D01*
X65001389Y-69409200D01*
X64768735Y-69505568D01*
X64590669Y-69683634D01*
X64494300Y-69916288D01*
X63211291Y-69916288D01*
X63218028Y-68317079D01*
X63282053Y-68253054D01*
X63390440Y-68090842D01*
X63399716Y-68044206D01*
X63405419Y-68015534D01*
X64703146Y-68015534D01*
X65050604Y-68478254D01*
X65397971Y-68710320D01*
X65615000Y-68628226D01*
X65615000Y-67798500D01*
X64777419Y-67798500D01*
X64703146Y-68015534D01*
X63405419Y-68015534D01*
X63428500Y-67899500D01*
X63428500Y-65475534D01*
X64703146Y-65475534D01*
X65050604Y-65938254D01*
X65297952Y-66103500D01*
X65050604Y-66268746D01*
X64703146Y-66731466D01*
X64777419Y-66948500D01*
X65615000Y-66948500D01*
X65615000Y-66118774D01*
X65574621Y-66103500D01*
X65615000Y-66088226D01*
X65615000Y-65258500D01*
X64777419Y-65258500D01*
X64703146Y-65475534D01*
X63428500Y-65475534D01*
X63428500Y-64249087D01*
X63555645Y-64301883D01*
X63824177Y-64302117D01*
X64072357Y-64199571D01*
X64080476Y-64191466D01*
X64703146Y-64191466D01*
X64777419Y-64408500D01*
X65615000Y-64408500D01*
X65615000Y-63578774D01*
X65397971Y-63496680D01*
X65050604Y-63728746D01*
X64703146Y-64191466D01*
X64080476Y-64191466D01*
X64262403Y-64009856D01*
X64365383Y-63761855D01*
X64365528Y-63595578D01*
X65377554Y-62583553D01*
X65453833Y-62469394D01*
X65493513Y-62668880D01*
X65705916Y-62760398D01*
X66299815Y-62166500D01*
X66016972Y-61883657D01*
X66582657Y-61317972D01*
X66865500Y-61600815D01*
X67148343Y-61317972D01*
X67714028Y-61883657D01*
X67714028Y-61883657D01*
G37*
X67714028Y-61883657D02*
X67431185Y-62166500D01*
X68025084Y-62760398D01*
X68237487Y-62668880D01*
X68255085Y-62556000D01*
X68368802Y-62831215D01*
X68699047Y-63162036D01*
X68762236Y-63188274D01*
X68788075Y-63318177D01*
X68923558Y-63520942D01*
X69143952Y-63741336D01*
X69048787Y-63677749D01*
X68580000Y-63584501D01*
X68111213Y-63677749D01*
X67713794Y-63943295D01*
X67523000Y-64228839D01*
X67523000Y-63458498D01*
X67402345Y-63458498D01*
X67459398Y-63326084D01*
X66865500Y-62732185D01*
X66271602Y-63326084D01*
X66363120Y-63538487D01*
X66510685Y-63561493D01*
X66465000Y-63578774D01*
X66465000Y-64408500D01*
X66890000Y-64408500D01*
X66890000Y-65258500D01*
X66465000Y-65258500D01*
X66465000Y-66088226D01*
X66505379Y-66103500D01*
X66465000Y-66118774D01*
X66465000Y-66948500D01*
X66890000Y-66948500D01*
X66890000Y-67798500D01*
X66465000Y-67798500D01*
X66465000Y-68628226D01*
X66682029Y-68710320D01*
X66890000Y-68571380D01*
X66890000Y-68748502D01*
X67523000Y-68748502D01*
X67523000Y-67978161D01*
X67713794Y-68263705D01*
X68111213Y-68529251D01*
X68580000Y-68622499D01*
X69048787Y-68529251D01*
X69143952Y-68465664D01*
X68125358Y-69484258D01*
X67989875Y-69687023D01*
X67962268Y-69825815D01*
X67640760Y-70040639D01*
X67560300Y-70161056D01*
X67560300Y-69567198D01*
X67347495Y-69567198D01*
X67285865Y-69505568D01*
X67053211Y-69409200D01*
X66635550Y-69409200D01*
X66477300Y-69567450D01*
X66477300Y-70492200D01*
X66927300Y-70492200D01*
X66927300Y-71392200D01*
X66477300Y-71392200D01*
X66477300Y-72148316D01*
X65816498Y-72809118D01*
X65681015Y-73011883D01*
X65637841Y-73228934D01*
X64801177Y-72392270D01*
X65001389Y-72475200D01*
X65419050Y-72475200D01*
X65577300Y-72316950D01*
X65577300Y-71392200D01*
X64652550Y-71392200D01*
X64494300Y-71550450D01*
X64494300Y-71968112D01*
X64590669Y-72200766D01*
X64768735Y-72378832D01*
X64786827Y-72386326D01*
X64325312Y-72847841D01*
X64447854Y-72970383D01*
X64229520Y-73013813D01*
X64138002Y-73226216D01*
X64731900Y-73820115D01*
X65014743Y-73537272D01*
X65580428Y-74102957D01*
X65297585Y-74385800D01*
X65580428Y-74668643D01*
X65014743Y-75234328D01*
X64731900Y-74951485D01*
X64138002Y-75545384D01*
X64206110Y-75703454D01*
X63931900Y-75703454D01*
X63792934Y-75729602D01*
X63665301Y-75811731D01*
X63579677Y-75937046D01*
X63549554Y-76085800D01*
X63549554Y-76260800D01*
X63184564Y-76260800D01*
X63192206Y-74446697D01*
X63272096Y-74446697D01*
X63359913Y-74888180D01*
X63572316Y-74979698D01*
X64166215Y-74385800D01*
X63572316Y-73791902D01*
X63359913Y-73883420D01*
X63272096Y-74446697D01*
X63192206Y-74446697D01*
X63211291Y-69916288D01*
X64494300Y-69916288D01*
X64494300Y-70333950D01*
X64652550Y-70492200D01*
X65577300Y-70492200D01*
X65577300Y-69567450D01*
X65419050Y-69409200D01*
X65001389Y-69409200D01*
X64768735Y-69505568D01*
X64590669Y-69683634D01*
X64494300Y-69916288D01*
X63211291Y-69916288D01*
X63218028Y-68317079D01*
X63282053Y-68253054D01*
X63390440Y-68090842D01*
X63399716Y-68044206D01*
X63405419Y-68015534D01*
X64703146Y-68015534D01*
X65050604Y-68478254D01*
X65397971Y-68710320D01*
X65615000Y-68628226D01*
X65615000Y-67798500D01*
X64777419Y-67798500D01*
X64703146Y-68015534D01*
X63405419Y-68015534D01*
X63428500Y-67899500D01*
X63428500Y-65475534D01*
X64703146Y-65475534D01*
X65050604Y-65938254D01*
X65297952Y-66103500D01*
X65050604Y-66268746D01*
X64703146Y-66731466D01*
X64777419Y-66948500D01*
X65615000Y-66948500D01*
X65615000Y-66118774D01*
X65574621Y-66103500D01*
X65615000Y-66088226D01*
X65615000Y-65258500D01*
X64777419Y-65258500D01*
X64703146Y-65475534D01*
X63428500Y-65475534D01*
X63428500Y-64249087D01*
X63555645Y-64301883D01*
X63824177Y-64302117D01*
X64072357Y-64199571D01*
X64080476Y-64191466D01*
X64703146Y-64191466D01*
X64777419Y-64408500D01*
X65615000Y-64408500D01*
X65615000Y-63578774D01*
X65397971Y-63496680D01*
X65050604Y-63728746D01*
X64703146Y-64191466D01*
X64080476Y-64191466D01*
X64262403Y-64009856D01*
X64365383Y-63761855D01*
X64365528Y-63595578D01*
X65377554Y-62583553D01*
X65453833Y-62469394D01*
X65493513Y-62668880D01*
X65705916Y-62760398D01*
X66299815Y-62166500D01*
X66016972Y-61883657D01*
X66582657Y-61317972D01*
X66865500Y-61600815D01*
X67148343Y-61317972D01*
X67714028Y-61883657D01*
G36*
X72398000Y-64369919D02*
X72398000Y-70421500D01*
X72430364Y-70584206D01*
X72436060Y-70612842D01*
X72544447Y-70775053D01*
X73041498Y-71272105D01*
X73041498Y-71511616D01*
X73063805Y-71623762D01*
X73079558Y-71702958D01*
X73187945Y-71865169D01*
X73447020Y-72124245D01*
X73447020Y-72994927D01*
X73299500Y-72965054D01*
X71732300Y-72965054D01*
X71732300Y-72045243D01*
X72033840Y-71843761D01*
X72310225Y-71430121D01*
X72407279Y-70942200D01*
X72310225Y-70454279D01*
X72033840Y-70040639D01*
X71620200Y-69764254D01*
X71132279Y-69667200D01*
X71082321Y-69667200D01*
X70594400Y-69764254D01*
X70180760Y-70040639D01*
X69904375Y-70454279D01*
X69837300Y-70791486D01*
X69770225Y-70454279D01*
X69493840Y-70040639D01*
X69399668Y-69977716D01*
X70815462Y-68561922D01*
X71120000Y-68622499D01*
X71588787Y-68529251D01*
X71986206Y-68263705D01*
X72251752Y-67866286D01*
X72345000Y-67397499D01*
X72345000Y-67349501D01*
X72251752Y-66880714D01*
X71986206Y-66483295D01*
X71745000Y-66322127D01*
X71745000Y-66065846D01*
X71970000Y-66065846D01*
X72108966Y-66039698D01*
X72236599Y-65957569D01*
X72322223Y-65832254D01*
X72352346Y-65683500D01*
X72352346Y-64339413D01*
X72398000Y-64369919D01*
X72398000Y-64369919D01*
G37*
X72398000Y-64369919D02*
X72398000Y-70421500D01*
X72430364Y-70584206D01*
X72436060Y-70612842D01*
X72544447Y-70775053D01*
X73041498Y-71272105D01*
X73041498Y-71511616D01*
X73063805Y-71623762D01*
X73079558Y-71702958D01*
X73187945Y-71865169D01*
X73447020Y-72124245D01*
X73447020Y-72994927D01*
X73299500Y-72965054D01*
X71732300Y-72965054D01*
X71732300Y-72045243D01*
X72033840Y-71843761D01*
X72310225Y-71430121D01*
X72407279Y-70942200D01*
X72310225Y-70454279D01*
X72033840Y-70040639D01*
X71620200Y-69764254D01*
X71132279Y-69667200D01*
X71082321Y-69667200D01*
X70594400Y-69764254D01*
X70180760Y-70040639D01*
X69904375Y-70454279D01*
X69837300Y-70791486D01*
X69770225Y-70454279D01*
X69493840Y-70040639D01*
X69399668Y-69977716D01*
X70815462Y-68561922D01*
X71120000Y-68622499D01*
X71588787Y-68529251D01*
X71986206Y-68263705D01*
X72251752Y-67866286D01*
X72345000Y-67397499D01*
X72345000Y-67349501D01*
X72251752Y-66880714D01*
X71986206Y-66483295D01*
X71745000Y-66322127D01*
X71745000Y-66065846D01*
X71970000Y-66065846D01*
X72108966Y-66039698D01*
X72236599Y-65957569D01*
X72322223Y-65832254D01*
X72352346Y-65683500D01*
X72352346Y-64339413D01*
X72398000Y-64369919D01*
G36*
X72373645Y-56230138D02*
X72438700Y-56295193D01*
X72002414Y-56731479D01*
X72179653Y-56908719D01*
X72002878Y-57085494D01*
X71928486Y-57194369D01*
X71826101Y-57262271D01*
X71649324Y-57439048D01*
X71574932Y-57547923D01*
X71472548Y-57615824D01*
X71295771Y-57792601D01*
X71221379Y-57901476D01*
X71118994Y-57969378D01*
X70942217Y-58146155D01*
X70867825Y-58255030D01*
X70765441Y-58322931D01*
X70588664Y-58499708D01*
X70514272Y-58608583D01*
X70411888Y-58676484D01*
X70235111Y-58853261D01*
X70160719Y-58962136D01*
X70058334Y-59030038D01*
X69881557Y-59206815D01*
X69807165Y-59315690D01*
X69704781Y-59383591D01*
X69528004Y-59560368D01*
X69448229Y-59677121D01*
X69416053Y-59825445D01*
X69444119Y-59974601D01*
X69528004Y-60101086D01*
X69846371Y-60419453D01*
X69846371Y-61093904D01*
X69600247Y-60991704D01*
X69132803Y-60991296D01*
X68966229Y-61060123D01*
X68583629Y-60677523D01*
X68583629Y-60456977D01*
X71568804Y-57471803D01*
X71642750Y-57361135D01*
X71677190Y-57309592D01*
X71715250Y-57118250D01*
X71715250Y-55999000D01*
X72604782Y-55999000D01*
X72373645Y-56230138D01*
X72373645Y-56230138D01*
G37*
X72373645Y-56230138D02*
X72438700Y-56295193D01*
X72002414Y-56731479D01*
X72179653Y-56908719D01*
X72002878Y-57085494D01*
X71928486Y-57194369D01*
X71826101Y-57262271D01*
X71649324Y-57439048D01*
X71574932Y-57547923D01*
X71472548Y-57615824D01*
X71295771Y-57792601D01*
X71221379Y-57901476D01*
X71118994Y-57969378D01*
X70942217Y-58146155D01*
X70867825Y-58255030D01*
X70765441Y-58322931D01*
X70588664Y-58499708D01*
X70514272Y-58608583D01*
X70411888Y-58676484D01*
X70235111Y-58853261D01*
X70160719Y-58962136D01*
X70058334Y-59030038D01*
X69881557Y-59206815D01*
X69807165Y-59315690D01*
X69704781Y-59383591D01*
X69528004Y-59560368D01*
X69448229Y-59677121D01*
X69416053Y-59825445D01*
X69444119Y-59974601D01*
X69528004Y-60101086D01*
X69846371Y-60419453D01*
X69846371Y-61093904D01*
X69600247Y-60991704D01*
X69132803Y-60991296D01*
X68966229Y-61060123D01*
X68583629Y-60677523D01*
X68583629Y-60456977D01*
X71568804Y-57471803D01*
X71642750Y-57361135D01*
X71677190Y-57309592D01*
X71715250Y-57118250D01*
X71715250Y-55999000D01*
X72604782Y-55999000D01*
X72373645Y-56230138D01*
G36*
X66305958Y-54747331D02*
X66326564Y-54778170D01*
X67400947Y-55852553D01*
X67563158Y-55960940D01*
X67754500Y-55999000D01*
X70715250Y-55999000D01*
X70715250Y-56911143D01*
X68330327Y-59296067D01*
X68310986Y-59299706D01*
X68216477Y-59362385D01*
X68274664Y-59277226D01*
X68291784Y-59198309D01*
X68481200Y-59008892D01*
X68481200Y-58920504D01*
X68613961Y-58787743D01*
X68166362Y-58340145D01*
X67907314Y-58599193D01*
X67841336Y-58499708D01*
X67762367Y-58420739D01*
X67917553Y-58265554D01*
X68025940Y-58103342D01*
X68043488Y-58015121D01*
X68064000Y-57912000D01*
X68064000Y-57302400D01*
X68035747Y-57160363D01*
X68035917Y-56965523D01*
X67933371Y-56717343D01*
X67743656Y-56527297D01*
X67495655Y-56424317D01*
X67227123Y-56424083D01*
X66978943Y-56526629D01*
X66788897Y-56716344D01*
X66685917Y-56964345D01*
X66685683Y-57232877D01*
X66763967Y-57422339D01*
X66603899Y-57262271D01*
X66495024Y-57187879D01*
X66427122Y-57085494D01*
X66250345Y-56908717D01*
X66141470Y-56834325D01*
X66073569Y-56731941D01*
X65896792Y-56555164D01*
X65787917Y-56480772D01*
X65720016Y-56378388D01*
X65543239Y-56201611D01*
X65434364Y-56127219D01*
X65366462Y-56024834D01*
X65189685Y-55848057D01*
X65080810Y-55773665D01*
X65012909Y-55671281D01*
X64836132Y-55494504D01*
X64719379Y-55414729D01*
X64694542Y-55409341D01*
X64694542Y-55022542D01*
X64681635Y-54957652D01*
X64709647Y-54952381D01*
X64836132Y-54868496D01*
X65012909Y-54691719D01*
X65087301Y-54582844D01*
X65189685Y-54514943D01*
X65366460Y-54338168D01*
X65543700Y-54515407D01*
X65808867Y-54250240D01*
X66305958Y-54747331D01*
X66305958Y-54747331D01*
G37*
X66305958Y-54747331D02*
X66326564Y-54778170D01*
X67400947Y-55852553D01*
X67563158Y-55960940D01*
X67754500Y-55999000D01*
X70715250Y-55999000D01*
X70715250Y-56911143D01*
X68330327Y-59296067D01*
X68310986Y-59299706D01*
X68216477Y-59362385D01*
X68274664Y-59277226D01*
X68291784Y-59198309D01*
X68481200Y-59008892D01*
X68481200Y-58920504D01*
X68613961Y-58787743D01*
X68166362Y-58340145D01*
X67907314Y-58599193D01*
X67841336Y-58499708D01*
X67762367Y-58420739D01*
X67917553Y-58265554D01*
X68025940Y-58103342D01*
X68043488Y-58015121D01*
X68064000Y-57912000D01*
X68064000Y-57302400D01*
X68035747Y-57160363D01*
X68035917Y-56965523D01*
X67933371Y-56717343D01*
X67743656Y-56527297D01*
X67495655Y-56424317D01*
X67227123Y-56424083D01*
X66978943Y-56526629D01*
X66788897Y-56716344D01*
X66685917Y-56964345D01*
X66685683Y-57232877D01*
X66763967Y-57422339D01*
X66603899Y-57262271D01*
X66495024Y-57187879D01*
X66427122Y-57085494D01*
X66250345Y-56908717D01*
X66141470Y-56834325D01*
X66073569Y-56731941D01*
X65896792Y-56555164D01*
X65787917Y-56480772D01*
X65720016Y-56378388D01*
X65543239Y-56201611D01*
X65434364Y-56127219D01*
X65366462Y-56024834D01*
X65189685Y-55848057D01*
X65080810Y-55773665D01*
X65012909Y-55671281D01*
X64836132Y-55494504D01*
X64719379Y-55414729D01*
X64694542Y-55409341D01*
X64694542Y-55022542D01*
X64681635Y-54957652D01*
X64709647Y-54952381D01*
X64836132Y-54868496D01*
X65012909Y-54691719D01*
X65087301Y-54582844D01*
X65189685Y-54514943D01*
X65366460Y-54338168D01*
X65543700Y-54515407D01*
X65808867Y-54250240D01*
X66305958Y-54747331D01*
G36*
X70525163Y-52154270D02*
X70505660Y-52183458D01*
X70467600Y-52374800D01*
X70467600Y-54152800D01*
X70494226Y-54286658D01*
X70505660Y-54344142D01*
X70614047Y-54506353D01*
X70749772Y-54642078D01*
X70749683Y-54743677D01*
X70852229Y-54991857D01*
X70859360Y-54999000D01*
X70146800Y-54999000D01*
X70146800Y-52794457D01*
X70208957Y-52701432D01*
X70248440Y-52642342D01*
X70286500Y-52451000D01*
X70286500Y-52006500D01*
X70285420Y-52001073D01*
X70328693Y-51957800D01*
X70525163Y-52154270D01*
X70525163Y-52154270D01*
G37*
X70525163Y-52154270D02*
X70505660Y-52183458D01*
X70467600Y-52374800D01*
X70467600Y-54152800D01*
X70494226Y-54286658D01*
X70505660Y-54344142D01*
X70614047Y-54506353D01*
X70749772Y-54642078D01*
X70749683Y-54743677D01*
X70852229Y-54991857D01*
X70859360Y-54999000D01*
X70146800Y-54999000D01*
X70146800Y-52794457D01*
X70208957Y-52701432D01*
X70248440Y-52642342D01*
X70286500Y-52451000D01*
X70286500Y-52006500D01*
X70285420Y-52001073D01*
X70328693Y-51957800D01*
X70525163Y-52154270D01*
G36*
X68270500Y-51762126D02*
X68270500Y-51816000D01*
X68297026Y-51949356D01*
X68308560Y-52007342D01*
X68349501Y-52068613D01*
X68349383Y-52203677D01*
X68451929Y-52451857D01*
X68641644Y-52641903D01*
X68889645Y-52744883D01*
X69146800Y-52745107D01*
X69146800Y-54999000D01*
X67961606Y-54999000D01*
X67311927Y-54349321D01*
X67426950Y-54426177D01*
X67443058Y-54436940D01*
X67634400Y-54475000D01*
X67744366Y-54475000D01*
X67816144Y-54546903D01*
X68064145Y-54649883D01*
X68332677Y-54650117D01*
X68580857Y-54547571D01*
X68770903Y-54357856D01*
X68873883Y-54109855D01*
X68874117Y-53841323D01*
X68771571Y-53593143D01*
X68581856Y-53403097D01*
X68333855Y-53300117D01*
X68065323Y-53299883D01*
X67817143Y-53402429D01*
X67793018Y-53426512D01*
X67212807Y-52846301D01*
X67488246Y-52570861D01*
X67311007Y-52393621D01*
X67487783Y-52216845D01*
X67562175Y-52107970D01*
X67664559Y-52040069D01*
X67841336Y-51863292D01*
X67915728Y-51754417D01*
X68018112Y-51686516D01*
X68106501Y-51598127D01*
X68270500Y-51762126D01*
X68270500Y-51762126D01*
G37*
X68270500Y-51762126D02*
X68270500Y-51816000D01*
X68297026Y-51949356D01*
X68308560Y-52007342D01*
X68349501Y-52068613D01*
X68349383Y-52203677D01*
X68451929Y-52451857D01*
X68641644Y-52641903D01*
X68889645Y-52744883D01*
X69146800Y-52745107D01*
X69146800Y-54999000D01*
X67961606Y-54999000D01*
X67311927Y-54349321D01*
X67426950Y-54426177D01*
X67443058Y-54436940D01*
X67634400Y-54475000D01*
X67744366Y-54475000D01*
X67816144Y-54546903D01*
X68064145Y-54649883D01*
X68332677Y-54650117D01*
X68580857Y-54547571D01*
X68770903Y-54357856D01*
X68873883Y-54109855D01*
X68874117Y-53841323D01*
X68771571Y-53593143D01*
X68581856Y-53403097D01*
X68333855Y-53300117D01*
X68065323Y-53299883D01*
X67817143Y-53402429D01*
X67793018Y-53426512D01*
X67212807Y-52846301D01*
X67488246Y-52570861D01*
X67311007Y-52393621D01*
X67487783Y-52216845D01*
X67562175Y-52107970D01*
X67664559Y-52040069D01*
X67841336Y-51863292D01*
X67915728Y-51754417D01*
X68018112Y-51686516D01*
X68106501Y-51598127D01*
X68270500Y-51762126D01*
G36*
X65286000Y-47604629D02*
X65286000Y-47761685D01*
X65081685Y-47966000D01*
X65286000Y-48170315D01*
X65286000Y-48177900D01*
X65171386Y-48358007D01*
X64756854Y-48772540D01*
X64516000Y-48531685D01*
X64233157Y-48814528D01*
X63667472Y-48248843D01*
X63950315Y-47966000D01*
X63667472Y-47683157D01*
X64233157Y-47117472D01*
X64516000Y-47400315D01*
X64798843Y-47117472D01*
X65286000Y-47604629D01*
X65286000Y-47604629D01*
G37*
X65286000Y-47604629D02*
X65286000Y-47761685D01*
X65081685Y-47966000D01*
X65286000Y-48170315D01*
X65286000Y-48177900D01*
X65171386Y-48358007D01*
X64756854Y-48772540D01*
X64516000Y-48531685D01*
X64233157Y-48814528D01*
X63667472Y-48248843D01*
X63950315Y-47966000D01*
X63667472Y-47683157D01*
X64233157Y-47117472D01*
X64516000Y-47400315D01*
X64798843Y-47117472D01*
X65286000Y-47604629D01*
G36*
X67627500Y-47400315D02*
X67855315Y-47172500D01*
X67965371Y-47172500D01*
X68476028Y-47683157D01*
X68193185Y-47966000D01*
X68476028Y-48248843D01*
X68075871Y-48649000D01*
X67744815Y-48649000D01*
X67627500Y-48531685D01*
X67510185Y-48649000D01*
X67179129Y-48649000D01*
X66778972Y-48248843D01*
X67061815Y-47966000D01*
X66778972Y-47683157D01*
X67289629Y-47172500D01*
X67399685Y-47172500D01*
X67627500Y-47400315D01*
X67627500Y-47400315D01*
G37*
X67627500Y-47400315D02*
X67855315Y-47172500D01*
X67965371Y-47172500D01*
X68476028Y-47683157D01*
X68193185Y-47966000D01*
X68476028Y-48248843D01*
X68075871Y-48649000D01*
X67744815Y-48649000D01*
X67627500Y-48531685D01*
X67510185Y-48649000D01*
X67179129Y-48649000D01*
X66778972Y-48248843D01*
X67061815Y-47966000D01*
X66778972Y-47683157D01*
X67289629Y-47172500D01*
X67399685Y-47172500D01*
X67627500Y-47400315D01*
G36*
X74214528Y-36547157D02*
X73931685Y-36830000D01*
X74525584Y-37423898D01*
X74737987Y-37332380D01*
X74773293Y-37105922D01*
X74783464Y-37116093D01*
X74758301Y-43089093D01*
X74195447Y-43651947D01*
X74087060Y-43814158D01*
X74049000Y-44005500D01*
X74049000Y-44487040D01*
X74032453Y-44470464D01*
X73600747Y-44291204D01*
X73133303Y-44290796D01*
X72701285Y-44469302D01*
X72370464Y-44799547D01*
X72258828Y-45068396D01*
X72237987Y-44963620D01*
X72025584Y-44872102D01*
X71431685Y-45466000D01*
X72025584Y-46059898D01*
X72237987Y-45968380D01*
X72255585Y-45855500D01*
X72369302Y-46130715D01*
X72699547Y-46461536D01*
X73131253Y-46640796D01*
X73428838Y-46641056D01*
X72417447Y-47652447D01*
X72309060Y-47814658D01*
X72275393Y-47983915D01*
X72056812Y-47893152D01*
X71874000Y-47892993D01*
X71874000Y-46926500D01*
X71835940Y-46735158D01*
X71794073Y-46672500D01*
X71727553Y-46572946D01*
X71473553Y-46318947D01*
X71311342Y-46210560D01*
X71120000Y-46172500D01*
X71006815Y-46172500D01*
X70866000Y-46031685D01*
X70725185Y-46172500D01*
X70441129Y-46172500D01*
X70017472Y-45748843D01*
X70300315Y-45466000D01*
X70017472Y-45183157D01*
X70583157Y-44617472D01*
X70866000Y-44900315D01*
X71459898Y-44306416D01*
X71368380Y-44094013D01*
X71270492Y-44078752D01*
X71350383Y-43886355D01*
X71350473Y-43783634D01*
X72195176Y-42938931D01*
X72189798Y-42965969D01*
X72227858Y-43157311D01*
X72336245Y-43319522D01*
X72498456Y-43427909D01*
X72689798Y-43465969D01*
X72731031Y-43465969D01*
X72922373Y-43427909D01*
X73084584Y-43319522D01*
X73192971Y-43157311D01*
X73231031Y-42965969D01*
X73192971Y-42774627D01*
X73084584Y-42612416D01*
X73013612Y-42564994D01*
X73251553Y-42327053D01*
X73359940Y-42164842D01*
X73363727Y-42145804D01*
X73398000Y-41973500D01*
X73398000Y-38862000D01*
X73378182Y-38762365D01*
X73772588Y-38367959D01*
X73650046Y-38245417D01*
X73868380Y-38201987D01*
X73959898Y-37989584D01*
X73366000Y-37395685D01*
X73083157Y-37678528D01*
X72517472Y-37112843D01*
X72800315Y-36830000D01*
X72517472Y-36547157D01*
X73083157Y-35981472D01*
X73366000Y-36264315D01*
X73648843Y-35981472D01*
X74214528Y-36547157D01*
X74214528Y-36547157D01*
G37*
X74214528Y-36547157D02*
X73931685Y-36830000D01*
X74525584Y-37423898D01*
X74737987Y-37332380D01*
X74773293Y-37105922D01*
X74783464Y-37116093D01*
X74758301Y-43089093D01*
X74195447Y-43651947D01*
X74087060Y-43814158D01*
X74049000Y-44005500D01*
X74049000Y-44487040D01*
X74032453Y-44470464D01*
X73600747Y-44291204D01*
X73133303Y-44290796D01*
X72701285Y-44469302D01*
X72370464Y-44799547D01*
X72258828Y-45068396D01*
X72237987Y-44963620D01*
X72025584Y-44872102D01*
X71431685Y-45466000D01*
X72025584Y-46059898D01*
X72237987Y-45968380D01*
X72255585Y-45855500D01*
X72369302Y-46130715D01*
X72699547Y-46461536D01*
X73131253Y-46640796D01*
X73428838Y-46641056D01*
X72417447Y-47652447D01*
X72309060Y-47814658D01*
X72275393Y-47983915D01*
X72056812Y-47893152D01*
X71874000Y-47892993D01*
X71874000Y-46926500D01*
X71835940Y-46735158D01*
X71794073Y-46672500D01*
X71727553Y-46572946D01*
X71473553Y-46318947D01*
X71311342Y-46210560D01*
X71120000Y-46172500D01*
X71006815Y-46172500D01*
X70866000Y-46031685D01*
X70725185Y-46172500D01*
X70441129Y-46172500D01*
X70017472Y-45748843D01*
X70300315Y-45466000D01*
X70017472Y-45183157D01*
X70583157Y-44617472D01*
X70866000Y-44900315D01*
X71459898Y-44306416D01*
X71368380Y-44094013D01*
X71270492Y-44078752D01*
X71350383Y-43886355D01*
X71350473Y-43783634D01*
X72195176Y-42938931D01*
X72189798Y-42965969D01*
X72227858Y-43157311D01*
X72336245Y-43319522D01*
X72498456Y-43427909D01*
X72689798Y-43465969D01*
X72731031Y-43465969D01*
X72922373Y-43427909D01*
X73084584Y-43319522D01*
X73192971Y-43157311D01*
X73231031Y-42965969D01*
X73192971Y-42774627D01*
X73084584Y-42612416D01*
X73013612Y-42564994D01*
X73251553Y-42327053D01*
X73359940Y-42164842D01*
X73363727Y-42145804D01*
X73398000Y-41973500D01*
X73398000Y-38862000D01*
X73378182Y-38762365D01*
X73772588Y-38367959D01*
X73650046Y-38245417D01*
X73868380Y-38201987D01*
X73959898Y-37989584D01*
X73366000Y-37395685D01*
X73083157Y-37678528D01*
X72517472Y-37112843D01*
X72800315Y-36830000D01*
X72517472Y-36547157D01*
X73083157Y-35981472D01*
X73366000Y-36264315D01*
X73648843Y-35981472D01*
X74214528Y-36547157D01*
G36*
X67826000Y-40593107D02*
X67826000Y-42672000D01*
X67841597Y-42750413D01*
X67841383Y-42996177D01*
X67943929Y-43244357D01*
X68133644Y-43434403D01*
X68308064Y-43506829D01*
X67523985Y-44290909D01*
X67394803Y-44290796D01*
X66962785Y-44469302D01*
X66631964Y-44799547D01*
X66562847Y-44966000D01*
X66484500Y-44966000D01*
X66441627Y-44974528D01*
X66397924Y-44973552D01*
X66346871Y-44993376D01*
X66293158Y-45004060D01*
X66256811Y-45028346D01*
X66216063Y-45044169D01*
X65691077Y-45378250D01*
X65691204Y-45233303D01*
X65585245Y-44976862D01*
X66974554Y-43587553D01*
X67039526Y-43490314D01*
X67082940Y-43425342D01*
X67121000Y-43234000D01*
X67121000Y-42031656D01*
X67257429Y-41975285D01*
X67574172Y-41659093D01*
X67745804Y-41245758D01*
X67746195Y-40798205D01*
X67575285Y-40384571D01*
X67259093Y-40067828D01*
X66845758Y-39896196D01*
X66398205Y-39895805D01*
X65984571Y-40066715D01*
X65667828Y-40382907D01*
X65496196Y-40796242D01*
X65495805Y-41243795D01*
X65666715Y-41657429D01*
X65982907Y-41974172D01*
X66121000Y-42031513D01*
X66121000Y-43026893D01*
X64825606Y-44322288D01*
X64750747Y-44291204D01*
X64283303Y-44290796D01*
X63851285Y-44469302D01*
X63520464Y-44799547D01*
X63341204Y-45231253D01*
X63340796Y-45698697D01*
X63366023Y-45759750D01*
X63341250Y-45759750D01*
X63323629Y-45763255D01*
X63313044Y-45761921D01*
X63328781Y-42026325D01*
X65123554Y-40231553D01*
X65231940Y-40069342D01*
X65270000Y-39878000D01*
X65270000Y-38037106D01*
X67826000Y-40593107D01*
X67826000Y-40593107D01*
G37*
X67826000Y-40593107D02*
X67826000Y-42672000D01*
X67841597Y-42750413D01*
X67841383Y-42996177D01*
X67943929Y-43244357D01*
X68133644Y-43434403D01*
X68308064Y-43506829D01*
X67523985Y-44290909D01*
X67394803Y-44290796D01*
X66962785Y-44469302D01*
X66631964Y-44799547D01*
X66562847Y-44966000D01*
X66484500Y-44966000D01*
X66441627Y-44974528D01*
X66397924Y-44973552D01*
X66346871Y-44993376D01*
X66293158Y-45004060D01*
X66256811Y-45028346D01*
X66216063Y-45044169D01*
X65691077Y-45378250D01*
X65691204Y-45233303D01*
X65585245Y-44976862D01*
X66974554Y-43587553D01*
X67039526Y-43490314D01*
X67082940Y-43425342D01*
X67121000Y-43234000D01*
X67121000Y-42031656D01*
X67257429Y-41975285D01*
X67574172Y-41659093D01*
X67745804Y-41245758D01*
X67746195Y-40798205D01*
X67575285Y-40384571D01*
X67259093Y-40067828D01*
X66845758Y-39896196D01*
X66398205Y-39895805D01*
X65984571Y-40066715D01*
X65667828Y-40382907D01*
X65496196Y-40796242D01*
X65495805Y-41243795D01*
X65666715Y-41657429D01*
X65982907Y-41974172D01*
X66121000Y-42031513D01*
X66121000Y-43026893D01*
X64825606Y-44322288D01*
X64750747Y-44291204D01*
X64283303Y-44290796D01*
X63851285Y-44469302D01*
X63520464Y-44799547D01*
X63341204Y-45231253D01*
X63340796Y-45698697D01*
X63366023Y-45759750D01*
X63341250Y-45759750D01*
X63323629Y-45763255D01*
X63313044Y-45761921D01*
X63328781Y-42026325D01*
X65123554Y-40231553D01*
X65231940Y-40069342D01*
X65270000Y-39878000D01*
X65270000Y-38037106D01*
X67826000Y-40593107D01*
G36*
X69759550Y-36430656D02*
X69691204Y-36595253D01*
X69690796Y-37062697D01*
X69869302Y-37494715D01*
X70199547Y-37825536D01*
X70631253Y-38004796D01*
X71098697Y-38005204D01*
X71265271Y-37936377D01*
X72398000Y-39069106D01*
X72398000Y-40327186D01*
X72139093Y-40067828D01*
X71725758Y-39896196D01*
X71278205Y-39895805D01*
X70864571Y-40066715D01*
X70547828Y-40382907D01*
X70376196Y-40796242D01*
X70375805Y-41243795D01*
X70432905Y-41381988D01*
X69160757Y-42654136D01*
X69089071Y-42480643D01*
X68899356Y-42290597D01*
X68826000Y-42260137D01*
X68826000Y-40386000D01*
X68787940Y-40194658D01*
X68679553Y-40032446D01*
X67345827Y-38698720D01*
X67676588Y-38367959D01*
X67554046Y-38245417D01*
X67772380Y-38201987D01*
X67863898Y-37989584D01*
X67270000Y-37395685D01*
X66987157Y-37678528D01*
X66421472Y-37112843D01*
X66704315Y-36830000D01*
X66421472Y-36547157D01*
X66987157Y-35981472D01*
X67270000Y-36264315D01*
X67552843Y-35981472D01*
X68118528Y-36547157D01*
X67835685Y-36830000D01*
X68429584Y-37423898D01*
X68641987Y-37332380D01*
X68677293Y-37105922D01*
X68807959Y-37236588D01*
X69273677Y-36770870D01*
X68372307Y-35869500D01*
X69198394Y-35869500D01*
X69759550Y-36430656D01*
X69759550Y-36430656D01*
G37*
X69759550Y-36430656D02*
X69691204Y-36595253D01*
X69690796Y-37062697D01*
X69869302Y-37494715D01*
X70199547Y-37825536D01*
X70631253Y-38004796D01*
X71098697Y-38005204D01*
X71265271Y-37936377D01*
X72398000Y-39069106D01*
X72398000Y-40327186D01*
X72139093Y-40067828D01*
X71725758Y-39896196D01*
X71278205Y-39895805D01*
X70864571Y-40066715D01*
X70547828Y-40382907D01*
X70376196Y-40796242D01*
X70375805Y-41243795D01*
X70432905Y-41381988D01*
X69160757Y-42654136D01*
X69089071Y-42480643D01*
X68899356Y-42290597D01*
X68826000Y-42260137D01*
X68826000Y-40386000D01*
X68787940Y-40194658D01*
X68679553Y-40032446D01*
X67345827Y-38698720D01*
X67676588Y-38367959D01*
X67554046Y-38245417D01*
X67772380Y-38201987D01*
X67863898Y-37989584D01*
X67270000Y-37395685D01*
X66987157Y-37678528D01*
X66421472Y-37112843D01*
X66704315Y-36830000D01*
X66421472Y-36547157D01*
X66987157Y-35981472D01*
X67270000Y-36264315D01*
X67552843Y-35981472D01*
X68118528Y-36547157D01*
X67835685Y-36830000D01*
X68429584Y-37423898D01*
X68641987Y-37332380D01*
X68677293Y-37105922D01*
X68807959Y-37236588D01*
X69273677Y-36770870D01*
X68372307Y-35869500D01*
X69198394Y-35869500D01*
X69759550Y-36430656D01*
G36*
X72815000Y-33103000D02*
X73652581Y-33103000D01*
X73726854Y-32885966D01*
X73570692Y-32678000D01*
X73704116Y-32678000D01*
X74797553Y-33771437D01*
X74792660Y-34933000D01*
X73765002Y-34933000D01*
X73765002Y-34378000D01*
X73570692Y-34378000D01*
X73726854Y-34170034D01*
X73652581Y-33953000D01*
X72815000Y-33953000D01*
X72815000Y-34378000D01*
X71965000Y-34378000D01*
X71965000Y-33953000D01*
X71540000Y-33953000D01*
X71540000Y-33103000D01*
X71965000Y-33103000D01*
X71965000Y-32678000D01*
X72815000Y-32678000D01*
X72815000Y-33103000D01*
X72815000Y-33103000D01*
G37*
X72815000Y-33103000D02*
X73652581Y-33103000D01*
X73726854Y-32885966D01*
X73570692Y-32678000D01*
X73704116Y-32678000D01*
X74797553Y-33771437D01*
X74792660Y-34933000D01*
X73765002Y-34933000D01*
X73765002Y-34378000D01*
X73570692Y-34378000D01*
X73726854Y-34170034D01*
X73652581Y-33953000D01*
X72815000Y-33953000D01*
X72815000Y-34378000D01*
X71965000Y-34378000D01*
X71965000Y-33953000D01*
X71540000Y-33953000D01*
X71540000Y-33103000D01*
X71965000Y-33103000D01*
X71965000Y-32678000D01*
X72815000Y-32678000D01*
X72815000Y-33103000D01*
M02*
